<svg id="Layer_1" data-name="Layer 1" xmlns="http://www.w3.org/2000/svg" viewBox="0 0 421 421"><title>ns</title><circle cx="210.5" cy="210.5" r="210.5" fill="none"/><g style="isolation:isolate"><path d="M67,326.5V170.3H46v-3.9H94.1l75.7,123.7V170.3h-21v-3.9h45.9v3.9h-21v162h-8.3l-94.5-155V326.5h21v3.9H46v-3.9Z" transform="translate(-30 -47.5)" fill="#110101"/></g><g style="isolation:isolate"><path d="M208.1,159v-3.9h38.3V347.5H209.3v-3.9h17.1V159Z" transform="translate(-30 -47.5)" fill="#c33"/></g><g style="isolation:isolate"><path d="M262,347.5V155.1h38.1V159h-18V343.6h16.8v3.9Z" transform="translate(-30 -47.5)" fill="#110101"/></g><g style="isolation:isolate"><path d="M417.5,162.7q1.5,0,1.5,2.4v43.5c0,1.6-.6,2.4-1.7,2.4s-2.1-.8-2.2-2.4a56.3,56.3,0,0,0-4.1-15.1,44.5,44.5,0,0,0-8.1-13,39.4,39.4,0,0,0-12.7-9,42.2,42.2,0,0,0-17.6-3.4,49.2,49.2,0,0,0-13.1,1.8,33.6,33.6,0,0,0-11.4,5.5,27.7,27.7,0,0,0-8.2,9.4,27,27,0,0,0-3.2,13.3,25.3,25.3,0,0,0,3.9,14.1,23.4,23.4,0,0,0,11.5,9.1c4.6,1.8,8.7,3.3,12.5,4.5l10.7,3.3,10,2.7c3.3.8,6.7,1.8,10.5,2.9q16.6,5,24.3,16.2c5.1,7.6,7.7,16.8,7.7,27.7a59.2,59.2,0,0,1-4.3,22.4,56.4,56.4,0,0,1-11.6,17.9,51.7,51.7,0,0,1-17.3,11.8,53.9,53.9,0,0,1-21.7,4.3,46.3,46.3,0,0,1-12.4-1.6,64.4,64.4,0,0,1-11.2-4,57.5,57.5,0,0,1-9.5-5.4,51.7,51.7,0,0,1-7.2-5.6l-8.8,12.7c-1.1,1.6-2.2,2.5-3.2,2.5s-2.2-1.1-2.2-3.2V286.7c0-2.3.6-3.4,1.7-3.4s2.2,1,2.7,3.1a70.6,70.6,0,0,0,7.7,18.6,53.6,53.6,0,0,0,11.8,13.9,54.8,54.8,0,0,0,14.9,8.7,48.1,48.1,0,0,0,16.9,3,43.1,43.1,0,0,0,14.9-2.7,40.5,40.5,0,0,0,12.9-7.5,37.9,37.9,0,0,0,9-12.1,36.4,36.4,0,0,0,3.4-16,34.8,34.8,0,0,0-2.9-14c-1.9-4.7-5.7-8.3-11.2-10.9s-8.3-3.8-11.6-5-6.6-2.4-9.9-3.4l-10.5-3.3-13.7-4.4c-11.2-3.7-19.4-9.2-24.7-16.4a38.7,38.7,0,0,1-8-23.6,47.8,47.8,0,0,1,3.5-18.1,43.3,43.3,0,0,1,10-15.1,48.4,48.4,0,0,1,16-10.5,54.7,54.7,0,0,1,21.3-3.9,79.9,79.9,0,0,1,10.4.6,55.6,55.6,0,0,1,8.5,1.8,49.4,49.4,0,0,1,8,3.2l8.3,4.4,7-9.1C415.8,163.3,416.7,162.7,417.5,162.7Z" transform="translate(-30 -47.5)" fill="#c33"/></g></svg>