<?xml version="1.0" encoding="utf-8"?>
<!-- Generator: Adobe Illustrator 23.0.1, SVG Export Plug-In . SVG Version: 6.00 Build 0)  -->
<svg version="1.1" id="Layer_1" xmlns="http://www.w3.org/2000/svg" xmlns:xlink="http://www.w3.org/1999/xlink" x="0px" y="0px"
	 viewBox="0 0 1214 7380" style="enable-background:new 0 0 1214 7380;" xml:space="preserve">
<style type="text/css">
	.st0{fill:#E0E0E0;}
	.st1{fill:#FAFAFA;}
	.st2{fill:#EBEBEB;}
	.st3{fill:#F5F5F5;}
	.st4{fill:#FFFFFF;}
	.st5{fill:#B78876;}
	.st6{fill:#AA6550;}
	.st7{fill:#E8505B;}
	.st8{fill:#263238;}
	.st9{opacity:0.3;}
	.st10{fill:#455A64;}
	.st11{opacity:0.2;}
	.st12{opacity:0.3;fill:#FFFFFF;enable-background:new    ;}
	.st13{opacity:0.4;enable-background:new    ;}
</style>
<g id="recommendedproducts" transform="translate(-23.053 -48.029)">
	<g id="Background_Complete" transform="translate(32.536 48.029)">
		<g id="Group_10548" transform="translate(150.415 0)">
			<g id="Group_10489" transform="translate(2.628 0.011)">
				<g id="Group_10488">
					<g id="Group_10487">
						<g id="Group_10486">
							<g id="Group_10485">
								<g id="Group_10484">
									<rect id="Rectangle_1497" x="454.49" y="3662.21" class="st0" width="38.62" height="40.26"/>
								</g>
							</g>
						</g>
					</g>
				</g>
			</g>
			<g id="Group_10500">
				<g id="Group_10494" transform="translate(0.013 0.011)">
					<g id="Group_10493">
						<g id="Group_10492">
							<g id="Group_10491">
								<g id="Group_10490">
									<rect id="Rectangle_1498" x="454.49" y="3662.21" class="st1" width="38.62" height="40.26"/>
								</g>
							</g>
						</g>
					</g>
				</g>
				<g id="Group_10499">
					<g id="Group_10498">
						<g id="Group_10497">
							<g id="Group_10496">
								<g id="Group_10495">
									<path id="Path_10300" class="st0" d="M493.13,3702.49h-38.64v-40.28h38.64V3702.49z M454.52,3702.47h38.6v-40.23h-38.6
										V3702.47z"/>
								</g>
							</g>
						</g>
					</g>
				</g>
			</g>
			<g id="Group_10506" transform="translate(5.204 5.423)">
				<g id="Group_10505">
					<g id="Group_10504">
						<g id="Group_10503">
							<g id="Group_10502">
								<g id="Group_10501">
									<rect id="Rectangle_1499" x="454.49" y="3662.21" class="st1" width="28.24" height="29.43"/>
								</g>
							</g>
						</g>
					</g>
				</g>
			</g>
			<g id="Group_10513" transform="translate(0.05 35.051)">
				<g id="Group_10512">
					<g id="Group_10511">
						<g id="Group_10510">
							<g id="Group_10509">
								<g id="Group_10508">
									<g id="Group_10507">
										<path id="Path_10301" class="st0" d="M459.64,3662.21c-0.2,0.3-0.44,0.57-0.7,0.81c-0.45,0.48-1.08,1.12-1.8,1.82
											s-1.36,1.32-1.84,1.77c-0.24,0.26-0.52,0.49-0.82,0.68c0.2-0.3,0.43-0.57,0.69-0.81c0.45-0.48,1.09-1.12,1.8-1.82
											s1.37-1.33,1.85-1.77C459.07,3662.63,459.35,3662.4,459.64,3662.21z"/>
									</g>
								</g>
							</g>
						</g>
					</g>
				</g>
			</g>
			<g id="Group_10520" transform="translate(33.438 34.979)">
				<g id="Group_10519">
					<g id="Group_10518">
						<g id="Group_10517">
							<g id="Group_10516">
								<g id="Group_10515">
									<g id="Group_10514">
										<path id="Path_10302" class="st0" d="M454.49,3662.21c0.3,0.2,0.57,0.44,0.81,0.7c0.48,0.45,1.12,1.08,1.82,1.8
											s1.32,1.36,1.77,1.84c0.26,0.24,0.49,0.52,0.68,0.82c-0.3-0.2-0.57-0.43-0.81-0.69c-0.48-0.45-1.12-1.09-1.82-1.8
											c-0.7-0.71-1.33-1.37-1.77-1.85C454.91,3662.78,454.68,3662.51,454.49,3662.21z"/>
									</g>
								</g>
							</g>
						</g>
					</g>
				</g>
			</g>
			<g id="Group_10527" transform="translate(33.361 0.426)">
				<g id="Group_10526">
					<g id="Group_10525">
						<g id="Group_10524">
							<g id="Group_10523">
								<g id="Group_10522">
									<g id="Group_10521">
										<path id="Path_10303" class="st0" d="M454.49,3667.28c0.2-0.3,0.44-0.57,0.7-0.81c0.45-0.48,1.08-1.12,1.79-1.82
											s1.36-1.32,1.85-1.77c0.24-0.26,0.52-0.49,0.82-0.68c-0.2,0.3-0.43,0.57-0.69,0.81c-0.45,0.48-1.09,1.12-1.8,1.82
											c-0.71,0.7-1.37,1.33-1.85,1.77C455.06,3666.87,454.79,3667.09,454.49,3667.28z"/>
									</g>
								</g>
							</g>
						</g>
					</g>
				</g>
			</g>
			<g id="Group_10534" transform="translate(0.05 0.421)">
				<g id="Group_10533">
					<g id="Group_10532">
						<g id="Group_10531">
							<g id="Group_10530">
								<g id="Group_10529">
									<g id="Group_10528">
										<path id="Path_10304" class="st0" d="M459.57,3667.36c-0.3-0.2-0.57-0.44-0.81-0.7c-0.48-0.45-1.12-1.09-1.82-1.8
											c-0.7-0.72-1.32-1.36-1.77-1.84c-0.26-0.24-0.49-0.52-0.68-0.82c0.3,0.2,0.57,0.43,0.81,0.69
											c0.48,0.45,1.12,1.09,1.82,1.8c0.7,0.71,1.33,1.37,1.77,1.85C459.15,3666.79,459.38,3667.06,459.57,3667.36z"/>
									</g>
								</g>
							</g>
						</g>
					</g>
				</g>
			</g>
			<g id="Group_10541" transform="translate(5.079 5.299)">
				<g id="Group_10540">
					<g id="Group_10539">
						<g id="Group_10538">
							<g id="Group_10537">
								<g id="Group_10536">
									<g id="Group_10535">
										<path id="Path_10305" class="st0" d="M482.77,3691.77c0-0.05-0.01-0.1-0.01-0.14c0-0.1,0-0.24-0.01-0.41
											c0-0.37,0-0.9-0.01-1.59c-0.01-1.4-0.02-3.42-0.03-6c-0.01-5.16-0.03-12.5-0.06-21.29l0.11,0.11l-28.15,0.02l0,0
											l0.13-0.13c-0.01,10.8-0.01,20.91-0.02,29.43l-0.11-0.11l20.39,0.05l5.73,0.03l1.52,0.01l0.39,0.01
											C482.68,3691.76,482.73,3691.76,482.77,3691.77c-0.04,0-0.08,0-0.12,0l-0.38,0.01l-1.49,0.01l-5.7,0.03l-20.46,0.06h-0.11
											v-0.11c-0.01-8.52-0.01-18.63-0.02-29.43v-0.12h0.13l28.15,0.02h0.11v0.11c-0.02,8.82-0.04,16.19-0.06,21.36
											c-0.01,2.56-0.02,4.58-0.03,5.97c-0.01,0.68-0.01,1.2-0.01,1.57c0,0.17,0,0.3-0.01,0.4
											C482.78,3691.68,482.78,3691.72,482.77,3691.77z"/>
									</g>
								</g>
							</g>
						</g>
					</g>
				</g>
			</g>
			<g id="Group_10547" transform="translate(14.61 15.429)">
				<g id="Group_10546">
					<g id="Group_10545">
						<g id="Group_10544">
							<g id="Group_10543">
								<g id="Group_10542">
									<rect id="Rectangle_1500" x="454.49" y="3662.21" class="st2" width="9.42" height="9.42"/>
								</g>
							</g>
						</g>
					</g>
				</g>
			</g>
		</g>
		<g id="Group_10613" transform="translate(0.855 16.624)">
			<g id="Group_10554" transform="translate(3.693 0.017)">
				<g id="Group_10553">
					<g id="Group_10552">
						<g id="Group_10551">
							<g id="Group_10550">
								<g id="Group_10549">
									<rect id="Rectangle_1501" x="454.49" y="3662.21" class="st0" width="54.29" height="56.6"/>
								</g>
							</g>
						</g>
					</g>
				</g>
			</g>
			<g id="Group_10565">
				<g id="Group_10559" transform="translate(0.017 0.017)">
					<g id="Group_10558">
						<g id="Group_10557">
							<g id="Group_10556">
								<g id="Group_10555">
									<rect id="Rectangle_1502" x="454.49" y="3662.21" class="st1" width="54.29" height="56.6"/>
								</g>
							</g>
						</g>
					</g>
				</g>
				<g id="Group_10564">
					<g id="Group_10563">
						<g id="Group_10562">
							<g id="Group_10561">
								<g id="Group_10560">
									<path id="Path_10306" class="st0" d="M508.82,3718.84h-54.33v-56.63h54.33V3718.84z M454.52,3718.81h54.26v-56.57h-54.26
										V3718.81z"/>
								</g>
							</g>
						</g>
					</g>
				</g>
			</g>
			<g id="Group_10571" transform="translate(7.316 7.626)">
				<g id="Group_10570">
					<g id="Group_10569">
						<g id="Group_10568">
							<g id="Group_10567">
								<g id="Group_10566">
									<rect id="Rectangle_1503" x="454.49" y="3662.21" class="st1" width="39.7" height="41.38"/>
								</g>
							</g>
						</g>
					</g>
				</g>
			</g>
			<g id="Group_10578" transform="translate(0.07 49.278)">
				<g id="Group_10577">
					<g id="Group_10576">
						<g id="Group_10575">
							<g id="Group_10574">
								<g id="Group_10573">
									<g id="Group_10572">
										<path id="Path_10307" class="st0" d="M461.74,3662.21c-0.28,0.42-0.61,0.8-0.98,1.14c-0.63,0.67-1.52,1.57-2.52,2.56
											c-1,0.98-1.92,1.86-2.59,2.48c-0.34,0.36-0.73,0.68-1.15,0.95c0.28-0.42,0.61-0.8,0.97-1.13
											c0.63-0.67,1.53-1.58,2.53-2.56c1-0.99,1.92-1.86,2.6-2.49C460.94,3662.8,461.32,3662.48,461.74,3662.21z"/>
									</g>
								</g>
							</g>
						</g>
					</g>
				</g>
			</g>
			<g id="Group_10585" transform="translate(47.01 49.178)">
				<g id="Group_10584" transform="translate(0)">
					<g id="Group_10583">
						<g id="Group_10582">
							<g id="Group_10581">
								<g id="Group_10580">
									<g id="Group_10579">
										<path id="Path_10308" class="st0" d="M454.49,3662.21c0.42,0.28,0.8,0.61,1.14,0.98c0.67,0.63,1.58,1.52,2.56,2.52
											s1.86,1.92,2.48,2.59c0.36,0.34,0.68,0.73,0.96,1.15c-0.42-0.28-0.8-0.61-1.13-0.97c-0.67-0.63-1.58-1.53-2.56-2.53
											s-1.86-1.92-2.49-2.6C455.08,3663.01,454.76,3662.62,454.49,3662.21z"/>
									</g>
								</g>
							</g>
						</g>
					</g>
				</g>
			</g>
			<g id="Group_10592" transform="translate(46.902 0.598)">
				<g id="Group_10591">
					<g id="Group_10590">
						<g id="Group_10589">
							<g id="Group_10588">
								<g id="Group_10587">
									<g id="Group_10586">
										<path id="Path_10309" class="st0" d="M454.49,3669.35c0.28-0.42,0.61-0.8,0.98-1.14c0.63-0.67,1.52-1.57,2.52-2.56
											c1-0.98,1.92-1.86,2.59-2.48c0.34-0.36,0.73-0.68,1.15-0.96c-0.28,0.42-0.61,0.8-0.97,1.13
											c-0.63,0.67-1.53,1.58-2.53,2.56c-1,0.99-1.92,1.86-2.6,2.49C455.29,3668.76,454.91,3669.08,454.49,3669.35z"/>
									</g>
								</g>
							</g>
						</g>
					</g>
				</g>
			</g>
			<g id="Group_10599" transform="translate(0.07 0.592)">
				<g id="Group_10598">
					<g id="Group_10597">
						<g id="Group_10596">
							<g id="Group_10595">
								<g id="Group_10594">
									<g id="Group_10593">
										<path id="Path_10310" class="st0" d="M461.63,3669.45c-0.42-0.28-0.8-0.61-1.14-0.98c-0.67-0.63-1.57-1.53-2.56-2.52
											c-0.98-1-1.86-1.92-2.48-2.59c-0.36-0.34-0.68-0.73-0.96-1.15c0.42,0.28,0.8,0.61,1.13,0.97
											c0.67,0.63,1.58,1.53,2.56,2.53c0.99,1,1.86,1.92,2.49,2.6C461.04,3668.65,461.36,3669.04,461.63,3669.45z"/>
									</g>
								</g>
							</g>
						</g>
					</g>
				</g>
			</g>
			<g id="Group_10606" transform="translate(7.141 7.45)">
				<g id="Group_10605">
					<g id="Group_10604">
						<g id="Group_10603">
							<g id="Group_10602">
								<g id="Group_10601">
									<g id="Group_10600">
										<path id="Path_10311" class="st0" d="M494.25,3703.77c0,0-0.01-0.07-0.01-0.2c0-0.13,0-0.33-0.01-0.58
											c0-0.52-0.01-1.27-0.02-2.23c-0.01-1.96-0.02-4.81-0.04-8.43c-0.02-7.25-0.05-17.57-0.08-29.94l0.15,0.15l-39.58,0.02l0,0
											l0.18-0.18c-0.01,15.19-0.02,29.4-0.02,41.38l-0.15-0.15l28.66,0.08l8.05,0.04l2.13,0.02l0.55,0.01
											C494.13,3703.76,494.2,3703.76,494.25,3703.77c-0.05,0.01-0.11,0.01-0.17,0.01l-0.53,0.01l-2.1,0.02l-8.02,0.04
											l-28.76,0.08h-0.15v-0.15c-0.01-11.98-0.02-26.19-0.02-41.38v-0.18h0.18l39.58,0.02h0.15v0.15
											c-0.03,12.4-0.06,22.76-0.08,30.03c-0.02,3.61-0.03,6.45-0.04,8.4c-0.01,0.96-0.01,1.69-0.02,2.2
											c0,0.24-0.01,0.42-0.01,0.56C494.27,3703.64,494.26,3703.7,494.25,3703.77z"/>
									</g>
								</g>
							</g>
						</g>
					</g>
				</g>
			</g>
			<g id="Group_10612" transform="translate(20.541 21.692)">
				<g id="Group_10611">
					<g id="Group_10610">
						<g id="Group_10609">
							<g id="Group_10608">
								<g id="Group_10607">
									<rect id="Rectangle_1504" x="454.49" y="3662.21" class="st2" width="13.25" height="13.25"/>
								</g>
							</g>
						</g>
					</g>
				</g>
			</g>
		</g>
		<g id="Group_10678" transform="translate(201.422 32.848)">
			<g id="Group_10619" transform="translate(3.862 0.018)">
				<g id="Group_10618">
					<g id="Group_10617">
						<g id="Group_10616">
							<g id="Group_10615">
								<g id="Group_10614">
									<rect id="Rectangle_1505" x="454.49" y="3662.21" class="st0" width="56.77" height="59.18"/>
								</g>
							</g>
						</g>
					</g>
				</g>
			</g>
			<g id="Group_10630">
				<g id="Group_10624" transform="translate(0.018 0.018)">
					<g id="Group_10623">
						<g id="Group_10622">
							<g id="Group_10621">
								<g id="Group_10620">
									<rect id="Rectangle_1506" x="454.49" y="3662.21" class="st1" width="56.77" height="59.18"/>
								</g>
							</g>
						</g>
					</g>
				</g>
				<g id="Group_10629">
					<g id="Group_10628">
						<g id="Group_10627">
							<g id="Group_10626">
								<g id="Group_10625">
									<path id="Path_10312" class="st0" d="M511.29,3721.42h-56.8v-59.21h56.8V3721.42z M454.53,3721.39h56.73v-59.14h-56.73
										V3721.39z"/>
								</g>
							</g>
						</g>
					</g>
				</g>
			</g>
			<g id="Group_10636" transform="translate(7.649 7.973)">
				<g id="Group_10635">
					<g id="Group_10634">
						<g id="Group_10633">
							<g id="Group_10632">
								<g id="Group_10631">
									<rect id="Rectangle_1507" x="454.49" y="3662.21" class="st1" width="41.51" height="43.27"/>
								</g>
							</g>
						</g>
					</g>
				</g>
			</g>
			<g id="Group_10643" transform="translate(0.073 51.525)">
				<g id="Group_10642">
					<g id="Group_10641">
						<g id="Group_10640">
							<g id="Group_10639">
								<g id="Group_10638">
									<g id="Group_10637">
										<path id="Path_10313" class="st0" d="M462.07,3662.21c-0.29,0.44-0.64,0.84-1.02,1.19c-0.66,0.7-1.6,1.65-2.64,2.67
											c-1.04,1.03-2,1.95-2.71,2.6c-0.36,0.38-0.76,0.72-1.2,1c0.29-0.43,0.63-0.83,1.02-1.19c0.66-0.7,1.6-1.65,2.64-2.68
											s2.01-1.95,2.72-2.6C461.23,3662.83,461.63,3662.5,462.07,3662.21z"/>
									</g>
								</g>
							</g>
						</g>
					</g>
				</g>
			</g>
			<g id="Group_10650" transform="translate(49.152 51.419)">
				<g id="Group_10649">
					<g id="Group_10648">
						<g id="Group_10647">
							<g id="Group_10646">
								<g id="Group_10645">
									<g id="Group_10644">
										<path id="Path_10314" class="st0" d="M454.49,3662.21c0.43,0.29,0.83,0.64,1.19,1.02c0.7,0.66,1.65,1.59,2.67,2.64
											s1.95,2,2.6,2.71c0.38,0.36,0.71,0.76,1,1.2c-0.43-0.29-0.83-0.63-1.19-1.02c-0.7-0.66-1.65-1.6-2.68-2.65
											c-1.03-1.05-1.95-2.01-2.6-2.72C455.11,3663.05,454.78,3662.65,454.49,3662.21z"/>
									</g>
								</g>
							</g>
						</g>
					</g>
				</g>
			</g>
			<g id="Group_10657" transform="translate(49.04 0.626)">
				<g id="Group_10656">
					<g id="Group_10655">
						<g id="Group_10654">
							<g id="Group_10653">
								<g id="Group_10652">
									<g id="Group_10651">
										<path id="Path_10315" class="st0" d="M454.49,3669.67c0.29-0.44,0.64-0.84,1.02-1.19c0.66-0.7,1.59-1.65,2.64-2.68
											c1.04-1.03,2-1.94,2.71-2.6c0.36-0.38,0.76-0.72,1.2-1c-0.29,0.43-0.63,0.83-1.02,1.19c-0.66,0.7-1.6,1.65-2.64,2.68
											s-2.01,1.95-2.72,2.6C455.33,3669.05,454.93,3669.39,454.49,3669.67z"/>
									</g>
								</g>
							</g>
						</g>
					</g>
				</g>
			</g>
			<g id="Group_10664" transform="translate(0.073 0.619)">
				<g id="Group_10663">
					<g id="Group_10662">
						<g id="Group_10661">
							<g id="Group_10660">
								<g id="Group_10659">
									<g id="Group_10658">
										<path id="Path_10316" class="st0" d="M461.95,3669.79c-0.43-0.29-0.83-0.64-1.19-1.02c-0.7-0.66-1.65-1.59-2.67-2.64
											s-1.94-2-2.6-2.71c-0.38-0.36-0.71-0.76-1-1.2c0.43,0.29,0.83,0.63,1.19,1.02c0.7,0.66,1.65,1.6,2.68,2.64
											c1.03,1.05,1.95,2.01,2.6,2.72C461.33,3668.95,461.67,3669.35,461.95,3669.79z"/>
									</g>
								</g>
							</g>
						</g>
					</g>
				</g>
			</g>
			<g id="Group_10671" transform="translate(7.465 7.789)">
				<g id="Group_10670">
					<g id="Group_10669">
						<g id="Group_10668">
							<g id="Group_10667">
								<g id="Group_10666">
									<g id="Group_10665">
										<path id="Path_10317" class="st0" d="M496.07,3705.66c-0.01-0.07-0.01-0.14-0.01-0.21c0-0.15-0.01-0.35-0.01-0.6
											c0-0.54-0.01-1.32-0.02-2.34c-0.01-2.05-0.02-5.03-0.04-8.82c-0.02-7.58-0.05-18.37-0.08-31.3l0.16,0.16l-41.39,0.02l0,0
											l0.18-0.18c-0.01,15.88-0.02,30.74-0.03,43.27l-0.16-0.16l29.97,0.08l8.42,0.04l2.23,0.02l0.58,0.01
											C495.94,3705.65,496.01,3705.66,496.07,3705.66c-0.06,0.01-0.12,0.01-0.18,0.01l-0.56,0.01l-2.2,0.02l-8.38,0.04
											l-30.07,0.08h-0.16v-0.16c-0.01-12.53-0.02-27.39-0.03-43.27v-0.18h0.19l41.39,0.02h0.16v0.16
											c-0.03,12.97-0.06,23.8-0.08,31.4c-0.02,3.77-0.03,6.74-0.04,8.78c-0.01,1-0.01,1.77-0.02,2.3c0,0.25-0.01,0.44-0.01,0.59
											C496.08,3705.53,496.07,3705.59,496.07,3705.66z"/>
									</g>
								</g>
							</g>
						</g>
					</g>
				</g>
			</g>
			<g id="Group_10677" transform="translate(21.477 22.681)">
				<g id="Group_10676">
					<g id="Group_10675">
						<g id="Group_10674">
							<g id="Group_10673">
								<g id="Group_10672">
									<rect id="Rectangle_1508" x="454.49" y="3662.21" class="st2" width="13.85" height="13.85"/>
								</g>
							</g>
						</g>
					</g>
				</g>
			</g>
		</g>
		<g id="Group_10705" transform="translate(0 222.754)">
			<g id="Group_10704">
				<g id="Group_10683" transform="translate(3.74 8.102)">
					<g id="Group_10682">
						<g id="Group_10681">
							<g id="Group_10680">
								<g id="Group_10679">
									<path id="Path_10318" class="st3" d="M454.49,3662.21v28.98h89.11v-28.98H454.49z"/>
								</g>
							</g>
						</g>
					</g>
				</g>
				<g id="Group_10688">
					<g id="Group_10687">
						<g id="Group_10686">
							<g id="Group_10685">
								<g id="Group_10684">
									<path id="Path_10319" class="st0" d="M454.49,3662.21v8.1h95.97v-8.1H454.49z"/>
								</g>
							</g>
						</g>
					</g>
				</g>
				<g id="Group_10693" transform="translate(46.117)">
					<g id="Group_10692">
						<g id="Group_10691">
							<g id="Group_10690">
								<g id="Group_10689">
									<path id="Path_10320" class="st0" d="M456.36,3699.29h44.87v-28.98h3.12v-8.1h-49.86v7.35L456.36,3699.29z"/>
								</g>
							</g>
						</g>
					</g>
				</g>
				<g id="Group_10698" transform="translate(16.203 12.775)">
					<g id="Group_10697">
						<g id="Group_10696">
							<g id="Group_10695">
								<g id="Group_10694">
									<rect id="Rectangle_1509" x="454.49" y="3662.21" class="st0" width="18.07" height="4.36"/>
								</g>
							</g>
						</g>
					</g>
				</g>
				<g id="Group_10703" transform="translate(13.878 22.591)">
					<g id="Group_10702">
						<g id="Group_10701">
							<g id="Group_10700">
								<g id="Group_10699">
									<rect id="Rectangle_1510" x="454.49" y="3662.21" class="st4" width="23.21" height="9.21"/>
								</g>
							</g>
						</g>
					</g>
				</g>
			</g>
		</g>
	</g>
	<g id="Character" transform="translate(119.749 110.483)">
		<g id="Group_10788">
			<g id="Group_10712" transform="translate(0 104.417)">
				<path id="Path_10321" class="st5" d="M496.23,3670.87c0,0-1.46-6.36-7.36-6.04c-5.9,0.32-7.33,0.32-9.88,0
					c-2.55-0.32-6.5-3.39-7.61-2.43c-1.12,0.96-0.49,3.03,1.58,4.87c1.7,1.33,3.6,2.37,5.63,3.1l-7.54,1.3c0,0-6.79-3.63-8.39-2.99
					c-0.94,0.42-1.53,1.37-1.47,2.4c0,0-2.82-1.27-3.62-0.15s-0.99,1.86-0.19,2.5c0,0-0.52-0.52-1.99-0.08
					c-1.25,0.37-1.14,2.68,0,3.3l0.39,0.22c0,0,10.68,6.16,11.01,6.2c1.89,0.25,13.4-0.24,19.33-0.51c2.18-0.1,4.25,0.98,5.41,2.82
					l9.55,15.13l10.78-12.42L496.23,3670.87z"/>
				<g id="Group_10706" transform="translate(5.53 8.345)">
					<path id="Path_10322" class="st6" d="M471.33,3666c-0.57,0.17-1.16,0.3-1.75,0.39c-1.1,0.21-2.66,0.48-4.47,0.79l-0.05,0.01
						l-0.04-0.02l-2.41-1.11l-5.76-2.67l-1.74-0.83c-0.22-0.09-0.43-0.21-0.62-0.34c0.23,0.05,0.46,0.13,0.67,0.23l1.78,0.73
						l2.62,1.13l3.18,1.46l2.41,1.12l-0.09-0.01c1.81-0.29,3.38-0.52,4.49-0.68C470.14,3666.08,470.73,3666.01,471.33,3666z"/>
				</g>
				<g id="Group_10707" transform="translate(15.415 14.946)">
					<path id="Path_10323" class="st6" d="M458.8,3662.23c-1.75,0.67-3.25,1.86-4.3,3.42
						C455.21,3663.81,456.86,3662.5,458.8,3662.23z"/>
				</g>
				<g id="Group_10708" transform="translate(25.087 6.056)">
					<path id="Path_10324" class="st6" d="M461.36,3662.21c0.04,0,0.07,0.39,0.27,1.02c0.28,0.86,0.78,1.63,1.45,2.24l0.22,0.2
						l-0.29,0.05c-2.6,0.49-5.03,1.66-7.04,3.39c-0.95,0.8-1.44,1.4-1.49,1.36c0.08-0.17,0.19-0.32,0.31-0.45
						c0.32-0.38,0.66-0.75,1.02-1.09c1.21-1.12,2.61-2.02,4.14-2.65c0.96-0.4,1.97-0.68,3-0.85l-0.07,0.25
						c-0.69-0.65-1.18-1.48-1.42-2.4C461.36,3662.94,461.32,3662.57,461.36,3662.21z"/>
				</g>
				<g id="Group_10709" transform="translate(16.553 7.848)">
					<path id="Path_10325" class="st6" d="M462.83,3662.22c-1.32,0.53-2.7,0.9-4.11,1.1c-1.16,0.22-2.21,0.36-2.98,0.44
						c-0.41,0.07-0.83,0.09-1.25,0.05c-0.01-0.1,1.87-0.38,4.17-0.81l2.94-0.58C462,3662.31,462.41,3662.24,462.83,3662.22z"/>
				</g>
				<g id="Group_10710" transform="translate(2.663 11.339)">
					<path id="Path_10326" class="st6" d="M466.69,3667.07c-0.61-0.2-1.21-0.44-1.79-0.71c-1.1-0.46-2.63-1.03-4.33-1.65
						c-1.71-0.61-3.25-1.19-4.34-1.65c-0.61-0.22-1.19-0.5-1.73-0.84c0.62,0.17,1.23,0.38,1.82,0.63l4.37,1.56
						c1.71,0.61,3.24,1.23,4.32,1.74C465.59,3666.39,466.16,3666.7,466.69,3667.07z"/>
				</g>
				<g id="Group_10711" transform="translate(12.97 15.927)">
					<path id="Path_10327" class="st6" d="M459.1,3662.23c-1.44,0.66-3.06,0.82-4.61,0.46c0.01-0.09,1.05-0.04,2.31-0.17
						C458.06,3662.39,459.07,3662.14,459.1,3662.23z"/>
				</g>
			</g>
			<g id="Group_10731" transform="translate(40.975 72.414)">
				<path id="Path_10328" class="st7" d="M490.54,3673.61c0,0-9.54,5.49-11.54,22.25c-1.04,8.74-4.85,25-4.85,25l-7.83-8.8
					l-11.84,13.56c0,0,12.79,27.31,20.05,34.75s21.56,9.74,21.56,9.74l2.88-45.64L490.54,3673.61z"/>
				<path id="Path_10329" class="st7" d="M562.89,3666.07l-22.04-3.86l-28.1,1.4c0,0-23.4,9.66-22.21,10.01l-4.56,45.17l11.3,21.83
					l-2.79,46.48h77.53l-4.05-32.32l-5.07-38.95l9.63,30.15l1.46,41.12h21.59c2.28-17.91,2.99-42.78,2.99-42.78l-17.62-57.55
					c-2.41-8.02-7.73-14.84-14.92-19.14C565.04,3667,563.99,3666.48,562.89,3666.07z"/>
				<g id="Group_10713" transform="translate(35.8 34.189)">
					<path id="Path_10330" class="st8" d="M454.49,3662.21c0.03,0.07,0.04,0.15,0.05,0.23c0.03,0.17,0.07,0.39,0.13,0.68
						c0.11,0.62,0.26,1.49,0.45,2.62c0.38,2.27,0.93,5.56,1.56,9.64s1.34,8.93,2.01,14.34c0.67,5.41,1.31,11.37,1.67,17.66
						c0.03,0.58,0.07,1.17,0.1,1.71v0.01c-0.33,12.19-0.7,23.15-1.05,31.05c-0.17,3.95-0.33,7.14-0.47,9.34l-0.17,2.53
						c-0.02,0.28-0.04,0.49-0.05,0.66c0.06,0.01,0.1,0.07,0.1,0.13c-0.01,0.06-0.07,0.1-0.13,0.1s-0.1-0.07-0.1-0.13
						c0.01-0.05,0.05-0.09,0.1-0.1c0.01-0.17,0.01-0.38,0.02-0.66c0.03-0.6,0.06-1.45,0.11-2.53c0.09-2.22,0.21-5.41,0.36-9.35
						c0.28-7.91,0.62-18.86,0.95-31.05v0.01c-0.03-0.54-0.06-1.12-0.1-1.7c-0.36-6.27-0.99-12.23-1.64-17.64s-1.34-10.27-1.94-14.34
						c-0.61-4.06-1.11-7.35-1.46-9.65c-0.17-1.13-0.3-2.01-0.39-2.63c-0.04-0.29-0.07-0.51-0.09-0.68
						C454.5,3662.37,454.49,3662.29,454.49,3662.21z"/>
				</g>
				<g id="Group_10714" transform="translate(103.01 11.855)">
					<path id="Path_10331" class="st8" d="M454.91,3686.99c-0.04-0.09-0.06-0.19-0.07-0.29c-0.04-0.23-0.08-0.5-0.14-0.84
						c-0.03-0.19-0.06-0.39-0.09-0.61c-0.03-0.22-0.03-0.47-0.05-0.73c-0.05-0.59-0.07-1.18-0.06-1.78
						c0.01-0.33,0.02-0.68,0.02-1.03c0.01-0.36,0.07-0.73,0.1-1.12c0.08-0.82,0.21-1.64,0.38-2.45c0.78-3.72,2.41-7.22,4.76-10.21
						c0.51-0.65,1.06-1.27,1.64-1.86c0.27-0.27,0.52-0.55,0.79-0.8c0.27-0.24,0.53-0.46,0.78-0.68c0.45-0.39,0.91-0.76,1.4-1.1
						c0.21-0.15,0.4-0.3,0.59-0.43l0.52-0.32l0.73-0.43c0.08-0.06,0.17-0.1,0.27-0.13c0.01,0.01-0.07,0.07-0.23,0.19l-0.69,0.48
						l-0.5,0.34c-0.18,0.13-0.37,0.29-0.57,0.44c-0.47,0.35-0.92,0.73-1.36,1.12l-0.76,0.69c-0.26,0.24-0.5,0.52-0.77,0.8
						c-0.56,0.59-1.09,1.21-1.59,1.86c-2.29,2.97-3.9,6.42-4.71,10.09c-0.16,0.85-0.34,1.65-0.4,2.41c-0.04,0.38-0.1,0.75-0.12,1.1
						s-0.03,0.7-0.04,1.02c-0.03,0.59-0.02,1.17,0.01,1.76c0.01,0.26,0.01,0.5,0.03,0.72c0.02,0.22,0.04,0.42,0.06,0.6
						c0.03,0.33,0.06,0.61,0.08,0.84C454.93,3686.78,454.93,3686.89,454.91,3686.99z"/>
				</g>
				<g id="Group_10715" transform="translate(105.391 46.697)">
					<path id="Path_10332" class="st8" d="M467.15,3699.27c-0.06-0.12-0.11-0.24-0.14-0.37c-0.09-0.28-0.21-0.64-0.35-1.09
						c-0.31-0.99-0.74-2.34-1.26-4.01c-1.06-3.39-2.52-8.06-4.19-13.21s-3.23-9.8-4.48-13.11c-0.65-1.65-1.28-2.93-1.67-3.85
						c-0.2-0.46-0.34-0.81-0.44-1.06c-0.06-0.12-0.1-0.25-0.13-0.38c0.07,0.11,0.14,0.23,0.19,0.35l0.49,1.03
						c0.42,0.9,1.09,2.17,1.77,3.81c1.31,3.31,2.9,7.94,4.57,13.09c1.67,5.15,3.1,9.84,4.1,13.24c0.5,1.7,0.89,3.08,1.16,4.04
						c0.12,0.45,0.22,0.82,0.3,1.1C467.11,3699.01,467.14,3699.14,467.15,3699.27z"/>
				</g>
				<g id="Group_10716" transform="translate(119.532 81.378)">
					<path id="Path_10333" class="st8" d="M469.27,3663.16c-0.02,0.06-0.84-0.19-2.19-0.4c-3.55-0.55-7.18-0.16-10.52,1.15
						c-1.28,0.5-2.03,0.91-2.06,0.86c0.15-0.13,0.32-0.25,0.5-0.34c0.47-0.28,0.96-0.52,1.47-0.74c3.35-1.45,7.06-1.85,10.65-1.16
						c0.54,0.1,1.07,0.23,1.59,0.4C468.9,3662.98,469.09,3663.05,469.27,3663.16z"/>
				</g>
				<g id="Group_10717" transform="translate(19.647 58.691)">
					<path id="Path_10334" class="st8" d="M471.56,3682.66c-0.21-0.28-0.41-0.57-0.58-0.87c-0.38-0.55-0.95-1.35-1.7-2.28
						c-1.49-1.89-3.69-4.4-6.13-7.15s-4.65-5.25-6.21-7.1c-0.78-0.92-1.4-1.67-1.82-2.2c-0.23-0.26-0.44-0.54-0.63-0.84
						c0.26,0.23,0.5,0.49,0.72,0.76l1.9,2.14l6.28,7.03c2.44,2.76,4.61,5.29,6.07,7.22c0.58,0.76,1.13,1.54,1.63,2.36
						c0.17,0.29,0.29,0.53,0.37,0.69C471.51,3682.49,471.54,3682.57,471.56,3682.66z"/>
				</g>
				<g id="Group_10718" transform="translate(32.289 71.139)" class="st9">
					<path id="Path_10335" d="M463.23,3698.97c0.36-12.63,1.01-24.28-0.14-36.76c-0.51,11.07-4.55,24.03-8.6,34.35L463.23,3698.97z"
						/>
				</g>
				<g id="Group_10719" transform="translate(105.037 45.566)" class="st9">
					<path id="Path_10336" d="M457.87,3670.25c0,0-3.6-8.05-3.35-8.05c-0.24,15.83,2.59,31.55,8.34,46.31L457.87,3670.25z"/>
				</g>
				<g id="Group_10720" transform="translate(56.191 96.28)">
					<path id="Path_10337" class="st8" d="M496.83,3662.21c-0.14,0.1-0.28,0.2-0.43,0.27l-1.27,0.73c-1.09,0.65-2.68,1.58-4.61,2.77
						s-4.24,2.61-6.86,4.09c-2.83,1.63-5.79,3.03-8.85,4.18c-3.07,1.17-6.31,1.83-9.59,1.95c-1.44,0.01-2.87-0.19-4.25-0.6
						c-1.2-0.37-2.33-0.96-3.31-1.74c-1.45-1.12-2.49-2.68-2.97-4.44c-0.12-0.48-0.19-0.97-0.19-1.46c-0.01-0.17,0-0.34,0.03-0.51
						c0.03,0.65,0.12,1.3,0.29,1.94c0.52,1.71,1.57,3.22,2.99,4.29c0.97,0.75,2.07,1.31,3.25,1.66c1.35,0.39,2.76,0.58,4.17,0.56
						c3.24-0.14,6.44-0.8,9.48-1.96c3.04-1.15,5.99-2.53,8.81-4.14c2.62-1.46,4.93-2.87,6.89-4.02s3.55-2.07,4.67-2.68l1.3-0.68
						C496.51,3662.34,496.67,3662.27,496.83,3662.21z"/>
				</g>
				<g id="Group_10721" transform="translate(81.02 77.959)">
					<path id="Path_10338" class="st8" d="M471.9,3662.21c-0.05,0.37-0.13,0.73-0.24,1.09c-0.08,0.35-0.2,0.77-0.36,1.26
						c-0.16,0.48-0.33,1.04-0.58,1.64c-0.23,0.6-0.49,1.25-0.83,1.93c-0.3,0.69-0.7,1.4-1.1,2.15c-1.82,3.22-4.19,6.11-6.99,8.52
						c-0.66,0.54-1.27,1.07-1.89,1.5c-0.6,0.46-1.19,0.84-1.74,1.19c-0.53,0.36-1.05,0.63-1.49,0.88c-0.38,0.22-0.76,0.42-1.16,0.6
						c-0.33,0.18-0.67,0.33-1.02,0.45c0.31-0.21,0.63-0.4,0.96-0.56c0.32-0.17,0.7-0.38,1.13-0.65s0.94-0.55,1.46-0.92
						c0.53-0.35,1.11-0.75,1.7-1.21c0.61-0.44,1.21-0.97,1.86-1.51c2.76-2.42,5.1-5.27,6.93-8.45c0.41-0.74,0.81-1.43,1.12-2.12
						c0.34-0.67,0.61-1.31,0.86-1.9c0.26-0.58,0.44-1.13,0.62-1.61c0.18-0.48,0.31-0.89,0.42-1.24
						C471.64,3662.9,471.76,3662.55,471.9,3662.21z"/>
				</g>
				<g id="Group_10722" transform="translate(22.396 45.757)">
					
						<ellipse id="Ellipse_3177" transform="matrix(0.2152 -0.9766 0.9766 0.2152 -3215.7229 3326.4456)" class="st1" cx="461.77" cy="3663.96" rx="0.16" ry="7.42"/>
				</g>
				<g id="Group_10723" transform="translate(23.009 42.905)">
					<path id="Path_10339" class="st1" d="M468.39,3664.74c-0.69-0.02-1.38-0.09-2.06-0.23c-1.27-0.19-3.01-0.5-4.92-0.87l-4.9-0.96
						c-0.68-0.11-1.36-0.26-2.02-0.46c0.69,0.02,1.38,0.09,2.06,0.23c1.26,0.19,3.01,0.5,4.92,0.87l4.9,0.96
						C467.06,3664.39,467.73,3664.54,468.39,3664.74z"/>
				</g>
				<g id="Group_10724" transform="translate(40.643 45.385)">
					<path id="Path_10340" class="st1" d="M517.4,3662.73c0,0.09-14.08,0.06-31.45-0.07c-17.37-0.13-31.45-0.31-31.45-0.4
						s14.08-0.06,31.46,0.07C503.32,3662.47,517.4,3662.64,517.4,3662.73z"/>
				</g>
				<g id="Group_10725" transform="translate(39.858 48.938)">
					<path id="Path_10341" class="st1" d="M519.22,3662.37c0,0.09-14.49,0.16-32.37,0.16s-32.37-0.07-32.37-0.16
						c0-0.09,14.49-0.16,32.37-0.16S519.22,3662.28,519.22,3662.37z"/>
				</g>
				<g id="Group_10726" transform="translate(107.34 41.631)">
					<path id="Path_10342" class="st1" d="M478.12,3662.25c0-0.01,0.02-0.01,0.08-0.01c-0.03,0.07-0.06,0.02-0.1,0.04h-0.06v-0.06
						h0.08h0.2l-0.19,0.07c-1.16,0.42-6,2.06-11.71,4.24l-8.42,3.24l-2.55,0.98c-0.31,0.13-0.63,0.24-0.95,0.32
						c0.29-0.17,0.59-0.32,0.9-0.44c0.59-0.26,1.45-0.63,2.52-1.07c2.13-0.89,5.09-2.08,8.39-3.33c5.72-2.18,10.61-3.72,11.8-4
						l0.01,0.07l-0.07-0.01l0,0v-0.06h0.01h0.02h0.03c0.04,0.02,0.07-0.03,0.09,0.05C478.14,3662.26,478.12,3662.25,478.12,3662.25z
						"/>
				</g>
				<g id="Group_10727" transform="translate(105.814 37.626)">
					<path id="Path_10343" class="st1" d="M479.13,3662.21c0.03,0.09-5.46,2.01-12.27,4.29c-6.8,2.29-12.34,4.07-12.37,3.99
						c-0.03-0.09,5.46-2.01,12.27-4.29C473.57,3663.91,479.1,3662.13,479.13,3662.21z"/>
				</g>
				<g id="Group_10728" transform="translate(57.321 0.469)">
					<path id="Path_10344" class="st1" d="M485.77,3662.21c0.03,0.16,0.05,0.33,0.06,0.5c0.04,0.48,0.05,0.97,0.04,1.46
						c-0.07,1.8-0.44,3.57-1.11,5.24c-0.99,2.49-2.59,4.69-4.64,6.41c-5.26,4.23-12.62,4.68-18.35,1.12
						c-2.25-1.46-4.1-3.45-5.39-5.8c-0.86-1.58-1.45-3.29-1.74-5.06c-0.08-0.48-0.12-0.96-0.14-1.45c-0.01-0.17-0.01-0.34,0-0.51
						c0.04,0.16,0.06,0.33,0.07,0.5c0.02,0.33,0.09,0.81,0.2,1.43c0.33,1.74,0.94,3.42,1.81,4.97c1.29,2.29,3.13,4.23,5.35,5.65
						c5.64,3.45,12.83,3.01,18-1.1c2.03-1.68,3.61-3.83,4.62-6.26c0.68-1.64,1.08-3.38,1.2-5.15c0.03-0.63,0.04-1.12,0.02-1.45
						C485.76,3662.54,485.76,3662.37,485.77,3662.21z"/>
				</g>
				<g id="Group_10729" transform="translate(1.124 51.15)">
					<path id="Path_10345" class="st1" d="M465.74,3662.21c-0.08,0.21-0.19,0.42-0.33,0.6c-0.23,0.38-0.58,0.91-1.02,1.57
						c-2.34,3.4-5.01,6.55-7.98,9.42c-0.57,0.55-1.04,0.98-1.38,1.27c-0.16,0.16-0.34,0.31-0.54,0.42c0.13-0.19,0.28-0.36,0.46-0.52
						l1.3-1.34c1.1-1.13,2.59-2.72,4.14-4.55s2.88-3.56,3.81-4.83l1.11-1.5C465.43,3662.55,465.58,3662.37,465.74,3662.21z"/>
				</g>
				<g id="Group_10730" transform="translate(68.581 85.507)" class="st9">
					<path id="Path_10346" d="M468.97,3674.75c-3.16,1.8-7.42,2.08-11.22,2.18c-0.72,0.07-1.44-0.03-2.12-0.28
						c-0.69-0.27-1.14-0.93-1.14-1.67c0.08-0.86,0.93-1.41,1.73-1.74c3.07-1.27,6.52-1.2,9.74-2.01c5.5-1.38,11.11-5.31,15.39-9.02
						C478.42,3667.43,474.15,3671.76,468.97,3674.75"/>
				</g>
			</g>
			<g id="Group_10787" transform="translate(84.102)">
				<g id="Group_10782">
					<g id="Group_10780" transform="translate(3.704 13.532)">
						<g id="Group_10740">
							<g id="Group_10739">
								<g id="Group_10738">
									<g id="Group_10734">
										<g id="Group_10733">
											<g id="Group_10732">
												<path id="Path_10347" class="st5" d="M478.89,3736.35L478.89,3736.35c-7.39-0.59-13.06-6.79-12.99-14.2
													c0.03-3.52,0.07-6.33,0.07-6.33s-11.33-1.76-11.47-13.09s1.82-37.33,1.82-37.33l0,0c13.11-5.63,28.24-3.73,39.55,4.97
													l1.68,1.29l-3.45,51.55c-0.52,7.78-7.25,13.66-15.03,13.14C479.01,3736.36,478.95,3736.36,478.89,3736.35z"/>
											</g>
										</g>
									</g>
									<g id="Group_10737" transform="translate(11.43 49.258)">
										<g id="Group_10736">
											<g id="Group_10735">
												<path id="Path_10348" class="st6" d="M454.52,3666.4c5.23,0.1,10.37-1.36,14.77-4.2c0,0-3.49,8.15-14.79,7.13
													L454.52,3666.4z"/>
											</g>
										</g>
									</g>
								</g>
							</g>
						</g>
						<g id="Group_10748" transform="translate(41.223 20.837)">
							<g id="Group_10743">
								<g id="Group_10742">
									<g id="Group_10741">
										<path id="Path_10349" class="st5" d="M454.93,3662.57c0.19-0.08,7.78-2.3,7.53,5.44s-7.97,5.9-7.98,5.68
											C454.48,3673.46,454.93,3662.57,454.93,3662.57z"/>
									</g>
								</g>
							</g>
							<g id="Group_10747" transform="translate(2.451 2.534)">
								<g id="Group_10746">
									<g id="Group_10745">
										<g id="Group_10744">
											<path id="Path_10350" class="st6" d="M454.5,3668.29c0.04-0.02,0.13,0.1,0.36,0.21c0.32,0.15,0.68,0.17,1.01,0.05
												c0.83-0.27,1.56-1.55,1.64-2.95c0.04-0.66-0.07-1.33-0.32-1.94c-0.13-0.5-0.5-0.9-0.98-1.07
												c-0.32-0.09-0.66,0.05-0.81,0.35c-0.11,0.21-0.07,0.37-0.11,0.38c-0.02,0.02-0.16-0.14-0.09-0.45
												c0.05-0.19,0.16-0.36,0.32-0.48c0.22-0.15,0.49-0.22,0.75-0.17c0.64,0.15,1.16,0.62,1.37,1.25
												c0.31,0.68,0.45,1.43,0.4,2.17c-0.1,1.56-0.95,2.99-2.07,3.28c-0.42,0.11-0.87,0.02-1.23-0.25
												C454.51,3668.48,454.47,3668.3,454.5,3668.29z"/>
										</g>
									</g>
								</g>
							</g>
						</g>
						<g id="Group_10779" transform="translate(3.948 11.33)">
							<g id="Group_10778">
								<g id="Group_10771" transform="translate(0 6.101)">
									<g id="Group_10770">
										<g id="Group_10769">
											<g id="Group_10756">
												<g id="Group_10751" transform="translate(1.992 2.465)">
													<g id="Group_10750">
														<g id="Group_10749">
															<path id="Path_10351" class="st8" d="M454.49,3663.67c-0.01,0.88,0.68,1.6,1.56,1.63c0.85,0.07,1.6-0.57,1.66-1.42
																c0-0.01,0-0.03,0-0.04c0.01-0.88-0.68-1.6-1.56-1.63c-0.85-0.07-1.6,0.57-1.67,1.42
																C454.49,3663.65,454.49,3663.66,454.49,3663.67z"/>
														</g>
													</g>
												</g>
												<g id="Group_10755">
													<g id="Group_10754">
														<g id="Group_10753">
															<g id="Group_10752">
																<path id="Path_10352" class="st8" d="M454.52,3663.91c0.2,0.21,1.43-0.7,3.17-0.69c1.74-0.02,3.02,0.88,3.2,0.66
																	c0.09-0.09-0.11-0.48-0.67-0.88c-0.75-0.52-1.65-0.8-2.57-0.79c-0.9,0-1.79,0.28-2.52,0.81
																	C454.6,3663.43,454.42,3663.81,454.52,3663.91z"/>
															</g>
														</g>
													</g>
												</g>
											</g>
											<g id="Group_10764" transform="translate(17.108 0.324)">
												<g id="Group_10759" transform="translate(1.595 2.52)">
													<g id="Group_10758">
														<g id="Group_10757">
															<path id="Path_10353" class="st8" d="M454.49,3663.67c-0.01,0.88,0.68,1.6,1.56,1.63c0.85,0.07,1.6-0.57,1.66-1.42
																c0-0.01,0-0.03,0-0.04c0.01-0.88-0.68-1.6-1.56-1.63c-0.85-0.07-1.6,0.57-1.66,1.42
																C454.49,3663.65,454.49,3663.66,454.49,3663.67z"/>
														</g>
													</g>
												</g>
												<g id="Group_10763">
													<g id="Group_10762">
														<g id="Group_10761">
															<g id="Group_10760">
																<path id="Path_10354" class="st8" d="M454.52,3663.91c0.2,0.21,1.43-0.7,3.17-0.69c1.74-0.02,3.02,0.88,3.2,0.66
																	c0.09-0.09-0.11-0.48-0.67-0.88c-0.75-0.52-1.65-0.8-2.57-0.79c-0.91,0-1.79,0.28-2.52,0.81
																	C454.6,3663.43,454.42,3663.81,454.52,3663.91z"/>
															</g>
														</g>
													</g>
												</g>
											</g>
											<g id="Group_10768" transform="translate(6.383 0.431)">
												<g id="Group_10767">
													<g id="Group_10766">
														<g id="Group_10765">
															<path id="Path_10355" class="st8" d="M458.92,3676.71c-0.92-0.29-1.87-0.46-2.83-0.51
																c-0.45-0.05-0.86-0.13-0.94-0.44c-0.04-0.46,0.07-0.92,0.3-1.32l1.32-3.38c1.83-4.82,3.15-8.78,2.95-8.85
																s-1.83,3.78-3.66,8.59c-0.44,1.19-0.86,2.32-1.26,3.4c-0.28,0.54-0.36,1.15-0.23,1.74c0.13,0.32,0.4,0.56,0.73,0.65
																c0.25,0.07,0.5,0.1,0.76,0.11C457.01,3676.83,457.97,3676.83,458.92,3676.71z"/>
														</g>
													</g>
												</g>
											</g>
										</g>
									</g>
								</g>
								<g id="Group_10774" transform="translate(16.675)">
									<g id="Group_10773">
										<g id="Group_10772">
											<path id="Path_10356" class="st8" d="M454.5,3663.51c0.17,0.47,1.91,0.25,3.95,0.5c2.05,0.21,3.69,0.8,3.96,0.38
												c0.12-0.2-0.17-0.65-0.83-1.11c-1.8-1.14-4.02-1.38-6.03-0.67C454.8,3662.92,454.43,3663.29,454.5,3663.51z"/>
										</g>
									</g>
								</g>
								<g id="Group_10777" transform="translate(0.621 0.96)">
									<g id="Group_10776">
										<g id="Group_10775">
											<path id="Path_10357" class="st8" d="M454.54,3664.01c0.31,0.4,1.5-0.01,2.95-0.03c1.44-0.07,2.66,0.26,2.94-0.15
												c0.12-0.2-0.07-0.6-0.6-0.97c-1.47-0.92-3.34-0.86-4.75,0.15C454.57,3663.41,454.4,3663.82,454.54,3664.01z"/>
										</g>
									</g>
								</g>
							</g>
						</g>
					</g>
					<g id="Group_10781">
						<path id="Path_10358" class="st8" d="M454.51,3671.79c-0.16-1.43,0.42-2.84,1.54-3.74c1.18-0.86,2.81-0.74,3.84,0.29
							c-0.42-1.86,0.75-3.72,2.61-4.14c0.12-0.03,0.24-0.05,0.36-0.06c1.85-0.12,3.42,1.28,5.21,1.77c1.78,0.37,3.64,0.16,5.29-0.61
							c1.68-0.68,3.24-1.61,4.94-2.23c7.46-2.73,15.72,1.07,18.52,8.5c2.59-0.64,5.3,0.39,6.82,2.58c1.44,2.19,2.02,4.84,1.61,7.43
							c-0.24,1.74-0.68,3.44-1.3,5.08c0,0.15,0.01,0.29,0.01,0.43c-0.12,6.23-0.82,13.54-3.48,13.58c-4.63,0.07-3.53-8.65-3.53-8.65
							c-5.68-2.2-3.57-10.71-4.99-12c-1.42-1.29-4.39-4.29-16.29,1.79c-4.62,2.36-10.76,2.29-14.12,1.53
							c-0.1-0.02-0.2-0.04-0.3-0.06l-0.07-0.01c-0.04-0.01-0.06-0.03-0.1-0.04c-1.08-0.27-2.11-0.71-3.05-1.29
							c-1.12-0.64-2-1.62-2.52-2.8c-0.51-1.21-0.25-2.6,0.65-3.55C455.27,3674.51,454.69,3673.19,454.51,3671.79z"/>
					</g>
				</g>
				<path id="Path_10359" class="st6" d="M471.48,3713.46c0.24,0.7,0.58,1.37,1.01,1.98c0.44,0.61,1.12,1.01,1.87,1.08
					c0.81,0,1.56-0.41,1.99-1.09c0.42-0.68,0.62-1.47,0.56-2.27c-0.03-0.72-0.36-1.57-1.07-1.65c-0.3-0.01-0.6,0.06-0.86,0.19
					l-3.74,1.52"/>
				<g id="Group_10783" transform="translate(16.042 48.91)">
					<path id="Path_10360" class="st8" d="M456.93,3667.62c0.67,0.04,1.35-0.04,1.99-0.25c0.65-0.25,1.19-0.74,1.51-1.37
						c0.36-0.77,0.38-1.66,0.05-2.44c-0.09-0.2-0.2-0.39-0.33-0.56c-0.15-0.16-0.12-0.15-0.28-0.13c-0.15,0.04-0.4,0.16-0.6,0.24
						l-0.61,0.25c-0.8,0.32-1.52,0.61-2.13,0.83c-0.64,0.31-1.33,0.52-2.04,0.61c0.56-0.44,1.18-0.8,1.85-1.05
						c0.59-0.28,1.29-0.61,2.08-0.97l0.61-0.27c0.22-0.11,0.45-0.2,0.68-0.28c0.18-0.05,0.38-0.05,0.55,0.02
						c0.16,0.07,0.31,0.18,0.41,0.33c0.17,0.22,0.31,0.45,0.42,0.71c0.41,0.96,0.37,2.06-0.11,2.99c-0.41,0.74-1.09,1.29-1.9,1.53
						c-0.52,0.17-1.08,0.19-1.62,0.06C457.09,3667.79,456.92,3667.66,456.93,3667.62z"/>
				</g>
				<g id="Group_10784" transform="translate(7.404 10.224)">
					<path id="Path_10361" class="st10" d="M484.96,3668.75c0.05-0.46,0.05-0.91,0.01-1.37c-0.2-1.23-0.83-2.36-1.77-3.18
						c-1.42-1.2-3.25-1.8-5.1-1.68c-2.27,0.15-4.51,0.65-6.63,1.48c-1.16,0.38-2.3,0.75-3.43,1c-1.09,0.24-2.2,0.37-3.31,0.4
						c-1.89,0.05-3.77-0.2-5.58-0.73c-1.21-0.36-2.39-0.86-3.49-1.48c-0.39-0.22-0.68-0.41-0.88-0.54c-0.1-0.06-0.2-0.13-0.29-0.22
						c0.02-0.03,0.43,0.24,1.23,0.64c1.12,0.57,2.29,1.03,3.5,1.37c1.79,0.49,3.64,0.71,5.5,0.65c1.09-0.04,2.18-0.18,3.25-0.42
						c1.11-0.25,2.24-0.61,3.4-0.99c2.15-0.84,4.42-1.34,6.73-1.47c1.92-0.1,3.81,0.55,5.26,1.82c0.96,0.87,1.58,2.05,1.74,3.34
						C485.15,3667.83,485.11,3668.31,484.96,3668.75z"/>
				</g>
				<g id="Group_10785" transform="translate(39.624 13.816)">
					<path id="Path_10362" class="st10" d="M461.54,3684.3c-0.01,0-0.06-0.08-0.15-0.24c-0.09-0.16-0.21-0.4-0.35-0.72
						c-0.39-0.91-0.7-1.85-0.9-2.81c-0.3-1.44-0.4-2.91-0.29-4.38c0.22-1.77,0.55-3.53,1.01-5.26c0.45-1.7,0.45-3.49,0.01-5.2
						c-0.22-0.73-0.59-1.4-1.08-1.97c-0.45-0.49-1.01-0.85-1.63-1.07c-0.91-0.34-1.91-0.32-2.8,0.07c-0.31,0.17-0.6,0.38-0.87,0.61
						c0.2-0.31,0.48-0.56,0.81-0.72c0.91-0.45,1.97-0.52,2.93-0.18c0.67,0.21,1.27,0.59,1.76,1.1c0.54,0.59,0.94,1.3,1.17,2.07
						c0.48,1.76,0.48,3.61,0.02,5.36c-0.45,1.72-0.8,3.46-1.03,5.22c-0.12,1.44-0.05,2.89,0.22,4.31c0.18,0.96,0.45,1.9,0.79,2.81
						C461.3,3683.62,461.43,3683.96,461.54,3684.3z"/>
				</g>
				<g id="Group_10786" transform="translate(6.197 3.116)">
					<path id="Path_10363" class="st10" d="M487.25,3674.95c-0.02-0.15-0.02-0.3,0-0.46c0.01-0.33,0.03-0.76,0.05-1.3
						c0.07-1.58-0.1-3.17-0.52-4.7c-0.31-1.04-0.83-2.01-1.51-2.86c-0.77-0.97-1.84-1.68-3.04-2.01c-1.34-0.31-2.74-0.25-4.05,0.17
						c-1.42,0.45-2.78,1.07-4.05,1.84c-1.29,0.78-2.63,1.47-4.02,2.07c-1.32,0.51-2.72,0.8-4.14,0.83
						c-1.28,0.03-2.56-0.13-3.79-0.47c-1.07-0.3-2.1-0.73-3.08-1.27c-1.4-0.79-2.64-1.85-3.64-3.11c-0.28-0.34-0.52-0.7-0.74-1.08
						c-0.09-0.13-0.16-0.26-0.22-0.4c0.1,0.11,0.2,0.23,0.28,0.36c0.24,0.36,0.5,0.7,0.78,1.03c1.03,1.21,2.27,2.22,3.66,2.99
						c0.96,0.51,1.98,0.92,3.04,1.21c1.21,0.32,2.46,0.46,3.71,0.43c1.38-0.04,2.74-0.32,4.03-0.83c1.37-0.6,2.7-1.28,3.98-2.05
						c1.3-0.78,2.68-1.41,4.13-1.86c1.37-0.43,2.83-0.48,4.22-0.15c1.26,0.35,2.37,1.1,3.17,2.13c0.7,0.88,1.22,1.89,1.52,2.96
						c0.41,1.56,0.55,3.17,0.43,4.78c-0.03,0.57-0.08,1-0.11,1.3C487.31,3674.65,487.29,3674.8,487.25,3674.95z"/>
				</g>
			</g>
		</g>
	</g>
	<g id="Desk" transform="translate(25.618 307.614)">
		<g id="Group_10789" transform="translate(0 0)">
			<path id="Path_10364" class="st8" d="M738.5,3662.37c0,0.09-63.58,0.16-142,0.16c-78.44,0-142.01-0.07-142.01-0.16
				c0-0.09,63.57-0.16,142.01-0.16C674.92,3662.21,738.5,3662.28,738.5,3662.37z"/>
		</g>
	</g>
	<g id="Plant" transform="translate(117.087 264.29)">
		<g id="Group_10814" transform="translate(0 0)">
			<g id="Group_10792" transform="translate(15.989)">
				<g id="Group_10791">
					<g id="Group_10790">
						<path id="Path_10365" class="st7" d="M455.65,3680.01c1.21,1.7,3.53,1.13,4.61,0.07c0.98-1.15,1.65-2.53,1.93-4.01
							c0.93-3.3,1.87-6.77,1.14-10.13c-0.18-1.02-0.63-1.97-1.31-2.74c-0.7-0.78-1.76-1.13-2.79-0.91
							c-1.14,0.47-2.02,1.41-2.42,2.57c-1.54,3.24-2.33,6.78-2.33,10.37C454.38,3676.9,454.79,3678.57,455.65,3680.01"/>
					</g>
				</g>
			</g>
			<g id="Group_10795" transform="translate(15.989)" class="st11">
				<g id="Group_10794">
					<g id="Group_10793">
						<path id="Path_10366" d="M455.65,3680.01c1.21,1.7,3.53,1.13,4.61,0.07c0.98-1.15,1.65-2.53,1.93-4.01
							c0.93-3.3,1.87-6.77,1.14-10.13c-0.18-1.02-0.63-1.97-1.31-2.74c-0.7-0.78-1.76-1.13-2.79-0.91
							c-1.14,0.47-2.02,1.41-2.42,2.57c-1.54,3.24-2.33,6.78-2.33,10.37C454.38,3676.9,454.79,3678.57,455.65,3680.01"/>
					</g>
				</g>
			</g>
			<g id="Group_10798" transform="translate(19.363 25.455)">
				<g id="Group_10797">
					<g id="Group_10796">
						<path id="Path_10367" class="st7" d="M456.82,3663.2c2-0.95,4.26-1.24,6.44-0.82c1.19,0.1,2.31,0.59,3.19,1.4
							c0.87,0.87,0.89,2.28,0.05,3.18c-0.59,0.4-1.29,0.58-2,0.52c-1.7-0.01-3.6-0.3-4.95,0.73c-0.77,0.59-1.29,1.56-2.21,1.86
							c-0.95,0.23-1.94-0.21-2.42-1.06c-0.45-0.85-0.55-1.84-0.29-2.77C454.84,3664.94,455.65,3663.82,456.82,3663.2z"/>
					</g>
				</g>
			</g>
			<g id="Group_10801" transform="translate(0 5.613)">
				<g id="Group_10800">
					<g id="Group_10799">
						<path id="Path_10368" class="st7" d="M468.36,3676.87c1.24-1.64,1.59-3.79,0.94-5.74c-0.67-1.92-1.85-3.61-3.42-4.9
							c-1.78-1.57-3.86-2.78-6.1-3.55c-0.87-0.34-1.8-0.5-2.74-0.45c-0.95,0.06-1.8,0.58-2.29,1.4c-0.63,1.22-0.01,2.7,0.66,3.9
							c1.18,2.12,2.53,4.15,4.03,6.06c1.1,1.62,2.63,2.92,4.41,3.74c1.83,0.69,3.72,0.59,4.68-0.68"/>
					</g>
				</g>
			</g>
			<g id="Group_10805" transform="translate(17.192 27.833)">
				<g id="Group_10804">
					<g id="Group_10803">
						<g id="Group_10802">
							<path id="Path_10369" class="st8" d="M454.52,3678c0.06-0.26,0.09-0.52,0.1-0.78l0.2-2.12c0.1-1.05,0.25-2.09,0.46-3.12
								c0.27-1.25,0.64-2.49,1.11-3.68c0.46-1.19,1.08-2.32,1.86-3.34c0.63-0.83,1.44-1.51,2.36-1.99c0.63-0.32,1.3-0.53,1.99-0.63
								c0.26-0.01,0.52-0.05,0.77-0.12c-0.26-0.03-0.53-0.03-0.79-0.01c-0.72,0.06-1.43,0.25-2.08,0.55c-0.97,0.47-1.83,1.15-2.49,2
								c-0.81,1.03-1.46,2.18-1.93,3.4c-0.47,1.21-0.84,2.46-1.1,3.74c-0.2,1.04-0.33,2.1-0.4,3.16c-0.06,0.9-0.08,1.63-0.09,2.14
								C454.47,3677.47,454.48,3677.74,454.52,3678z"/>
						</g>
					</g>
				</g>
			</g>
			<g id="Group_10809" transform="translate(17.159 6.88)">
				<g id="Group_10808">
					<g id="Group_10807">
						<g id="Group_10806">
							<path id="Path_10370" class="st8" d="M454.68,3697.32c0.02-0.12,0.03-0.24,0.02-0.36c0-0.27,0-0.61-0.01-1.03
								c-0.01-0.9-0.01-2.19,0.02-3.79c0.06-3.2,0.31-7.62,0.82-12.48c0.5-4.86,1.19-9.24,1.82-12.37c0.15-0.79,0.3-1.5,0.44-2.11
								c0.14-0.61,0.25-1.16,0.36-1.59c0.1-0.41,0.17-0.74,0.23-1c0.03-0.12,0.05-0.24,0.06-0.36c-0.05,0.11-0.1,0.22-0.12,0.34
								c-0.08,0.26-0.18,0.59-0.29,0.99c-0.13,0.43-0.26,0.96-0.42,1.58c-0.15,0.62-0.32,1.32-0.49,2.11
								c-0.86,4.09-1.5,8.23-1.92,12.39c-0.51,4.87-0.72,9.3-0.72,12.51c-0.01,1.6,0.03,2.9,0.08,3.8c0.03,0.42,0.05,0.76,0.07,1.03
								C454.64,3697.08,454.65,3697.2,454.68,3697.32z"/>
						</g>
					</g>
				</g>
			</g>
			<g id="Group_10813" transform="translate(5.754 9.581)">
				<g id="Group_10812">
					<g id="Group_10811">
						<g id="Group_10810">
							<path id="Path_10371" class="st8" d="M466.06,3686.07c0.02-0.36,0.02-0.72-0.01-1.08c-0.04-0.69-0.14-1.69-0.35-2.92
								c-0.24-1.43-0.57-2.85-0.97-4.25c-0.48-1.72-1.09-3.39-1.81-5.02c-1.25-3-3.04-5.75-5.27-8.11c-0.39-0.4-0.8-0.78-1.24-1.14
								c-0.19-0.16-0.36-0.32-0.53-0.44l-0.48-0.33c-0.29-0.22-0.59-0.41-0.91-0.58c1.05,0.82,2.05,1.7,2.99,2.64
								c2.16,2.38,3.9,5.11,5.14,8.08c0.72,1.62,1.32,3.28,1.82,4.98c0.42,1.38,0.76,2.79,1.04,4.21c0.23,1.21,0.36,2.2,0.45,2.89
								C465.94,3685.36,465.99,3685.72,466.06,3686.07z"/>
						</g>
					</g>
				</g>
			</g>
		</g>
	</g>
	<g id="Features" transform="translate(23.053 76.268)">
		<g id="Group_10979" transform="translate(0 0)">
			<g id="Group_10815" transform="translate(96.756 98.815)">
				<path id="Path_10372" class="st7" d="M481.04,3697.48l-26.54-1.13v-26.55h26.55L481.04,3697.48z"/>
				<rect id="Rectangle_1511" x="465.02" y="3662.21" class="st7" width="26.55" height="26.55"/>
				<path id="Path_10373" class="st7" d="M481.04,3696.35l10.53-7.59v-26.55l-10.53,7.59V3696.35z"/>
				<path id="Path_10374" class="st7" d="M454.49,3669.8l10.52-7.59h26.55l-10.53,7.59H454.49z"/>
				<path id="Path_10375" class="st7" d="M481.04,3697.48l10.53-8.72v-26.55l-10.53,7.59V3697.48z"/>
				<path id="Path_10376" class="st12" d="M454.49,3669.8l10.52-7.59h26.55l-10.53,7.59H454.49z"/>
				<path id="Path_10377" class="st13" d="M481.04,3697.48l10.53-8.72v-26.55l-10.53,7.59V3697.48z"/>
			</g>
			<g id="Group_10842" transform="translate(92.868 94.464)">
				<g id="Group_10816" transform="translate(43.42 31.911)">
					<path id="Path_10378" class="st7" d="M455.74,3662.21c0.16,0.5,0.22,1.04,0.16,1.56l-0.07,0.13l0,0l0,0l-0.01,0.01l-0.02,0.01
						l-0.03,0.02l-0.06,0.05l-0.13,0.09l-0.24,0.17c-0.15,0.11-0.3,0.2-0.42,0.27c-0.24,0.15-0.41,0.22-0.43,0.18
						c-0.03-0.04,0.09-0.17,0.3-0.37c0.1-0.1,0.23-0.21,0.38-0.33l0.23-0.19l0.12-0.1l0.06-0.05l0.03-0.02l0.02-0.01l0.01-0.01l0,0
						l0,0c-0.03,0.06,0.07-0.13-0.06,0.13C455.53,3663.24,455.58,3662.71,455.74,3662.21z"/>
				</g>
				<g id="Group_10817" transform="translate(44.506 25.204)">
					<ellipse id="Ellipse_3178" class="st7" cx="454.65" cy="3663.89" rx="0.16" ry="1.68"/>
				</g>
				<g id="Group_10818" transform="translate(44.506 18.496)">
					<ellipse id="Ellipse_3179" class="st7" cx="454.65" cy="3663.89" rx="0.16" ry="1.68"/>
				</g>
				<g id="Group_10819" transform="translate(44.506 11.789)">
					<ellipse id="Ellipse_3180" class="st7" cx="454.65" cy="3663.89" rx="0.16" ry="1.68"/>
				</g>
				<g id="Group_10820" transform="translate(44.506 5.081)">
					<ellipse id="Ellipse_3181" class="st7" cx="454.65" cy="3663.89" rx="0.16" ry="1.68"/>
				</g>
				<g id="Group_10821" transform="translate(43.105)">
					<path id="Path_10379" class="st7" d="M454.49,3662.37c0.5-0.16,1.04-0.22,1.56-0.16c0.33,0.33,0.09,0.09,0.16,0.16l0,0v0.16
						v0.16c0,0.09-0.01,0.19-0.01,0.29c-0.01,0.19-0.02,0.35-0.04,0.5c-0.03,0.28-0.07,0.46-0.12,0.46c-0.04,0-0.09-0.18-0.11-0.46
						c-0.01-0.14-0.03-0.31-0.04-0.5c0-0.1-0.01-0.2-0.01-0.29v-0.16v-0.16l0,0c0.07,0.07-0.16-0.16,0.16,0.16
						C455.53,3662.59,455,3662.53,454.49,3662.37z"/>
				</g>
				<g id="Group_10822" transform="translate(37.105)">
					<ellipse id="Ellipse_3182" class="st7" cx="455.99" cy="3662.37" rx="1.5" ry="0.16"/>
				</g>
				<g id="Group_10823" transform="translate(31.105)">
					<ellipse id="Ellipse_3183" class="st7" cx="455.99" cy="3662.37" rx="1.5" ry="0.16"/>
				</g>
				<g id="Group_10824" transform="translate(25.104)">
					<ellipse id="Ellipse_3184" class="st7" cx="455.99" cy="3662.37" rx="1.5" ry="0.16"/>
				</g>
				<g id="Group_10825" transform="translate(19.104)">
					<ellipse id="Ellipse_3185" class="st7" cx="455.99" cy="3662.37" rx="1.5" ry="0.16"/>
				</g>
				<g id="Group_10826" transform="translate(13.224)">
					<path id="Path_10380" class="st7" d="M454.5,3662.72c-0.03-0.04,0.1-0.21,0.34-0.44l0.02-0.02l0.06,0
						c0.26-0.02,0.59-0.04,0.95-0.04c0.51-0.05,1.02,0,1.5,0.16c-0.48,0.16-0.99,0.22-1.5,0.16c-0.36,0-0.7-0.01-0.95-0.04
						l0.08-0.03C454.72,3662.66,454.53,3662.76,454.5,3662.72z"/>
				</g>
				<g id="Group_10827" transform="translate(8.499 2.308)">
					
						<ellipse id="Ellipse_3186" transform="matrix(0.7695 -0.6387 0.6387 0.7695 -2234.5876 1135.5457)" class="st7" cx="455.75" cy="3663.29" rx="1.5" ry="0.16"/>
				</g>
				<g id="Group_10828" transform="translate(3.89 6.143)">
					
						<ellipse id="Ellipse_3187" transform="matrix(0.7696 -0.6385 0.6385 0.7696 -2234.0586 1134.9832)" class="st7" cx="455.75" cy="3663.29" rx="1.5" ry="0.16"/>
				</g>
				<g id="Group_10829" transform="translate(0.318 10.084)">
					<path id="Path_10381" class="st7" d="M454.64,3664.78c-0.16-0.51-0.21-1.04-0.15-1.57c0.12-0.25,0.03-0.07,0.06-0.12l0,0l0,0
						l0,0l0.01-0.01l0.02-0.01l0.03-0.03l0.06-0.05l0.12-0.1l0.23-0.18c0.15-0.11,0.29-0.21,0.4-0.29c0.24-0.16,0.4-0.24,0.43-0.2
						c0.03,0.04-0.08,0.18-0.28,0.38c-0.1,0.1-0.22,0.22-0.36,0.34l-0.22,0.2l-0.12,0.1l-0.06,0.05l-0.03,0.03l-0.02,0.01
						l-0.01,0.01l0,0l0,0c0.03-0.05-0.06,0.12,0.06-0.12C454.86,3663.75,454.8,3664.28,454.64,3664.78z"/>
				</g>
				<g id="Group_10830" transform="translate(0.239 15.769)">
					
						<ellipse id="Ellipse_3188" transform="matrix(9.703874e-03 -1 1 9.703874e-03 -3213.3323 4082.8579)" class="st7" cx="454.67" cy="3663.76" rx="1.55" ry="0.16"/>
				</g>
				<g id="Group_10831" transform="translate(0.178 21.975)">
					
						<ellipse id="Ellipse_3189" transform="matrix(9.703874e-03 -1 1 9.703874e-03 -3213.3323 4082.8579)" class="st7" cx="454.67" cy="3663.76" rx="1.55" ry="0.16"/>
				</g>
				<g id="Group_10832" transform="translate(0.117 28.181)">
					
						<ellipse id="Ellipse_3190" transform="matrix(9.791088e-03 -1 1 9.791088e-03 -3213.3689 4082.5378)" class="st7" cx="454.67" cy="3663.76" rx="1.55" ry="0.16"/>
				</g>
				<g id="Group_10833" transform="translate(0.056 34.387)">
					
						<ellipse id="Ellipse_3191" transform="matrix(9.791088e-03 -1 1 9.791088e-03 -3213.3699 4082.5369)" class="st7" cx="454.67" cy="3663.76" rx="1.55" ry="0.16"/>
				</g>
				<g id="Group_10834" transform="translate(0 40.581)">
					<path id="Path_10382" class="st7" d="M456.23,3663.8c-0.51,0.15-1.04,0.2-1.57,0.14c-0.32-0.33-0.09-0.09-0.16-0.17l0,0v-0.16
						v-0.16c0-0.09,0.01-0.19,0.01-0.29c0.01-0.19,0.02-0.35,0.04-0.5c0.03-0.28,0.07-0.46,0.12-0.46s0.08,0.18,0.11,0.46
						c0.01,0.14,0.02,0.31,0.03,0.5c0,0.11,0,0.2,0.01,0.29v0.31l0,0c-0.07-0.07,0.16,0.16-0.16-0.16
						C455.19,3663.57,455.73,3663.63,456.23,3663.8z"/>
				</g>
				<g id="Group_10835" transform="translate(4.704 42.066)">
					
						<ellipse id="Ellipse_3192" transform="matrix(0.0165 -0.9999 0.9999 0.0165 -3213.4438 4057.9067)" class="st7" cx="455.97" cy="3662.4" rx="0.16" ry="1.48"/>
				</g>
				<g id="Group_10836" transform="translate(10.632 42.162)">
					
						<ellipse id="Ellipse_3193" transform="matrix(0.0165 -0.9999 0.9999 0.0165 -3213.4438 4057.9067)" class="st7" cx="455.97" cy="3662.4" rx="0.16" ry="1.48"/>
				</g>
				<g id="Group_10837" transform="translate(16.558 42.26)">
					
						<ellipse id="Ellipse_3194" transform="matrix(0.0163 -0.9999 0.9999 0.0163 -3213.3674 4058.6108)" class="st7" cx="455.97" cy="3662.4" rx="0.16" ry="1.48"/>
				</g>
				<g id="Group_10838" transform="translate(22.485 42.357)">
					
						<ellipse id="Ellipse_3195" transform="matrix(0.0165 -0.9999 0.9999 0.0165 -3213.4438 4057.9067)" class="st7" cx="455.97" cy="3662.4" rx="0.16" ry="1.48"/>
				</g>
				<g id="Group_10839" transform="translate(28.413 42.454)">
					
						<ellipse id="Ellipse_3196" transform="matrix(0.0165 -0.9999 0.9999 0.0165 -3213.4438 4057.9067)" class="st7" cx="455.97" cy="3662.4" rx="0.16" ry="1.48"/>
				</g>
				<g id="Group_10840" transform="translate(33.878 39.655)">
					
						<ellipse id="Ellipse_3197" transform="matrix(0.797 -0.604 0.604 0.797 -2120.0383 1018.9543)" class="st7" cx="455.77" cy="3663.23" rx="1.48" ry="0.16"/>
				</g>
				<g id="Group_10841" transform="translate(38.598 36.082)">
					
						<ellipse id="Ellipse_3198" transform="matrix(0.7973 -0.6036 0.6036 0.7973 -2118.7295 1017.6795)" class="st7" cx="455.77" cy="3663.23" rx="1.48" ry="0.16"/>
				</g>
			</g>
			<g id="Group_10852" transform="translate(84.399 50.916)">
				<g id="Group_10843" transform="translate(21.263 42.244)">
					
						<ellipse id="Ellipse_3199" transform="matrix(0.893 -0.45 0.45 0.893 -1599.7102 596.6055)" class="st7" cx="454.99" cy="3662.98" rx="0.16" ry="0.78"/>
				</g>
				<g id="Group_10844" transform="translate(18.518 36.796)">
					
						<ellipse id="Ellipse_3200" transform="matrix(0.893 -0.45 0.45 0.893 -1599.9727 596.8265)" class="st7" cx="455.32" cy="3663.64" rx="0.16" ry="1.52"/>
				</g>
				<g id="Group_10845" transform="translate(15.786 31.346)">
					
						<ellipse id="Ellipse_3201" transform="matrix(0.8932 -0.4497 0.4497 0.8932 -1598.8799 596.0941)" class="st7" cx="455.32" cy="3663.64" rx="0.16" ry="1.52"/>
				</g>
				<g id="Group_10846" transform="translate(13.045 25.899)">
					
						<ellipse id="Ellipse_3202" transform="matrix(0.8932 -0.4497 0.4497 0.8932 -1598.8795 596.094)" class="st7" cx="455.32" cy="3663.64" rx="0.16" ry="1.52"/>
				</g>
				<g id="Group_10847" transform="translate(10.295 20.449)">
					
						<ellipse id="Ellipse_3203" transform="matrix(0.8932 -0.4497 0.4497 0.8932 -1598.8795 596.094)" class="st7" cx="455.32" cy="3663.64" rx="0.16" ry="1.52"/>
				</g>
				<g id="Group_10848" transform="translate(7.559 15.006)">
					
						<ellipse id="Ellipse_3204" transform="matrix(0.8932 -0.4497 0.4497 0.8932 -1598.8795 596.094)" class="st7" cx="455.32" cy="3663.64" rx="0.16" ry="1.52"/>
				</g>
				<g id="Group_10849" transform="translate(4.817 9.559)">
					
						<ellipse id="Ellipse_3205" transform="matrix(0.8932 -0.4497 0.4497 0.8932 -1598.8795 596.094)" class="st7" cx="455.32" cy="3663.64" rx="0.16" ry="1.52"/>
				</g>
				<g id="Group_10850" transform="translate(2.068 4.11)">
					
						<ellipse id="Ellipse_3206" transform="matrix(0.8932 -0.4497 0.4497 0.8932 -1598.8795 596.094)" class="st7" cx="455.32" cy="3663.64" rx="0.16" ry="1.52"/>
				</g>
				<g id="Group_10851" transform="translate(0 0)">
					
						<ellipse id="Ellipse_3207" transform="matrix(0.8932 -0.4496 0.4496 0.8932 -1598.3492 595.6938)" class="st7" cx="454.99" cy="3662.98" rx="0.16" ry="0.78"/>
				</g>
			</g>
			<g id="Group_10860" transform="translate(55.252 102.412)">
				<g id="Group_10853" transform="translate(0 0)">
					
						<ellipse id="Ellipse_3208" transform="matrix(0.0777 -0.997 0.997 0.0777 -3231.4517 3831.7915)" class="st7" cx="455.28" cy="3662.43" rx="0.16" ry="0.78"/>
				</g>
				<g id="Group_10854" transform="translate(4.732 0.377)">
					
						<ellipse id="Ellipse_3209" transform="matrix(0.078 -0.997 0.997 0.078 -3230.8179 3831.5645)" class="st7" cx="456.09" cy="3662.5" rx="0.16" ry="1.6"/>
				</g>
				<g id="Group_10855" transform="translate(11.091 0.876)">
					
						<ellipse id="Ellipse_3210" transform="matrix(0.078 -0.997 0.997 0.078 -3230.8179 3831.5645)" class="st7" cx="456.09" cy="3662.5" rx="0.16" ry="1.6"/>
				</g>
				<g id="Group_10856" transform="translate(17.45 1.374)">
					
						<ellipse id="Ellipse_3211" transform="matrix(0.078 -0.997 0.997 0.078 -3230.8179 3831.5645)" class="st7" cx="456.09" cy="3662.5" rx="0.16" ry="1.6"/>
				</g>
				<g id="Group_10857" transform="translate(23.809 1.872)">
					
						<ellipse id="Ellipse_3212" transform="matrix(0.078 -0.997 0.997 0.078 -3230.8179 3831.5645)" class="st7" cx="456.09" cy="3662.5" rx="0.16" ry="1.6"/>
				</g>
				<g id="Group_10858" transform="translate(30.168 2.37)">
					
						<ellipse id="Ellipse_3213" transform="matrix(0.078 -0.997 0.997 0.078 -3230.8179 3831.5645)" class="st7" cx="456.09" cy="3662.5" rx="0.16" ry="1.6"/>
				</g>
				<g id="Group_10859" transform="translate(36.524 2.849)">
					
						<ellipse id="Ellipse_3214" transform="matrix(0.078 -0.997 0.997 0.078 -3231.5024 3830.6726)" class="st7" cx="455.28" cy="3662.43" rx="0.16" ry="0.78"/>
				</g>
			</g>
			<g id="Group_10863" transform="translate(43.88)">
				<g id="Group_10862">
					<circle id="Ellipse_3215" class="st4" cx="482.2" cy="3689.89" r="27.55"/>
					<g id="Group_10861">
						<path id="Path_10383" class="st7" d="M509.75,3689.89c0,0-0.02-0.15-0.04-0.45c-0.02-0.3-0.05-0.74-0.08-1.31l-0.06-0.96
							c-0.04-0.35-0.11-0.74-0.17-1.15l-0.21-1.34c-0.09-0.51-0.21-1.01-0.36-1.5c-0.64-2.58-1.67-5.04-3.05-7.31
							c-1.8-3.02-4.17-5.66-6.97-7.79l-1.19-0.88c-0.42-0.27-0.86-0.52-1.29-0.79c-0.44-0.25-0.86-0.56-1.34-0.77l-1.42-0.68
							l-0.72-0.34l-0.76-0.28l-1.54-0.56c-0.52-0.17-1.07-0.28-1.61-0.43c-0.54-0.16-1.1-0.28-1.66-0.38
							c-1.14-0.21-2.3-0.35-3.47-0.4c-0.59-0.02-1.19-0.08-1.79-0.07l-1.81,0.09c-0.3,0.02-0.61,0.02-0.92,0.06l-0.91,0.14
							c-0.61,0.1-1.23,0.17-1.84,0.3c-1.24,0.28-2.46,0.63-3.65,1.07c-1.23,0.44-2.42,0.97-3.57,1.57
							c-0.58,0.31-1.13,0.68-1.71,1.02c-0.28,0.18-0.58,0.33-0.85,0.53l-0.81,0.6c-1.09,0.81-2.13,1.69-3.11,2.64l-1.39,1.53
							l-0.35,0.39l-0.31,0.42l-0.63,0.84l-0.63,0.84l-0.55,0.9l-0.55,0.91l-0.28,0.45l-0.23,0.48l-0.93,1.93l-0.74,2.03
							c-1.88,5.61-1.88,11.68,0,17.28l0.74,2.03l0.93,1.93l0.23,0.48l0.28,0.46l0.55,0.91l0.55,0.9l0.63,0.84l0.63,0.84l0.31,0.42
							l0.35,0.39l1.39,1.53c0.98,0.95,2.01,1.83,3.11,2.64l0.81,0.6c0.27,0.2,0.57,0.35,0.85,0.53c0.57,0.34,1.13,0.71,1.71,1.02
							c1.15,0.6,2.35,1.13,3.57,1.57c1.19,0.44,2.41,0.8,3.65,1.07c0.61,0.13,1.23,0.2,1.84,0.3l0.91,0.14
							c0.3,0.04,0.61,0.04,0.92,0.06l1.81,0.09c0.6,0.01,1.2-0.05,1.79-0.07c1.16-0.05,2.32-0.19,3.47-0.4
							c0.56-0.09,1.11-0.22,1.66-0.38c0.54-0.15,1.09-0.26,1.62-0.43l1.54-0.56l0.76-0.28l0.72-0.34l1.42-0.68
							c0.48-0.21,0.9-0.52,1.34-0.77c0.43-0.27,0.87-0.52,1.29-0.79l1.19-0.88c2.8-2.12,5.17-4.77,6.98-7.78
							c1.38-2.27,2.41-4.73,3.05-7.31c0.15-0.49,0.27-0.99,0.36-1.5l0.21-1.34c0.06-0.42,0.14-0.8,0.17-1.15
							c0.02-0.35,0.04-0.68,0.06-0.96c0.04-0.57,0.06-1,0.08-1.31C509.73,3690.02,509.75,3689.88,509.75,3689.89
							c0-0.01,0,0.14,0,0.44c-0.01,0.29-0.03,0.74-0.05,1.31c-0.01,0.29-0.03,0.61-0.04,0.97c-0.03,0.35-0.1,0.74-0.16,1.16
							s-0.13,0.87-0.2,1.35c-0.09,0.51-0.2,1.01-0.35,1.51c-0.62,2.6-1.64,5.08-3.02,7.37c-1.8,3.05-4.18,5.73-6.99,7.88l-1.19,0.9
							c-0.42,0.28-0.86,0.53-1.3,0.8c-0.45,0.26-0.87,0.57-1.35,0.79l-1.43,0.69l-0.73,0.35l-0.77,0.28l-1.56,0.57
							c-0.53,0.18-1.08,0.29-1.63,0.44c-0.55,0.16-1.11,0.29-1.67,0.38c-1.16,0.22-2.33,0.36-3.5,0.41c-0.6,0.02-1.2,0.08-1.8,0.07
							l-1.83-0.09c-0.31-0.02-0.62-0.02-0.93-0.06l-0.92-0.14c-0.62-0.1-1.24-0.17-1.86-0.3c-1.26-0.28-2.49-0.64-3.7-1.08
							c-1.24-0.44-2.45-0.97-3.62-1.58c-0.59-0.32-1.15-0.69-1.73-1.03c-0.28-0.18-0.59-0.34-0.86-0.54l-0.82-0.61
							c-1.11-0.82-2.16-1.71-3.15-2.67l-1.41-1.55l-0.35-0.39l-0.32-0.42l-0.64-0.85l-0.64-0.85l-0.56-0.91l-0.56-0.92l-0.28-0.46
							l-0.24-0.49l-0.94-1.96l-0.75-2.05c-1.91-5.67-1.91-11.81,0-17.49l0.75-2.05l0.94-1.95l0.24-0.48l0.28-0.46l0.56-0.92
							l0.56-0.91l0.64-0.85l0.64-0.85l0.32-0.42l0.36-0.39l1.41-1.55c0.99-0.96,2.04-1.85,3.14-2.67l0.82-0.61
							c0.27-0.2,0.57-0.36,0.86-0.54c0.58-0.34,1.14-0.71,1.73-1.03c1.17-0.61,2.38-1.14,3.61-1.58c1.21-0.44,2.44-0.8,3.7-1.08
							c0.62-0.13,1.25-0.2,1.86-0.3l0.92-0.14c0.31-0.04,0.62-0.04,0.92-0.06l1.83-0.09c0.61-0.01,1.21,0.05,1.8,0.07
							c1.17,0.06,2.34,0.2,3.5,0.41c0.57,0.09,1.12,0.22,1.67,0.38c0.55,0.15,1.1,0.27,1.63,0.44l1.56,0.57l0.77,0.28l0.73,0.35
							l1.43,0.69c0.48,0.22,0.9,0.53,1.35,0.78c0.44,0.27,0.88,0.53,1.3,0.8l1.19,0.9c2.82,2.15,5.19,4.82,6.99,7.87
							c1.38,2.29,2.39,4.78,3.02,7.37c0.14,0.5,0.26,1,0.35,1.51c0.07,0.48,0.14,0.93,0.2,1.35c0.06,0.42,0.13,0.8,0.16,1.16
							c0.01,0.35,0.03,0.68,0.04,0.97c0.02,0.57,0.04,1,0.05,1.31C509.75,3689.75,509.75,3689.89,509.75,3689.89z"/>
					</g>
				</g>
			</g>
			<g id="Group_10952" transform="translate(56.881 5.533)">
				<g id="Group_10949" transform="translate(0 9.373)">
					<g id="Group_10870">
						<g id="Group_10869">
							<g id="Group_10868">
								<g id="Group_10867">
									<g id="Group_10866">
										<g id="Group_10865">
											<circle id="Ellipse_3216" class="st3" cx="468.39" cy="3676.19" r="13.86"/>
											<g id="Group_10864">
												<path id="Path_10384" class="st8" d="M454.55,3675.28c0.01,0.07,0.02,0.15,0.01,0.23c0,0.17,0,0.38,0.01,0.66v0.49
													c0.01,0.18,0.03,0.37,0.05,0.58c0.03,0.49,0.1,0.97,0.2,1.44c0.24,1.31,0.68,2.58,1.3,3.76
													c3.01,5.86,9.75,8.77,16.08,6.92c1.27-0.35,2.48-0.91,3.58-1.64c0.57-0.37,1.12-0.78,1.64-1.22
													c0.51-0.47,1-0.97,1.44-1.5c0.92-1.09,1.67-2.32,2.2-3.64c1.12-2.74,1.32-5.77,0.57-8.63c-0.36-1.38-0.93-2.7-1.71-3.9
													c-0.72-1.17-1.64-2.22-2.7-3.1c-1-0.87-2.12-1.57-3.34-2.09c-6.03-2.65-13.09-0.65-16.85,4.75
													c-0.77,1.09-1.37,2.29-1.78,3.55c-0.16,0.46-0.29,0.92-0.39,1.4c-0.05,0.21-0.1,0.4-0.13,0.57
													c-0.03,0.18-0.04,0.33-0.06,0.48l-0.09,0.65c-0.01,0.07-0.02,0.15-0.04,0.22c0-0.08,0-0.15,0.01-0.23
													c0.02-0.16,0.04-0.38,0.06-0.66c0.01-0.15,0.03-0.31,0.05-0.49s0.07-0.37,0.11-0.58c0.08-0.48,0.21-0.96,0.36-1.42
													c0.39-1.29,0.98-2.51,1.75-3.62c2.26-3.32,5.83-5.5,9.81-6c2.49-0.3,5.01,0.07,7.3,1.07c1.24,0.53,2.4,1.24,3.42,2.13
													c1.09,0.89,2.02,1.96,2.77,3.16c0.79,1.23,1.39,2.57,1.75,3.99c0.78,2.93,0.57,6.03-0.58,8.83
													c-0.55,1.35-1.31,2.61-2.26,3.72c-0.89,1.09-1.96,2.03-3.16,2.77c-1.13,0.74-2.37,1.3-3.67,1.66
													c-2.41,0.69-4.95,0.73-7.38,0.1c-3.88-1.01-7.14-3.64-8.94-7.23c-0.61-1.2-1.04-2.49-1.26-3.82
													c-0.09-0.48-0.15-0.97-0.17-1.46c-0.01-0.21-0.04-0.41-0.04-0.59s0.01-0.34,0.02-0.49c0.01-0.28,0.02-0.5,0.03-0.66
													C454.53,3675.42,454.54,3675.35,454.55,3675.28z"/>
											</g>
										</g>
									</g>
								</g>
							</g>
						</g>
					</g>
					<g id="Group_10876" transform="translate(13.728 6.24)">
						<g id="Group_10875">
							<g id="Group_10874">
								<g id="Group_10873">
									<g id="Group_10872">
										<g id="Group_10871">
											<path id="Path_10385" class="st8" d="M460.95,3670.38c-0.16,0.03-0.33,0.04-0.49,0.03l-1.35,0.03
												c-1.14,0.02-2.74,0.03-4.53,0.03h-0.09v-0.09c0-0.29,0-0.59,0-0.9c0-2.01,0.01-3.83,0.03-5.14
												c0.01-0.63,0.02-1.16,0.03-1.56c0-0.19,0.01-0.38,0.04-0.57c0.03,0.19,0.04,0.38,0.04,0.57c0.01,0.4,0.02,0.92,0.03,1.56
												c0.02,1.32,0.03,3.13,0.03,5.14c0,0.31,0,0.61,0,0.9l-0.09-0.09c1.8,0,3.39,0.01,4.53,0.03l1.35,0.03
												C460.63,3670.34,460.79,3670.35,460.95,3670.38z"/>
										</g>
									</g>
								</g>
							</g>
						</g>
					</g>
					<g id="Group_10882" transform="translate(13.77 2.398)">
						<g id="Group_10881">
							<g id="Group_10880">
								<g id="Group_10879">
									<g id="Group_10878">
										<g id="Group_10877">
											<ellipse id="Ellipse_3217" class="st8" cx="454.58" cy="3663.37" rx="0.09" ry="1.16"/>
										</g>
									</g>
								</g>
							</g>
						</g>
					</g>
					<g id="Group_10888" transform="translate(18.489 4.2)">
						<g id="Group_10887" transform="translate(0 0)">
							<g id="Group_10886">
								<g id="Group_10885">
									<g id="Group_10884">
										<g id="Group_10883">
											
												<ellipse id="Ellipse_3218" transform="matrix(0.7071 -0.7071 0.7071 0.7071 -2456.8184 1394.8838)" class="st8" cx="455.36" cy="3663.08" rx="1.15" ry="0.09"/>
										</g>
									</g>
								</g>
							</g>
						</g>
					</g>
					<g id="Group_10894" transform="translate(21.908 8.297)">
						<g id="Group_10893">
							<g id="Group_10892">
								<g id="Group_10891">
									<g id="Group_10890">
										<g id="Group_10889">
											<path id="Path_10386" class="st8" d="M456.45,3662.22c-0.62,0.45-1.27,0.85-1.96,1.19
												C455.05,3662.87,455.72,3662.46,456.45,3662.22z"/>
										</g>
									</g>
								</g>
							</g>
						</g>
					</g>
					<g id="Group_10900" transform="translate(22.859 14.201)">
						<g id="Group_10899">
							<g id="Group_10898">
								<g id="Group_10897">
									<g id="Group_10896">
										<g id="Group_10895">
											<ellipse id="Ellipse_3219" class="st8" cx="456.08" cy="3662.3" rx="1.59" ry="0.09"/>
										</g>
									</g>
								</g>
							</g>
						</g>
					</g>
					<g id="Group_10906" transform="translate(1.015 13.989)">
						<g id="Group_10905">
							<g id="Group_10904">
								<g id="Group_10903">
									<g id="Group_10902">
										<g id="Group_10901">
											<ellipse id="Ellipse_3220" class="st8" cx="455.99" cy="3662.3" rx="1.5" ry="0.09"/>
										</g>
									</g>
								</g>
							</g>
						</g>
					</g>
					<g id="Group_10912" transform="translate(3.139 18.466)">
						<g id="Group_10911" transform="translate(0 0)">
							<g id="Group_10910" transform="translate(0)">
								<g id="Group_10909" transform="translate(0)">
									<g id="Group_10908">
										<g id="Group_10907">
											
												<ellipse id="Ellipse_3221" transform="matrix(0.779 -0.627 0.627 0.779 -2196.1716 1095.2833)" class="st8" cx="455.74" cy="3663.24" rx="1.53" ry="0.09"/>
										</g>
									</g>
								</g>
							</g>
						</g>
					</g>
					<g id="Group_10918" transform="translate(7.82 21.982)">
						<g id="Group_10917">
							<g id="Group_10916">
								<g id="Group_10915">
									<g id="Group_10914">
										<g id="Group_10913">
											<path id="Path_10387" class="st8" d="M456.08,3662.21c-0.5,0.9-1.03,1.78-1.59,2.65
												C454.85,3663.88,455.39,3662.98,456.08,3662.21z"/>
										</g>
									</g>
								</g>
							</g>
						</g>
					</g>
					<g id="Group_10924" transform="translate(13.771 23.253)">
						<g id="Group_10923">
							<g id="Group_10922">
								<g id="Group_10921">
									<g id="Group_10920">
										<g id="Group_10919">
											<ellipse id="Ellipse_3222" class="st8" cx="454.58" cy="3663.8" rx="0.09" ry="1.59"/>
										</g>
									</g>
								</g>
							</g>
						</g>
					</g>
					<g id="Group_10930" transform="translate(18.327 22.24)">
						<g id="Group_10929">
							<g id="Group_10928">
								<g id="Group_10927">
									<g id="Group_10926">
										<g id="Group_10925">
											<path id="Path_10388" class="st8" d="M456.87,3664.28c-0.94-0.5-1.76-1.21-2.38-2.07c0.41,0.32,0.81,0.67,1.18,1.04
												C456.09,3663.57,456.49,3663.92,456.87,3664.28z"/>
										</g>
									</g>
								</g>
							</g>
						</g>
					</g>
					<g id="Group_10936" transform="translate(21.878 18.813)">
						<g id="Group_10935" transform="translate(0 0)">
							<g id="Group_10934" transform="translate(0 0)">
								<g id="Group_10933" transform="translate(0 0)">
									<g id="Group_10932">
										<g id="Group_10931">
											
												<ellipse id="Ellipse_3223" transform="matrix(0.7071 -0.7071 0.7071 0.7071 -2456.8906 1395.0612)" class="st8" cx="455.54" cy="3663.26" rx="0.09" ry="1.4"/>
										</g>
									</g>
								</g>
							</g>
						</g>
					</g>
					<g id="Group_10942" transform="translate(3.629 8.015)">
						<g id="Group_10941" transform="translate(0 0)">
							<g id="Group_10940" transform="translate(0 0)">
								<g id="Group_10939">
									<g id="Group_10938">
										<g id="Group_10937">
											
												<ellipse id="Ellipse_3224" transform="matrix(0.7071 -0.7071 0.7071 0.7071 -2456.8396 1394.938)" class="st8" cx="455.42" cy="3663.14" rx="0.09" ry="1.22"/>
										</g>
									</g>
								</g>
							</g>
						</g>
					</g>
					<g id="Group_10948" transform="translate(7.631 3.878)">
						<g id="Group_10947" transform="translate(0 0)">
							<g id="Group_10946" transform="translate(0 0)">
								<g id="Group_10945">
									<g id="Group_10944">
										<g id="Group_10943">
											
												<ellipse id="Ellipse_3225" transform="matrix(0.7056 -0.7086 0.7086 0.7056 -2461.6333 1401.1006)" class="st8" cx="455.4" cy="3663.12" rx="0.09" ry="1.2"/>
										</g>
									</g>
								</g>
							</g>
						</g>
					</g>
				</g>
				<g id="Group_10951" transform="translate(20.36)">
					<circle id="Ellipse_3226" class="st7" cx="461.76" cy="3669.48" r="7.27"/>
					<g id="Group_10950" transform="translate(3.782 5.003)">
						<path id="Path_10389" class="st1" d="M461.47,3662.21c-0.25,0.42-0.55,0.81-0.89,1.17c-0.58,0.69-1.4,1.63-2.32,2.66
							l-0.74,0.82l-0.11,0.12l-0.12-0.1c-0.83-0.74-1.54-1.4-2.04-1.88c-0.29-0.24-0.54-0.51-0.76-0.81c0.33,0.18,0.63,0.4,0.9,0.66
							c0.54,0.44,1.28,1.07,2.12,1.8l-0.22,0.01l0.73-0.83c0.92-1.02,1.77-1.94,2.39-2.59
							C460.72,3662.85,461.08,3662.51,461.47,3662.21z"/>
					</g>
				</g>
			</g>
			<g id="Group_10958" transform="translate(72.009 136.491)">
				<g id="Group_10953" transform="translate(18.608 0)">
					
						<ellipse id="Ellipse_3227" transform="matrix(0.7431 -0.6691 0.6691 0.7431 -2334.2119 1245.9215)" class="st7" cx="455.76" cy="3663.38" rx="1.56" ry="0.16"/>
				</g>
				<g id="Group_10954" transform="translate(13.94 4.18)">
					
						<ellipse id="Ellipse_3228" transform="matrix(0.7431 -0.6691 0.6691 0.7431 -2334.2119 1245.9215)" class="st7" cx="455.76" cy="3663.38" rx="1.56" ry="0.16"/>
				</g>
				<g id="Group_10955" transform="translate(9.286 8.364)">
					
						<ellipse id="Ellipse_3229" transform="matrix(0.7436 -0.6687 0.6687 0.7436 -2332.6929 1244.1704)" class="st7" cx="455.76" cy="3663.38" rx="1.56" ry="0.16"/>
				</g>
				<g id="Group_10956" transform="translate(4.637 12.548)">
					
						<ellipse id="Ellipse_3230" transform="matrix(0.7431 -0.6691 0.6691 0.7431 -2334.2119 1245.9215)" class="st7" cx="455.76" cy="3663.38" rx="1.56" ry="0.16"/>
				</g>
				<g id="Group_10957" transform="translate(0 16.736)">
					
						<ellipse id="Ellipse_3231" transform="matrix(0.7431 -0.6691 0.6691 0.7431 -2334.2119 1245.9215)" class="st7" cx="455.76" cy="3663.38" rx="1.56" ry="0.16"/>
				</g>
			</g>
			<g id="Group_10968" transform="translate(27.548 150.086)">
				<g id="Group_10960">
					<circle id="Ellipse_3232" class="st4" cx="482.2" cy="3689.89" r="27.55"/>
					<g id="Group_10959">
						<path id="Path_10390" class="st7" d="M509.75,3689.89c0,0-0.02-0.15-0.04-0.45c-0.02-0.29-0.05-0.74-0.08-1.31
							c-0.02-0.29-0.04-0.61-0.06-0.96c-0.04-0.35-0.11-0.74-0.17-1.15l-0.21-1.34c-0.09-0.51-0.21-1.01-0.36-1.5
							c-0.64-2.58-1.67-5.04-3.05-7.31c-1.8-3.02-4.17-5.66-6.98-7.78l-1.19-0.88c-0.42-0.27-0.85-0.52-1.29-0.79
							c-0.44-0.25-0.86-0.56-1.34-0.77l-1.42-0.68l-0.72-0.34l-0.76-0.28l-1.54-0.56c-0.52-0.17-1.07-0.29-1.62-0.43
							c-0.54-0.16-1.1-0.28-1.66-0.38c-1.14-0.21-2.3-0.35-3.47-0.4c-0.59-0.02-1.19-0.08-1.79-0.07l-1.81,0.09
							c-0.3,0.02-0.61,0.02-0.91,0.06l-0.91,0.14c-0.61,0.1-1.23,0.17-1.84,0.3c-1.24,0.28-2.46,0.63-3.66,1.07
							c-1.23,0.44-2.42,0.97-3.57,1.57c-0.58,0.31-1.13,0.68-1.71,1.02c-0.28,0.18-0.58,0.33-0.85,0.53l-0.81,0.6
							c-1.09,0.81-2.13,1.69-3.11,2.64l-1.39,1.54l-0.35,0.39l-0.32,0.42l-0.63,0.84l-0.63,0.84l-0.55,0.9l-0.55,0.91l-0.28,0.46
							l-0.23,0.48c-0.31,0.64-0.62,1.28-0.93,1.93c-0.25,0.67-0.49,1.35-0.74,2.03c-1.88,5.61-1.88,11.68,0,17.28l0.74,2.03
							l0.93,1.93l0.23,0.48l0.28,0.46l0.55,0.91l0.55,0.9l0.63,0.84l0.63,0.84l0.31,0.42l0.35,0.39l1.39,1.53
							c0.98,0.95,2.01,1.83,3.11,2.64l0.81,0.6c0.27,0.2,0.57,0.35,0.85,0.53c0.57,0.34,1.13,0.71,1.71,1.02
							c1.15,0.6,2.35,1.13,3.57,1.57c1.19,0.44,2.41,0.8,3.65,1.07c0.61,0.13,1.23,0.2,1.84,0.3l0.91,0.14
							c0.3,0.04,0.61,0.04,0.92,0.06l1.81,0.09c0.6,0.01,1.2-0.05,1.79-0.07c1.16-0.05,2.32-0.19,3.47-0.4
							c0.56-0.09,1.11-0.22,1.66-0.38c0.54-0.15,1.09-0.26,1.62-0.43l1.54-0.56l0.76-0.28l0.72-0.34l1.42-0.68
							c0.48-0.22,0.89-0.52,1.34-0.77c0.44-0.25,0.87-0.52,1.29-0.79l1.19-0.88c2.8-2.12,5.17-4.77,6.98-7.78
							c1.38-2.27,2.41-4.73,3.05-7.31c0.15-0.49,0.27-0.99,0.36-1.5l0.21-1.34c0.06-0.42,0.14-0.8,0.17-1.15
							c0.02-0.35,0.04-0.67,0.06-0.96c0.04-0.57,0.06-1,0.08-1.31C509.73,3690.03,509.75,3689.89,509.75,3689.89
							c0-0.01,0,0.15-0.01,0.44c-0.01,0.3-0.03,0.74-0.05,1.31c-0.01,0.29-0.03,0.61-0.04,0.97c-0.03,0.35-0.1,0.74-0.16,1.16
							c-0.06,0.42-0.13,0.87-0.2,1.35c-0.09,0.51-0.2,1.01-0.35,1.51c-0.62,2.6-1.64,5.08-3.01,7.37c-1.8,3.05-4.18,5.73-6.99,7.88
							l-1.19,0.9c-0.42,0.28-0.86,0.53-1.3,0.8c-0.44,0.27-0.87,0.57-1.35,0.78l-1.43,0.69l-0.73,0.35l-0.77,0.28l-1.56,0.57
							c-0.53,0.18-1.08,0.29-1.63,0.44c-0.55,0.16-1.11,0.29-1.67,0.38c-1.16,0.22-2.33,0.36-3.5,0.41c-0.6,0.02-1.2,0.08-1.8,0.07
							l-1.83-0.09c-0.31-0.02-0.62-0.02-0.93-0.06l-0.92-0.14c-0.62-0.1-1.24-0.17-1.86-0.3c-1.26-0.28-2.49-0.64-3.7-1.08
							c-1.24-0.44-2.45-0.97-3.62-1.58c-0.59-0.32-1.15-0.69-1.73-1.03c-0.28-0.18-0.59-0.33-0.86-0.54l-0.82-0.61
							c-1.11-0.82-2.16-1.71-3.15-2.67l-1.41-1.55l-0.36-0.39l-0.32-0.42l-0.64-0.85l-0.64-0.85l-0.56-0.91l-0.56-0.92l-0.28-0.46
							l-0.24-0.48l-0.94-1.95l-0.75-2.05c-1.91-5.67-1.91-11.81,0-17.49l0.75-2.05c0.31-0.65,0.63-1.31,0.94-1.95l0.24-0.48
							l0.28-0.46l0.56-0.92l0.56-0.91l0.64-0.85l0.64-0.85l0.32-0.42l0.35-0.39l1.41-1.55c0.99-0.96,2.04-1.85,3.14-2.67l0.82-0.61
							c0.27-0.2,0.57-0.36,0.86-0.54c0.58-0.34,1.14-0.71,1.73-1.03c1.17-0.61,2.38-1.14,3.61-1.58c1.21-0.44,2.44-0.8,3.7-1.08
							c0.62-0.13,1.25-0.2,1.86-0.3l0.92-0.14c0.31-0.04,0.62-0.04,0.92-0.06l1.83-0.09c0.61-0.01,1.21,0.05,1.8,0.07
							c1.17,0.06,2.34,0.2,3.5,0.41c0.57,0.09,1.12,0.22,1.67,0.38c0.55,0.15,1.1,0.26,1.63,0.44l1.56,0.57l0.77,0.28l0.73,0.35
							l1.43,0.69c0.48,0.22,0.9,0.53,1.35,0.78c0.44,0.27,0.88,0.53,1.3,0.8l1.19,0.9c2.82,2.15,5.19,4.82,6.99,7.87
							c1.38,2.29,2.39,4.78,3.02,7.37c0.14,0.5,0.26,1,0.35,1.51l0.2,1.35c0.06,0.42,0.13,0.8,0.16,1.16
							c0.02,0.35,0.03,0.68,0.04,0.97c0.02,0.57,0.04,1,0.05,1.31C509.75,3689.75,509.75,3689.89,509.75,3689.89z"/>
					</g>
				</g>
				<g id="Group_10967" transform="translate(13.89 15.18)">
					<g id="Group_10962">
						<g id="Group_10961">
							<path id="Path_10391" class="st8" d="M482.13,3687.04c-0.18,0.03-0.35,0.04-0.53,0.03l-1.52,0.03l-5.6,0.06l-18.49,0.05h-1.5
								v-0.17c0.02-6.91,0.04-13.1,0.05-17.61c0.02-2.21,0.04-4.01,0.05-5.29c0.01-0.6,0.02-1.07,0.03-1.43
								c0-0.17,0.01-0.33,0.03-0.5c0.03,0.17,0.04,0.33,0.03,0.5c0.01,0.36,0.02,0.84,0.03,1.43c0.01,1.28,0.03,3.08,0.05,5.29
								c0.01,4.51,0.03,10.7,0.05,17.61l-0.17-0.17h1.32l18.49,0.05l5.6,0.06l1.52,0.03C481.77,3687,481.95,3687.01,482.13,3687.04z
								"/>
						</g>
					</g>
					<g id="Group_10964" transform="translate(2.732 6.023)">
						<g id="Group_10963">
							<path id="Path_10392" class="st8" d="M476.35,3662.21c-0.25,0.28-0.53,0.54-0.82,0.78l-2.32,2.04
								c-1.97,1.71-4.7,4.05-7.74,6.61l-0.46,0.39l-0.12,0.1l-0.11-0.1l-3.44-3.2l0.21,0l-5.05,4.17l-1.47,1.17
								c-0.17,0.15-0.35,0.28-0.55,0.39c0.14-0.17,0.3-0.33,0.48-0.47l1.41-1.24l4.97-4.26l0.11-0.09l0.11,0.1l3.46,3.18l-0.23,0
								l0.46-0.39c3.03-2.57,5.79-4.88,7.8-6.54l2.39-1.95C475.72,3662.64,476.03,3662.41,476.35,3662.21z"/>
						</g>
					</g>
					<g id="Group_10966" transform="translate(18.104 5.715)">
						<g id="Group_10965">
							<path id="Path_10393" class="st8" d="M460.97,3668.27c-0.1-0.57-0.14-1.14-0.12-1.71c-0.03-1.06-0.05-2.54-0.05-4.18
								l0.17,0.17h-0.3c-1.71,0-3.26-0.02-4.38-0.05c-0.61,0.02-1.21-0.02-1.81-0.12c0.6-0.1,1.21-0.14,1.81-0.12
								c1.12-0.03,2.67-0.05,4.38-0.05h0.47v0.17c0,1.64-0.02,3.11-0.05,4.18C461.1,3667.13,461.07,3667.71,460.97,3668.27z"/>
						</g>
					</g>
				</g>
			</g>
			<g id="Group_10978" transform="translate(0 72.933)">
				<g id="Group_10970">
					<circle id="Ellipse_3233" class="st4" cx="482.2" cy="3689.89" r="27.55"/>
					<g id="Group_10969">
						<path id="Path_10394" class="st7" d="M509.75,3689.89c0,0-0.02-0.15-0.04-0.45c-0.02-0.3-0.05-0.74-0.08-1.31l-0.06-0.96
							c-0.04-0.35-0.11-0.73-0.17-1.15l-0.21-1.34c-0.09-0.51-0.21-1.01-0.36-1.5c-0.64-2.58-1.67-5.04-3.05-7.31
							c-1.8-3.02-4.17-5.66-6.98-7.79l-1.19-0.88c-0.42-0.27-0.86-0.52-1.29-0.79c-0.44-0.25-0.86-0.56-1.34-0.77l-1.42-0.68
							l-0.72-0.34l-0.76-0.28l-1.54-0.56c-0.52-0.17-1.07-0.29-1.61-0.43c-0.54-0.16-1.1-0.28-1.66-0.38
							c-1.14-0.21-2.3-0.35-3.47-0.4c-0.59-0.02-1.19-0.08-1.79-0.07l-1.81,0.09c-0.3,0.02-0.61,0.02-0.92,0.06l-0.91,0.14
							c-0.61,0.1-1.23,0.17-1.84,0.3c-1.24,0.28-2.46,0.64-3.65,1.07c-1.23,0.44-2.42,0.97-3.57,1.57
							c-0.58,0.31-1.13,0.68-1.71,1.02c-0.28,0.18-0.58,0.33-0.85,0.53l-0.81,0.6c-1.09,0.81-2.13,1.69-3.11,2.64l-1.39,1.53
							l-0.35,0.39l-0.32,0.42l-0.63,0.84l-0.63,0.84l-0.55,0.9l-0.55,0.91l-0.28,0.45l-0.24,0.48l-0.93,1.93
							c-0.25,0.67-0.49,1.35-0.74,2.03c-1.88,5.61-1.88,11.68,0,17.28l0.74,2.03l0.93,1.93l0.23,0.48l0.28,0.46l0.55,0.91l0.55,0.9
							l0.63,0.84l0.63,0.84l0.32,0.42l0.35,0.39l1.39,1.53c0.98,0.95,2.01,1.83,3.11,2.64l0.81,0.6c0.27,0.2,0.57,0.36,0.85,0.54
							c0.57,0.34,1.13,0.7,1.71,1.02c2.29,1.19,4.72,2.08,7.23,2.64c0.61,0.13,1.23,0.2,1.84,0.3l0.91,0.14
							c0.3,0.04,0.61,0.04,0.92,0.06l1.81,0.09c0.6,0.01,1.2-0.05,1.79-0.07c1.16-0.05,2.32-0.19,3.47-0.4
							c0.56-0.09,1.11-0.22,1.66-0.38c0.54-0.15,1.09-0.26,1.61-0.43l1.54-0.56l0.76-0.28l0.72-0.34l1.42-0.68
							c0.48-0.22,0.9-0.52,1.34-0.77c0.43-0.27,0.87-0.52,1.29-0.79l1.19-0.88c2.8-2.12,5.17-4.77,6.98-7.78
							c1.38-2.27,2.41-4.73,3.05-7.31c0.15-0.49,0.27-0.99,0.36-1.5l0.21-1.34c0.06-0.42,0.14-0.8,0.17-1.15l0.06-0.96
							c0.04-0.57,0.06-1,0.08-1.31C509.73,3690.03,509.75,3689.89,509.75,3689.89c0,0,0,0.15-0.01,0.44
							c-0.01,0.29-0.03,0.74-0.05,1.31c-0.01,0.29-0.03,0.61-0.04,0.97c-0.03,0.35-0.1,0.74-0.16,1.16
							c-0.06,0.42-0.13,0.87-0.2,1.35c-0.09,0.51-0.2,1.01-0.35,1.51c-0.62,2.6-1.64,5.08-3.02,7.37c-1.8,3.05-4.18,5.73-6.99,7.88
							l-1.19,0.9c-0.42,0.28-0.86,0.53-1.3,0.8c-0.44,0.26-0.87,0.57-1.35,0.79l-1.43,0.69l-0.73,0.35l-0.77,0.28l-1.56,0.57
							c-0.53,0.18-1.08,0.29-1.63,0.44c-0.55,0.16-1.11,0.29-1.67,0.38c-1.16,0.22-2.33,0.36-3.5,0.41c-0.6,0.02-1.2,0.08-1.8,0.07
							l-1.83-0.09c-0.31-0.02-0.62-0.02-0.92-0.06l-0.92-0.14c-0.62-0.1-1.24-0.17-1.86-0.3c-1.26-0.28-2.49-0.64-3.7-1.08
							c-1.24-0.44-2.45-0.97-3.62-1.58c-0.59-0.32-1.15-0.69-1.73-1.03c-0.28-0.18-0.59-0.34-0.86-0.54l-0.82-0.61
							c-1.1-0.82-2.15-1.71-3.14-2.66l-1.41-1.55l-0.35-0.39l-0.32-0.42l-0.64-0.85l-0.64-0.85l-0.56-0.91l-0.56-0.92l-0.28-0.46
							l-0.24-0.49l-0.94-1.95l-0.75-2.05c-1.91-5.67-1.91-11.81,0-17.49l0.75-2.05l0.94-1.95l0.24-0.48l0.28-0.46l0.56-0.92
							l0.56-0.91l0.64-0.85l0.63-0.85l0.32-0.42l0.35-0.39l1.41-1.55c0.99-0.96,2.04-1.85,3.14-2.67l0.82-0.61
							c0.27-0.2,0.57-0.36,0.86-0.54c0.58-0.34,1.14-0.71,1.73-1.03c1.17-0.61,2.38-1.14,3.61-1.58c1.21-0.44,2.44-0.8,3.7-1.08
							c0.62-0.13,1.25-0.2,1.86-0.3l0.92-0.14c0.31-0.04,0.62-0.04,0.92-0.06l1.83-0.09c0.61-0.01,1.21,0.05,1.8,0.07
							c1.17,0.06,2.34,0.2,3.5,0.41c0.57,0.09,1.12,0.22,1.67,0.38c0.55,0.15,1.1,0.26,1.63,0.44l1.56,0.57l0.77,0.28l0.73,0.35
							l1.43,0.69c0.48,0.22,0.9,0.53,1.35,0.79c0.44,0.27,0.88,0.53,1.3,0.8l1.19,0.9c2.82,2.15,5.19,4.82,7,7.87
							c1.38,2.29,2.39,4.78,3.02,7.37c0.14,0.5,0.26,1,0.35,1.51c0.07,0.48,0.14,0.93,0.2,1.35c0.06,0.42,0.13,0.8,0.16,1.16
							c0.02,0.35,0.03,0.68,0.04,0.97c0.02,0.57,0.04,1.01,0.05,1.31C509.75,3689.74,509.75,3689.89,509.75,3689.89z"/>
					</g>
				</g>
				<g id="Group_10975">
					<g id="Group_10972" transform="translate(15.993 15.236)">
						<path id="Path_10395" class="st1" d="M466.92,3662.68l2.98,6.05c0.11,0.23,0.33,0.39,0.58,0.42l6.67,0.97
							c0.42,0.06,0.72,0.46,0.66,0.88c-0.02,0.17-0.1,0.32-0.23,0.44l-4.83,4.71c-0.18,0.18-0.27,0.44-0.22,0.69l1.14,6.65
							c0.07,0.42-0.21,0.82-0.63,0.9c-0.17,0.03-0.34,0-0.49-0.08l-5.97-3.14c-0.23-0.12-0.5-0.12-0.72,0l-5.97,3.14
							c-0.38,0.2-0.85,0.05-1.05-0.33c-0.08-0.15-0.11-0.32-0.08-0.49l1.14-6.65c0.04-0.25-0.04-0.51-0.22-0.69l-4.83-4.71
							c-0.31-0.3-0.31-0.79-0.01-1.1c0.12-0.12,0.27-0.2,0.44-0.23l6.67-0.97c0.25-0.04,0.47-0.2,0.58-0.42l2.98-6.05
							c0.19-0.38,0.65-0.55,1.03-0.36C466.72,3662.4,466.85,3662.52,466.92,3662.68z"/>
						<g id="Group_10971">
							<path id="Path_10396" class="st8" d="M466.92,3662.68c-0.01,0.01-0.04-0.06-0.13-0.16c-0.28-0.3-0.76-0.32-1.06-0.03
								c-0.08,0.08-0.15,0.17-0.19,0.28l-0.58,1.21l-1.6,3.31l-0.49,1l-0.26,0.53c-0.11,0.2-0.3,0.35-0.52,0.41
								c-0.83,0.14-1.66,0.25-2.56,0.39l-2.8,0.42l-1.48,0.23c-0.35,0.09-0.56,0.43-0.47,0.78c0.02,0.09,0.06,0.17,0.12,0.25
								l4.85,4.71c0.27,0.24,0.38,0.6,0.29,0.95l-0.15,0.9c-0.1,0.6-0.21,1.21-0.31,1.83c-0.21,1.23-0.42,2.49-0.64,3.77
								c-0.07,0.26,0.04,0.54,0.27,0.69c0.11,0.07,0.24,0.1,0.37,0.09c0.14-0.02,0.28-0.07,0.4-0.15l1.77-0.93l3.61-1.9l0.46-0.24
								c0.19-0.09,0.4-0.12,0.61-0.07c0.18,0.05,0.35,0.13,0.51,0.23l0.45,0.24l1.79,0.94l3.5,1.84c0.24,0.11,0.53,0.04,0.7-0.16
								c0.09-0.09,0.14-0.21,0.15-0.34c0-0.15-0.02-0.29-0.05-0.43c-0.11-0.63-0.21-1.25-0.32-1.87c-0.21-1.23-0.41-2.44-0.61-3.62
								c-0.05-0.29-0.1-0.59-0.15-0.88c-0.06-0.34,0.06-0.69,0.33-0.91l1.23-1.2l2.36-2.29l1.12-1.09c0.28-0.23,0.32-0.64,0.09-0.92
								c-0.05-0.06-0.11-0.11-0.17-0.15c-0.21-0.08-0.44-0.13-0.67-0.14l-0.71-0.11l-1.37-0.2l-2.55-0.38l-1.17-0.18
								c-0.19-0.02-0.38-0.06-0.57-0.1c-0.2-0.07-0.36-0.2-0.47-0.37l-1.61-3.32l-1-2.1l-0.25-0.55
								C466.97,3662.81,466.95,3662.75,466.92,3662.68c0.05,0.06,0.08,0.12,0.11,0.18l0.28,0.54l1.06,2.07l1.65,3.28
								c0.09,0.14,0.22,0.24,0.37,0.29c0.15,0.04,0.36,0.06,0.54,0.09l1.17,0.16l2.55,0.36l1.37,0.19l0.71,0.1
								c0.26,0.02,0.51,0.07,0.75,0.17c0.26,0.14,0.43,0.41,0.46,0.7c0.03,0.3-0.09,0.59-0.31,0.78l-1.12,1.1l-2.35,2.3l-1.23,1.2
								c-0.2,0.15-0.3,0.41-0.25,0.65c0.05,0.29,0.1,0.58,0.15,0.88c0.2,1.18,0.41,2.38,0.63,3.61c0.11,0.62,0.21,1.24,0.32,1.87
								c0.04,0.17,0.06,0.34,0.05,0.52c-0.02,0.19-0.1,0.38-0.23,0.52c-0.27,0.3-0.7,0.4-1.07,0.24l-3.53-1.85l-1.8-0.94l-0.45-0.24
								c-0.13-0.08-0.28-0.15-0.42-0.2c-0.13-0.03-0.28-0.01-0.4,0.05l-0.45,0.24l-3.61,1.9l-1.77,0.93
								c-0.16,0.1-0.34,0.16-0.52,0.19c-0.2,0.02-0.4-0.03-0.57-0.14c-0.34-0.21-0.51-0.62-0.42-1.01l0.66-3.76
								c0.11-0.62,0.21-1.22,0.32-1.83c0.05-0.3,0.1-0.6,0.16-0.9c0.07-0.25-0.01-0.52-0.2-0.68l-4.85-4.76
								c-0.2-0.25-0.25-0.58-0.15-0.87c0.1-0.29,0.35-0.51,0.65-0.58l1.5-0.22l2.81-0.4l2.54-0.36c0.17-0.05,0.31-0.16,0.4-0.31
								l0.26-0.52l0.5-1l1.65-3.29l0.61-1.2c0.14-0.33,0.47-0.53,0.82-0.5c0.21,0.02,0.41,0.12,0.54,0.28
								C466.87,3662.54,466.9,3662.6,466.92,3662.68z"/>
						</g>
					</g>
					<g id="Group_10974">
						<circle id="Ellipse_3234" class="st4" cx="482.2" cy="3689.89" r="27.55"/>
						<g id="Group_10973">
							<path id="Path_10397" class="st7" d="M509.75,3689.89c0,0-0.02-0.15-0.04-0.45c-0.02-0.3-0.05-0.74-0.08-1.31l-0.06-0.96
								c-0.04-0.35-0.11-0.73-0.17-1.15l-0.21-1.34c-0.09-0.51-0.21-1.01-0.36-1.5c-0.64-2.58-1.67-5.04-3.05-7.31
								c-1.8-3.02-4.17-5.66-6.98-7.79l-1.19-0.88c-0.42-0.27-0.86-0.52-1.29-0.79c-0.44-0.25-0.86-0.56-1.34-0.77l-1.42-0.68
								l-0.72-0.34l-0.76-0.28l-1.54-0.56c-0.52-0.17-1.07-0.29-1.61-0.43c-0.54-0.16-1.1-0.28-1.66-0.38
								c-1.14-0.21-2.3-0.35-3.47-0.4c-0.59-0.02-1.19-0.08-1.79-0.07l-1.81,0.09c-0.3,0.02-0.61,0.02-0.92,0.06l-0.91,0.14
								c-0.61,0.1-1.23,0.17-1.84,0.3c-1.24,0.28-2.46,0.64-3.65,1.07c-1.23,0.44-2.42,0.97-3.57,1.57
								c-0.58,0.31-1.13,0.68-1.71,1.02c-0.28,0.18-0.58,0.33-0.85,0.53l-0.81,0.6c-1.09,0.81-2.13,1.69-3.11,2.64l-1.39,1.53
								l-0.35,0.39l-0.32,0.42l-0.63,0.84l-0.63,0.84l-0.55,0.9l-0.55,0.91l-0.28,0.45l-0.24,0.48l-0.93,1.93
								c-0.25,0.67-0.49,1.35-0.74,2.03c-1.88,5.61-1.88,11.68,0,17.28l0.74,2.03l0.93,1.93l0.23,0.48l0.28,0.46l0.55,0.91l0.55,0.9
								l0.63,0.84l0.63,0.84l0.32,0.42l0.35,0.39l1.39,1.53c0.98,0.95,2.01,1.83,3.11,2.64l0.81,0.6c0.27,0.2,0.57,0.36,0.85,0.54
								c0.57,0.34,1.13,0.7,1.71,1.02c2.29,1.19,4.72,2.08,7.23,2.64c0.61,0.13,1.23,0.2,1.84,0.3l0.91,0.14
								c0.3,0.04,0.61,0.04,0.92,0.06l1.81,0.09c0.6,0.01,1.2-0.05,1.79-0.07c1.16-0.05,2.32-0.19,3.47-0.4
								c0.56-0.09,1.11-0.22,1.66-0.38c0.54-0.15,1.09-0.26,1.61-0.43l1.54-0.56l0.76-0.28l0.72-0.34l1.42-0.68
								c0.48-0.22,0.9-0.52,1.34-0.77c0.43-0.27,0.87-0.52,1.29-0.79l1.19-0.88c2.8-2.12,5.17-4.77,6.98-7.78
								c1.38-2.27,2.41-4.73,3.05-7.31c0.15-0.49,0.27-0.99,0.36-1.5l0.21-1.34c0.06-0.42,0.14-0.8,0.17-1.15l0.06-0.96
								c0.04-0.57,0.06-1,0.08-1.31C509.73,3690.03,509.75,3689.89,509.75,3689.89c0,0,0,0.15-0.01,0.44
								c-0.01,0.29-0.03,0.74-0.05,1.31c-0.01,0.29-0.03,0.61-0.04,0.97c-0.03,0.35-0.1,0.74-0.16,1.16
								c-0.06,0.42-0.13,0.87-0.2,1.35c-0.09,0.51-0.2,1.01-0.35,1.51c-0.62,2.6-1.64,5.08-3.02,7.37c-1.8,3.05-4.18,5.73-6.99,7.88
								l-1.19,0.9c-0.42,0.28-0.86,0.53-1.3,0.8c-0.44,0.26-0.87,0.57-1.35,0.79l-1.43,0.69l-0.73,0.35l-0.77,0.28l-1.56,0.57
								c-0.53,0.18-1.08,0.29-1.63,0.44c-0.55,0.16-1.11,0.29-1.67,0.38c-1.16,0.22-2.33,0.36-3.5,0.41c-0.6,0.02-1.2,0.08-1.8,0.07
								l-1.83-0.09c-0.31-0.02-0.62-0.02-0.92-0.06l-0.92-0.14c-0.62-0.1-1.24-0.17-1.86-0.3c-1.26-0.28-2.49-0.64-3.7-1.08
								c-1.24-0.44-2.45-0.97-3.62-1.58c-0.59-0.32-1.15-0.69-1.73-1.03c-0.28-0.18-0.59-0.34-0.86-0.54l-0.82-0.61
								c-1.1-0.82-2.15-1.71-3.14-2.66l-1.41-1.55l-0.35-0.39l-0.32-0.42l-0.64-0.85l-0.64-0.85l-0.56-0.91l-0.56-0.92l-0.28-0.46
								l-0.24-0.49l-0.94-1.95l-0.75-2.05c-1.91-5.67-1.91-11.81,0-17.49l0.75-2.05l0.94-1.95l0.24-0.48l0.28-0.46l0.56-0.92
								l0.56-0.91l0.64-0.85l0.63-0.85l0.32-0.42l0.35-0.39l1.41-1.55c0.99-0.96,2.04-1.85,3.14-2.67l0.82-0.61
								c0.27-0.2,0.57-0.36,0.86-0.54c0.58-0.34,1.14-0.71,1.73-1.03c1.17-0.61,2.38-1.14,3.61-1.58c1.21-0.44,2.44-0.8,3.7-1.08
								c0.62-0.13,1.25-0.2,1.86-0.3l0.92-0.14c0.31-0.04,0.62-0.04,0.92-0.06l1.83-0.09c0.61-0.01,1.21,0.05,1.8,0.07
								c1.17,0.06,2.34,0.2,3.5,0.41c0.57,0.09,1.12,0.22,1.67,0.38c0.55,0.15,1.1,0.26,1.63,0.44l1.56,0.57l0.77,0.28l0.73,0.35
								l1.43,0.69c0.48,0.22,0.9,0.53,1.35,0.79c0.44,0.27,0.88,0.53,1.3,0.8l1.19,0.9c2.82,2.15,5.19,4.82,7,7.87
								c1.38,2.29,2.39,4.78,3.02,7.37c0.14,0.5,0.26,1,0.35,1.51c0.07,0.48,0.14,0.93,0.2,1.35c0.06,0.42,0.13,0.8,0.16,1.16
								c0.02,0.35,0.03,0.68,0.04,0.97c0.02,0.57,0.04,1.01,0.05,1.31C509.75,3689.74,509.75,3689.89,509.75,3689.89z"/>
						</g>
					</g>
				</g>
				<g id="Group_10977" transform="translate(15.993 15.236)">
					<path id="Path_10398" class="st1" d="M466.92,3662.68l2.98,6.05c0.11,0.23,0.33,0.39,0.58,0.42l6.67,0.97
						c0.42,0.06,0.72,0.46,0.66,0.88c-0.02,0.17-0.1,0.32-0.23,0.44l-4.83,4.71c-0.18,0.18-0.27,0.44-0.22,0.69l1.14,6.65
						c0.07,0.42-0.21,0.82-0.63,0.9c-0.17,0.03-0.34,0-0.49-0.08l-5.97-3.14c-0.23-0.12-0.5-0.12-0.72,0l-5.97,3.14
						c-0.38,0.2-0.85,0.05-1.05-0.33c-0.08-0.15-0.11-0.32-0.08-0.49l1.14-6.65c0.04-0.25-0.04-0.51-0.22-0.69l-4.83-4.71
						c-0.31-0.3-0.31-0.79-0.01-1.1c0.12-0.12,0.27-0.2,0.44-0.23l6.67-0.97c0.25-0.04,0.47-0.2,0.58-0.42l2.98-6.05
						c0.19-0.38,0.65-0.55,1.03-0.36C466.72,3662.4,466.85,3662.52,466.92,3662.68z"/>
					<g id="Group_10976">
						<path id="Path_10399" class="st8" d="M466.92,3662.68c-0.01,0.01-0.04-0.06-0.13-0.16c-0.28-0.3-0.76-0.32-1.06-0.03
							c-0.08,0.08-0.15,0.17-0.19,0.28l-0.58,1.21l-1.6,3.31l-0.49,1l-0.26,0.53c-0.11,0.2-0.3,0.35-0.52,0.41
							c-0.83,0.14-1.66,0.25-2.56,0.39l-2.8,0.42l-1.48,0.23c-0.35,0.09-0.56,0.43-0.47,0.78c0.02,0.09,0.06,0.17,0.12,0.25
							l4.85,4.71c0.27,0.24,0.38,0.6,0.29,0.95l-0.15,0.9c-0.1,0.6-0.21,1.21-0.31,1.83c-0.21,1.23-0.42,2.49-0.64,3.77
							c-0.07,0.26,0.04,0.54,0.27,0.69c0.11,0.07,0.24,0.1,0.37,0.09c0.14-0.02,0.28-0.07,0.4-0.15l1.77-0.93l3.61-1.9l0.46-0.24
							c0.19-0.09,0.4-0.12,0.61-0.07c0.18,0.05,0.35,0.13,0.51,0.23l0.45,0.24l1.79,0.94l3.5,1.84c0.24,0.11,0.53,0.04,0.7-0.16
							c0.09-0.09,0.14-0.21,0.15-0.34c0-0.15-0.02-0.29-0.05-0.43c-0.11-0.63-0.21-1.25-0.32-1.87c-0.21-1.23-0.41-2.44-0.61-3.62
							c-0.05-0.29-0.1-0.59-0.15-0.88c-0.06-0.34,0.06-0.69,0.33-0.91l1.23-1.2l2.36-2.29l1.12-1.09c0.28-0.23,0.32-0.64,0.09-0.92
							c-0.05-0.06-0.11-0.11-0.17-0.15c-0.21-0.08-0.44-0.13-0.67-0.14l-0.71-0.11l-1.37-0.2l-2.55-0.38l-1.17-0.18
							c-0.19-0.02-0.38-0.06-0.57-0.1c-0.2-0.07-0.36-0.2-0.47-0.37l-1.61-3.32l-1-2.1l-0.25-0.55
							C466.97,3662.81,466.95,3662.75,466.92,3662.68c0.05,0.06,0.08,0.12,0.11,0.18l0.28,0.54l1.06,2.07l1.65,3.28
							c0.09,0.14,0.22,0.24,0.37,0.29c0.15,0.04,0.36,0.06,0.54,0.09l1.17,0.16l2.55,0.36l1.37,0.19l0.71,0.1
							c0.26,0.02,0.51,0.07,0.75,0.17c0.26,0.14,0.43,0.41,0.46,0.7c0.03,0.3-0.09,0.59-0.31,0.78l-1.12,1.1l-2.35,2.3l-1.23,1.2
							c-0.2,0.15-0.3,0.41-0.25,0.65c0.05,0.29,0.1,0.58,0.15,0.88c0.2,1.18,0.41,2.38,0.63,3.61c0.11,0.62,0.21,1.24,0.32,1.87
							c0.04,0.17,0.06,0.34,0.05,0.52c-0.02,0.19-0.1,0.38-0.23,0.52c-0.27,0.3-0.7,0.4-1.07,0.24l-3.53-1.85l-1.8-0.94l-0.45-0.24
							c-0.13-0.08-0.28-0.15-0.42-0.2c-0.13-0.03-0.28-0.01-0.4,0.05l-0.45,0.24l-3.61,1.9l-1.77,0.93
							c-0.16,0.1-0.34,0.16-0.52,0.19c-0.2,0.02-0.4-0.03-0.57-0.14c-0.34-0.21-0.51-0.62-0.42-1.01l0.66-3.76
							c0.11-0.62,0.21-1.22,0.32-1.83c0.05-0.3,0.1-0.6,0.16-0.9c0.07-0.25-0.01-0.52-0.2-0.68l-4.85-4.76
							c-0.2-0.25-0.25-0.58-0.15-0.87c0.1-0.29,0.35-0.51,0.65-0.58l1.5-0.22l2.81-0.4l2.54-0.36c0.17-0.05,0.31-0.16,0.4-0.31
							l0.26-0.52l0.5-1l1.65-3.29l0.61-1.2c0.14-0.33,0.47-0.53,0.82-0.5c0.21,0.02,0.41,0.12,0.54,0.28
							C466.87,3662.54,466.9,3662.6,466.92,3662.68z"/>
					</g>
				</g>
			</g>
		</g>
	</g>
</g>
</svg>
