<svg xmlns="http://www.w3.org/2000/svg" viewBox="0 0 61.46 137.64"><defs><style>.cls-1{fill:#c8eefc;}.cls-2{fill:#9cdbf5;}.cls-3{fill:#ffbf83;}.cls-4{fill:#f89e6a;}.cls-14,.cls-5{fill:none;}.cls-6{fill:#eb633e;}.cls-7{fill:#1b1f61;}.cls-8{fill:#232a6d;}.cls-9{fill:#282828;}.cls-10{fill:#696969;}.cls-11{fill:#fa7675;}.cls-12{fill:#fa8989;}.cls-13{fill:#fff;}.cls-14{stroke:#999;}.cls-15{fill:#999;}.cls-16,.cls-18{fill:#1b1a19;}.cls-16{fill-rule:evenodd;}.cls-17{fill:#b1b2b3;}</style></defs><title>Asset 1</title><g id="Layer_2" data-name="Layer 2"><g id="Layer_1-2" data-name="Layer 1"><g id="Group_11140" data-name="Group 11140"><g id="Selfie_Illustration" data-name="Selfie Illustration"><g id="Group_10993" data-name="Group 10993"><path id="Path_10400" data-name="Path 10400" class="cls-1" d="M43.34,8.59a14.44,14.44,0,0,1,11.57,3.17,10.51,10.51,0,0,1,3.45,10.13c-.86,3.67-3.8,6.94-3.7,10.68.06,2.47,1.45,4.76,1.87,7.2a9.85,9.85,0,0,1-3.13,8.74c-3.48,3.26-8.95,4.27-14,4.28s-10.21-.82-15.3-.51c-3.71.23-7.36,1.07-11.07,1.12s-7.73-.85-10-3.38c-2.6-2.86-2.35-7-1.35-10.49s2.65-7,2.42-10.68c-.27-4.15-3-8-2.87-12.18A10.5,10.5,0,0,1,6.68,8,13.94,13.94,0,0,1,18,7.17c3.71,1.38,6.63,4.37,10.62,4.94C33.72,12.83,38.29,9.41,43.34,8.59Z"/><path id="Path_10401" data-name="Path 10401" class="cls-2" d="M13.33,46.34c1.54,1.32,3.87,1.21,5.75.47s3.52-2,5.36-2.82a13.4,13.4,0,0,1,6.69-1.18c2.57.2,5,1.15,7.59,1.41s5.48-.35,6.91-2.49c1.26-1.88,1-4.38.53-6.6s-1.09-4.54-.42-6.71c.73-2.35,2.8-4,4.54-5.69s3.34-4.09,2.74-6.47-3.38-3.79-5.88-3.66-4.79,1.37-7,2.57-4.52,2.41-7,2.48a14.84,14.84,0,0,1-6.05-1.54,20.87,20.87,0,0,0-6-1.89,6.22,6.22,0,0,0-5.63,2.12c-1.47,2-1.05,4.81-.25,7.17s1.94,4.72,1.69,7.2A12.2,12.2,0,0,1,14.68,36,17.73,17.73,0,0,0,12.05,41,5.26,5.26,0,0,0,13.33,46.34Z"/><g id="Group_10980" data-name="Group 10980"><path id="Path_10402" data-name="Path 10402" class="cls-1" d="M36.49,3.35a7.68,7.68,0,0,0-2.77.8,3.1,3.1,0,0,0-1.78,2,2.48,2.48,0,0,0,1.6,2.57,6.12,6.12,0,0,0,5.67-1.31,2.48,2.48,0,0,0,.58-2.61C39.28,3.59,37.77,3.23,36.49,3.35Z"/><path id="Path_10403" data-name="Path 10403" class="cls-1" d="M7.76,1.5c-1-.67-2.32-.2-3.21.56A3.63,3.63,0,0,0,3.3,3.84a2,2,0,0,0,.5,2,2.61,2.61,0,0,0,3.09-.14A3.58,3.58,0,0,0,8.46,3.79,2.13,2.13,0,0,0,7.76,1.5Z"/><path id="Path_10404" data-name="Path 10404" class="cls-1" d="M3,9.62a1.15,1.15,0,1,0-1.44-1.8A.86.86,0,0,0,1.38,8a1.17,1.17,0,0,0-.1,1.42A1.2,1.2,0,0,0,3,9.62Z"/><path id="Path_10405" data-name="Path 10405" class="cls-1" d="M60.71,31.53a2.33,2.33,0,0,0-2.06-1.41,1.84,1.84,0,0,0-1.34,1A3.88,3.88,0,0,0,57,32.8a8.9,8.9,0,0,0,.65,3.49A2.35,2.35,0,0,0,59,37.81a1.7,1.7,0,0,0,1.56-.52,3.14,3.14,0,0,0,.74-1.52A6,6,0,0,0,60.71,31.53Z"/><path id="Path_10406" data-name="Path 10406" class="cls-1" d="M1.62,26.39a1.07,1.07,0,0,0-1.23,0A1.44,1.44,0,0,0,0,27.59,7.91,7.91,0,0,0,.48,30c.24.67.67,1.38,1.37,1.5.87.14,1.6-.79,1.6-1.67a4.63,4.63,0,0,0-1-2.41A3.08,3.08,0,0,0,1.62,26.39Z"/><path id="Path_10407" data-name="Path 10407" class="cls-1" d="M1.48,33.19A1.59,1.59,0,1,0,3.2,34.63a.19.19,0,0,0,0-.08A1.63,1.63,0,0,0,1.48,33.19Z"/></g><g id="Group_10992" data-name="Group 10992"><path id="Path_10408" data-name="Path 10408" class="cls-3" d="M18.14,9.14a3.65,3.65,0,0,0-2.36,1.94,25,25,0,0,0-2.11,4.08,17.32,17.32,0,0,1,6-1.07c.87,0,1.94,0,2.35-.81a1.53,1.53,0,0,0,0-1.35,4.32,4.32,0,0,0-.85-1.1C20.34,10,19.33,9,18.14,9.14Z"/><g id="Group_10981" data-name="Group 10981"><path id="Path_10409" data-name="Path 10409" class="cls-3" d="M29.05,7.79a4.52,4.52,0,0,0,1.61-.46,1.91,1.91,0,0,0,.49-.4,1,1,0,0,0-.37-.34,2.13,2.13,0,0,0-1.08-.2,30.67,30.67,0,0,0-7.81.86,3.6,3.6,0,0,0-1.36.56A1.3,1.3,0,0,0,20,9.1l.06.17,2.62-.43Z"/><path id="Path_10410" data-name="Path 10410" class="cls-4" d="M30.67,7.33a4.85,4.85,0,0,1-1.62.46l-6.37,1-2.62.42a1.37,1.37,0,0,0,1,.71,3.78,3.78,0,0,0,1.46-.13L30.2,8.15c.42-.09.91-.24,1-.65a.74.74,0,0,0-.09-.58A2.09,2.09,0,0,1,30.67,7.33Z"/></g><g id="Group_10982" data-name="Group 10982"><path id="Path_10411" data-name="Path 10411" class="cls-5" d="M38.9,30.34a1.23,1.23,0,0,0,.71-.52A14.12,14.12,0,0,0,40.88,28a2.64,2.64,0,0,0,.38-.88.9.9,0,0,0-1.19-1.08,3.21,3.21,0,0,0-.89.44c.18.4.33.88.51,1.28l-1.35.37A2.74,2.74,0,0,0,38,29.49.9.9,0,0,0,38.9,30.34Z"/><path id="Path_10412" data-name="Path 10412" class="cls-3" d="M46.1,42.9l-.17,2a14.11,14.11,0,0,1,.41-2.23Z"/><path id="Path_10414" data-name="Path 10414" class="cls-4" d="M32.56,35.91a8.1,8.1,0,0,1-.81-4.25,8.16,8.16,0,0,0-.06,5A6,6,0,0,0,36.82,40,6.65,6.65,0,0,0,37,38.86,5.3,5.3,0,0,1,32.56,35.91Z"/><path id="Path_10415" data-name="Path 10415" class="cls-6" d="M45,16.47a9.42,9.42,0,0,1-4.45-2.16c-.41.49-.81,1-1.2,1.52a9.3,9.3,0,0,0,4.46,1.55A15,15,0,0,1,45,16.47Z"/><path id="Path_10416" data-name="Path 10416" class="cls-3" d="M45.93,44.86c-7.13-2.5-9.71-7.83-8.6-13.14a2.62,2.62,0,0,0,2.14,0,7,7,0,0,0,1.74-1.19A11,11,0,0,0,43.1,28.6a3,3,0,0,0,.58-2.4,2.28,2.28,0,0,0-1.93-1.67,4.84,4.84,0,0,0-3.31,1.32,15.44,15.44,0,0,1,5.39-8.47,9.31,9.31,0,0,1-4.46-1.56,45.2,45.2,0,0,0-7.54,15.53c0,.1-.06.21-.08.31a8.1,8.1,0,0,0,.81,4.25,5.3,5.3,0,0,0,4.39,3A5.81,5.81,0,0,1,36.83,40,16.07,16.07,0,0,1,34,45.89a13.8,13.8,0,0,0,12.11,3.87A18.27,18.27,0,0,1,45.93,44.86Zm-7.58-16.7,1.34-.38c-.18-.39-.33-.88-.5-1.27a2.82,2.82,0,0,1,.88-.45,1.05,1.05,0,0,1,.94.19,1,1,0,0,1,.25.89,2.61,2.61,0,0,1-.38.89,13.18,13.18,0,0,1-1.27,1.79,1.22,1.22,0,0,1-.7.52.9.9,0,0,1-.91-.85,2.48,2.48,0,0,1,.35-1.33Z"/></g><path id="Path_10417" data-name="Path 10417" class="cls-7" d="M58.61,26.32a10.66,10.66,0,0,0-4.32-7,9.73,9.73,0,0,1-3.75-5.47c-.4.59-.78,1.47-1.18,2.05a7.28,7.28,0,0,1-3.06-3.62c-.4.74-.74,1.79-1.13,2.53a5.58,5.58,0,0,1-2.31-3.31c-.3.72-.74,1.51-1,2.23a4.59,4.59,0,0,1-2-4.11,6.87,6.87,0,0,0-1.17,7.2,7.56,7.56,0,0,0,1.94,2.61A9.56,9.56,0,0,0,45,21.6C49.49,21.48,56,21.41,58.61,26.32Z"/><path id="Path_10418" data-name="Path 10418" class="cls-6" d="M38.9,33.31a1.18,1.18,0,0,0,.7-.52A13.18,13.18,0,0,0,40.87,31a2.64,2.64,0,0,0,.38-.88,1,1,0,0,0-.25-.89,1,1,0,0,0-.94-.19,3.3,3.3,0,0,0-.88.44c.18.4.32.88.5,1.28l-1.34.37A2.64,2.64,0,0,0,38,32.47.89.89,0,0,0,38.9,33.31Z"/><path id="Path_10419" data-name="Path 10419" class="cls-5" d="M38.9,33.31a1.18,1.18,0,0,0,.7-.52A13.18,13.18,0,0,0,40.87,31a2.64,2.64,0,0,0,.38-.88,1,1,0,0,0-.25-.89,1,1,0,0,0-.94-.19,3.3,3.3,0,0,0-.88.44c.18.4.32.88.5,1.28l-1.34.37A2.64,2.64,0,0,0,38,32.47.89.89,0,0,0,38.9,33.31Z"/><path id="Path_10420" data-name="Path 10420" class="cls-6" d="M45.93,46.36l.17-2h0A12.46,12.46,0,0,1,40,41.24a9.38,9.38,0,0,1-1-1,8.5,8.5,0,0,1-1.68-7h0C36.23,38.53,38.81,43.85,45.93,46.36Z"/><path id="Path_10421" data-name="Path 10421" class="cls-8" d="M58.61,23.6c-2.66-4.91-9.12-4.84-13.56-4.72a15.88,15.88,0,0,0-6.58,9.39A4.84,4.84,0,0,1,41.78,27a2.29,2.29,0,0,1,1.94,1.67,3,3,0,0,1-.59,2.4,10.62,10.62,0,0,1-1.89,1.9,6.87,6.87,0,0,1-1.73,1.2,2.64,2.64,0,0,1-2.15,0h0a8.5,8.5,0,0,0,1.68,7,10.36,10.36,0,0,0,1,1,12.54,12.54,0,0,0,6.14,3.16h0l.24-.27c1.72-1.94,3.08-4.19,4.84-6.1,2.34-2.55,4.71-5.14,6.11-8.16a14.73,14.73,0,0,0,1.36-5.61A9.41,9.41,0,0,0,58.61,23.6Z"/><g id="Group_10983" data-name="Group 10983"><path id="Path_10422" data-name="Path 10422" class="cls-3" d="M9.47,46.52A11.15,11.15,0,0,1,13.91,42a18.89,18.89,0,0,1-4.37-6.54,17.9,17.9,0,0,1,0-11.61,31.43,31.43,0,0,1,5.88-10.19L13.09,8.56A26.57,26.57,0,0,0,2,25.29,29.58,29.58,0,0,0,9.47,46.52Z"/><path id="Path_10423" data-name="Path 10423" class="cls-4" d="M13.91,37.44A11.15,11.15,0,0,0,9.47,42,29.59,29.59,0,0,1,2,20.74a24.69,24.69,0,0,0-.47,6.47A26.49,26.49,0,0,0,15.75,48.88l4.17-6.38A50.93,50.93,0,0,1,13.91,37.44Z"/></g><g id="Group_10984" data-name="Group 10984"><path id="Path_10424" data-name="Path 10424" class="cls-9" d="M27.58,1.81,21.23.56V.14l-.77.43a.86.86,0,0,0-.5.61L16.67,15a.79.79,0,0,0,.59,1h0l6.62,1.3a.77.77,0,0,0,.54-.08h0l.05,0,.93-.5-.5-.13L28.21,2.79a.81.81,0,0,0-.6-1Z"/><path id="Path_10425" data-name="Path 10425" class="cls-10" d="M28.48,1.31,21.86,0a.87.87,0,0,0-1,.67L17.57,14.49a.8.8,0,0,0,.59,1h0l6.62,1.29a.87.87,0,0,0,1-.67L29.1,2.29a.8.8,0,0,0-.58-1Z"/><path id="Path_10426" data-name="Path 10426" class="cls-9" d="M22.23,15.32a.55.55,0,0,1-.64.43.53.53,0,0,1-.41-.61v0a.55.55,0,0,1,.64-.44.54.54,0,0,1,.41.63Z"/></g><path id="Path_10427" data-name="Path 10427" class="cls-3" d="M14.61,16.65a10.76,10.76,0,0,0,3.09-3.07c.82-1.24,1.26-2.89.37-4.07a10.64,10.64,0,0,0,2.21-4.12,3,3,0,0,0,.18-1.45,1.26,1.26,0,0,0-.94-1c-.7-.12-1.26.55-1.66,1.14C16,6.8,13.88,9.36,12,12.11,12.19,13.67,13.61,15.43,14.61,16.65Z"/><path id="Path_10428" data-name="Path 10428" class="cls-3" d="M26.39,9.65a.89.89,0,0,0,0,1,1,1,0,0,0,.87.22,1.88,1.88,0,0,0,1-.3,1,1,0,0,0,.45-.88.92.92,0,0,0-.45-.65,1.27,1.27,0,0,0-.79-.12A1.56,1.56,0,0,0,26.39,9.65Z"/><path id="Path_10429" data-name="Path 10429" class="cls-3" d="M25.78,10.59a.87.87,0,0,0,0,1,1,1,0,0,0,.86.22,2,2,0,0,0,1-.3,1,1,0,0,0,.45-.88.9.9,0,0,0-.45-.65,1.2,1.2,0,0,0-.79-.12A1.59,1.59,0,0,0,25.78,10.59Z"/><path id="Path_10430" data-name="Path 10430" class="cls-3" d="M25.39,12.49a.84.84,0,0,0,0,1,1,1,0,0,0,.87.22,1.94,1.94,0,0,0,1-.3,1,1,0,0,0,.45-.88.91.91,0,0,0-.45-.64,1.2,1.2,0,0,0-.79-.12A1.53,1.53,0,0,0,25.39,12.49Z"/><path id="Path_10431" data-name="Path 10431" class="cls-1" d="M28.33,2,21.7.74a.09.09,0,0,0-.11.08h0l-.95,3.94a10.94,10.94,0,0,0,.49,3.36,4.25,4.25,0,0,0,2.72,2.8A4.08,4.08,0,0,1,26,12.32L28.4,2.16A.09.09,0,0,0,28.33,2Z"/><g id="Group_10985" data-name="Group 10985"><path id="Path_10432" data-name="Path 10432" class="cls-11" d="M28.66,44.08a10.21,10.21,0,0,0-6.72,5.85,23.32,23.32,0,0,1-10.63-5.37,9.23,9.23,0,0,0-.52,3.08,63.58,63.58,0,0,0,10.39,5.07l-.88,3h.88A24.06,24.06,0,0,1,28.66,44.08Z"/><path id="Path_10433" data-name="Path 10433" class="cls-11" d="M42.11,46.28a31,31,0,0,1,7.26,7.37,54.09,54.09,0,0,1-6.83,2H54.86A29.42,29.42,0,0,0,42.11,46.28Z"/><path id="Path_10434" data-name="Path 10434" class="cls-12" d="M42.1,46.28l-.23-.09c-3.92-1.39-8.09-1.91-12.16-2.8s-8.57-2-11.72-4.71a9.06,9.06,0,0,0-6.67,5.88A23.32,23.32,0,0,0,22,49.93a10.23,10.23,0,0,1,6.72-5.85,24,24,0,0,0-7.48,11.61H42.54a54.13,54.13,0,0,0,6.83-2A30.84,30.84,0,0,0,42.1,46.28Z"/></g><g id="Group_10986" data-name="Group 10986"><path id="Path_10435" data-name="Path 10435" class="cls-6" d="M20.65,5.32c0-.18,0-.37,0-.56L19,11.53a5.08,5.08,0,0,0,1-.92A11,11,0,0,1,20.65,5.32Z"/><path id="Path_10436" data-name="Path 10436" class="cls-3" d="M21.09,8a9.9,9.9,0,0,1-.44-2.7A11.1,11.1,0,0,0,20,10.61a5.07,5.07,0,0,0,.75-1.24A5.26,5.26,0,0,0,21.09,8Z"/></g><g id="Group_10987" data-name="Group 10987"><path id="Path_10437" data-name="Path 10437" class="cls-11" d="M22.09,12a1.28,1.28,0,0,0,1,.68,1.08,1.08,0,0,0,1-.54,2.05,2.05,0,0,0,.21-.77c0-.09,0-.19,0-.28a3,3,0,0,0-.5-.17,3.65,3.65,0,0,1-1.76-1.14,5.21,5.21,0,0,0-.21,1A2.07,2.07,0,0,0,22.09,12Z"/><path id="Path_10438" data-name="Path 10438" class="cls-12" d="M19.14,12.28a10,10,0,0,0,2.45,1.66,17.14,17.14,0,0,0,2.48,1l1.11.21a.09.09,0,0,0,.11-.08h0L26,12.32a4.08,4.08,0,0,0-1.63-1.22c0,.09,0,.19,0,.29a2.11,2.11,0,0,1-.21.77,1.07,1.07,0,0,1-1,.53,1.28,1.28,0,0,1-1-.68,2.12,2.12,0,0,1-.22-1.26,5.13,5.13,0,0,1,.21-1,5.09,5.09,0,0,1-.95-1.66.49.49,0,0,1,0-.11A4.89,4.89,0,0,1,19,11.53l-.12.5Z"/><path id="Path_10439" data-name="Path 10439" class="cls-11" d="M21.59,13.94a10,10,0,0,1-2.45-1.66,3,3,0,0,1-.25-.25l-.4,1.71a.08.08,0,0,0,.06.11h0l5.52,1.08A15.75,15.75,0,0,1,21.59,13.94Z"/></g><g id="Group_10991" data-name="Group 10991"><g id="Group_10988" data-name="Group 10988"><path id="Path_10440" data-name="Path 10440" class="cls-3" d="M23.35,11.28a1.36,1.36,0,0,1-.87-.63,2,2,0,0,1-.27-.76l0,.12a1.89,1.89,0,0,0,0,1.13,1.1,1.1,0,0,0,1.06.67,1.07,1.07,0,0,0,.91-.67A1.08,1.08,0,0,1,23.35,11.28Z"/><path id="Path_10441" data-name="Path 10441" class="cls-6" d="M24,10a2.36,2.36,0,0,0-.63-.84,1.41,1.41,0,0,0-1-.31,4.82,4.82,0,0,1-.22,1,1.89,1.89,0,0,0,.28.76,1.34,1.34,0,0,0,.87.63,1.08,1.08,0,0,0,.8-.14l0-.13A1.49,1.49,0,0,0,24,10Z"/></g><g id="Group_10990" data-name="Group 10990"><g id="Group_10989" data-name="Group 10989"><path id="Path_10442" data-name="Path 10442" class="cls-6" d="M23.42,6a10.11,10.11,0,0,0,3.26.69.76.76,0,0,0,0-.15,15.27,15.27,0,0,1-3.23-1,10.17,10.17,0,0,0-.68,1.21A3.2,3.2,0,0,1,23.42,6Z"/><path id="Path_10443" data-name="Path 10443" class="cls-3" d="M23.42,6a3.36,3.36,0,0,0-.66.75l-.18.43a.42.42,0,0,0-.37-.28c-.2,0-.37.2-.44.5a.92.92,0,0,0,0,.29,1.26,1.26,0,0,0,.14.57.43.43,0,0,0,.35.23.33.33,0,0,0,.16-.05l-.1,1.05a1.6,1.6,0,0,0,0,.21,1.64,1.64,0,0,0,1.26,1.22,1.6,1.6,0,0,0,1.14-.36,4,4,0,0,0,.81-.93,5.47,5.47,0,0,0,1.14-2.7,1.93,1.93,0,0,0,0-.24A10.17,10.17,0,0,1,23.42,6Z"/></g><path id="Path_10444" data-name="Path 10444" class="cls-7" d="M22.21,6.91a.45.45,0,0,1,.37.28,9.06,9.06,0,0,1,.86-1.63,15.27,15.27,0,0,0,3.23,1h0c.27-.22.59-.43.86-.64L27,6c.13-.41.27-.82.41-1.23l-.7.18.25-.44a.75.75,0,0,1-.7,0c-.21-.11-.38-.28-.58-.41-1.65-1.08-3.33.75-3.77,2.22a3.43,3.43,0,0,0-.12,1.19C21.84,7.11,22,6.91,22.21,6.91Z"/><path id="Path_10445" data-name="Path 10445" class="cls-7" d="M22.21,8.5a.39.39,0,0,1-.34-.24,5.29,5.29,0,0,0,.4,1.24h0l.1-1.05A.28.28,0,0,1,22.21,8.5Z"/><path id="Path_10446" data-name="Path 10446" class="cls-6" d="M22.35,7.48a.15.15,0,0,0-.13-.16h0A.21.21,0,0,0,22,7.5a.57.57,0,0,0,0,.26.35.35,0,0,0,.1.25.18.18,0,0,0,.2,0,.15.15,0,0,0,0-.2l-.18-.07C22.22,7.65,22.34,7.56,22.35,7.48Z"/></g></g></g><path id="Path_10447" data-name="Path 10447" class="cls-13" d="M22.67,18.49a5.07,5.07,0,0,1-5.14-3.1l-.26-.64.06.69a5,5,0,0,1-3.1,5.13l-.64.26.69-.06a5,5,0,0,1,5.13,3.11l.27.64-.06-.69a5,5,0,0,1,3.1-5.14l.64-.26Z"/><path id="Path_10448" data-name="Path 10448" class="cls-13" d="M35.48,15a3,3,0,0,1-1.64-3.23l.07-.41-.19.38a3.07,3.07,0,0,1-3.24,1.64l-.41-.07.38.19a3.06,3.06,0,0,1,1.64,3.23L32,17.1l.19-.37a3.05,3.05,0,0,1,3.23-1.65l.42.07Z"/></g></g><g id="Connector"><line id="Line_72" data-name="Line 72" class="cls-14" x1="30.68" y1="62.76" x2="30.68" y2="87.89"/><path id="Path_91" data-name="Path 91" class="cls-15" d="M32.93,87.77h-4.5l2.25,1.75Z"/></g><g id="trackyourskin"><path id="Path_651" data-name="Path 651" class="cls-16" d="M1.7,98.39H59.78v34.53H1.7Zm-.56-1.66h59.2a1.11,1.11,0,0,1,1.12,1.11v35.63a1.11,1.11,0,0,1-1.12,1.11H34.59l-1.12,1.53h9.78a.77.77,0,1,1,0,1.53H18.22a.77.77,0,0,1,0-1.53H28l-1.12-1.53H1.14A1.11,1.11,0,0,1,0,133.47V97.84A1.11,1.11,0,0,1,1.14,96.73Z"/><g id="Group_10" data-name="Group 10"><path id="Path_652" data-name="Path 652" class="cls-17" d="M11.11,104.19H5.7V98.78h5.41ZM5.86,104H11V98.94H5.86Z"/></g><g id="Group_11" data-name="Group 11"><path id="Path_653" data-name="Path 653" class="cls-17" d="M16.47,104.19H11.06V98.78h5.41ZM11.21,104h5.1V98.94h-5.1Z"/></g><g id="Group_12" data-name="Group 12"><path id="Path_654" data-name="Path 654" class="cls-17" d="M21.77,104.19H16.36V98.78h5.41ZM16.52,104h5.1V98.94h-5.1Z"/></g><g id="Group_13" data-name="Group 13"><path id="Path_655" data-name="Path 655" class="cls-17" d="M27.07,104.19H21.66V98.78h5.41ZM21.82,104h5.1V98.94h-5.1Z"/></g><g id="Group_14" data-name="Group 14"><path id="Path_656" data-name="Path 656" class="cls-17" d="M32.38,104.19H27V98.78h5.41ZM27.12,104h5.1V98.94h-5.1Z"/></g><g id="Group_15" data-name="Group 15"><path id="Path_657" data-name="Path 657" class="cls-17" d="M37.68,104.19H32.27V98.78h5.41ZM32.43,104h5.09V98.94H32.43Z"/></g><g id="Group_16" data-name="Group 16"><path id="Path_658" data-name="Path 658" class="cls-17" d="M43,104.19H37.57V98.78H43ZM37.73,104h5.1V98.94h-5.1Z"/></g><g id="Group_17" data-name="Group 17"><path id="Path_659" data-name="Path 659" class="cls-17" d="M48.29,104.19H42.87V98.78h5.42ZM43,104h5.1V98.94H43Z"/></g><g id="Group_18" data-name="Group 18"><path id="Path_660" data-name="Path 660" class="cls-17" d="M53.66,104.19H48.25V98.78h5.41ZM48.41,104h5.1V98.94h-5.1Z"/></g><g id="Group_19" data-name="Group 19"><path id="Path_661" data-name="Path 661" class="cls-17" d="M58.92,104.19H53.5V98.78h5.42ZM53.66,104h5.1V98.94h-5.1Z"/></g><g id="Group_20" data-name="Group 20"><path id="Path_662" data-name="Path 662" class="cls-17" d="M11.11,109.44H5.7V104h5.41Zm-5.25-.15H11v-5.1H5.86Z"/></g><g id="Group_21" data-name="Group 21"><path id="Path_663" data-name="Path 663" class="cls-17" d="M16.47,109.44H11.06V104h5.41Zm-5.26-.15h5.1v-5.1h-5.1Z"/></g><g id="Group_22" data-name="Group 22"><path id="Path_664" data-name="Path 664" class="cls-17" d="M21.77,109.44H16.36V104h5.41Zm-5.25-.15h5.1v-5.1h-5.1Z"/></g><g id="Group_23" data-name="Group 23"><path id="Path_665" data-name="Path 665" class="cls-17" d="M27.07,109.44H21.66V104h5.41Zm-5.25-.15h5.1v-5.1h-5.1Z"/></g><g id="Group_24" data-name="Group 24"><path id="Path_666" data-name="Path 666" class="cls-17" d="M32.38,109.44H27V104h5.41Zm-5.26-.15h5.1v-5.1h-5.1Z"/></g><g id="Group_25" data-name="Group 25"><path id="Path_667" data-name="Path 667" class="cls-17" d="M37.68,109.44H32.27V104h5.41Zm-5.25-.15h5.09v-5.1H32.43Z"/></g><g id="Group_26" data-name="Group 26"><path id="Path_668" data-name="Path 668" class="cls-17" d="M43,109.44H37.57V104H43Zm-5.25-.15h5.1v-5.1h-5.1Z"/></g><g id="Group_27" data-name="Group 27"><path id="Path_669" data-name="Path 669" class="cls-17" d="M48.29,109.44H42.87V104h5.42ZM43,109.29h5.1v-5.1H43Z"/></g><g id="Group_28" data-name="Group 28"><path id="Path_670" data-name="Path 670" class="cls-17" d="M53.66,109.44H48.25V104h5.41Zm-5.25-.15h5.1v-5.1h-5.1Z"/></g><g id="Group_29" data-name="Group 29"><path id="Path_671" data-name="Path 671" class="cls-17" d="M58.92,109.44H53.5V104h5.42Zm-5.26-.15h5.1v-5.1h-5.1Z"/></g><g id="Group_30" data-name="Group 30"><path id="Path_672" data-name="Path 672" class="cls-17" d="M11.11,114.69H5.7v-5.4h5.41Zm-5.25-.15H11v-5.1H5.86Z"/></g><g id="Group_31" data-name="Group 31"><path id="Path_673" data-name="Path 673" class="cls-17" d="M16.47,114.69H11.06v-5.4h5.41Zm-5.26-.15h5.1v-5.1h-5.1Z"/></g><g id="Group_32" data-name="Group 32"><path id="Path_674" data-name="Path 674" class="cls-17" d="M21.77,114.69H16.36v-5.4h5.41Zm-5.25-.15h5.1v-5.1h-5.1Z"/></g><g id="Group_33" data-name="Group 33"><path id="Path_675" data-name="Path 675" class="cls-17" d="M27.07,114.69H21.66v-5.4h5.41Zm-5.25-.15h5.1v-5.1h-5.1Z"/></g><g id="Group_34" data-name="Group 34"><path id="Path_676" data-name="Path 676" class="cls-17" d="M32.38,114.69H27v-5.4h5.41Zm-5.26-.15h5.1v-5.1h-5.1Z"/></g><g id="Group_35" data-name="Group 35"><path id="Path_677" data-name="Path 677" class="cls-17" d="M37.68,114.69H32.27v-5.4h5.41Zm-5.25-.15h5.09v-5.1H32.43Z"/></g><g id="Group_36" data-name="Group 36"><path id="Path_678" data-name="Path 678" class="cls-17" d="M43,114.69H37.57v-5.4H43Zm-5.25-.15h5.1v-5.1h-5.1Z"/></g><g id="Group_37" data-name="Group 37"><path id="Path_679" data-name="Path 679" class="cls-17" d="M48.29,114.69H42.87v-5.4h5.42ZM43,114.54h5.1v-5.1H43Z"/></g><g id="Group_38" data-name="Group 38"><path id="Path_680" data-name="Path 680" class="cls-17" d="M53.66,114.69H48.25v-5.4h5.41Zm-5.25-.15h5.1v-5.1h-5.1Z"/></g><g id="Group_39" data-name="Group 39"><path id="Path_681" data-name="Path 681" class="cls-17" d="M58.92,114.69H53.5v-5.4h5.42Zm-5.26-.15h5.1v-5.1h-5.1Z"/></g><g id="Group_40" data-name="Group 40"><path id="Path_682" data-name="Path 682" class="cls-17" d="M11.11,119.94H5.7v-5.4h5.41Zm-5.25-.15H11v-5.1H5.86Z"/></g><g id="Group_41" data-name="Group 41"><path id="Path_683" data-name="Path 683" class="cls-17" d="M16.47,119.94H11.06v-5.4h5.41Zm-5.26-.15h5.1v-5.1h-5.1Z"/></g><g id="Group_42" data-name="Group 42"><path id="Path_684" data-name="Path 684" class="cls-17" d="M21.77,119.94H16.36v-5.4h5.41Zm-5.25-.15h5.1v-5.1h-5.1Z"/></g><g id="Group_43" data-name="Group 43"><path id="Path_685" data-name="Path 685" class="cls-17" d="M27.07,119.94H21.66v-5.4h5.41Zm-5.25-.15h5.1v-5.1h-5.1Z"/></g><g id="Group_44" data-name="Group 44"><path id="Path_686" data-name="Path 686" class="cls-17" d="M32.38,119.94H27v-5.4h5.41Zm-5.26-.15h5.1v-5.1h-5.1Z"/></g><g id="Group_45" data-name="Group 45"><path id="Path_687" data-name="Path 687" class="cls-17" d="M37.68,119.94H32.27v-5.4h5.41Zm-5.25-.15h5.09v-5.1H32.43Z"/></g><g id="Group_46" data-name="Group 46"><path id="Path_688" data-name="Path 688" class="cls-17" d="M43,119.94H37.57v-5.4H43Zm-5.25-.15h5.1v-5.1h-5.1Z"/></g><g id="Group_47" data-name="Group 47"><path id="Path_689" data-name="Path 689" class="cls-17" d="M48.29,119.94H42.87v-5.4h5.42ZM43,119.79h5.1v-5.1H43Z"/></g><g id="Group_48" data-name="Group 48"><path id="Path_690" data-name="Path 690" class="cls-17" d="M53.66,119.94H48.25v-5.4h5.41Zm-5.25-.15h5.1v-5.1h-5.1Z"/></g><g id="Group_49" data-name="Group 49"><path id="Path_691" data-name="Path 691" class="cls-17" d="M58.92,119.94H53.5v-5.4h5.42Zm-5.26-.15h5.1v-5.1h-5.1Z"/></g><g id="Group_50" data-name="Group 50"><path id="Path_692" data-name="Path 692" class="cls-17" d="M11.11,125.19H5.7v-5.4h5.41ZM5.86,125H11v-5.1H5.86Z"/></g><g id="Group_51" data-name="Group 51"><path id="Path_693" data-name="Path 693" class="cls-17" d="M16.47,125.19H11.06v-5.4h5.41ZM11.21,125h5.1v-5.1h-5.1Z"/></g><g id="Group_52" data-name="Group 52"><path id="Path_694" data-name="Path 694" class="cls-17" d="M21.77,125.19H16.36v-5.4h5.41ZM16.52,125h5.1v-5.1h-5.1Z"/></g><g id="Group_53" data-name="Group 53"><path id="Path_695" data-name="Path 695" class="cls-17" d="M27.07,125.19H21.66v-5.4h5.41ZM21.82,125h5.1v-5.1h-5.1Z"/></g><g id="Group_54" data-name="Group 54"><path id="Path_696" data-name="Path 696" class="cls-17" d="M32.38,125.19H27v-5.4h5.41ZM27.12,125h5.1v-5.1h-5.1Z"/></g><g id="Group_55" data-name="Group 55"><path id="Path_697" data-name="Path 697" class="cls-17" d="M37.68,125.19H32.27v-5.4h5.41ZM32.43,125h5.09v-5.1H32.43Z"/></g><g id="Group_56" data-name="Group 56"><path id="Path_698" data-name="Path 698" class="cls-17" d="M43,125.19H37.57v-5.4H43ZM37.73,125h5.1v-5.1h-5.1Z"/></g><g id="Group_57" data-name="Group 57"><path id="Path_699" data-name="Path 699" class="cls-17" d="M48.29,125.19H42.87v-5.4h5.42ZM43,125h5.1v-5.1H43Z"/></g><g id="Group_58" data-name="Group 58"><path id="Path_700" data-name="Path 700" class="cls-17" d="M53.66,125.19H48.25v-5.4h5.41ZM48.41,125h5.1v-5.1h-5.1Z"/></g><g id="Group_59" data-name="Group 59"><path id="Path_701" data-name="Path 701" class="cls-17" d="M58.92,125.19H53.5v-5.4h5.42ZM53.66,125h5.1v-5.1h-5.1Z"/></g><g id="Group_60" data-name="Group 60"><path id="Path_702" data-name="Path 702" class="cls-17" d="M11.11,130.45H5.7V125h5.41Zm-5.25-.16H11V125.2H5.86Z"/></g><g id="Group_61" data-name="Group 61"><path id="Path_703" data-name="Path 703" class="cls-17" d="M16.47,130.45H11.06V125h5.41Zm-5.26-.16h5.1V125.2h-5.1Z"/></g><g id="Group_62" data-name="Group 62"><path id="Path_704" data-name="Path 704" class="cls-17" d="M21.77,130.45H16.36V125h5.41Zm-5.25-.16h5.1V125.2h-5.1Z"/></g><g id="Group_63" data-name="Group 63"><path id="Path_705" data-name="Path 705" class="cls-17" d="M27.07,130.45H21.66V125h5.41Zm-5.25-.16h5.1V125.2h-5.1Z"/></g><g id="Group_64" data-name="Group 64"><path id="Path_706" data-name="Path 706" class="cls-17" d="M32.38,130.45H27V125h5.41Zm-5.26-.16h5.1V125.2h-5.1Z"/></g><g id="Group_65" data-name="Group 65"><path id="Path_707" data-name="Path 707" class="cls-17" d="M37.68,130.45H32.27V125h5.41Zm-5.25-.16h5.09V125.2H32.43Z"/></g><g id="Group_66" data-name="Group 66"><path id="Path_708" data-name="Path 708" class="cls-17" d="M43,130.45H37.57V125H43Zm-5.25-.16h5.1V125.2h-5.1Z"/></g><g id="Group_67" data-name="Group 67"><path id="Path_709" data-name="Path 709" class="cls-17" d="M48.29,130.45H42.87V125h5.42ZM43,130.29h5.1V125.2H43Z"/></g><g id="Group_68" data-name="Group 68"><path id="Path_710" data-name="Path 710" class="cls-17" d="M53.66,130.45H48.25V125h5.41Zm-5.25-.16h5.1V125.2h-5.1Z"/></g><g id="Group_69" data-name="Group 69"><path id="Path_711" data-name="Path 711" class="cls-17" d="M58.92,130.45H53.5V125h5.42Zm-5.26-.16h5.1V125.2h-5.1Z"/></g><path id="Path_712" data-name="Path 712" class="cls-16" d="M5.94,129.12a1.25,1.25,0,1,1-1.25,1.25,1.25,1.25,0,0,1,1.25-1.25"/><path id="Path_713" data-name="Path 713" class="cls-16" d="M16.42,113.36a1.26,1.26,0,1,1-1.25,1.26,1.25,1.25,0,0,1,1.25-1.26"/><path id="Path_714" data-name="Path 714" class="cls-16" d="M27,118.62a1.25,1.25,0,1,1-1.25,1.25A1.25,1.25,0,0,1,27,118.62"/><path id="Path_715" data-name="Path 715" class="cls-16" d="M32.32,113.36a1.26,1.26,0,1,1-1.25,1.26,1.25,1.25,0,0,1,1.25-1.26"/><path id="Path_716" data-name="Path 716" class="cls-16" d="M42.92,108.11a1.25,1.25,0,1,1-1.25,1.25,1.25,1.25,0,0,1,1.25-1.25"/><path id="Path_717" data-name="Path 717" class="cls-16" d="M48.22,113.36A1.26,1.26,0,1,1,47,114.62a1.25,1.25,0,0,1,1.25-1.26"/><path id="Path_718" data-name="Path 718" class="cls-16" d="M53.58,102.86a1.25,1.25,0,1,1-1.25,1.25,1.25,1.25,0,0,1,1.25-1.25"/><g id="Group_70" data-name="Group 70"><path id="Path_719" data-name="Path 719" class="cls-18" d="M5.85,130.41l-.14-.08,10.55-15.82.07,0,10.46,5.23L32,114.56l.11.11L26.82,120l-.05,0-10.45-5.22Z"/></g><g id="Group_71" data-name="Group 71"><path id="Path_720" data-name="Path 720" class="cls-18" d="M48.35,114.75l-5.29-5.29-10.15,5.22-.07-.13,10.25-5.28,5.22,5.21,5.2-10.4.14.07Z"/></g></g></g></g></g></svg>