<svg id="Layer_1" data-name="Layer 1" xmlns="http://www.w3.org/2000/svg" viewBox="0 0 316.67 114"><title>box-2</title><g id="Selfie_Illustration" data-name="Selfie Illustration"><g id="Group_10993" data-name="Group 10993"><g id="Group_10992" data-name="Group 10992"><path id="Path_10408" data-name="Path 10408" d="M-9.59,18.61c-2.12.25-3.63,2.14-4.78,3.94a50.11,50.11,0,0,0-4.26,8.31A34.86,34.86,0,0,1-6.42,28.68c1.77,0,3.93-.06,4.76-1.63a3.13,3.13,0,0,0-.08-2.75A9.22,9.22,0,0,0-3.45,22C-5.13,20.26-7.18,18.33-9.59,18.61Z" transform="translate(33.33)" fill="#ffbf83"/><g id="Group_10981" data-name="Group 10981"><path id="Path_10409" data-name="Path 10409" d="M12.5,15.87a9.56,9.56,0,0,0,3.26-.95,4.14,4.14,0,0,0,1-.8,2,2,0,0,0-.74-.71A4.77,4.77,0,0,0,13.8,13,62.28,62.28,0,0,0-2,14.76a7.29,7.29,0,0,0-2.75,1.13,2.67,2.67,0,0,0-1.08,2.64,2,2,0,0,0,.12.34L-.4,18Q6,16.92,12.5,15.87Z" transform="translate(33.33)" fill="#ffbf83"/><path id="Path_10410" data-name="Path 10410" d="M15.76,14.91a9.14,9.14,0,0,1-3.26.95L-.4,18l-5.31.87a2.79,2.79,0,0,0,2.09,1.44,7.6,7.6,0,0,0,3-.26l15.49-3.43c.84-.19,1.83-.49,2.09-1.33a1.44,1.44,0,0,0-.18-1.16A3.82,3.82,0,0,1,15.76,14.91Z" transform="translate(33.33)" fill="#f89e6a"/></g><g id="Group_10982" data-name="Group 10982"><path id="Path_10411" data-name="Path 10411" d="M34.46,72a2.54,2.54,0,0,0,1.43-1.06,31.1,31.1,0,0,0,2.57-3.65,5.63,5.63,0,0,0,.77-1.8,1.84,1.84,0,0,0-2.41-2.2,6.36,6.36,0,0,0-1.8.91c.37.81.67,1.79,1,2.59l-2.72.77a5.37,5.37,0,0,0-.73,2.71A1.82,1.82,0,0,0,34.46,72Z" transform="translate(33.33)" fill="none"/><path id="Path_10412" data-name="Path 10412" d="M49,97.54l-.35,4A30.33,30.33,0,0,1,49.51,97Z" transform="translate(33.33)" fill="#ffbf83"/><path id="Path_10413" data-name="Path 10413" d="M48.68,101.51" transform="translate(33.33)" fill="#ffbf83"/><path id="Path_10416" data-name="Path 10416" d="M50.72,103.56C36.29,98.46,31.08,87.62,33.31,76.8a5.3,5.3,0,0,0,4.34,0,13.74,13.74,0,0,0,3.52-2.43A21.65,21.65,0,0,0,45,70.44a6.18,6.18,0,0,0,1.19-4.88,4.63,4.63,0,0,0-3.92-3.39c-2.39-.25-5,1.21-6.7,2.68,1.32-6.5,5.4-12.61,10.92-17.25a18.53,18.53,0,0,1-9-3.17A92.13,92.13,0,0,0,22.18,76.05c-.05.21-.11.42-.16.64a16.59,16.59,0,0,0,1.64,8.63c1.73,3.35,5.15,5.94,8.89,6a12.65,12.65,0,0,1-.25,2.38,32.54,32.54,0,0,1-5.77,11.92c6.52,6.32,15.63,9.65,24.51,7.89A38.26,38.26,0,0,1,50.72,103.56Zm-15.34-34c.79-.22,1.93-.55,2.72-.76-.37-.81-.67-1.79-1-2.6a5.74,5.74,0,0,1,1.8-.9,1.83,1.83,0,0,1,2.41,2.2,5.09,5.09,0,0,1-.77,1.79,30.07,30.07,0,0,1-2.57,3.66,2.57,2.57,0,0,1-1.43,1,1.82,1.82,0,0,1-1.84-1.73,5.16,5.16,0,0,1,.71-2.71Z" transform="translate(33.33)" fill="#ffbf83"/></g><path id="Path_10417" data-name="Path 10417" d="M69.29,58.68a21.71,21.71,0,0,0-8.75-14.23A19.92,19.92,0,0,1,53,33.32c-.81,1.19-1.57,3-2.39,4.17a14.86,14.86,0,0,1-6.19-7.37c-.81,1.51-1.49,3.64-2.3,5.15a11.44,11.44,0,0,1-4.67-6.75c-.6,1.46-1.48,3.08-2.09,4.54-2.67-2-4.56-5.31-4.05-8.35a14,14,0,0,0-2.37,14.65,15.33,15.33,0,0,0,3.93,5.3,19.07,19.07,0,0,0,9,4.4C50.83,48.83,63.91,48.69,69.29,58.68Z" transform="translate(33.33)" fill="#1b1f61"/><path id="Path_10418" data-name="Path 10418" d="M36.48,73.93a2.52,2.52,0,0,0,1.43-1.05,31.1,31.1,0,0,0,2.57-3.65,5.63,5.63,0,0,0,.77-1.8,1.83,1.83,0,0,0-2.41-2.2,6.11,6.11,0,0,0-1.8.91c.37.8.67,1.79,1,2.59l-2.72.76a5.44,5.44,0,0,0-.73,2.72A1.81,1.81,0,0,0,36.48,73.93Z" transform="translate(33.33)" fill="#eb633e"/><path id="Path_10419" data-name="Path 10419" d="M32.43,67.82a2.5,2.5,0,0,0,1.42-1,28.9,28.9,0,0,0,2.57-3.65,5.44,5.44,0,0,0,.78-1.8,1.83,1.83,0,0,0-2.41-2.2A6,6,0,0,0,33,60c.37.8.66,1.79,1,2.59l-2.72.76a5.33,5.33,0,0,0-.72,2.72A1.8,1.8,0,0,0,32.43,67.82Z" transform="translate(33.33)" fill="none"/><path id="Path_10421" data-name="Path 10421" d="M76.38,55.18c-5.38-10-18.46-9.85-27.44-9.61-6.72,4.81-11.82,11.69-13.32,19.11,1.7-1.47,4.3-2.93,6.69-2.67a4.58,4.58,0,0,1,3.92,3.38A6.12,6.12,0,0,1,45,70.28a21.21,21.21,0,0,1-3.81,3.88,13.74,13.74,0,0,1-3.52,2.43,5.3,5.3,0,0,1-4.34,0h0a17.42,17.42,0,0,0,3.39,14.22A21.57,21.57,0,0,0,38.69,93a25.32,25.32,0,0,0,12.43,6.43h0l.49-.55c3.48-4,6.23-8.53,9.79-12.42C66.14,81.26,70.94,76,73.78,69.84a30.3,30.3,0,0,0,2.75-11.43A19.37,19.37,0,0,0,76.38,55.18Z" transform="translate(33.33)" fill="#232a6d"/><g id="Group_10983" data-name="Group 10983"><path id="Path_10422" data-name="Path 10422" d="M-18,97.77a22.62,22.62,0,0,1,9-9.24,38.37,38.37,0,0,1-8.85-13.32c-2.8-7.52-2.42-16,0-23.64S-11,37-6,30.82L-10.7,20.49A54.06,54.06,0,0,0-33.26,54.54,60.53,60.53,0,0,0-18,97.77Z" transform="translate(33.33)" fill="#ffbf83"/></g><g id="Group_10984" data-name="Group 10984"><path id="Path_10424" data-name="Path 10424" d="M9.52,3.68-3.35,1.14V.29l-1.55.86a1.78,1.78,0,0,0-1,1.25l-6.67,28.12a1.64,1.64,0,0,0,1.2,2l.07,0,13.4,2.65A1.69,1.69,0,0,0,3.19,35h0l.1,0,1.86-1-1-.25,6.65-28a1.66,1.66,0,0,0-1.21-2Z" transform="translate(33.33)" fill="#282828"/><path id="Path_10425" data-name="Path 10425" d="M11.34,2.67-2.07,0a1.74,1.74,0,0,0-2,1.36l-6.67,28.12a1.64,1.64,0,0,0,1.2,2l.07,0,13.4,2.64a1.76,1.76,0,0,0,2-1.36L12.6,4.67a1.63,1.63,0,0,0-1.18-2Z" transform="translate(33.33)" fill="#696969"/><path id="Path_10426" data-name="Path 10426" d="M-1.31,31.19a1.12,1.12,0,0,1-1.3.88,1.07,1.07,0,0,1-.83-1.25v0a1.13,1.13,0,0,1,1.31-.88,1.06,1.06,0,0,1,.82,1.26Z" transform="translate(33.33)" fill="#282828"/></g><path id="Path_10427" data-name="Path 10427" d="M-16.75,40a21.46,21.46,0,0,0,6.26-6.26c1.67-2.51,2.55-5.87.75-8.28a21.42,21.42,0,0,0,4.48-8.38,6,6,0,0,0,.36-3A2.56,2.56,0,0,0-6.8,12c-1.42-.23-2.56,1.12-3.37,2.32-3.78,5.6-8,10.81-11.84,16.42C-21.64,33.93-18.76,37.52-16.75,40Z" transform="translate(33.33)" fill="#ffbf83"/><path id="Path_10428" data-name="Path 10428" d="M7.1,19.66a1.77,1.77,0,0,0,0,2,2.06,2.06,0,0,0,1.75.45,3.91,3.91,0,0,0,2-.61,2,2,0,0,0,.91-1.8,1.82,1.82,0,0,0-.91-1.31,2.53,2.53,0,0,0-1.6-.25A3.17,3.17,0,0,0,7.1,19.66Z" transform="translate(33.33)" fill="#ffbf83"/><path id="Path_10429" data-name="Path 10429" d="M5.87,21.57a1.77,1.77,0,0,0,0,2,2.06,2.06,0,0,0,1.75.45,3.91,3.91,0,0,0,2-.61,2,2,0,0,0,.91-1.8,1.82,1.82,0,0,0-.91-1.31A2.46,2.46,0,0,0,8,20.09,3.23,3.23,0,0,0,5.87,21.57Z" transform="translate(33.33)" fill="#ffbf83"/><path id="Path_10430" data-name="Path 10430" d="M5.07,25.43a1.77,1.77,0,0,0,0,2,2.1,2.1,0,0,0,1.75.45,3.91,3.91,0,0,0,2-.61,2,2,0,0,0,.91-1.8,1.82,1.82,0,0,0-.91-1.31A2.53,2.53,0,0,0,7.22,24,3.2,3.2,0,0,0,5.07,25.43Z" transform="translate(33.33)" fill="#ffbf83"/><path id="Path_10431" data-name="Path 10431" d="M11,4.15-2.38,1.51a.21.21,0,0,0-.24.16h0l-1.91,8a22.12,22.12,0,0,0,1,6.86c.91,2.6,2.84,5,5.5,5.7a8.41,8.41,0,0,1,4.3,2.83L11.18,4.4A.21.21,0,0,0,11,4.15Z" transform="translate(33.33)" fill="#c8eefc"/><g id="Group_10985" data-name="Group 10985"><path id="Path_10432" data-name="Path 10432" d="M11.7,89.74A20.72,20.72,0,0,0-1.9,101.65,47.18,47.18,0,0,1-23.42,90.72a18.9,18.9,0,0,0-1,6.28,127.14,127.14,0,0,0,21,10.31l-1.77,6h1.77A49.13,49.13,0,0,1,11.7,89.74Z" transform="translate(33.33)" fill="#fa7675"/><path id="Path_10433" data-name="Path 10433" d="M38.92,94.23a62.84,62.84,0,0,1,14.7,15,107.3,107.3,0,0,1-13.83,4.15H64.73A59.63,59.63,0,0,0,38.92,94.23Z" transform="translate(33.33)" fill="#fa7675"/><path id="Path_10434" data-name="Path 10434" d="M38.92,94.22l-.47-.17c-8-2.83-16.39-3.89-24.63-5.72s-17.34-4-23.71-9.59a18.44,18.44,0,0,0-13.52,12A47.21,47.21,0,0,0-1.88,101.66,20.72,20.72,0,0,1,11.71,89.75,48.84,48.84,0,0,0-3.42,113.38H39.8a108.9,108.9,0,0,0,13.83-4.15A63,63,0,0,0,38.92,94.22Z" transform="translate(33.33)" fill="#fa8989"/></g><g id="Group_10986" data-name="Group 10986"><path id="Path_10435" data-name="Path 10435" d="M-4.51,10.84c0-.38,0-.76,0-1.15L-7.83,23.47a10.14,10.14,0,0,0,2-1.87A22.42,22.42,0,0,1-4.51,10.84Z" transform="translate(33.33)" fill="#eb633e"/><path id="Path_10436" data-name="Path 10436" d="M-3.63,16.32a20.37,20.37,0,0,1-.88-5.48A22.55,22.55,0,0,0-5.84,21.6a10.47,10.47,0,0,0,1.51-2.53A10.39,10.39,0,0,0-3.63,16.32Z" transform="translate(33.33)" fill="#ffbf83"/></g><g id="Group_10987" data-name="Group 10987"><path id="Path_10437" data-name="Path 10437" d="M-1.6,24.45A2.6,2.6,0,0,0,.51,25.83a2.18,2.18,0,0,0,1.94-1.09,4.26,4.26,0,0,0,.42-1.56L3,22.59a7.18,7.18,0,0,0-1-.34,7.27,7.27,0,0,1-3.56-2.33,10.86,10.86,0,0,0-.42,2A4.17,4.17,0,0,0-1.6,24.45Z" transform="translate(33.33)" fill="#fa7675"/><path id="Path_10438" data-name="Path 10438" d="M-7.58,25a20,20,0,0,0,5,3.38,34,34,0,0,0,5,2l2.24.44a.2.2,0,0,0,.24-.16h0l1.34-5.61A8.45,8.45,0,0,0,2.94,22.6l-.09.58a4.46,4.46,0,0,1-.42,1.57A2.18,2.18,0,0,1,.49,25.84a2.63,2.63,0,0,1-2.11-1.38,4.43,4.43,0,0,1-.45-2.58,10.15,10.15,0,0,1,.43-1.95,10.3,10.3,0,0,1-1.93-3.37c0-.08-.05-.15-.08-.22a10,10,0,0,1-4.2,7.14l-.24,1Z" transform="translate(33.33)" fill="#fa8989"/><path id="Path_10439" data-name="Path 10439" d="M-2.61,28.38a20,20,0,0,1-5-3.38c-.17-.16-.34-.33-.5-.51L-8.9,28a.21.21,0,0,0,.14.24h0L2.43,30.4A32.72,32.72,0,0,1-2.61,28.38Z" transform="translate(33.33)" fill="#fa7675"/></g><g id="Group_10991" data-name="Group 10991"><g id="Group_10988" data-name="Group 10988"><path id="Path_10440" data-name="Path 10440" d="M1,23A2.81,2.81,0,0,1-.81,21.68a4,4,0,0,1-.55-1.54l-.06.24a3.84,3.84,0,0,0,0,2.3A2.25,2.25,0,0,0,.72,24.05a2.14,2.14,0,0,0,1.85-1.37A2.19,2.19,0,0,1,1,23Z" transform="translate(33.33)" fill="#ffbf83"/><path id="Path_10441" data-name="Path 10441" d="M2.3,20.44A4.5,4.5,0,0,0,1,18.74a2.76,2.76,0,0,0-2-.63,9.41,9.41,0,0,1-.43,2,4.18,4.18,0,0,0,.55,1.54A2.81,2.81,0,0,0,.94,23a2.19,2.19,0,0,0,1.62-.29,2.58,2.58,0,0,0,.08-.26A3.09,3.09,0,0,0,2.3,20.44Z" transform="translate(33.33)" fill="#eb633e"/></g><g id="Group_10990" data-name="Group 10990"><g id="Group_10989" data-name="Group 10989"><path id="Path_10442" data-name="Path 10442" d="M1.09,12.25a21,21,0,0,0,6.61,1.4c0-.1,0-.21,0-.32a30,30,0,0,1-6.54-2A18.47,18.47,0,0,0-.24,13.78,6.09,6.09,0,0,1,1.09,12.25Z" transform="translate(33.33)" fill="#eb633e"/><path id="Path_10443" data-name="Path 10443" d="M1.09,12.25A5.85,5.85,0,0,0-.24,13.77c-.13.29-.25.59-.36.87a.91.91,0,0,0-.75-.58c-.41,0-.76.42-.9,1a2.46,2.46,0,0,0-.07.6A2.3,2.3,0,0,0-2,16.83a.89.89,0,0,0,.7.48.75.75,0,0,0,.32-.1l-.2,2.14c0,.14.07.29.1.42a3.33,3.33,0,0,0,2.56,2.49,3.18,3.18,0,0,0,2.31-.75,8.35,8.35,0,0,0,1.64-1.87,11.23,11.23,0,0,0,2.31-5.5c0-.16,0-.33,0-.49A21.11,21.11,0,0,1,1.09,12.25Z" transform="translate(33.33)" fill="#ffbf83"/></g><path id="Path_10444" data-name="Path 10444" d="M-1.35,14.06a.92.92,0,0,1,.75.59,16.75,16.75,0,0,1,1.74-3.33,29.82,29.82,0,0,0,6.54,2h0c.54-.43,1.19-.87,1.73-1.3l-1.12.08c.28-.83.57-1.66.84-2.5L7.7,10c.18-.3.34-.6.51-.9A1.51,1.51,0,0,1,6.81,9C6.38,8.75,6,8.4,5.62,8.13,2.28,5.94-1.1,9.66-2,12.67a7.56,7.56,0,0,0-.26,2.42C-2.1,14.48-1.76,14.06-1.35,14.06Z" transform="translate(33.33)" fill="#1b1f61"/><path id="Path_10445" data-name="Path 10445" d="M-1.35,17.3a.85.85,0,0,1-.7-.47,11.09,11.09,0,0,0,.82,2.52h0L-1,17.21A.66.66,0,0,1-1.35,17.3Z" transform="translate(33.33)" fill="#1b1f61"/><path id="Path_10446" data-name="Path 10446" d="M-1.07,15.22a.29.29,0,0,0-.26-.32H-1.4a.46.46,0,0,0-.35.37,1.57,1.57,0,0,0,0,.53.68.68,0,0,0,.22.5.35.35,0,0,0,.4-.05.33.33,0,0,0,0-.41l-.37-.14C-1.33,15.57-1.1,15.39-1.07,15.22Z" transform="translate(33.33)" fill="#eb633e"/></g></g></g><path id="Path_10448" data-name="Path 10448" d="M24.49,29.45a6.24,6.24,0,0,1-3.33-6.58l.15-.84-.38.76a6.18,6.18,0,0,1-6.55,3.35L13.54,26l.76.38A6.21,6.21,0,0,1,17.63,33l-.14.84.38-.77a6.19,6.19,0,0,1,6.55-3.34l.83.14Z" transform="translate(33.33)" fill="#fff"/></g></g><g id="Connector"><line id="Line_72" data-name="Line 72" x1="121.13" y1="62.07" x2="196.68" y2="62.07" fill="none" stroke="#999"/><path id="Path_91" data-name="Path 91" d="M163,55.31V68.84l5.28-6.77Z" transform="translate(33.33)" fill="#999"/></g><g id="trackyourskin"><g id="Group_10" data-name="Group 10"><path id="Path_652" data-name="Path 652" d="M193.32,41.21H183.13V31h10.19Zm-9.9-.3H193v-9.6h-9.6Z" transform="translate(33.33)" fill="#b1b2b3"/></g><g id="Group_11" data-name="Group 11"><path id="Path_653" data-name="Path 653" d="M203.4,41.21H193.21V31H203.4Zm-9.89-.3h9.6v-9.6h-9.6Z" transform="translate(33.33)" fill="#b1b2b3"/></g><g id="Group_12" data-name="Group 12"><path id="Path_654" data-name="Path 654" d="M213.39,41.21H203.2V31h10.19Zm-9.9-.3h9.6v-9.6h-9.6Z" transform="translate(33.33)" fill="#b1b2b3"/></g><g id="Group_13" data-name="Group 13"><path id="Path_655" data-name="Path 655" d="M223.37,41.21H213.18V31h10.19Zm-9.89-.3h9.6v-9.6h-9.6Z" transform="translate(33.33)" fill="#b1b2b3"/></g><g id="Group_14" data-name="Group 14"><path id="Path_656" data-name="Path 656" d="M233.36,41.21H223.17V31h10.19Zm-9.9-.3h9.61v-9.6h-9.61Z" transform="translate(33.33)" fill="#b1b2b3"/></g><g id="Group_15" data-name="Group 15"><path id="Path_657" data-name="Path 657" d="M243.35,41.21h-10.2V31h10.2Zm-9.9-.3h9.6v-9.6h-9.6Z" transform="translate(33.33)" fill="#b1b2b3"/></g><g id="Group_16" data-name="Group 16"><path id="Path_658" data-name="Path 658" d="M253.33,41.21H243.14V31h10.19Zm-9.89-.3H253v-9.6h-9.6Z" transform="translate(33.33)" fill="#b1b2b3"/></g><g id="Group_17" data-name="Group 17"><path id="Path_659" data-name="Path 659" d="M263.32,41.21H253.13V31h10.19Zm-9.9-.3H263v-9.6h-9.6Z" transform="translate(33.33)" fill="#b1b2b3"/></g><g id="Group_18" data-name="Group 18"><path id="Path_660" data-name="Path 660" d="M273.44,41.21H263.25V31h10.19Zm-9.9-.3h9.6v-9.6h-9.6Z" transform="translate(33.33)" fill="#b1b2b3"/></g><g id="Group_19" data-name="Group 19"><path id="Path_661" data-name="Path 661" d="M283.33,41.21H273.14V31h10.19Zm-9.89-.3H283v-9.6h-9.6Z" transform="translate(33.33)" fill="#b1b2b3"/></g><g id="Group_20" data-name="Group 20"><path id="Path_662" data-name="Path 662" d="M193.32,51.1H183.13V40.91h10.19Zm-9.9-.29H193v-9.6h-9.6Z" transform="translate(33.33)" fill="#b1b2b3"/></g><g id="Group_21" data-name="Group 21"><path id="Path_663" data-name="Path 663" d="M203.4,51.1H193.21V40.91H203.4Zm-9.89-.29h9.6v-9.6h-9.6Z" transform="translate(33.33)" fill="#b1b2b3"/></g><g id="Group_22" data-name="Group 22"><path id="Path_664" data-name="Path 664" d="M213.39,51.1H203.2V40.91h10.19Zm-9.9-.29h9.6v-9.6h-9.6Z" transform="translate(33.33)" fill="#b1b2b3"/></g><g id="Group_23" data-name="Group 23"><path id="Path_665" data-name="Path 665" d="M223.37,51.1H213.18V40.91h10.19Zm-9.89-.29h9.6v-9.6h-9.6Z" transform="translate(33.33)" fill="#b1b2b3"/></g><g id="Group_24" data-name="Group 24"><path id="Path_666" data-name="Path 666" d="M233.36,51.1H223.17V40.91h10.19Zm-9.9-.29h9.61v-9.6h-9.61Z" transform="translate(33.33)" fill="#b1b2b3"/></g><g id="Group_25" data-name="Group 25"><path id="Path_667" data-name="Path 667" d="M243.35,51.1h-10.2V40.91h10.2Zm-9.9-.29h9.6v-9.6h-9.6Z" transform="translate(33.33)" fill="#b1b2b3"/></g><g id="Group_26" data-name="Group 26"><path id="Path_668" data-name="Path 668" d="M253.33,51.1H243.14V40.91h10.19Zm-9.89-.29H253v-9.6h-9.6Z" transform="translate(33.33)" fill="#b1b2b3"/></g><g id="Group_27" data-name="Group 27"><path id="Path_669" data-name="Path 669" d="M263.32,51.1H253.13V40.91h10.19Zm-9.9-.29H263v-9.6h-9.6Z" transform="translate(33.33)" fill="#b1b2b3"/></g><g id="Group_28" data-name="Group 28"><path id="Path_670" data-name="Path 670" d="M273.44,51.1H263.25V40.91h10.19Zm-9.9-.29h9.6v-9.6h-9.6Z" transform="translate(33.33)" fill="#b1b2b3"/></g><g id="Group_29" data-name="Group 29"><path id="Path_671" data-name="Path 671" d="M283.33,51.1H273.14V40.91h10.19Zm-9.89-.29H283v-9.6h-9.6Z" transform="translate(33.33)" fill="#b1b2b3"/></g><g id="Group_30" data-name="Group 30"><path id="Path_672" data-name="Path 672" d="M193.32,61H183.13V50.81h10.19Zm-9.9-.3H193V51.1h-9.6Z" transform="translate(33.33)" fill="#b1b2b3"/></g><g id="Group_31" data-name="Group 31"><path id="Path_673" data-name="Path 673" d="M203.4,61H193.21V50.81H203.4Zm-9.89-.3h9.6V51.1h-9.6Z" transform="translate(33.33)" fill="#b1b2b3"/></g><g id="Group_32" data-name="Group 32"><path id="Path_674" data-name="Path 674" d="M213.39,61H203.2V50.81h10.19Zm-9.9-.3h9.6V51.1h-9.6Z" transform="translate(33.33)" fill="#b1b2b3"/></g><g id="Group_33" data-name="Group 33"><path id="Path_675" data-name="Path 675" d="M223.37,61H213.18V50.81h10.19Zm-9.89-.3h9.6V51.1h-9.6Z" transform="translate(33.33)" fill="#b1b2b3"/></g><g id="Group_34" data-name="Group 34"><path id="Path_676" data-name="Path 676" d="M233.36,61H223.17V50.81h10.19Zm-9.9-.3h9.61V51.1h-9.61Z" transform="translate(33.33)" fill="#b1b2b3"/></g><g id="Group_35" data-name="Group 35"><path id="Path_677" data-name="Path 677" d="M243.35,61h-10.2V50.81h10.2Zm-9.9-.3h9.6V51.1h-9.6Z" transform="translate(33.33)" fill="#b1b2b3"/></g><g id="Group_36" data-name="Group 36"><path id="Path_678" data-name="Path 678" d="M253.33,61H243.14V50.81h10.19Zm-9.89-.3H253V51.1h-9.6Z" transform="translate(33.33)" fill="#b1b2b3"/></g><g id="Group_37" data-name="Group 37"><path id="Path_679" data-name="Path 679" d="M263.32,61H253.13V50.81h10.19Zm-9.9-.3H263V51.1h-9.6Z" transform="translate(33.33)" fill="#b1b2b3"/></g><g id="Group_38" data-name="Group 38"><path id="Path_680" data-name="Path 680" d="M273.44,61H263.25V50.81h10.19Zm-9.9-.3h9.6V51.1h-9.6Z" transform="translate(33.33)" fill="#b1b2b3"/></g><g id="Group_39" data-name="Group 39"><path id="Path_681" data-name="Path 681" d="M283.33,61H273.14V50.81h10.19Zm-9.89-.3H283V51.1h-9.6Z" transform="translate(33.33)" fill="#b1b2b3"/></g><g id="Group_40" data-name="Group 40"><path id="Path_682" data-name="Path 682" d="M193.32,70.89H183.13V60.7h10.19Zm-9.9-.3H193V61h-9.6Z" transform="translate(33.33)" fill="#b1b2b3"/></g><g id="Group_41" data-name="Group 41"><path id="Path_683" data-name="Path 683" d="M203.4,70.89H193.21V60.7H203.4Zm-9.89-.3h9.6V61h-9.6Z" transform="translate(33.33)" fill="#b1b2b3"/></g><g id="Group_42" data-name="Group 42"><path id="Path_684" data-name="Path 684" d="M213.39,70.89H203.2V60.7h10.19Zm-9.9-.3h9.6V61h-9.6Z" transform="translate(33.33)" fill="#b1b2b3"/></g><g id="Group_43" data-name="Group 43"><path id="Path_685" data-name="Path 685" d="M223.37,70.89H213.18V60.7h10.19Zm-9.89-.3h9.6V61h-9.6Z" transform="translate(33.33)" fill="#b1b2b3"/></g><g id="Group_44" data-name="Group 44"><path id="Path_686" data-name="Path 686" d="M233.36,70.89H223.17V60.7h10.19Zm-9.9-.3h9.61V61h-9.61Z" transform="translate(33.33)" fill="#b1b2b3"/></g><g id="Group_45" data-name="Group 45"><path id="Path_687" data-name="Path 687" d="M243.35,70.89h-10.2V60.7h10.2Zm-9.9-.3h9.6V61h-9.6Z" transform="translate(33.33)" fill="#b1b2b3"/></g><g id="Group_46" data-name="Group 46"><path id="Path_688" data-name="Path 688" d="M253.33,70.89H243.14V60.7h10.19Zm-9.89-.3H253V61h-9.6Z" transform="translate(33.33)" fill="#b1b2b3"/></g><g id="Group_47" data-name="Group 47"><path id="Path_689" data-name="Path 689" d="M263.32,70.89H253.13V60.7h10.19Zm-9.9-.3H263V61h-9.6Z" transform="translate(33.33)" fill="#b1b2b3"/></g><g id="Group_48" data-name="Group 48"><path id="Path_690" data-name="Path 690" d="M273.44,70.89H263.25V60.7h10.19Zm-9.9-.3h9.6V61h-9.6Z" transform="translate(33.33)" fill="#b1b2b3"/></g><g id="Group_49" data-name="Group 49"><path id="Path_691" data-name="Path 691" d="M283.33,70.89H273.14V60.7h10.19Zm-9.89-.3H283V61h-9.6Z" transform="translate(33.33)" fill="#b1b2b3"/></g><g id="Group_50" data-name="Group 50"><path id="Path_692" data-name="Path 692" d="M193.32,80.79H183.13V70.59h10.19Zm-9.9-.3H193v-9.6h-9.6Z" transform="translate(33.33)" fill="#b1b2b3"/></g><g id="Group_51" data-name="Group 51"><path id="Path_693" data-name="Path 693" d="M203.4,80.79H193.21V70.59H203.4Zm-9.89-.3h9.6v-9.6h-9.6Z" transform="translate(33.33)" fill="#b1b2b3"/></g><g id="Group_52" data-name="Group 52"><path id="Path_694" data-name="Path 694" d="M213.39,80.79H203.2V70.59h10.19Zm-9.9-.3h9.6v-9.6h-9.6Z" transform="translate(33.33)" fill="#b1b2b3"/></g><g id="Group_53" data-name="Group 53"><path id="Path_695" data-name="Path 695" d="M223.37,80.79H213.18V70.59h10.19Zm-9.89-.3h9.6v-9.6h-9.6Z" transform="translate(33.33)" fill="#b1b2b3"/></g><g id="Group_54" data-name="Group 54"><path id="Path_696" data-name="Path 696" d="M233.36,80.79H223.17V70.59h10.19Zm-9.9-.3h9.61v-9.6h-9.61Z" transform="translate(33.33)" fill="#b1b2b3"/></g><g id="Group_55" data-name="Group 55"><path id="Path_697" data-name="Path 697" d="M243.35,80.79h-10.2V70.59h10.2Zm-9.9-.3h9.6v-9.6h-9.6Z" transform="translate(33.33)" fill="#b1b2b3"/></g><g id="Group_56" data-name="Group 56"><path id="Path_698" data-name="Path 698" d="M253.33,80.79H243.14V70.59h10.19Zm-9.89-.3H253v-9.6h-9.6Z" transform="translate(33.33)" fill="#b1b2b3"/></g><g id="Group_57" data-name="Group 57"><path id="Path_699" data-name="Path 699" d="M263.32,80.79H253.13V70.59h10.19Zm-9.9-.3H263v-9.6h-9.6Z" transform="translate(33.33)" fill="#b1b2b3"/></g><g id="Group_58" data-name="Group 58"><path id="Path_700" data-name="Path 700" d="M273.44,80.79H263.25V70.59h10.19Zm-9.9-.3h9.6v-9.6h-9.6Z" transform="translate(33.33)" fill="#b1b2b3"/></g><g id="Group_59" data-name="Group 59"><path id="Path_701" data-name="Path 701" d="M283.33,80.79H273.14V70.59h10.19Zm-9.89-.3H283v-9.6h-9.6Z" transform="translate(33.33)" fill="#b1b2b3"/></g><g id="Group_60" data-name="Group 60"><path id="Path_702" data-name="Path 702" d="M193.32,90.68H183.13V80.49h10.19Zm-9.9-.29H193v-9.6h-9.6Z" transform="translate(33.33)" fill="#b1b2b3"/></g><g id="Group_61" data-name="Group 61"><path id="Path_703" data-name="Path 703" d="M203.4,90.68H193.21V80.49H203.4Zm-9.89-.29h9.6v-9.6h-9.6Z" transform="translate(33.33)" fill="#b1b2b3"/></g><g id="Group_62" data-name="Group 62"><path id="Path_704" data-name="Path 704" d="M213.39,90.68H203.2V80.49h10.19Zm-9.9-.29h9.6v-9.6h-9.6Z" transform="translate(33.33)" fill="#b1b2b3"/></g><g id="Group_63" data-name="Group 63"><path id="Path_705" data-name="Path 705" d="M223.37,90.68H213.18V80.49h10.19Zm-9.89-.29h9.6v-9.6h-9.6Z" transform="translate(33.33)" fill="#b1b2b3"/></g><g id="Group_64" data-name="Group 64"><path id="Path_706" data-name="Path 706" d="M233.36,90.68H223.17V80.49h10.19Zm-9.9-.29h9.61v-9.6h-9.61Z" transform="translate(33.33)" fill="#b1b2b3"/></g><g id="Group_65" data-name="Group 65"><path id="Path_707" data-name="Path 707" d="M243.35,90.68h-10.2V80.49h10.2Zm-9.9-.29h9.6v-9.6h-9.6Z" transform="translate(33.33)" fill="#b1b2b3"/></g><g id="Group_66" data-name="Group 66"><path id="Path_708" data-name="Path 708" d="M253.33,90.68H243.14V80.49h10.19Zm-9.89-.29H253v-9.6h-9.6Z" transform="translate(33.33)" fill="#b1b2b3"/></g><g id="Group_67" data-name="Group 67"><path id="Path_709" data-name="Path 709" d="M263.32,90.68H253.13V80.49h10.19Zm-9.9-.29H263v-9.6h-9.6Z" transform="translate(33.33)" fill="#b1b2b3"/></g><g id="Group_68" data-name="Group 68"><path id="Path_710" data-name="Path 710" d="M273.44,90.68H263.25V80.49h10.19Zm-9.9-.29h9.6v-9.6h-9.6Z" transform="translate(33.33)" fill="#b1b2b3"/></g><g id="Group_69" data-name="Group 69"><path id="Path_711" data-name="Path 711" d="M283.33,90.68H273.14V80.49h10.19Zm-9.89-.29H283v-9.6h-9.6Z" transform="translate(33.33)" fill="#b1b2b3"/></g><path id="Path_712" data-name="Path 712" d="M183.57,88.18a2.36,2.36,0,1,1-2.35,2.35,2.36,2.36,0,0,1,2.35-2.35" transform="translate(33.33)" fill="#1b1a19" fill-rule="evenodd"/><path id="Path_713" data-name="Path 713" d="M203.31,58.49A2.36,2.36,0,1,1,201,60.85a2.36,2.36,0,0,1,2.35-2.36" transform="translate(33.33)" fill="#1b1a19" fill-rule="evenodd"/><path id="Path_714" data-name="Path 714" d="M223.28,68.39a2.36,2.36,0,1,1-2.36,2.35,2.35,2.35,0,0,1,2.36-2.35" transform="translate(33.33)" fill="#1b1a19" fill-rule="evenodd"/><path id="Path_715" data-name="Path 715" d="M233.26,58.49a2.36,2.36,0,1,1-2.36,2.36,2.36,2.36,0,0,1,2.36-2.36" transform="translate(33.33)" fill="#1b1a19" fill-rule="evenodd"/><path id="Path_716" data-name="Path 716" d="M253.22,48.6A2.36,2.36,0,1,1,250.86,51a2.35,2.35,0,0,1,2.36-2.35" transform="translate(33.33)" fill="#1b1a19" fill-rule="evenodd"/><path id="Path_717" data-name="Path 717" d="M263.2,58.49a2.36,2.36,0,1,1-2.36,2.36,2.36,2.36,0,0,1,2.36-2.36" transform="translate(33.33)" fill="#1b1a19" fill-rule="evenodd"/><path id="Path_718" data-name="Path 718" d="M273.29,38.7a2.36,2.36,0,1,1-2.36,2.36,2.36,2.36,0,0,1,2.36-2.36" transform="translate(33.33)" fill="#1b1a19" fill-rule="evenodd"/><g id="Group_70" data-name="Group 70"><path id="Path_719" data-name="Path 719" d="M183.4,90.62l-.25-.16L203,60.66l.11.06,19.7,9.84,9.82-9.82.21.21-10,10-.1,0L203.12,61Z" transform="translate(33.33)" fill="#1b1a19"/></g><g id="Group_71" data-name="Group 71"><path id="Path_720" data-name="Path 720" d="M263.43,61.1l-10-10L234.36,61l-.13-.26,19.3-9.95,9.82,9.83,9.8-19.6.27.13Z" transform="translate(33.33)" fill="#1b1a19"/></g></g><path d="M224.43,96.17H222v-.89h6v.89h-2.48v7.22h-1Z" transform="translate(33.33)"/><path d="M229.86,95.93a.62.62,0,0,1-.67.65.63.63,0,0,1-.64-.65.65.65,0,0,1,.66-.66A.63.63,0,0,1,229.86,95.93Zm-1.18,7.46V97.57h1.06v5.82Z" transform="translate(33.33)"/><path d="M231.5,99.14c0-.6,0-1.09-.05-1.57h.93l0,.94h0a2,2,0,0,1,1.83-1.07,1.71,1.71,0,0,1,1.64,1.16h0a2.58,2.58,0,0,1,.65-.76,2,2,0,0,1,1.28-.4c.77,0,1.92.5,1.92,2.52v3.43h-1v-3.3c0-1.12-.41-1.79-1.26-1.79a1.38,1.38,0,0,0-1.25,1,1.73,1.73,0,0,0-.09.53v3.6h-1V99.9c0-.93-.41-1.6-1.21-1.6a1.44,1.44,0,0,0-1.31,1.06,1.5,1.5,0,0,0-.09.52v3.51h-1Z" transform="translate(33.33)"/><path d="M242.12,100.67a1.86,1.86,0,0,0,2,2,3.85,3.85,0,0,0,1.62-.3l.18.76a4.72,4.72,0,0,1-1.94.36,2.7,2.7,0,0,1-2.86-2.94c0-1.75,1-3.13,2.73-3.13a2.46,2.46,0,0,1,2.4,2.74,4.88,4.88,0,0,1,0,.49Zm3.1-.76a1.51,1.51,0,0,0-1.47-1.72,1.75,1.75,0,0,0-1.62,1.72Z" transform="translate(33.33)"/><path d="M180,87.9A3.69,3.69,0,0,0,180.5,86c0-1.07-.57-1.69-1.38-1.69s-1.19.43-1.62,1.53C177,87.18,176.35,88,175.21,88a2.34,2.34,0,0,1-2.2-2.63,3.73,3.73,0,0,1,.39-1.79l.86.29a3.19,3.19,0,0,0-.39,1.54c0,1.11.67,1.53,1.22,1.53.76,0,1.13-.5,1.56-1.61.53-1.37,1.19-2.07,2.38-2.07s2.33.92,2.33,2.84a4.14,4.14,0,0,1-.51,2.06Z" transform="translate(33.33)"/><path d="M178.09,80.82v0c-.2-.14-.45-.35-.66-.52l-2-1.7V77.29l2.4,2.25L181.24,77v1.29l-2.79,2,.61.55h2.18v1h-8.53v-1Z" transform="translate(33.33)"/><path d="M173.79,74.84a.62.62,0,0,1,.65.67.63.63,0,0,1-.65.64.65.65,0,0,1-.66-.66A.63.63,0,0,1,173.79,74.84ZM181.24,76h-5.82V75h5.82Z" transform="translate(33.33)"/><path d="M177,73.2c-.6,0-1.09,0-1.58,0v-.94l1-.06v0a2.13,2.13,0,0,1-1.1-1.93c0-.8.48-2,2.48-2h3.47v1.06h-3.35c-.94,0-1.72.35-1.72,1.34a1.5,1.5,0,0,0,1.08,1.42,1.47,1.47,0,0,0,.5.07h3.49V73.2Z" transform="translate(33.33)"/><path d="M172.71,64V62.92h3.63v0a1.93,1.93,0,0,1-.75-.75,2.22,2.22,0,0,1-.3-1.09c0-.78.48-2,2.49-2h3.46v1.06H177.9c-.94,0-1.73.35-1.73,1.35a1.53,1.53,0,0,0,1.06,1.42,1.26,1.26,0,0,0,.5.07h3.51V64Z" transform="translate(33.33)"/><path d="M178.53,56.71a1.86,1.86,0,0,0,2-2,3.92,3.92,0,0,0-.3-1.61l.75-.19a4.76,4.76,0,0,1,.36,1.94,2.7,2.7,0,0,1-2.93,2.86c-1.76,0-3.14-1-3.14-2.73a2.46,2.46,0,0,1,2.74-2.4,2.85,2.85,0,0,1,.5,0Zm-.76-3.1a1.51,1.51,0,0,0-1.72,1.47,1.75,1.75,0,0,0,1.72,1.62Z" transform="translate(33.33)"/><path d="M181.24,48.05l-.73.09v0a2.17,2.17,0,0,1,.87,1.78,1.66,1.66,0,0,1-1.67,1.78c-1.41,0-2.18-1.25-2.17-3.5h-.12a1.21,1.21,0,0,0-1.35,1.33,2.84,2.84,0,0,0,.44,1.51l-.7.24a3.64,3.64,0,0,1-.52-1.91c0-1.78,1.22-2.21,2.38-2.21h2.18a8.32,8.32,0,0,0,1.39-.1Zm-3,.16c0,1.15.18,2.47,1.31,2.47a.94.94,0,0,0,1-1,1.45,1.45,0,0,0-1-1.41,1,1,0,0,0-.34-.06Z" transform="translate(33.33)"/><path d="M172.71,45.48V44.42h8.53v1.06Z" transform="translate(33.33)"/><path d="M173.75,41.37h1.67V39.85h.81v1.52h3.14c.72,0,1.13-.21,1.13-.8a2.68,2.68,0,0,0-.07-.61l.79-.05a2.73,2.73,0,0,1,.14.94,1.45,1.45,0,0,1-.44,1.14,2.16,2.16,0,0,1-1.52.41h-3.17v.9h-.81v-.9H174Z" transform="translate(33.33)"/><path d="M172.71,38.66V37.6h3.63v0a2,2,0,0,1-.75-.76,2.19,2.19,0,0,1-.3-1.08c0-.78.48-2,2.49-2h3.46v1H177.9c-.94,0-1.73.35-1.73,1.35a1.51,1.51,0,0,0,1.06,1.42,1.26,1.26,0,0,0,.5.07h3.51v1.06Z" transform="translate(33.33)"/></svg>