<svg id="Layer_1" data-name="Layer 1" xmlns="http://www.w3.org/2000/svg" viewBox="0 0 67.5 20"><title>down01</title><path d="M99.1,20H36.36A2.37,2.37,0,0,1,34,17.63V2.36A2.36,2.36,0,0,1,36.36,0H99.1a2.4,2.4,0,0,1,2.4,2.36V17.63A2.4,2.4,0,0,1,99.1,20Z" transform="translate(-34)" fill="#a6a6a6"/><path d="M101,17.63a1.92,1.92,0,0,1-1.92,1.92H36.36a1.92,1.92,0,0,1-1.91-1.92V2.36A1.92,1.92,0,0,1,36.36.44H99.1A1.92,1.92,0,0,1,101,2.36V17.63Z" transform="translate(-34)"/><path d="M49.06,9.89a2.92,2.92,0,0,1,1.38-2.43A2.94,2.94,0,0,0,48.11,6.2c-1-.11-1.94.58-2.44.58s-1.28-.57-2.12-.56a3.13,3.13,0,0,0-2.62,1.6c-1.13,2-.28,4.84.8,6.43.54.78,1.18,1.64,2,1.61s1.12-.51,2.1-.51,1.25.51,2.1.49,1.42-.78,1.94-1.56a6.41,6.41,0,0,0,.89-1.81A2.82,2.82,0,0,1,49.06,9.89Z" transform="translate(-34)" fill="#fff"/><path d="M47.46,5.15a2.84,2.84,0,0,0,.66-2,2.91,2.91,0,0,0-1.88,1,2.74,2.74,0,0,0-.67,2A2.39,2.39,0,0,0,47.46,5.15Z" transform="translate(-34)" fill="#fff"/><path d="M60.82,15.75H59.69l-.62-1.95H56.9l-.59,1.95H55.2L57.35,9.1h1.32ZM58.88,13l-.56-1.74c-.06-.18-.18-.6-.34-1.25h0c-.07.28-.17.7-.32,1.25L57.09,13Z" transform="translate(-34)" fill="#fff"/><path d="M66.33,13.29a2.75,2.75,0,0,1-.66,1.94,2,2,0,0,1-1.47.63,1.47,1.47,0,0,1-1.36-.68h0v2.53H61.75V12.53c0-.51,0-1,0-1.58h.94l.06.76h0a1.9,1.9,0,0,1,3-.18A2.61,2.61,0,0,1,66.33,13.29Zm-1.08,0a2,2,0,0,0-.32-1.15A1.09,1.09,0,0,0,64,11.7a1.07,1.07,0,0,0-.71.27,1.13,1.13,0,0,0-.42.68,1.1,1.1,0,0,0,0,.33v.8a1.24,1.24,0,0,0,.32.88A1.05,1.05,0,0,0,64,15a1.09,1.09,0,0,0,.94-.46A2.08,2.08,0,0,0,65.25,13.33Z" transform="translate(-34)" fill="#fff"/><path d="M71.85,13.29a2.75,2.75,0,0,1-.66,1.94,2,2,0,0,1-1.47.63,1.49,1.49,0,0,1-1.37-.68h0v2.53H67.27V12.53c0-.51,0-1,0-1.58h.94l.06.76h0a1.9,1.9,0,0,1,3-.18A2.61,2.61,0,0,1,71.85,13.29Zm-1.09,0a2,2,0,0,0-.31-1.15,1.09,1.09,0,0,0-.93-.48,1.11,1.11,0,0,0-.72.27,1.24,1.24,0,0,0-.42.68,1.56,1.56,0,0,0,0,.33v.8a1.29,1.29,0,0,0,.32.88,1.18,1.18,0,0,0,1.78-.1A2.08,2.08,0,0,0,70.76,13.33Z" transform="translate(-34)" fill="#fff"/><path d="M78,13.89a1.8,1.8,0,0,1-.59,1.38,2.61,2.61,0,0,1-1.81.58,3.26,3.26,0,0,1-1.73-.41l.25-.89a3,3,0,0,0,1.54.42,1.48,1.48,0,0,0,.94-.27A.89.89,0,0,0,77,14a.94.94,0,0,0-.27-.68,2.73,2.73,0,0,0-.92-.51C74.59,12.34,74,11.71,74,10.87a1.72,1.72,0,0,1,.61-1.35A2.47,2.47,0,0,1,76.25,9a3.22,3.22,0,0,1,1.51.32l-.26.87a2.58,2.58,0,0,0-1.28-.31,1.25,1.25,0,0,0-.87.28.77.77,0,0,0-.27.6.82.82,0,0,0,.3.65,3.32,3.32,0,0,0,1,.51,3.31,3.31,0,0,1,1.27.81A1.76,1.76,0,0,1,78,13.89Z" transform="translate(-34)" fill="#fff"/><path d="M81.54,11.75H80.37v2.33c0,.6.21.89.62.89a1.57,1.57,0,0,0,.47-.05l0,.81a2.33,2.33,0,0,1-.82.12,1.27,1.27,0,0,1-1-.39,1.84,1.84,0,0,1-.36-1.29V11.75h-.7V11h.7v-.88l1.05-.31V11h1.17Z" transform="translate(-34)" fill="#fff"/><path d="M86.85,13.31a2.64,2.64,0,0,1-.64,1.82,2.23,2.23,0,0,1-1.75.73,2.15,2.15,0,0,1-1.69-.7,2.6,2.6,0,0,1-.62-1.77,2.59,2.59,0,0,1,.64-1.82,2.21,2.21,0,0,1,1.74-.71,2.17,2.17,0,0,1,1.7.7A2.51,2.51,0,0,1,86.85,13.31Zm-1.11,0a2.19,2.19,0,0,0-.29-1.14,1,1,0,0,0-1-.57,1.07,1.07,0,0,0-1,.57,2.22,2.22,0,0,0-.29,1.16,2.19,2.19,0,0,0,.29,1.14,1.09,1.09,0,0,0,1.92,0A2.17,2.17,0,0,0,85.74,13.35Z" transform="translate(-34)" fill="#fff"/><path d="M90.31,11.89a1.79,1.79,0,0,0-.34,0,1,1,0,0,0-.86.43,1.56,1.56,0,0,0-.27.94v2.52H87.77V12.47c0-.56,0-1.06,0-1.52h.93l0,.92h0a1.66,1.66,0,0,1,.53-.76,1.31,1.31,0,0,1,.77-.25,1.14,1.14,0,0,1,.27,0Z" transform="translate(-34)" fill="#fff"/><path d="M95.08,13.13a2.21,2.21,0,0,1,0,.48h-3.2a1.42,1.42,0,0,0,.46,1.09,1.61,1.61,0,0,0,1,.33,3.33,3.33,0,0,0,1.29-.23l.17.74a4,4,0,0,1-1.61.3,2.33,2.33,0,0,1-1.75-.66,2.42,2.42,0,0,1-.64-1.76,2.72,2.72,0,0,1,.6-1.8,2,2,0,0,1,1.67-.77,1.76,1.76,0,0,1,1.57.77A2.52,2.52,0,0,1,95.08,13.13Zm-1-.28a1.38,1.38,0,0,0-.21-.82.9.9,0,0,0-.84-.44,1,1,0,0,0-.85.43,1.56,1.56,0,0,0-.32.83Z" transform="translate(-34)" fill="#fff"/><path d="M58.52,5A1.63,1.63,0,0,1,58,6.33a2.09,2.09,0,0,1-1.4.42c-.29,0-.55,0-.76,0V3.49a6.32,6.32,0,0,1,.9-.07A2,2,0,0,1,58,3.8,1.51,1.51,0,0,1,58.52,5ZM58,5a1.22,1.22,0,0,0-.3-.88,1.21,1.21,0,0,0-.89-.3,2.58,2.58,0,0,0-.42,0V6.31l.36,0A1.19,1.19,0,0,0,57.64,6,1.31,1.31,0,0,0,58,5Z" transform="translate(-34)" fill="#fff"/><path d="M61.45,5.52a1.27,1.27,0,0,1-.31.89,1.09,1.09,0,0,1-.86.36,1.06,1.06,0,0,1-.83-.34,1.28,1.28,0,0,1-.3-.87,1.28,1.28,0,0,1,.31-.9,1.13,1.13,0,0,1,.86-.35,1.06,1.06,0,0,1,.83.35A1.23,1.23,0,0,1,61.45,5.52Zm-.54,0A1.08,1.08,0,0,0,60.77,5a.53.53,0,0,0-1,0,1.09,1.09,0,0,0-.14.57,1.07,1.07,0,0,0,.14.55.53.53,0,0,0,.48.29.54.54,0,0,0,.47-.29A1.13,1.13,0,0,0,60.91,5.54Z" transform="translate(-34)" fill="#fff"/><path d="M65.38,4.36l-.73,2.36h-.48l-.31-1a7,7,0,0,1-.19-.76h0a6.49,6.49,0,0,1-.19.76l-.32,1h-.49L62,4.36h.54l.26,1.12c.07.26.12.52.16.76h0c0-.2.11-.45.2-.76l.33-1.12h.43l.32,1.1c.08.27.14.53.19.78h0c0-.25.09-.5.16-.78l.29-1.1Z" transform="translate(-34)" fill="#fff"/><path d="M68.1,6.72h-.52V5.37q0-.63-.48-.63a.49.49,0,0,0-.38.17.6.6,0,0,0-.14.41v1.4h-.53V5c0-.2,0-.43,0-.67h.46l0,.37h0a.75.75,0,0,1,.27-.29.89.89,0,0,1,.48-.13.77.77,0,0,1,.55.21,1.06,1.06,0,0,1,.27.78Z" transform="translate(-34)" fill="#fff"/><path d="M69.54,6.72H69V3.28h.52Z" transform="translate(-34)" fill="#fff"/><path d="M72.63,5.52a1.27,1.27,0,0,1-.31.89,1.12,1.12,0,0,1-.86.36,1,1,0,0,1-.83-.34,1.24,1.24,0,0,1-.31-.87,1.29,1.29,0,0,1,.32-.9,1.11,1.11,0,0,1,.85-.35,1.09,1.09,0,0,1,.84.35A1.23,1.23,0,0,1,72.63,5.52Zm-.55,0A1,1,0,0,0,71.94,5a.51.51,0,0,0-.47-.29A.53.53,0,0,0,71,5a1.09,1.09,0,0,0-.14.57A1.07,1.07,0,0,0,71,6.1a.55.55,0,0,0,.48.29.53.53,0,0,0,.47-.29A1,1,0,0,0,72.08,5.54Z" transform="translate(-34)" fill="#fff"/><path d="M75.17,6.72h-.48l0-.28h0a.8.8,0,0,1-.69.33.73.73,0,0,1-.54-.21.68.68,0,0,1-.18-.48.73.73,0,0,1,.36-.66,1.84,1.84,0,0,1,1-.23v0a.43.43,0,0,0-.49-.47,1.1,1.1,0,0,0-.62.18l-.1-.34a1.48,1.48,0,0,1,.81-.21c.61,0,.92.33.92,1v.86A2.91,2.91,0,0,0,75.17,6.72Zm-.55-.81V5.54q-.87,0-.87.48a.37.37,0,0,0,.1.27.35.35,0,0,0,.26.1.54.54,0,0,0,.32-.11A.46.46,0,0,0,74.61,6,.28.28,0,0,0,74.62,5.91Z" transform="translate(-34)" fill="#fff"/><path d="M78.14,6.72h-.46l0-.38h0a.78.78,0,0,1-.76.43.91.91,0,0,1-.71-.33,1.37,1.37,0,0,1-.28-.87,1.36,1.36,0,0,1,.31-.93,1,1,0,0,1,.73-.33.72.72,0,0,1,.66.32h0V3.28h.52v2.8C78.12,6.31,78.13,6.52,78.14,6.72Zm-.54-1V5.33a.79.79,0,0,0,0-.17.55.55,0,0,0-.18-.31.51.51,0,0,0-.35-.13.57.57,0,0,0-.47.23,1,1,0,0,0-.16.6.94.94,0,0,0,.16.57.54.54,0,0,0,.46.23.51.51,0,0,0,.41-.2A.64.64,0,0,0,77.6,5.72Z" transform="translate(-34)" fill="#fff"/><path d="M82.62,5.52a1.27,1.27,0,0,1-.31.89,1.09,1.09,0,0,1-.86.36,1.06,1.06,0,0,1-.83-.34,1.28,1.28,0,0,1-.3-.87,1.28,1.28,0,0,1,.31-.9,1.13,1.13,0,0,1,.86-.35,1.06,1.06,0,0,1,.83.35A1.23,1.23,0,0,1,82.62,5.52Zm-.54,0A1.08,1.08,0,0,0,81.94,5a.53.53,0,0,0-1,0,1.09,1.09,0,0,0-.14.57A1.07,1.07,0,0,0,81,6.1a.53.53,0,0,0,.48.29.54.54,0,0,0,.47-.29A1.13,1.13,0,0,0,82.08,5.54Z" transform="translate(-34)" fill="#fff"/><path d="M85.44,6.72h-.52V5.37q0-.63-.48-.63a.5.5,0,0,0-.38.17.66.66,0,0,0-.14.41v1.4h-.53V5c0-.2,0-.43,0-.67h.46l0,.37h0a.75.75,0,0,1,.27-.29.85.85,0,0,1,.47-.13.77.77,0,0,1,.55.21,1.06,1.06,0,0,1,.27.78Z" transform="translate(-34)" fill="#fff"/><path d="M89,4.75h-.58V5.9c0,.29.1.43.31.43a.79.79,0,0,0,.23,0v.4a1.15,1.15,0,0,1-.4,0,.66.66,0,0,1-.49-.18.93.93,0,0,1-.17-.64V4.75h-.35V4.36h.35V3.93l.51-.16v.59H89v.39Z" transform="translate(-34)" fill="#fff"/><path d="M91.74,6.72h-.52V5.38c0-.43-.16-.64-.48-.64a.5.5,0,0,0-.5.37.92.92,0,0,0,0,.19V6.72h-.53V3.28h.53V4.7h0a.79.79,0,0,1,.71-.39.76.76,0,0,1,.54.21,1.13,1.13,0,0,1,.26.8Z" transform="translate(-34)" fill="#fff"/><path d="M94.6,5.43a.79.79,0,0,1,0,.23H93a.7.7,0,0,0,.23.54.76.76,0,0,0,.51.16,1.62,1.62,0,0,0,.64-.11l.08.37a2.07,2.07,0,0,1-.79.14,1.17,1.17,0,0,1-.86-.32,1.2,1.2,0,0,1-.31-.87,1.3,1.3,0,0,1,.29-.88,1,1,0,0,1,.82-.38.85.85,0,0,1,.77.38A1.24,1.24,0,0,1,94.6,5.43Zm-.5-.14a.66.66,0,0,0-.1-.4.45.45,0,0,0-.42-.22.48.48,0,0,0-.41.21.82.82,0,0,0-.16.41Z" transform="translate(-34)" fill="#fff"/></svg>