<svg id="US_UK_Download_on_the" data-name="US UK Download on the" xmlns="http://www.w3.org/2000/svg" xmlns:xlink="http://www.w3.org/1999/xlink" viewBox="0 0 135 40"><defs><linearGradient id="linear-gradient" x1="1390.41" y1="1548.35" x2="1388.97" y2="1547.61" gradientTransform="matrix(11.64, 0, 0, -22.55, -16162.64, 34924.12)" gradientUnits="userSpaceOnUse"><stop offset="0" stop-color="#00a0ff"/><stop offset="0.01" stop-color="#00a1ff"/><stop offset="0.26" stop-color="#00beff"/><stop offset="0.51" stop-color="#00d2ff"/><stop offset="0.76" stop-color="#00dfff"/><stop offset="1" stop-color="#00e3ff"/></linearGradient><linearGradient id="linear-gradient-2" x1="1355.11" y1="1548.54" x2="1352.47" y2="1548.54" gradientTransform="matrix(9.15, 0, 0, -7.7, -12357.97, 11943.75)" gradientUnits="userSpaceOnUse"><stop offset="0" stop-color="#ffe000"/><stop offset="0.41" stop-color="#ffbd00"/><stop offset="0.78" stop-color="orange"/><stop offset="1" stop-color="#ff9c00"/></linearGradient><linearGradient id="linear-gradient-3" x1="1419.85" y1="1548.4" x2="1418.34" y2="1546.44" gradientTransform="matrix(15.02, 0, 0, -11.58, -21299.45, 17950.71)" gradientUnits="userSpaceOnUse"><stop offset="0" stop-color="#ff3a44"/><stop offset="1" stop-color="#c31162"/></linearGradient><linearGradient id="linear-gradient-4" x1="1418.64" y1="1549.47" x2="1419.31" y2="1548.59" gradientTransform="matrix(15.02, 0, 0, -11.57, -21299.45, 17928.74)" gradientUnits="userSpaceOnUse"><stop offset="0" stop-color="#32a071"/><stop offset="0.07" stop-color="#2da771"/><stop offset="0.48" stop-color="#15cf74"/><stop offset="0.8" stop-color="#06e775"/><stop offset="1" stop-color="#00f076"/></linearGradient></defs><title>down2</title><path d="M130,40H5a5,5,0,0,1-5-5V5A5,5,0,0,1,5,0H130a5,5,0,0,1,5,5V35A5,5,0,0,1,130,40Z" fill-rule="evenodd"/><path d="M130,.8A4.21,4.21,0,0,1,134.2,5V35a4.21,4.21,0,0,1-4.2,4.2H5A4.21,4.21,0,0,1,.8,35V5A4.21,4.21,0,0,1,5,.8Zm0-.8H5A5,5,0,0,0,0,5V35a5,5,0,0,0,5,5H130a5,5,0,0,0,5-5V5A5,5,0,0,0,130,0Z" fill="#a6a6a6" fill-rule="evenodd"/><path d="M71.12,13.23a3,3,0,0,1-2.26-.94A3.2,3.2,0,0,1,67.94,10a3.11,3.11,0,0,1,.92-2.29,3.19,3.19,0,0,1,4.52,0,3.34,3.34,0,0,1,0,4.58A3,3,0,0,1,71.12,13.23Zm-26.83,0a3.18,3.18,0,0,1-3.2-3.16V10a3.18,3.18,0,0,1,3.13-3.23h.07A3.25,3.25,0,0,1,45.56,7a2.52,2.52,0,0,1,1,.7l.06.07L46,8.43l-.07-.08a1.93,1.93,0,0,0-1.57-.68,2.15,2.15,0,0,0-1.55.64A2.23,2.23,0,0,0,42.07,10a2.25,2.25,0,0,0,.66,1.66,2.26,2.26,0,0,0,3.15,0,1.69,1.69,0,0,0,.46-1H44.18v-1h3.09v.09a3.53,3.53,0,0,1,0,.46,2.78,2.78,0,0,1-.77,2.07A3,3,0,0,1,44.29,13.23ZM80,13.1H79L76.1,8.42V13.1h-1V6.9h1.08L79,11.36V6.9h1Zm-16,0H63V7.83H61.34V6.9h4.3v.93H64Zm-3.42,0h-1V6.9h1Zm-5.4,0h-1V7.83H52.52V6.9h4.3v.93H55.15Zm-3.24,0H48.22V6.9h3.69v.93H49.19v1.7h2.45v.93H49.19v1.7h2.72Zm17.65-1.44a2.13,2.13,0,0,0,1.56.65,2.08,2.08,0,0,0,1.56-.65,2.26,2.26,0,0,0,.6-1.66,2.25,2.25,0,0,0-.63-1.65,2.13,2.13,0,0,0-1.56-.65,2,2,0,0,0-1.55.65A2.26,2.26,0,0,0,68.93,10a2.25,2.25,0,0,0,.63,1.65Z" fill="#fff"/><path d="M67.85,21.76A4.25,4.25,0,1,0,72.1,26h0A4.18,4.18,0,0,0,68,21.76Zm0,6.82a2.59,2.59,0,1,1,2.38-2.78,1.34,1.34,0,0,1,0,.2,2.46,2.46,0,0,1-2.34,2.58Zm-9.27-6.82A4.25,4.25,0,1,0,62.83,26h0a4.17,4.17,0,0,0-4.1-4.24Zm0,6.82A2.59,2.59,0,1,1,61,25.83.91.91,0,0,1,61,26a2.46,2.46,0,0,1-2.34,2.58Zm-11-5.53v1.81h4.3a3.77,3.77,0,0,1-1,2.26,4.33,4.33,0,0,1-3.32,1.32,4.8,4.8,0,0,1,0-9.6,4.6,4.6,0,0,1,3.24,1.29l1.27-1.27A6.19,6.19,0,0,0,47.57,17a6.6,6.6,0,0,0,0,13.2h0a5.85,5.85,0,0,0,6.15-5.52,5,5,0,0,0,0-.55,5.34,5.34,0,0,0-.1-1.13H47.55ZM92.7,24.46A3.91,3.91,0,0,0,89,21.75a4,4,0,0,0-4,4A2.26,2.26,0,0,0,85,26a4.14,4.14,0,0,0,4,4.25h.18a4.18,4.18,0,0,0,3.52-1.88l-1.43-1a2.43,2.43,0,0,1-2.08,1.18,2.17,2.17,0,0,1-2.06-1.29l5.66-2.36Zm-5.8,1.42a2.32,2.32,0,0,1,2.15-2.48h.06a1.64,1.64,0,0,1,1.57.9ZM82.29,30h1.86V17.5H82.29Zm-3.05-7.3h-.07a2.93,2.93,0,0,0-2.23-.95,4.25,4.25,0,0,0,0,8.5,2.93,2.93,0,0,0,2.23-1h.07v.61c0,1.62-.86,2.5-2.26,2.5a2.33,2.33,0,0,1-2.13-1.51l-1.62.68A4,4,0,0,0,77,34.07c2.18,0,4-1.29,4-4.44V22H79.25v.7ZM77.1,28.58a2.42,2.42,0,0,1-2.35-2.5V26a2.45,2.45,0,0,1,2.3-2.59h0a2.4,2.4,0,0,1,2.27,2.51.22.22,0,0,0,0,.08,2.36,2.36,0,0,1-2.13,2.57ZM101.38,17.5H96.93V30H98.8V25.27h2.59a3.89,3.89,0,0,0,.39-7.77,2.54,2.54,0,0,0-.39,0Zm.06,6H98.79V19.23h2.65a2.15,2.15,0,1,1,.29,4.29,1.4,1.4,0,0,1-.29,0Zm11.48-1.79a3.5,3.5,0,0,0-3.32,1.91l1.65.69a1.75,1.75,0,0,1,1.7-.92,1.82,1.82,0,0,1,2,1.6h0v.13a4.22,4.22,0,0,0-1.94-.48c-1.78,0-3.59,1-3.59,2.81a2.88,2.88,0,0,0,3,2.77h.1A2.63,2.63,0,0,0,114.84,29h.06v1h1.8V25.2c0-2.2-1.65-3.47-3.78-3.47Zm-.23,6.85c-.61,0-1.46-.3-1.46-1.07,0-1,1.06-1.33,2-1.33a3.13,3.13,0,0,1,1.69.42,2.23,2.23,0,0,1-2.23,2ZM123.24,22l-2.14,5.42H121L118.82,22h-2l3.32,7.58-1.89,4.21h1.94L125.29,22Zm-16.75,8h1.86V17.5h-1.86Z" fill="#fff" fill-rule="evenodd"/><path d="M10.39,7.53A2,2,0,0,0,9.94,9V31.06a1.93,1.93,0,0,0,.46,1.4l.08.06L22.82,20.13v-.27L10.47,7.47Z" fill-rule="evenodd" fill="url(#linear-gradient)"/><path d="M26.92,24.28l-4.11-4.14v-.28l4.11-4.14.09.06,4.87,2.78c1.39.78,1.39,2.09,0,2.88L27,24.22Z" fill-rule="evenodd" fill="url(#linear-gradient-2)"/><path d="M27,24.22,22.81,20,10.39,32.47a1.62,1.62,0,0,0,2.07.06L27,24.22" fill-rule="evenodd" fill="url(#linear-gradient-3)"/><path d="M27,15.78,12.46,7.48a1.62,1.62,0,0,0-2.07.07L22.81,20Z" fill-rule="evenodd" fill="url(#linear-gradient-4)"/><path d="M26.92,24.13,12.47,32.38a1.65,1.65,0,0,1-2,0l-.08.07.08.07a1.62,1.62,0,0,0,2,0L27,24.22Z" fill-rule="evenodd" opacity="0.2" style="isolation:isolate"/><path d="M31.88,21.3l-5,2.83.09.09,4.87-2.78a1.75,1.75,0,0,0,1-1.44A1.83,1.83,0,0,1,31.88,21.3Z" fill-rule="evenodd" opacity="0.12" style="isolation:isolate"/><path d="M12.46,7.62,31.88,18.7a1.82,1.82,0,0,1,1,1.3,1.73,1.73,0,0,0-1-1.44L12.46,7.48C11.07,6.68,9.94,7.35,9.94,9v.14C9.94,7.49,11.07,6.83,12.46,7.62Z" fill="#fff" fill-rule="evenodd" opacity="0.25" style="isolation:isolate"/></svg>