<svg id="Layer_1" data-name="Layer 1" xmlns="http://www.w3.org/2000/svg" xmlns:xlink="http://www.w3.org/1999/xlink" viewBox="0 0 68 20.15"><defs><linearGradient id="linear-gradient" x1="1392.4" y1="1538.1" x2="1391.68" y2="1537.73" gradientTransform="matrix(11.64, 0, 0, -22.55, -16162.64, 34688.62)" gradientUnits="userSpaceOnUse"><stop offset="0" stop-color="#00a0ff"/><stop offset="0.01" stop-color="#00a1ff"/><stop offset="0.26" stop-color="#00beff"/><stop offset="0.51" stop-color="#00d2ff"/><stop offset="0.76" stop-color="#00dfff"/><stop offset="1" stop-color="#00e3ff"/></linearGradient><linearGradient id="linear-gradient-2" x1="1356.59" y1="1538.54" x2="1355.26" y2="1538.54" gradientTransform="matrix(9.15, 0, 0, -7.7, -12357.97, 11856.75)" gradientUnits="userSpaceOnUse"><stop offset="0" stop-color="#ffe000"/><stop offset="0.41" stop-color="#ffbd00"/><stop offset="0.78" stop-color="orange"/><stop offset="1" stop-color="#ff9c00"/></linearGradient><linearGradient id="linear-gradient-3" x1="1421.23" y1="1538.41" x2="1420.47" y2="1537.42" gradientTransform="matrix(15.02, 0, 0, -11.58, -21299.45, 17824.91)" gradientUnits="userSpaceOnUse"><stop offset="0" stop-color="#ff3a44"/><stop offset="1" stop-color="#c31162"/></linearGradient><linearGradient id="linear-gradient-4" x1="1420.62" y1="1538.67" x2="1420.96" y2="1538.23" gradientTransform="matrix(15.02, 0, 0, -11.57, -21299.45, 17803.04)" gradientUnits="userSpaceOnUse"><stop offset="0" stop-color="#32a071"/><stop offset="0.07" stop-color="#2da771"/><stop offset="0.48" stop-color="#15cf74"/><stop offset="0.8" stop-color="#06e775"/><stop offset="1" stop-color="#00f076"/></linearGradient></defs><title>down02</title><path d="M99.48,20.07h-63A2.51,2.51,0,0,1,34,17.56V2.44A2.51,2.51,0,0,1,36.52-.07h63A2.51,2.51,0,0,1,102,2.44V17.56A2.51,2.51,0,0,1,99.48,20.07Z" transform="translate(-34 0.07)" fill-rule="evenodd"/><path d="M99.48.33a2.13,2.13,0,0,1,2.12,2.11V17.56a2.13,2.13,0,0,1-2.12,2.11h-63a2.13,2.13,0,0,1-2.12-2.11V2.44A2.13,2.13,0,0,1,36.52.33Zm0-.4h-63A2.51,2.51,0,0,0,34,2.44V17.56a2.51,2.51,0,0,0,2.52,2.51h63A2.51,2.51,0,0,0,102,17.56V2.44A2.51,2.51,0,0,0,99.48-.07Z" transform="translate(-34 0.07)" fill="#a6a6a6" fill-rule="evenodd"/><path d="M69.82,6.59a1.5,1.5,0,0,1-1.13-.47A1.63,1.63,0,0,1,68.22,5a1.55,1.55,0,0,1,.47-1.15,1.46,1.46,0,0,1,1.13-.47A1.48,1.48,0,0,1,71,3.81a1.69,1.69,0,0,1,0,2.31A1.52,1.52,0,0,1,69.82,6.59Zm-13.51,0A1.59,1.59,0,0,1,54.7,5V5a1.59,1.59,0,0,1,1.57-1.62h0a1.54,1.54,0,0,1,.64.11,1.37,1.37,0,0,1,.5.35l0,0-.33.33,0,0a1,1,0,0,0-.79-.34,1.08,1.08,0,0,0-.78.32,1.13,1.13,0,0,0-.35.85,1.13,1.13,0,0,0,.33.84,1.06,1.06,0,0,0,.78.32,1.09,1.09,0,0,0,.81-.32.89.89,0,0,0,.23-.5H56.25V4.81h1.56v0a.88.88,0,0,1,0,.23,1.41,1.41,0,0,1-.39,1A1.49,1.49,0,0,1,56.31,6.59Zm18-.07h-.51L72.33,4.17V6.52h-.5V3.4h.54l1.42,2.25V3.4h.51Zm-8.06,0h-.51V3.87H64.9V3.4h2.16v.47h-.82Zm-1.73,0H64V3.4h.5Zm-2.72,0h-.5V3.87h-.84V3.4h2.17v.47h-.84Zm-1.63,0H58.29V3.4h1.86v.47H58.78v.86H60v.46H58.78v.86h1.37Zm8.89-.72a1.11,1.11,0,0,0,.79.33,1.09,1.09,0,0,0,.78-.33A1.19,1.19,0,0,0,70.93,5a1.15,1.15,0,0,0-.32-.83,1.11,1.11,0,0,0-.79-.33,1,1,0,0,0-.78.33,1.11,1.11,0,0,0-.32.83,1.11,1.11,0,0,0,.32.83Z" transform="translate(-34 0.07)" fill="#fff"/><path d="M68.18,10.89A2.14,2.14,0,1,0,70.32,13h0a2.11,2.11,0,0,0-2.08-2.13Zm0,3.43a1.3,1.3,0,1,1,1.2-1.4V13a1.24,1.24,0,0,1-1.18,1.3Zm-4.67-3.43A2.14,2.14,0,1,0,65.65,13h0a2.1,2.1,0,0,0-2.07-2.13Zm0,3.43a1.3,1.3,0,1,1,1.21-1.39.28.28,0,0,1,0,.09,1.24,1.24,0,0,1-1.18,1.3ZM58,11.54v.91h2.16a1.91,1.91,0,0,1-.5,1.14,2.19,2.19,0,0,1-1.67.66,2.42,2.42,0,1,1,0-4.83,2.28,2.28,0,0,1,1.63.65l.64-.64A3.14,3.14,0,0,0,58,8.49a3.33,3.33,0,0,0,0,6.65h0a3,3,0,0,0,3.1-2.78v-.28a3.66,3.66,0,0,0-.05-.57H58Zm22.72.71a2,2,0,0,0-1.86-1.37,2,2,0,0,0-2,2V13a2.09,2.09,0,0,0,2,2.14h.1a2.11,2.11,0,0,0,1.77-.94L80,13.71a1.23,1.23,0,0,1-1,.6,1.1,1.1,0,0,1-1-.65l2.85-1.19ZM77.77,13a1.18,1.18,0,0,1,1.09-1.25h0a.83.83,0,0,1,.79.46ZM75.45,15h.94V8.74h-.94Zm-1.54-3.68h0a1.5,1.5,0,0,0-1.13-.48,2.14,2.14,0,0,0,0,4.28,1.46,1.46,0,0,0,1.13-.5h0V15c0,.81-.43,1.26-1.13,1.26a1.2,1.2,0,0,1-1.08-.76l-.81.34a2,2,0,0,0,1.9,1.28,2,2,0,0,0,2-2.24V11h-.88v.35Zm-1.07,3a1.22,1.22,0,0,1-1.19-1.26v0a1.23,1.23,0,0,1,1.16-1.3h0A1.21,1.21,0,0,1,74,13v0a1.18,1.18,0,0,1-1.07,1.3ZM85.07,8.74H82.82V15h1V12.65h1.3a2,2,0,1,0,.2-3.91Zm0,3H83.76V9.61H85.1a1.08,1.08,0,0,1,.14,2.16H85.1Zm5.78-.9a1.76,1.76,0,0,0-1.67,1l.83.35a.88.88,0,0,1,.85-.46.91.91,0,0,1,1,.8h0v.06a2.22,2.22,0,0,0-1-.24,1.62,1.62,0,0,0-1.8,1.42,1.44,1.44,0,0,0,1.5,1.39h0a1.35,1.35,0,0,0,1.18-.62h0V15h.9V12.62a1.73,1.73,0,0,0-1.9-1.75Zm-.12,3.45c-.3,0-.73-.15-.73-.54s.53-.67,1-.67a1.61,1.61,0,0,1,.86.21,1.13,1.13,0,0,1-1.13,1ZM96.08,11,95,13.74h0L93.85,11h-1l1.67,3.82-1,2.12h1L97.11,11Zm-8.44,4h.94V8.74h-.94Z" transform="translate(-34 0.07)" fill="#fff" fill-rule="evenodd"/><path d="M39.23,3.72a1,1,0,0,0-.22.74V15.57a1,1,0,0,0,.23.71l0,0,6.21-6.24V9.93L39.27,3.69Z" transform="translate(-34 0.07)" fill-rule="evenodd" fill="url(#linear-gradient)"/><path d="M47.56,12.16l-2.07-2.09V9.93l2.07-2.09,0,0,2.45,1.4a.77.77,0,0,1,0,1.46l-2.46,1.4Z" transform="translate(-34 0.07)" fill-rule="evenodd" fill="url(#linear-gradient-2)"/><path d="M47.6,12.13,45.49,10l-6.26,6.28a.83.83,0,0,0,1.05,0l7.32-4.18" transform="translate(-34 0.07)" fill-rule="evenodd" fill="url(#linear-gradient-3)"/><path d="M47.6,7.87,40.28,3.69a.83.83,0,0,0-1.05,0L45.49,10Z" transform="translate(-34 0.07)" fill-rule="evenodd" fill="url(#linear-gradient-4)"/><path d="M47.56,12.08l-7.28,4.16a.86.86,0,0,1-1,0l0,0,0,0a.83.83,0,0,0,1,0l7.32-4.18Z" transform="translate(-34 0.07)" fill-rule="evenodd" opacity="0.2" style="isolation:isolate"/><path d="M50.06,10.65l-2.52,1.43,0,.05L50,10.73a.92.92,0,0,0,.5-.73A.92.92,0,0,1,50.06,10.65Z" transform="translate(-34 0.07)" fill-rule="evenodd" opacity="0.12" style="isolation:isolate"/><path d="M40.28,3.76l9.78,5.59a.9.9,0,0,1,.5.65.9.9,0,0,0-.5-.73L40.28,3.69c-.7-.4-1.27-.06-1.27.77v.07C39,3.7,39.58,3.37,40.28,3.76Z" transform="translate(-34 0.07)" fill="#fff" fill-rule="evenodd" opacity="0.25" style="isolation:isolate"/></svg>