<svg id="Layer_1" data-name="Layer 1" xmlns="http://www.w3.org/2000/svg" viewBox="0 0 40.1 36.95"><title>email</title><g id="email"><g id="Group_11296" data-name="Group 11296"><path id="Path_11148" data-name="Path 11148" d="M26.76,4.55,20.59-.1,14.44,4.53.54,15,14.44,25.5l6.15,4.63,6.18-4.65L40.64,15Z" transform="translate(-0.54 0.1)" fill="#40b3bf"/><path id="Path_11149" data-name="Path 11149" d="M20.53,31.71l-6.25-4.83-12.76,10H39.59l-12.79-10Z" transform="translate(-0.54 0.1)" fill="#40b3bf"/><path id="Path_11150" data-name="Path 11150" d="M40.64,36l-13-9.85,13-9.85Z" transform="translate(-0.54 0.1)" fill="#40b3bf"/><path id="Path_11151" data-name="Path 11151" d="M.54,36l13-9.85-13-9.85Z" transform="translate(-0.54 0.1)" fill="#40b3bf"/><g id="Group_11295" data-name="Group 11295"><path id="Path_11152" data-name="Path 11152" d="M21.86,21.28a7.92,7.92,0,0,1-3.49.75c-3.67,0-5.35-2.4-4.53-5.7a9.1,9.1,0,0,1,8.68-6.75c3.82,0,5.25,2.45,4.55,5.25A5.13,5.13,0,0,1,22.5,19c-.82,0-1.33-.54-1.11-1.6h-.06a4.12,4.12,0,0,1-3,1.6c-1.15,0-1.82-.9-1.46-2.35a5.63,5.63,0,0,1,5.32-4.17,4.9,4.9,0,0,1,2.1.42l-1.43,3.2c-.58,1.34-.45,1.9.11,1.92.8,0,2.43-.86,3-3.11.62-2.52-.65-4.46-3.85-4.46A8,8,0,0,0,15,16.22c-.78,3.11,1,4.91,3.8,4.91a6.75,6.75,0,0,0,3-.67Zm.8-7.64a3.84,3.84,0,0,0-.95-.15,3.88,3.88,0,0,0-3.36,2.87c-.18.73,0,1.39.86,1.39s2.14-1.24,2.61-2.26Z" transform="translate(-0.54 0.1)" fill="#fff"/></g></g></g></svg>