<svg id="Layer_1" data-name="Layer 1" xmlns="http://www.w3.org/2000/svg" viewBox="0 0 500 500"><title>favicon</title><rect width="500" height="500" rx="124.26" fill="#83d6e0" opacity="0.67" style="isolation:isolate"/><circle cx="255" cy="258" r="210.5" fill="none"/><g style="isolation:isolate"><path d="M81.48,326.47V170.26h-21v-3.9h48.08l75.67,123.75V170.26h-21v-3.9h45.89v3.9h-21V332.33h-8.29l-94.46-155V326.47h21v3.91H60.49v-3.91Z"/></g><g style="isolation:isolate"><path d="M222.56,159v-3.91h38.32V347.47h-37.1v-3.91h17.08V159Z" fill="#c33"/></g><g style="isolation:isolate"><path d="M276.5,347.47V155.13h38.08V159H296.52V343.56h16.84v3.91Z"/></g><g style="isolation:isolate"><path d="M432,162.7c1,0,1.47.81,1.47,2.44v43.44c0,1.63-.57,2.44-1.71,2.44-1.3,0-2-.81-2.2-2.44a58,58,0,0,0-4-15.13,44.45,44.45,0,0,0-8.18-12.94,38.36,38.36,0,0,0-12.69-9,42.51,42.51,0,0,0-17.58-3.41A47.7,47.7,0,0,0,374,169.9a35.7,35.7,0,0,0-11.48,5.49,28.55,28.55,0,0,0-8.17,9.4,27,27,0,0,0-3.18,13.3,25.73,25.73,0,0,0,3.91,14.16,23.05,23.05,0,0,0,11.47,9c4.56,1.79,8.7,3.29,12.45,4.51s7.32,2.32,10.74,3.3,6.75,1.87,10,2.68,6.75,1.79,10.49,2.93q16.61,4.89,24.29,16.23t7.69,27.7A58.24,58.24,0,0,1,438,301a56.31,56.31,0,0,1-11.6,17.94A52.63,52.63,0,0,1,409,330.75,54.87,54.87,0,0,1,387.31,335,47.82,47.82,0,0,1,375,333.43a67.71,67.71,0,0,1-11.23-4,64.13,64.13,0,0,1-9.51-5.37,64.84,64.84,0,0,1-7.2-5.61l-8.79,12.69c-1.14,1.63-2.2,2.44-3.17,2.44-1.47,0-2.2-1.06-2.2-3.17V286.69q0-3.42,1.71-3.42c1.3,0,2.19,1.06,2.68,3.18A70,70,0,0,0,345,305a53.41,53.41,0,0,0,11.84,13.91,52.67,52.67,0,0,0,14.89,8.66,47,47,0,0,0,16.84,3.05,43,43,0,0,0,14.89-2.68,40.91,40.91,0,0,0,12.93-7.57A36.73,36.73,0,0,0,428.8,292.3a35.78,35.78,0,0,0-2.93-14q-2.92-7-11.22-10.86-6.6-3.18-11.6-5T393.17,259q-4.89-1.59-10.5-3.3T369,251.3q-16.85-5.61-24.77-16.36a38.89,38.89,0,0,1-7.93-23.67,48.09,48.09,0,0,1,3.41-18.06,44.79,44.79,0,0,1,10-15.14,48.67,48.67,0,0,1,16-10.49,55.25,55.25,0,0,1,21.35-3.91,79.59,79.59,0,0,1,10.38.61,55.31,55.31,0,0,1,8.54,1.83,50.88,50.88,0,0,1,7.93,3.18q3.9,2,8.3,4.39l7.08-9C430.27,163.35,431.16,162.7,432,162.7Z" fill="#c33"/></g></svg>