<svg id="Layer_1" data-name="Layer 1" xmlns="http://www.w3.org/2000/svg" viewBox="0 0 1373 637"><title>Group11294</title><g id="panoramic"><g id="Group_11098" data-name="Group 11098"><rect id="Rectangle_1616" data-name="Rectangle 1616" width="1366" height="637" fill="#fff"/></g><g id="Group_11183" data-name="Group 11183"><g id="Group_11099" data-name="Group 11099"><path id="Path_10943" data-name="Path 10943" d="M43.57,636.9l19.85-34.58h42.64l19.85,34.58h.93l-20.32-35.37H63L42.65,636.9Z" transform="translate(3.96 0.1)" fill="#e6e7e8"/></g><g id="Group_11100" data-name="Group 11100"><path id="Path_10944" data-name="Path 10944" d="M1178.33,636.9l19.86-34.58h42.64l19.84,34.58h.92l-20.31-35.37h-43.56l-20.31,35.37Z" transform="translate(3.96 0.1)" fill="#e6e7e8"/></g><g id="Group_11101" data-name="Group 11101"><path id="Path_10945" data-name="Path 10945" d="M1308.57,636.9l19.85-34.58H1369v-.8H1328l-20.31,35.38Z" transform="translate(3.96 0.1)" fill="#e6e7e8"/></g><g id="Group_11102" data-name="Group 11102"><path id="Path_10946" data-name="Path 10946" d="M62.27,601.9l-20.1,35h.93l20.09-35L41.4,564H3v.8H41Z" transform="translate(3.96 0.1)" fill="#e6e7e8"/></g><g id="Group_11103" data-name="Group 11103"><path id="Path_10947" data-name="Path 10947" d="M127.31,636.9l-20.1-35,21.33-37.14h42.64L192.5,601.9l-20.09,35h.92l20.09-35L171.64,564H128.08L106.29,601.9l20.09,35Z" transform="translate(3.96 0.1)" fill="#e6e7e8"/></g><g id="Group_11104" data-name="Group 11104"><path id="Path_10948" data-name="Path 10948" d="M1131.84,636.9l-20.1-35,21.33-37.14h42.64L1197,601.9l-20.09,35h.91l20-34.8.11-.2L1176.16,564H1132.6l-21.66,37.75-.12.19,20.09,35Z" transform="translate(3.96 0.1)" fill="#e6e7e8"/></g><g id="Group_11105" data-name="Group 11105"><path id="Path_10949" data-name="Path 10949" d="M1262.07,636.9l-20.1-35,21.33-37.14H1306l21.32,37.14-20.1,35h.92l20-34.8.11-.2L1306.4,564h-43.57l-21.66,37.75-.11.19,20.08,35Z" transform="translate(3.96 0.1)" fill="#e6e7e8"/></g><g id="Group_11106" data-name="Group 11106"><path id="Path_10950" data-name="Path 10950" d="M106.52,602.27H63L41.17,564.33,63,526.39h43.56l21.78,37.94Zm-43.1-.8h42.65l21.32-37.14L106.07,527.2H63.42L42.09,564.33Z" transform="translate(3.96 0.1)" fill="#e6e7e8"/></g><g id="Group_11107" data-name="Group 11107"><path id="Path_10951" data-name="Path 10951" d="M1241.28,602.27h-43.56l-21.78-37.94.12-.2,21.66-37.75h43.56l21.79,37.94-.12.23Zm-43.1-.8h42.66l21.33-37.14-21.33-37.13h-42.65l-21.33,37.13Z" transform="translate(3.96 0.1)" fill="#e6e7e8"/></g><g id="Group_11108" data-name="Group 11108"><path id="Path_10952" data-name="Path 10952" d="M1369,601.48h-40.62l-21.32-37.15,21.32-37.13H1369v-.81H1328l-21.66,37.75-.12.19L1328,602.27H1369Z" transform="translate(3.96 0.1)" fill="#e6e7e8"/></g><g id="Group_11109" data-name="Group 11109"><path id="Path_10953" data-name="Path 10953" d="M41.4,488.83H3v.8H41l21.32,37.14L41,563.91H3v.8H41.4l21.78-38Z" transform="translate(3.96 0.1)" fill="#e6e7e8"/></g><g id="Group_11110" data-name="Group 11110"><path id="Path_10954" data-name="Path 10954" d="M171.64,564.72H128.08l-21.79-38,21.79-37.94h43.56l21.78,37.94Zm-43.1-.81h42.65l21.32-37.14-21.32-37.14H128.54l-21.33,37.14Z" transform="translate(3.96 0.1)" fill="#e6e7e8"/></g><g id="Group_11111" data-name="Group 11111"><path id="Path_10955" data-name="Path 10955" d="M320.16,564.72H276.6l-21.78-38,21.78-37.94h43.56l21.78,37.94Zm-43.11-.81H319.7L341,526.77,319.7,489.63H277.05l-21.32,37.14Z" transform="translate(3.96 0.1)" fill="#e6e7e8"/></g><g id="Group_11112" data-name="Group 11112"><path id="Path_10956" data-name="Path 10956" d="M1176.16,564.71H1132.6l-21.78-37.94.12-.2,21.66-37.75h43.56l21.78,37.94-.12.21Zm-43.1-.8h42.65L1197,526.77l-21.31-37.14h-42.65l-21.33,37.14Z" transform="translate(3.96 0.1)" fill="#e6e7e8"/></g><g id="Group_11113" data-name="Group 11113"><path id="Path_10957" data-name="Path 10957" d="M1306.4,564.71h-43.56l-21.78-38,.12-.2,21.66-37.74h43.56l21.79,37.94-.11.21Zm-43.1-.8H1306l21.32-37.14L1306,489.63H1263.3L1242,526.77Z" transform="translate(3.96 0.1)" fill="#e6e7e8"/></g><g id="Group_11114" data-name="Group 11114"><path id="Path_10958" data-name="Path 10958" d="M106.52,527.15H63L41.17,489.21,63,451.26h43.56l21.78,37.95Zm-43.1-.81h42.65l21.32-37.13-21.32-37.15H63.42L42.09,489.21Z" transform="translate(3.96 0.1)" fill="#e6e7e8"/></g><g id="Group_11115" data-name="Group 11115"><path id="Path_10959" data-name="Path 10959" d="M236.75,527.15H193.19l-21.78-37.94,21.78-37.95h43.56l21.78,37.95Zm-43.1-.81H236.3l21.32-37.13L236.3,452.06H193.65l-21.33,37.15Z" transform="translate(3.96 0.1)" fill="#e6e7e8"/></g><g id="Group_11116" data-name="Group 11116"><path id="Path_10960" data-name="Path 10960" d="M390.38,527.15H346.82L325,489.21l21.78-37.95h43.56l21.78,37.95Zm-43.11-.81h42.65l21.33-37.13-21.33-37.15H347.27L326,489.21Z" transform="translate(3.96 0.1)" fill="#e6e7e8"/></g><g id="Group_11117" data-name="Group 11117"><path id="Path_10961" data-name="Path 10961" d="M1241.28,527.15h-43.56l-21.78-37.94.12-.21,21.66-37.75h43.56l21.79,37.95-.12.21Zm-43.1-.81h42.66l21.33-37.13-21.33-37.15h-42.65l-21.33,37.15Z" transform="translate(3.96 0.1)" fill="#e6e7e8"/></g><g id="Group_11118" data-name="Group 11118"><path id="Path_10962" data-name="Path 10962" d="M1369,526.34h-40.62l-21.32-37.13,21.32-37.14H1369v-.81H1328L1306.29,489l-.12.2L1328,527.15H1369Z" transform="translate(3.96 0.1)" fill="#e6e7e8"/></g><g id="Group_11119" data-name="Group 11119"><path id="Path_10963" data-name="Path 10963" d="M41.4,413.7H3v.8H41l21.32,37.14L41,488.77H3v.81H41.4l21.78-37.94Z" transform="translate(3.96 0.1)" fill="#e6e7e8"/></g><g id="Group_11120" data-name="Group 11120"><path id="Path_10964" data-name="Path 10964" d="M171.64,489.58H128.08l-21.79-37.94,21.79-37.94h43.56l21.78,37.94Zm-43.1-.81h42.65l21.32-37.13L171.19,414.5H128.54l-21.33,37.14Z" transform="translate(3.96 0.1)" fill="#e6e7e8"/></g><g id="Group_11121" data-name="Group 11121"><path id="Path_10965" data-name="Path 10965" d="M320.16,489.58H276.6l-21.78-37.94L276.6,413.7h43.56l21.78,37.94Zm-43.11-.81H319.7L341,451.64,319.7,414.5H277.05l-21.32,37.14Z" transform="translate(3.96 0.1)" fill="#e6e7e8"/></g><g id="Group_11122" data-name="Group 11122"><path id="Path_10966" data-name="Path 10966" d="M1176.16,489.58H1132.6l-21.78-37.94.12-.21,21.66-37.74h43.56l21.78,37.94-.11.2Zm-43.1-.81h42.65L1197,451.64l-21.31-37.14h-42.65l-21.33,37.14Z" transform="translate(3.96 0.1)" fill="#e6e7e8"/></g><g id="Group_11123" data-name="Group 11123"><path id="Path_10967" data-name="Path 10967" d="M1306.4,489.58h-43.56l-21.78-37.94.12-.21,21.66-37.74h43.56l21.79,37.94-.11.2Zm-43.1-.81H1306l21.32-37.13L1306,414.5H1263.3L1242,451.64Z" transform="translate(3.96 0.1)" fill="#e6e7e8"/></g><g id="Group_11124" data-name="Group 11124"><path id="Path_10968" data-name="Path 10968" d="M106.52,452H63L41.17,414.07,63,376.13h43.56l21.78,37.94Zm-43.1-.8h42.65l21.32-37.14-21.32-37.14H63.42L42.09,414.07Z" transform="translate(3.96 0.1)" fill="#e6e7e8"/></g><g id="Group_11125" data-name="Group 11125"><path id="Path_10969" data-name="Path 10969" d="M236.75,452H193.19l-21.78-37.94,21.78-37.94h43.56l21.78,37.94Zm-43.1-.8H236.3l21.32-37.14L236.3,376.93H193.65l-21.33,37.14Z" transform="translate(3.96 0.1)" fill="#e6e7e8"/></g><g id="Group_11126" data-name="Group 11126"><path id="Path_10970" data-name="Path 10970" d="M390.38,452H346.82L325,414.07l21.78-37.94h43.56l21.78,37.94Zm-43.11-.8h42.65l21.33-37.14-21.33-37.14H347.27L326,414.07Z" transform="translate(3.96 0.1)" fill="#e6e7e8"/></g><g id="Group_11127" data-name="Group 11127"><path id="Path_10971" data-name="Path 10971" d="M1092.56,452H1049l-21.78-37.94.12-.2L1049,376.12h43.56l21.78,37.94-.12.2Zm-43.11-.8h42.64l21.33-37.14-21.33-37.14h-42.64l-21.34,37.14Z" transform="translate(3.96 0.1)" fill="#e6e7e8"/></g><g id="Group_11128" data-name="Group 11128"><path id="Path_10972" data-name="Path 10972" d="M1241.28,452h-43.56l-21.78-37.94.12-.2,21.66-37.75h43.56l21.79,37.94-.12.21Zm-43.1-.8h42.66l21.32-37.14-21.32-37.14h-42.65l-21.33,37.14Z" transform="translate(3.96 0.1)" fill="#e6e7e8"/></g><g id="Group_11129" data-name="Group 11129"><path id="Path_10973" data-name="Path 10973" d="M1369,451.21h-40.62l-21.32-37.14,21.32-37.14H1369v-.8H1328l-21.66,37.75-.12.19L1328,452H1369Z" transform="translate(3.96 0.1)" fill="#e6e7e8"/></g><g id="Group_11130" data-name="Group 11130"><path id="Path_10974" data-name="Path 10974" d="M41.4,338.57H3v.8H41l21.32,37.14L41,413.65H3v.8H41.4l21.78-37.94Z" transform="translate(3.96 0.1)" fill="#e6e7e8"/></g><g id="Group_11131" data-name="Group 11131"><path id="Path_10975" data-name="Path 10975" d="M171.64,414.44H128.08l-21.79-37.93,21.79-37.94h43.56l21.78,37.94Zm-43.1-.8h42.65l21.32-37.13-21.32-37.15H128.54l-21.33,37.15Z" transform="translate(3.96 0.1)" fill="#e6e7e8"/></g><g id="Group_11132" data-name="Group 11132"><path id="Path_10976" data-name="Path 10976" d="M320.16,414.44H276.6l-21.78-37.93,21.78-37.94h43.56l21.78,37.94Zm-43.11-.8H319.7L341,376.5,319.7,339.36H277.05l-21.32,37.15Z" transform="translate(3.96 0.1)" fill="#e6e7e8"/></g><g id="Group_11133" data-name="Group 11133"><path id="Path_10977" data-name="Path 10977" d="M1022.34,414.44H978.77L957,376.51l.12-.2,21.66-37.75h43.57l21.78,37.93-.12.2Zm-43.11-.8h42.64l21.34-37.13-21.34-37.15H979.23l-21.34,37.15Z" transform="translate(3.96 0.1)" fill="#e6e7e8"/></g><g id="Group_11134" data-name="Group 11134"><path id="Path_10978" data-name="Path 10978" d="M1176.16,414.44H1132.6l-21.78-37.93.12-.2,21.66-37.75h43.56l21.78,37.94-.12.2Zm-43.1-.8h42.65L1197,376.5l-21.31-37.14h-42.65l-21.33,37.15Z" transform="translate(3.96 0.1)" fill="#e6e7e8"/></g><g id="Group_11135" data-name="Group 11135"><path id="Path_10979" data-name="Path 10979" d="M1306.4,414.44h-43.56l-21.78-37.93.12-.2,21.66-37.75h43.56l21.79,37.94-.11.2Zm-43.1-.8H1306l21.32-37.14L1306,339.36H1263.3L1242,376.51Z" transform="translate(3.96 0.1)" fill="#e6e7e8"/></g><g id="Group_11136" data-name="Group 11136"><path id="Path_10980" data-name="Path 10980" d="M106.52,376.88H63L41.17,338.94,63,301h43.56l21.78,37.94Zm-43.1-.8h42.65l21.32-37.14L106.07,301.8H63.42L42.09,338.94Z" transform="translate(3.96 0.1)" fill="#e6e7e8"/></g><g id="Group_11137" data-name="Group 11137"><path id="Path_10981" data-name="Path 10981" d="M236.75,376.88H193.19l-21.78-37.94L193.19,301h43.56l21.78,37.94Zm-43.1-.8H236.3l21.32-37.15L236.3,301.8H193.65l-21.33,37.14Z" transform="translate(3.96 0.1)" fill="#e6e7e8"/></g><g id="Group_11138" data-name="Group 11138"><path id="Path_10982" data-name="Path 10982" d="M390.38,376.88H346.82L325,338.94,346.82,301h43.56l21.78,37.94Zm-43.11-.8h42.65l21.33-37.15L389.92,301.8H347.27L326,338.94Z" transform="translate(3.96 0.1)" fill="#e6e7e8"/></g><g id="Group_11139" data-name="Group 11139"><path id="Path_10983" data-name="Path 10983" d="M1092.56,376.88H1049l-21.78-37.94.12-.2L1049,301h43.56l21.78,37.94-.12.2Zm-43.11-.8h42.64l21.33-37.15-21.33-37.13h-42.64l-21.34,37.14Z" transform="translate(3.96 0.1)" fill="#e6e7e8"/></g><g id="Group_11140" data-name="Group 11140"><path id="Path_10984" data-name="Path 10984" d="M1241.28,376.88h-43.56l-21.78-37.94.12-.2L1197.72,301h43.56l21.79,37.94-.12.21Zm-43.1-.8h42.66l21.33-37.15-21.33-37.13h-42.65l-21.33,37.14Z" transform="translate(3.96 0.1)" fill="#e6e7e8"/></g><g id="Group_11141" data-name="Group 11141"><path id="Path_10985" data-name="Path 10985" d="M1369,376.08h-40.62l-21.32-37.14,21.32-37.14H1369V301H1328l-21.66,37.74-.12.2L1328,376.87H1369Z" transform="translate(3.96 0.1)" fill="#e6e7e8"/></g><g id="Group_11142" data-name="Group 11142"><path id="Path_10986" data-name="Path 10986" d="M41.4,263.43H3v.8H41l21.32,37.14L41,338.51H3v.8H41.4l21.78-37.94Z" transform="translate(3.96 0.1)" fill="#e6e7e8"/></g><g id="Group_11143" data-name="Group 11143"><path id="Path_10987" data-name="Path 10987" d="M171.64,339.31H128.08l-21.79-37.94,21.79-37.94h43.56l21.78,37.94Zm-43.1-.8h42.65l21.32-37.14-21.32-37.14H128.54l-21.33,37.14Z" transform="translate(3.96 0.1)" fill="#e6e7e8"/></g><g id="Group_11144" data-name="Group 11144"><path id="Path_10988" data-name="Path 10988" d="M320.16,339.31H276.6l-21.78-37.94,21.78-37.94h43.56l21.78,37.94Zm-43.11-.8H319.7L341,301.37,319.7,264.23H277.05l-21.32,37.14Z" transform="translate(3.96 0.1)" fill="#e6e7e8"/></g><g id="Group_11145" data-name="Group 11145"><path id="Path_10989" data-name="Path 10989" d="M1022.34,339.31H978.77L957,301.37l.12-.2,21.66-37.75h43.57l21.78,37.94-.12.2Zm-43.11-.8h42.64l21.34-37.14-21.34-37.13H979.23l-21.34,37.13Z" transform="translate(3.96 0.1)" fill="#e6e7e8"/></g><g id="Group_11146" data-name="Group 11146"><path id="Path_10990" data-name="Path 10990" d="M1176.16,339.31H1132.6l-21.78-37.94.12-.2,21.66-37.75h43.56l21.78,37.94-.12.2Zm-43.1-.8h42.65L1197,301.37l-21.31-37.13h-42.65l-21.33,37.13Z" transform="translate(3.96 0.1)" fill="#e6e7e8"/></g><g id="Group_11147" data-name="Group 11147"><path id="Path_10991" data-name="Path 10991" d="M1306.4,339.31h-43.56l-21.78-37.94.12-.2,21.66-37.75h43.56l21.79,37.94-.11.2Zm-43.1-.8H1306l21.32-37.14L1306,264.24H1263.3L1242,301.37Z" transform="translate(3.96 0.1)" fill="#e6e7e8"/></g><g id="Group_11148" data-name="Group 11148"><path id="Path_10992" data-name="Path 10992" d="M106.52,301.75H63L41.17,263.82,63,225.87h43.56l21.78,37.95Zm-43.1-.8h42.65l21.32-37.13-21.32-37.14H63.42L42.09,263.82Z" transform="translate(3.96 0.1)" fill="#e6e7e8"/></g><g id="Group_11149" data-name="Group 11149"><path id="Path_10993" data-name="Path 10993" d="M236.75,301.75H193.19l-21.78-37.93,21.78-37.95h43.56l21.78,37.95Zm-43.1-.8H236.3l21.32-37.13L236.3,226.68H193.65l-21.33,37.14Z" transform="translate(3.96 0.1)" fill="#e6e7e8"/></g><g id="Group_11150" data-name="Group 11150"><path id="Path_10994" data-name="Path 10994" d="M390.38,301.75H346.82L325,263.82l21.78-37.95h43.56l21.78,37.95Zm-43.11-.8h42.65l21.33-37.13-21.33-37.14H347.27L326,263.82Z" transform="translate(3.96 0.1)" fill="#e6e7e8"/></g><g id="Group_11151" data-name="Group 11151"><path id="Path_10995" data-name="Path 10995" d="M1092.56,301.75H1049l-21.78-37.93.12-.2L1049,225.87h43.56l21.79,37.95-.12.2Zm-43.11-.8h42.64l21.33-37.13-21.33-37.14h-42.64l-21.34,37.14Z" transform="translate(3.96 0.1)" fill="#e6e7e8"/></g><g id="Group_11152" data-name="Group 11152"><path id="Path_10996" data-name="Path 10996" d="M1241.28,301.75h-43.56l-21.78-37.93.12-.2,21.66-37.75h43.56l21.79,37.95-.12.19Zm-43.1-.8h42.66l21.32-37.13-21.32-37.14h-42.65l-21.33,37.14Z" transform="translate(3.96 0.1)" fill="#e6e7e8"/></g><g id="Group_11153" data-name="Group 11153"><path id="Path_10997" data-name="Path 10997" d="M1369,301h-40.62l-21.32-37.14,21.32-37.14H1369v-.8H1328l-21.66,37.73-.12.2L1328,301.75H1369Z" transform="translate(3.96 0.1)" fill="#e6e7e8"/></g><g id="Group_11154" data-name="Group 11154"><path id="Path_10998" data-name="Path 10998" d="M41.4,188.3H3v.8H41l21.32,37.13L41,263.38H3v.8H41.4l21.78-38Z" transform="translate(3.96 0.1)" fill="#e6e7e8"/></g><g id="Group_11155" data-name="Group 11155"><path id="Path_10999" data-name="Path 10999" d="M171.64,264.18H128.08l-21.79-37.93,21.79-37.94h43.56l21.78,37.94Zm-43.1-.8h42.65l21.32-37.13-21.32-37.14H128.54l-21.33,37.14Z" transform="translate(3.96 0.1)" fill="#e6e7e8"/></g><g id="Group_11156" data-name="Group 11156"><path id="Path_11000" data-name="Path 11000" d="M320.16,264.18H276.6l-21.78-37.93,21.78-37.94h43.56l21.78,37.94Zm-43.11-.8H319.7L341,226.25,319.7,189.11H277.05l-21.32,37.14Z" transform="translate(3.96 0.1)" fill="#e6e7e8"/></g><g id="Group_11157" data-name="Group 11157"><path id="Path_11001" data-name="Path 11001" d="M1022.34,264.18H978.77L957,226.25l.12-.2,21.66-37.74h43.57l21.78,37.94-.12.2Zm-43.11-.8h42.64l21.34-37.13-21.34-37.14H979.23l-21.34,37.14Z" transform="translate(3.96 0.1)" fill="#e6e7e8"/></g><g id="Group_11158" data-name="Group 11158"><path id="Path_11002" data-name="Path 11002" d="M1176.16,264.18H1132.6l-21.78-37.93.12-.2,21.66-37.74h43.56l21.78,37.94-.12.2Zm-43.1-.8h42.65L1197,226.25l-21.31-37.14h-42.65l-21.33,37.14Z" transform="translate(3.96 0.1)" fill="#e6e7e8"/></g><g id="Group_11159" data-name="Group 11159"><path id="Path_11003" data-name="Path 11003" d="M1306.4,264.18h-43.56l-21.78-37.93.12-.2,21.66-37.74h43.56l21.79,37.94-.11.2Zm-43.1-.8H1306l21.32-37.13L1306,189.11H1263.3L1242,226.25Z" transform="translate(3.96 0.1)" fill="#e6e7e8"/></g><g id="Group_11160" data-name="Group 11160"><path id="Path_11004" data-name="Path 11004" d="M106.52,226.62H63l-21.78-38L63,150.73h43.56l21.78,37.94Zm-43.1-.81h42.65l21.32-37.14-21.32-37.14H63.42L42.09,188.67Z" transform="translate(3.96 0.1)" fill="#e6e7e8"/></g><g id="Group_11161" data-name="Group 11161"><path id="Path_11005" data-name="Path 11005" d="M236.75,226.62H193.19l-21.78-38,21.78-37.94h43.56l21.78,37.94Zm-43.1-.81H236.3l21.32-37.14L236.3,151.53H193.65l-21.33,37.14Z" transform="translate(3.96 0.1)" fill="#e6e7e8"/></g><g id="Group_11162" data-name="Group 11162"><path id="Path_11006" data-name="Path 11006" d="M390.38,226.62H346.82l-21.78-38,21.78-37.94h43.56l21.78,37.94Zm-43.11-.81h42.65l21.33-37.14-21.33-37.14H347.27L326,188.67Z" transform="translate(3.96 0.1)" fill="#e6e7e8"/></g><g id="Group_11163" data-name="Group 11163"><path id="Path_11007" data-name="Path 11007" d="M1092.56,226.62H1049l-21.78-38,.12-.2L1049,150.72h43.56l21.78,37.94-.12.2Zm-43.11-.81h42.64l21.33-37.14-21.33-37.14h-42.64l-21.34,37.14Z" transform="translate(3.96 0.1)" fill="#e6e7e8"/></g><g id="Group_11164" data-name="Group 11164"><path id="Path_11008" data-name="Path 11008" d="M1241.28,226.62h-43.56l-21.78-38,.12-.2,21.66-37.75h43.56l21.79,37.94-.12.22Zm-43.1-.81h42.66l21.33-37.14-21.33-37.14h-42.65l-21.33,37.14Z" transform="translate(3.96 0.1)" fill="#e6e7e8"/></g><g id="Group_11165" data-name="Group 11165"><path id="Path_11009" data-name="Path 11009" d="M1369,225.81h-40.62l-21.32-37.14,21.32-37.14H1369v-.8H1328l-21.66,37.75-.12.19,21.78,38H1369Z" transform="translate(3.96 0.1)" fill="#e6e7e8"/></g><g id="Group_11166" data-name="Group 11166"><path id="Path_11010" data-name="Path 11010" d="M41.4,113.16H3V114H41l21.32,37.14L41,188.24H3v.81H41.4l21.78-37.94Z" transform="translate(3.96 0.1)" fill="#e6e7e8"/></g><g id="Group_11167" data-name="Group 11167"><path id="Path_11011" data-name="Path 11011" d="M171.64,189.05H128.08l-21.79-37.94,21.79-38h43.56l21.79,38Zm-43.1-.81h42.65l21.32-37.13L171.19,114H128.54l-21.33,37.14Z" transform="translate(3.96 0.1)" fill="#e6e7e8"/></g><g id="Group_11168" data-name="Group 11168"><path id="Path_11012" data-name="Path 11012" d="M320.16,189.05H276.6l-21.78-37.94,21.78-38h43.56l21.78,38Zm-43.11-.81H319.7L341,151.11,319.7,114H277.05l-21.32,37.14Z" transform="translate(3.96 0.1)" fill="#e6e7e8"/></g><g id="Group_11169" data-name="Group 11169"><path id="Path_11013" data-name="Path 11013" d="M1022.34,189.05H978.77L957,151.11l.12-.2,21.66-37.75h43.57l21.78,38-.12.2Zm-43.11-.81h42.64l21.34-37.13L1021.87,114H979.23l-21.34,37.14Z" transform="translate(3.96 0.1)" fill="#e6e7e8"/></g><g id="Group_11170" data-name="Group 11170"><path id="Path_11014" data-name="Path 11014" d="M1306.4,189.05h-43.56l-21.78-37.94.12-.2,21.66-37.75h43.56l21.79,38-.11.2Zm-43.1-.81H1306l21.32-37.13L1306,114H1263.3L1242,151.11Z" transform="translate(3.96 0.1)" fill="#e6e7e8"/></g><g id="Group_11171" data-name="Group 11171"><path id="Path_11015" data-name="Path 11015" d="M390.38,151.48H346.82L325,113.54,346.82,75.6h43.56l21.78,37.94Zm-43.11-.8h42.65l21.33-37.14L389.92,76.41H347.27L326,113.54Z" transform="translate(3.96 0.1)" fill="#e6e7e8"/></g><g id="Group_11172" data-name="Group 11172"><path id="Path_11016" data-name="Path 11016" d="M1369,150.68h-40.62l-21.32-37.14,21.32-37.14H1369v-.8H1328l-21.66,37.74-.12.2L1328,151.48H1369Z" transform="translate(3.96 0.1)" fill="#e6e7e8"/></g><g id="Group_11173" data-name="Group 11173"><path id="Path_11017" data-name="Path 11017" d="M41.4,38H3v.8H41L62.27,76,41,113.12H3v.8H41.4L63.18,76Z" transform="translate(3.96 0.1)" fill="#e6e7e8"/></g><g id="Group_11174" data-name="Group 11174"><path id="Path_11018" data-name="Path 11018" d="M1022.34,113.91H978.77L957,76l.12-.2L978.77,38h43.57L1044.12,76l-.12.2Zm-43.11-.8h42.64L1043.21,76l-21.34-37.13H979.23L957.89,76Z" transform="translate(3.96 0.1)" fill="#e6e7e8"/></g><g id="Group_11175" data-name="Group 11175"><path id="Path_11019" data-name="Path 11019" d="M1306.4,113.91h-43.56L1241.06,76l.12-.2L1262.84,38h43.56L1328.19,76l-.11.2Zm-43.1-.8H1306L1327.27,76,1306,38.84H1263.3L1242,76Z" transform="translate(3.96 0.1)" fill="#e6e7e8"/></g><g id="Group_11176" data-name="Group 11176"><path id="Path_11020" data-name="Path 11020" d="M390.38,76.36H346.82L325,38.42,346.82.47h43.56l21.78,38Zm-43.11-.81h42.65l21.33-37.13L389.92,1.27H347.27L326,38.42Z" transform="translate(3.96 0.1)" fill="#e6e7e8"/></g><g id="Group_11177" data-name="Group 11177"><path id="Path_11021" data-name="Path 11021" d="M1369,75.55h-40.62L1307.1,38.41l21.32-37.15H1369V.46H1328L1306.29,38.2l-.12.2,21.78,38H1369Z" transform="translate(3.96 0.1)" fill="#e6e7e8"/></g><g id="Group_11178" data-name="Group 11178"><path id="Path_11022" data-name="Path 11022" d="M62.9.34H62l.3.5L41,38H3v.81H41.4L63.18.84Z" transform="translate(3.96 0.1)" fill="#e6e7e8"/></g><g id="Group_11179" data-name="Group 11179"><path id="Path_11023" data-name="Path 11023" d="M1042.91.34l.3.5L1021.87,38H979.23L957.91.84l.28-.5h-.92l-.17.3-.11.2,21.77,37.95h43.58L1044,1l.12-.2-.29-.5Z" transform="translate(3.96 0.1)" fill="#e6e7e8"/></g><g id="Group_11180" data-name="Group 11180"><path id="Path_11024" data-name="Path 11024" d="M1327,.34l.3.5L1306,38H1263.3L1242,.84l.3-.5h-.92l-.18.3-.11.2,21.77,37.95h43.57L1328.08,1l.1-.2-.28-.5Z" transform="translate(3.96 0.1)" fill="#e6e7e8"/></g><g id="Group_11181" data-name="Group 11181"><path id="Path_11025" data-name="Path 11025" d="M390.76.34l0,.07H348.07l0-.07h-.92l.51.88h43.56l.51-.88Z" transform="translate(3.96 0.1)" fill="#e6e7e8"/></g><g id="Group_11182" data-name="Group 11182"><path id="Path_11026" data-name="Path 11026" d="M1369,.41h-40.62l-.05-.07h-.92l.5.88H1369Z" transform="translate(3.96 0.1)" fill="#e6e7e8"/></g></g><g id="Group_11294" data-name="Group 11294"><g id="Group_11184" data-name="Group 11184"><path id="Path_11027" data-name="Path 11027" d="M39.61,636.9h.92L20.16,601.4H3v.81H19.7Z" transform="translate(3.96 0.1)" fill="#a7a9ac" opacity="0.58" style="isolation:isolate"/></g><g id="Group_11185" data-name="Group 11185"><path id="Path_11028" data-name="Path 11028" d="M234.31,636.9l19.91-34.69h42.64l19.92,34.69h.92l-20.37-35.5H253.76l-20.38,35.5Z" transform="translate(3.96 0.1)" fill="#a7a9ac" opacity="0.81" style="isolation:isolate"/></g><g id="Group_11186" data-name="Group 11186"><path id="Path_11029" data-name="Path 11029" d="M374.71,636.9l19.91-34.69h42.65l19.92,34.69h.92l-20.38-35.5H394.17l-20.38,35.5Z" transform="translate(3.96 0.1)" fill="#a7a9ac" opacity="0.95" style="isolation:isolate"/></g><g id="Group_11187" data-name="Group 11187"><path id="Path_11030" data-name="Path 11030" d="M936.36,636.9l19.9-34.69h42.65l19.92,34.69h.92l-20.38-35.5H955.81l-20.37,35.5Z" transform="translate(3.96 0.1)" fill="#a7a9ac" opacity="0.23" style="isolation:isolate"/></g><g id="Group_11188" data-name="Group 11188"><path id="Path_11031" data-name="Path 11031" d="M1076.77,636.9l19.91-34.69h42.64l19.91,34.69h.92l-20.38-35.5h-43.55l-20.38,35.5Z" transform="translate(3.96 0.1)" fill="#a7a9ac" opacity="0.41" style="isolation:isolate"/></g><g id="Group_11189" data-name="Group 11189"><path id="Path_11032" data-name="Path 11032" d="M1222.13,636.9,1242,602.21h42.65l19.93,34.69h.91l-20.37-35.5h-43.57l-20.38,35.5Z" transform="translate(3.96 0.1)" fill="#a7a9ac" opacity="0.26" style="isolation:isolate"/></g><g id="Group_11190" data-name="Group 11190"><path id="Path_11033" data-name="Path 11033" d="M323.2,636.9,303,601.78l21.33-37.14H367l21.32,37.14L368.18,636.9h.92l20.15-35.12-21.79-37.95H323.9l-21.78,37.95,20.16,35.12Z" transform="translate(3.96 0.1)" fill="#a7a9ac" opacity="0.86" style="isolation:isolate"/></g><g id="Group_11191" data-name="Group 11191"><path id="Path_11034" data-name="Path 11034" d="M463.63,636.9l-20.16-35.12,21.33-37.14h42.65l21.31,37.14L508.6,636.9h.93l20.16-35.12L507.9,563.83H464.34l-21.79,37.95,20.16,35.12Z" transform="translate(3.96 0.1)" fill="#a7a9ac" opacity="0.49" style="isolation:isolate"/></g><g id="Group_11192" data-name="Group 11192"><path id="Path_11035" data-name="Path 11035" d="M884.94,636.9l-20.16-35.12,21.33-37.14h42.63l21.33,37.14L929.91,636.9h.93l20-34.91.11-.2L929.2,563.84H885.64L864,601.58l-.11.2L884,636.9Z" transform="translate(3.96 0.1)" fill="#a7a9ac" opacity="0.44" style="isolation:isolate"/></g><g id="Group_11193" data-name="Group 11193"><path id="Path_11036" data-name="Path 11036" d="M1025.38,636.9l-20.17-35.12,21.32-37.14h42.65l21.32,37.14-20.16,35.12h.92L1091.32,602l.1-.2-21.78-37.95h-43.57l-21.67,37.74-.1.2,20.16,35.12Z" transform="translate(3.96 0.1)" fill="#a7a9ac" opacity="0.43" style="isolation:isolate"/></g><g id="Group_11194" data-name="Group 11194"><path id="Path_11037" data-name="Path 11037" d="M1175.77,636.9l-20.16-35.12,21.33-37.14h42.64l21.32,37.14-20.17,35.12h.93l20-34.91.12-.2-21.79-38h-43.56l-21.67,37.75-.12.2,20.16,35.12Z" transform="translate(3.96 0.1)" fill="#a7a9ac" opacity="0.82" style="isolation:isolate"/></g><g id="Group_11195" data-name="Group 11195"><path id="Path_11038" data-name="Path 11038" d="M1369,605.43,1351,636.9h.92L1369,607Z" transform="translate(3.96 0.1)" fill="#a7a9ac" opacity="0.5" style="isolation:isolate"/><path id="Path_11039" data-name="Path 11039" d="M1306,636.9l-20.17-35.12,21.33-37.14h42.65l19.22,33.5v-1.6l-18.77-32.7h-43.56L1285,601.58l-.12.2,20.17,35.12Z" transform="translate(3.96 0.1)" fill="#a7a9ac" opacity="0.28" style="isolation:isolate"/></g><g id="Group_11196" data-name="Group 11196"><path id="Path_11040" data-name="Path 11040" d="M20.16,526.28H3v.8H19.7L41,564.22,19.7,601.35H3v.82H20.16l21.78-37.95Z" transform="translate(3.96 0.1)" fill="#a7a9ac" opacity="0.33" style="isolation:isolate"/></g><g id="Group_11197" data-name="Group 11197"><path id="Path_11041" data-name="Path 11041" d="M297.26,602.17H253.69l-21.78-37.94,21.78-37.94h43.57L319,564.23Zm-43.11-.82H296.8l21.32-37.14L296.8,527.07H254.15l-21.31,37.14Z" transform="translate(3.96 0.1)" fill="#a7a9ac" opacity="0.71" style="isolation:isolate"/></g><g id="Group_11198" data-name="Group 11198"><path id="Path_11042" data-name="Path 11042" d="M437.68,602.17H394.12l-21.78-37.94,21.78-37.94h43.56l21.78,37.94Zm-43.1-.82h42.65l21.32-37.14-21.32-37.14H394.58l-21.33,37.14Z" transform="translate(3.96 0.1)" fill="#a7a9ac" opacity="0.73" style="isolation:isolate"/></g><g id="Group_11199" data-name="Group 11199"><path id="Path_11043" data-name="Path 11043" d="M999.42,602.17H955.86l-21.78-37.94.12-.21,21.66-37.74h43.56l21.79,37.94-.11.2Zm-43.1-.82H999l21.32-37.13L999,527.07H956.32L935,564.22Z" transform="translate(3.96 0.1)" fill="#a7a9ac" opacity="0.41" style="isolation:isolate"/></g><g id="Group_11200" data-name="Group 11200"><path id="Path_11044" data-name="Path 11044" d="M1139.85,602.17H1096.3l-21.79-37.94.11-.21,21.68-37.74h43.55l21.79,37.94-.12.2Zm-43.1-.82h42.65l21.33-37.13-21.33-37.15h-42.65l-21.32,37.15Z" transform="translate(3.96 0.1)" fill="#a7a9ac" opacity="0.25" style="isolation:isolate"/></g><g id="Group_11201" data-name="Group 11201"><path id="Path_11045" data-name="Path 11045" d="M1285.16,602.17H1241.6l-21.79-37.94.12-.21,21.67-37.74h43.56l21.78,37.94-.11.2Zm-43.11-.82h42.65L1306,564.22l-21.32-37.15h-42.65l-21.33,37.15Z" transform="translate(3.96 0.1)" fill="#a7a9ac" opacity="0.27" style="isolation:isolate"/></g><g id="Group_11202" data-name="Group 11202"><path id="Path_11046" data-name="Path 11046" d="M367.46,564.6H323.9l-21.78-37.94,21.78-37.94h43.56l21.79,37.94Zm-43.1-.81H367l21.31-37.14L367,489.51H324.37L303,526.65Z" transform="translate(3.96 0.1)" fill="#a7a9ac" opacity="0.64" style="isolation:isolate"/></g><g id="Group_11203" data-name="Group 11203"><path id="Path_11047" data-name="Path 11047" d="M1220,564.6h-43.56l-21.79-37.94.12-.2,21.68-37.75H1220l21.78,37.94-.11.2Zm-43.1-.81h42.65l21.32-37.14-21.32-37.14h-42.65l-21.33,37.14Z" transform="translate(3.96 0.1)" fill="#a7a9ac" opacity="0.29" style="isolation:isolate"/></g><g id="Group_11204" data-name="Group 11204"><path id="Path_11048" data-name="Path 11048" d="M1369,530.3l-19.22,33.49h-42.65l-21.33-37.14,21.33-37.14h42.65L1369,523V521.4l-18.77-32.69h-43.56L1285,526.46l-.12.19,21.79,38h43.56L1369,531.91Z" transform="translate(3.96 0.1)" fill="#a7a9ac" opacity="0.65" style="isolation:isolate"/></g><g id="Group_11205" data-name="Group 11205"><path id="Path_11049" data-name="Path 11049" d="M20.16,451.14H3v.8H19.7L41,489.08,19.7,526.22H3V527H20.16l21.78-37.95Z" transform="translate(3.96 0.1)" fill="#a7a9ac" opacity="0.22" style="isolation:isolate"/></g><g id="Group_11206" data-name="Group 11206"><path id="Path_11050" data-name="Path 11050" d="M150.39,527H106.83L85.05,489.09l21.78-37.94h43.56l21.78,37.94Zm-43.1-.81h42.65l21.32-37.14-21.32-37.14H107.29L86,489.08Z" transform="translate(3.96 0.1)" fill="#a7a9ac" opacity="0.86" style="isolation:isolate"/></g><g id="Group_11207" data-name="Group 11207"><path id="Path_11051" data-name="Path 11051" d="M297.26,527H253.69l-21.78-37.94,21.78-37.94h43.57L319,489.09Zm-43.11-.81H296.8l21.32-37.14L296.8,451.94H254.15l-21.31,37.14Z" transform="translate(3.96 0.1)" fill="#a7a9ac" opacity="0.96" style="isolation:isolate"/></g><g id="Group_11208" data-name="Group 11208"><path id="Path_11052" data-name="Path 11052" d="M1139.85,527H1096.3l-21.79-37.94.11-.2,21.68-37.75h43.55l21.79,37.94-.12.21Zm-43.1-.81h42.65l21.33-37.14-21.33-37.14h-42.65l-21.32,37.14Z" transform="translate(3.96 0.1)" fill="#a7a9ac" opacity="0.99" style="isolation:isolate"/></g><g id="Group_11209" data-name="Group 11209"><path id="Path_11053" data-name="Path 11053" d="M1285.16,527H1241.6l-21.79-37.94.12-.2,21.67-37.75h43.56l21.78,37.94-.11.21Zm-43.11-.81h42.65L1306,489.08l-21.32-37.14h-42.65l-21.33,37.14Z" transform="translate(3.96 0.1)" fill="#a7a9ac" opacity="0.4" style="isolation:isolate"/></g><g id="Group_11210" data-name="Group 11210"><path id="Path_11054" data-name="Path 11054" d="M85.27,489.46H41.71L19.93,451.52l21.78-37.94H85.27l21.78,37.94Zm-43.1-.8H84.82l21.32-37.15L84.82,414.38H42.17L20.84,451.51Z" transform="translate(3.96 0.1)" fill="#a7a9ac" opacity="0.38" style="isolation:isolate"/></g><g id="Group_11211" data-name="Group 11211"><path id="Path_11055" data-name="Path 11055" d="M215.51,489.46H171.94l-21.78-37.94,21.78-37.94H215.5l21.78,37.94Zm-43.1-.8h42.65l21.32-37.15-21.32-37.13H172.41l-21.33,37.13Z" transform="translate(3.96 0.1)" fill="#a7a9ac" opacity="0.7" style="isolation:isolate"/></g><g id="Group_11212" data-name="Group 11212"><path id="Path_11056" data-name="Path 11056" d="M367.46,489.46H323.9l-21.78-37.94,21.78-37.94h43.56l21.79,37.94Zm-43.1-.8H367l21.31-37.15L367,414.38H324.37L303,451.51Z" transform="translate(3.96 0.1)" fill="#a7a9ac" opacity="0.95" style="isolation:isolate"/></g><g id="Group_11213" data-name="Group 11213"><path id="Path_11057" data-name="Path 11057" d="M1220,489.46h-43.56l-21.79-37.94.12-.2,21.67-37.75H1220l21.78,37.94-.11.22Zm-43.1-.8h42.65l21.32-37.15-21.32-37.13h-42.65l-21.33,37.13Z" transform="translate(3.96 0.1)" fill="#a7a9ac" opacity="0.32" style="isolation:isolate"/></g><g id="Group_11214" data-name="Group 11214"><path id="Path_11058" data-name="Path 11058" d="M1369,455.16l-19.22,33.5h-42.65l-21.33-37.15,21.33-37.13h42.65L1369,447.87v-1.61l-18.77-32.69h-43.56L1285,451.32l-.12.2,21.79,38h43.56l18.77-32.7Z" transform="translate(3.96 0.1)" fill="#a7a9ac" opacity="0.95" style="isolation:isolate"/></g><g id="Group_11215" data-name="Group 11215"><path id="Path_11059" data-name="Path 11059" d="M20.16,376H3v.8H19.7L41,414,19.7,451.09H3v.82H20.16l21.78-38Z" transform="translate(3.96 0.1)" fill="#a7a9ac" opacity="0.45" style="isolation:isolate"/></g><g id="Group_11216" data-name="Group 11216"><path id="Path_11060" data-name="Path 11060" d="M150.39,451.91H106.83L85.05,414,106.83,376h43.56L172.17,414Zm-43.1-.82h42.65L171.26,414l-21.32-37.14H107.29L86,414Z" transform="translate(3.96 0.1)" fill="#a7a9ac" opacity="0.73" style="isolation:isolate"/></g><g id="Group_11217" data-name="Group 11217"><path id="Path_11061" data-name="Path 11061" d="M297.26,451.91H253.69l-21.78-38L253.69,376h43.57L319,414Zm-43.11-.82H296.8L318.12,414,296.8,376.81H254.15L232.84,414Z" transform="translate(3.96 0.1)" fill="#a7a9ac" opacity="0.81" style="isolation:isolate"/></g><g id="Group_11218" data-name="Group 11218"><path id="Path_11062" data-name="Path 11062" d="M437.68,451.91H394.12l-21.78-38L394.12,376h43.56L459.46,414Zm-43.1-.82h42.65L458.55,414l-21.32-37.14H394.58L373.25,414Z" transform="translate(3.96 0.1)" fill="#a7a9ac" opacity="0.24" style="isolation:isolate"/></g><g id="Group_11219" data-name="Group 11219"><path id="Path_11063" data-name="Path 11063" d="M999.42,451.91H955.86l-21.78-38,.12-.2L955.86,376h43.56L1021.21,414l-.11.21Zm-43.1-.82H999L1020.29,414,999,376.81H956.32L935,414Z" transform="translate(3.96 0.1)" fill="#a7a9ac" opacity="0.74" style="isolation:isolate"/></g><g id="Group_11220" data-name="Group 11220"><path id="Path_11064" data-name="Path 11064" d="M1139.85,451.91H1096.3l-21.79-38,.11-.2L1096.3,376h43.55L1161.64,414l-.12.21Zm-43.1-.82h42.65L1160.73,414l-21.33-37.14h-42.65L1075.43,414Z" transform="translate(3.96 0.1)" fill="#a7a9ac" opacity="0.49" style="isolation:isolate"/></g><g id="Group_11221" data-name="Group 11221"><path id="Path_11065" data-name="Path 11065" d="M1285.16,451.91H1241.6l-21.79-38,.12-.2L1241.6,376h43.56L1307,414l-.12.21Zm-43.11-.82h42.65L1306,414l-21.32-37.14h-42.65L1220.72,414Z" transform="translate(3.96 0.1)" fill="#a7a9ac" opacity="0.99" style="isolation:isolate"/></g><g id="Group_11222" data-name="Group 11222"><path id="Path_11066" data-name="Path 11066" d="M85.27,414.33H41.71L19.93,376.38l21.78-37.94H85.27l21.78,37.94Zm-43.1-.81H84.82l21.32-37.14L84.82,339.24H42.17L20.84,376.38Z" transform="translate(3.96 0.1)" fill="#a7a9ac" opacity="0.25" style="isolation:isolate"/></g><g id="Group_11223" data-name="Group 11223"><path id="Path_11067" data-name="Path 11067" d="M215.51,414.33H171.94l-21.78-37.95,21.78-37.94H215.5l21.78,37.94Zm-43.1-.81h42.65l21.32-37.14-21.32-37.14H172.41l-21.33,37.14Z" transform="translate(3.96 0.1)" fill="#a7a9ac" opacity="0.95" style="isolation:isolate"/></g><g id="Group_11224" data-name="Group 11224"><path id="Path_11068" data-name="Path 11068" d="M367.46,414.33H323.9l-21.78-37.95,21.78-37.94h43.56l21.79,37.94Zm-43.1-.81H367l21.31-37.14L367,339.24H324.37L303,376.38Z" transform="translate(3.96 0.1)" fill="#a7a9ac" opacity="0.37" style="isolation:isolate"/></g><g id="Group_11225" data-name="Group 11225"><path id="Path_11069" data-name="Path 11069" d="M1069.64,414.33h-43.56l-21.78-37.95.12-.2,21.66-37.75h43.56l21.79,37.94-.12.21Zm-43.11-.81h42.65l21.33-37.14-21.32-37.13h-42.65l-21.33,37.13Z" transform="translate(3.96 0.1)" fill="#a7a9ac" opacity="0.74" style="isolation:isolate"/></g><g id="Group_11226" data-name="Group 11226"><path id="Path_11070" data-name="Path 11070" d="M1220,414.33h-43.56l-21.79-37.95.12-.2,21.68-37.75H1220l21.78,37.94-.11.21Zm-43.1-.81h42.65l21.32-37.14-21.32-37.13h-42.65l-21.33,37.13Z" transform="translate(3.96 0.1)" fill="#a7a9ac" opacity="0.98" style="isolation:isolate"/></g><g id="Group_11227" data-name="Group 11227"><path id="Path_11071" data-name="Path 11071" d="M1369,380l-19.22,33.48h-42.65l-21.33-37.14,21.33-37.14h42.65l19.22,33.5v-1.61l-18.77-32.69h-43.56L1285,376.19l-.12.19,21.79,37.95h43.56L1369,381.64Z" transform="translate(3.96 0.1)" fill="#a7a9ac" opacity="0.41" style="isolation:isolate"/></g><g id="Group_11228" data-name="Group 11228"><path id="Path_11072" data-name="Path 11072" d="M20.16,300.88H3v.8H19.7L41,338.82,19.7,376H3v.81H20.16l21.78-37.94Z" transform="translate(3.96 0.1)" fill="#a7a9ac" opacity="0.95" style="isolation:isolate"/></g><g id="Group_11229" data-name="Group 11229"><path id="Path_11073" data-name="Path 11073" d="M150.39,376.76H106.83L85.05,338.82l21.78-37.95h43.56l21.78,37.95Zm-43.1-.81h42.65l21.32-37.13-21.32-37.14H107.29L86,338.82Z" transform="translate(3.96 0.1)" fill="#a7a9ac" opacity="0.95" style="isolation:isolate"/></g><g id="Group_11230" data-name="Group 11230"><path id="Path_11074" data-name="Path 11074" d="M297.26,376.76H253.69l-21.78-37.94,21.78-37.95h43.57L319,338.82ZM254.15,376H296.8l21.32-37.13L296.8,301.68H254.15l-21.31,37.14Z" transform="translate(3.96 0.1)" fill="#a7a9ac" opacity="0.53" style="isolation:isolate"/></g><g id="Group_11231" data-name="Group 11231"><path id="Path_11075" data-name="Path 11075" d="M437.68,376.76H394.12l-21.78-37.94,21.78-37.95h43.56l21.78,37.95Zm-43.1-.81h42.65l21.32-37.13-21.32-37.14H394.58l-21.33,37.14Z" transform="translate(3.96 0.1)" fill="#a7a9ac" opacity="0.94" style="isolation:isolate"/></g><g id="Group_11232" data-name="Group 11232"><path id="Path_11076" data-name="Path 11076" d="M999.42,376.76H955.86l-21.78-37.94.12-.21,21.66-37.74h43.56l21.79,37.95-.11.2Zm-43.1-.81H999l21.32-37.13L999,301.68H956.32L935,338.82Z" transform="translate(3.96 0.1)" fill="#a7a9ac" opacity="0.24" style="isolation:isolate"/></g><g id="Group_11233" data-name="Group 11233"><path id="Path_11077" data-name="Path 11077" d="M1139.85,376.76H1096.3l-21.79-37.94.11-.21,21.68-37.74h43.55l21.79,37.95-.12.2Zm-43.1-.81h42.65l21.33-37.13-21.33-37.14h-42.65l-21.32,37.14Z" transform="translate(3.96 0.1)" fill="#a7a9ac" opacity="0.24" style="isolation:isolate"/></g><g id="Group_11234" data-name="Group 11234"><path id="Path_11078" data-name="Path 11078" d="M1285.16,376.76H1241.6l-21.79-37.94.12-.21,21.67-37.74h43.56l21.78,37.95-.11.2Zm-43.11-.81h42.65L1306,338.82l-21.32-37.14h-42.65l-21.33,37.14Z" transform="translate(3.96 0.1)" fill="#a7a9ac" opacity="0.98" style="isolation:isolate"/></g><g id="Group_11235" data-name="Group 11235"><path id="Path_11079" data-name="Path 11079" d="M85.27,339.19H41.71L19.93,301.24,41.71,263.3H85.27l21.78,37.94Zm-43.1-.8H84.82l21.32-37.14L84.82,264.12H42.17L20.84,301.25Z" transform="translate(3.96 0.1)" fill="#a7a9ac" opacity="0.5" style="isolation:isolate"/></g><g id="Group_11236" data-name="Group 11236"><path id="Path_11080" data-name="Path 11080" d="M215.51,339.19H171.94l-21.78-37.95,21.78-37.94H215.5l21.78,37.94Zm-43.1-.8h42.65l21.32-37.14-21.32-37.13H172.41l-21.33,37.13Z" transform="translate(3.96 0.1)" fill="#a7a9ac" opacity="0.28" style="isolation:isolate"/></g><g id="Group_11237" data-name="Group 11237"><path id="Path_11081" data-name="Path 11081" d="M367.46,339.19H323.9l-21.78-37.95L323.9,263.3h43.56l21.79,37.94Zm-43.1-.8H367l21.31-37.14L367,264.12H324.37L303,301.25Z" transform="translate(3.96 0.1)" fill="#a7a9ac" opacity="0.46" style="isolation:isolate"/></g><g id="Group_11238" data-name="Group 11238"><path id="Path_11082" data-name="Path 11082" d="M1069.64,339.19h-43.56l-21.78-37.95.12-.2,21.66-37.75h43.56l21.79,37.94-.12.2Zm-43.11-.8h42.65l21.33-37.14-21.32-37.13h-42.65l-21.33,37.13Z" transform="translate(3.96 0.1)" fill="#a7a9ac" opacity="0.74" style="isolation:isolate"/></g><g id="Group_11239" data-name="Group 11239"><path id="Path_11083" data-name="Path 11083" d="M1220,339.19h-43.56l-21.79-37.95.12-.2,21.68-37.75H1220l21.78,37.94-.11.2Zm-43.1-.8h42.65l21.32-37.14-21.32-37.13h-42.65l-21.33,37.13Z" transform="translate(3.96 0.1)" fill="#a7a9ac" opacity="0.64" style="isolation:isolate"/></g><g id="Group_11240" data-name="Group 11240"><path id="Path_11084" data-name="Path 11084" d="M1369,304.9l-19.22,33.49h-42.65l-21.33-37.14,21.33-37.14h42.65L1369,297.6V296l-18.77-32.69h-43.56L1285,301.05l-.12.2,21.79,37.94h43.56L1369,306.5Z" transform="translate(3.96 0.1)" fill="#a7a9ac" opacity="0.63" style="isolation:isolate"/></g><g id="Group_11241" data-name="Group 11241"><path id="Path_11085" data-name="Path 11085" d="M20.16,225.75H3v.8H19.7L41,263.69,19.7,300.83H3v.8H20.16l21.78-37.94Z" transform="translate(3.96 0.1)" fill="#a7a9ac" opacity="0.4" style="isolation:isolate"/></g><g id="Group_11242" data-name="Group 11242"><path id="Path_11086" data-name="Path 11086" d="M150.39,301.62H106.83L85.05,263.69l21.78-37.94h43.56l21.78,37.94Zm-43.1-.8h42.65l21.32-37.12-21.32-37.14H107.29L86,263.7Z" transform="translate(3.96 0.1)" fill="#a7a9ac" opacity="0.23" style="isolation:isolate"/></g><g id="Group_11243" data-name="Group 11243"><path id="Path_11087" data-name="Path 11087" d="M297.26,301.62H253.69l-21.78-37.93,21.78-37.94h43.57L319,263.69Zm-43.11-.8H296.8l21.32-37.12L296.8,226.56H254.15L232.84,263.7Z" transform="translate(3.96 0.1)" fill="#a7a9ac" opacity="0.56" style="isolation:isolate"/></g><g id="Group_11244" data-name="Group 11244"><path id="Path_11088" data-name="Path 11088" d="M1139.85,301.62H1096.3l-21.79-37.93.11-.2,21.68-37.74h43.55l21.79,37.94-.12.2Zm-43.1-.8h42.65l21.33-37.12-21.33-37.14h-42.65l-21.32,37.14Z" transform="translate(3.96 0.1)" fill="#a7a9ac" opacity="0.82" style="isolation:isolate"/></g><g id="Group_11245" data-name="Group 11245"><path id="Path_11089" data-name="Path 11089" d="M1285.16,301.62H1241.6l-21.79-37.93.12-.2,21.67-37.74h43.56l21.78,37.94-.11.2Zm-43.11-.8h42.65L1306,263.7l-21.32-37.14h-42.65l-21.33,37.14Z" transform="translate(3.96 0.1)" fill="#a7a9ac" opacity="0.66" style="isolation:isolate"/></g><g id="Group_11246" data-name="Group 11246"><path id="Path_11090" data-name="Path 11090" d="M85.27,264.06H41.71L19.93,226.12l21.78-38H85.27l21.78,38Zm-43.1-.8H84.82l21.32-37.13L84.82,189H42.17L20.84,226.13Z" transform="translate(3.96 0.1)" fill="#a7a9ac" opacity="0.22" style="isolation:isolate"/></g><g id="Group_11247" data-name="Group 11247"><path id="Path_11091" data-name="Path 11091" d="M215.51,264.06H171.94l-21.78-37.94,21.78-38H215.5l21.78,37.94Zm-43.1-.8h42.65l21.32-37.14L215.06,189H172.41l-21.33,37.13Z" transform="translate(3.96 0.1)" fill="#a7a9ac" opacity="0.92" style="isolation:isolate"/></g><g id="Group_11248" data-name="Group 11248"><path id="Path_11092" data-name="Path 11092" d="M367.46,264.06H323.9l-21.78-37.94,21.78-38h43.56l21.79,37.94Zm-43.1-.8H367l21.31-37.14L367,189H324.37L303,226.13Z" transform="translate(3.96 0.1)" fill="#a7a9ac" opacity="0.47" style="isolation:isolate"/></g><g id="Group_11249" data-name="Group 11249"><path id="Path_11093" data-name="Path 11093" d="M507.9,264.06H464.34l-21.78-37.94,21.78-38H507.9l21.79,37.94Zm-43.1-.8h42.65l21.32-37.13L507.45,189H464.8l-21.33,37.13Z" transform="translate(3.96 0.1)" fill="#a7a9ac" opacity="0.46" style="isolation:isolate"/></g><g id="Group_11250" data-name="Group 11250"><path id="Path_11094" data-name="Path 11094" d="M1069.64,264.06h-43.56l-21.78-37.94.12-.2,21.66-37.74h43.56l21.79,37.94-.12.2Zm-43.11-.8h42.65l21.33-37.14L1069.19,189h-42.65l-21.33,37.13Z" transform="translate(3.96 0.1)" fill="#a7a9ac" opacity="0.91" style="isolation:isolate"/></g><g id="Group_11251" data-name="Group 11251"><path id="Path_11095" data-name="Path 11095" d="M1220,264.06h-43.56l-21.79-37.94.12-.2,21.68-37.74H1220l21.78,37.94-.11.2Zm-43.1-.8h42.65l21.32-37.14L1219.59,189h-42.65l-21.33,37.13Z" transform="translate(3.96 0.1)" fill="#a7a9ac" opacity="0.33" style="isolation:isolate"/></g><g id="Group_11252" data-name="Group 11252"><path id="Path_11096" data-name="Path 11096" d="M1369,229.77l-19.22,33.49h-42.65l-21.33-37.14L1307.17,189h42.65L1369,222.47v-1.6l-18.77-32.7h-43.56L1285,225.92l-.12.2,21.79,37.93h43.56L1369,231.38Z" transform="translate(3.96 0.1)" fill="#a7a9ac" opacity="0.83" style="isolation:isolate"/></g><g id="Group_11253" data-name="Group 11253"><path id="Path_11097" data-name="Path 11097" d="M20.16,150.61H3v.81H19.7L41,188.55,19.7,225.69H3v.81H20.16l21.78-37.95Z" transform="translate(3.96 0.1)" fill="#a7a9ac" opacity="0.66" style="isolation:isolate"/></g><g id="Group_11254" data-name="Group 11254"><path id="Path_11098" data-name="Path 11098" d="M150.39,226.5H106.83L85,188.55l21.78-37.94h43.56l21.78,37.94Zm-43.1-.81h42.65l21.32-37.14-21.32-37.13H107.29L86,188.55Z" transform="translate(3.96 0.1)" fill="#a7a9ac" opacity="0.88" style="isolation:isolate"/></g><g id="Group_11255" data-name="Group 11255"><path id="Path_11099" data-name="Path 11099" d="M297.26,226.5H253.69l-21.78-37.95,21.78-37.94h43.57L319,188.55Zm-43.11-.81H296.8l21.32-37.14L296.8,151.42H254.15l-21.31,37.13Z" transform="translate(3.96 0.1)" fill="#a7a9ac" opacity="0.74" style="isolation:isolate"/></g><g id="Group_11256" data-name="Group 11256"><path id="Path_11100" data-name="Path 11100" d="M437.68,226.5H394.12l-21.78-37.95,21.78-37.94h43.56l21.78,37.94Zm-43.1-.81h42.65l21.32-37.14-21.32-37.13H394.58l-21.33,37.13Z" transform="translate(3.96 0.1)" fill="#a7a9ac" opacity="0.35" style="isolation:isolate"/></g><g id="Group_11257" data-name="Group 11257"><path id="Path_11101" data-name="Path 11101" d="M999.42,226.5H955.86l-21.78-37.95.12-.2,21.66-37.75h43.56l21.79,37.94-.11.2Zm-43.1-.81H999l21.32-37.14L999,151.42H956.32L935,188.55Z" transform="translate(3.96 0.1)" fill="#a7a9ac" opacity="0.93" style="isolation:isolate"/></g><g id="Group_11258" data-name="Group 11258"><path id="Path_11102" data-name="Path 11102" d="M1139.85,226.5H1096.3l-21.79-37.95.11-.2,21.68-37.75h43.55l21.79,37.94-.12.2Zm-43.1-.81h42.65l21.33-37.14-21.33-37.13h-42.65l-21.32,37.13Z" transform="translate(3.96 0.1)" fill="#a7a9ac" opacity="0.88" style="isolation:isolate"/></g><g id="Group_11259" data-name="Group 11259"><path id="Path_11103" data-name="Path 11103" d="M1285.16,226.5H1241.6l-21.79-37.95.12-.2,21.67-37.75h43.56l21.78,37.94-.11.2Zm-43.11-.81h42.65L1306,188.55l-21.32-37.13h-42.65l-21.33,37.13Z" transform="translate(3.96 0.1)" fill="#a7a9ac" opacity="0.37" style="isolation:isolate"/></g><g id="Group_11260" data-name="Group 11260"><path id="Path_11104" data-name="Path 11104" d="M85.27,188.93H41.71L19.93,151,41.71,113H85.27l21.8,38Zm-43.1-.8H84.82L106.14,151,84.82,113.85H42.17L20.85,151Z" transform="translate(3.96 0.1)" fill="#a7a9ac" opacity="0.82" style="isolation:isolate"/></g><g id="Group_11261" data-name="Group 11261"><path id="Path_11105" data-name="Path 11105" d="M215.51,188.93H171.94L150.16,151,171.94,113H215.5l21.79,38Zm-43.1-.8h42.65L236.38,151l-21.32-37.14H172.41L151.08,151Z" transform="translate(3.96 0.1)" fill="#a7a9ac" opacity="0.82" style="isolation:isolate"/></g><g id="Group_11262" data-name="Group 11262"><path id="Path_11106" data-name="Path 11106" d="M367.46,188.93H323.9L302.12,151,323.9,113h43.56l21.79,38Zm-43.1-.8H367L388.33,151,367,113.85H324.37L303,151Z" transform="translate(3.96 0.1)" fill="#a7a9ac" opacity="0.75" style="isolation:isolate"/></g><g id="Group_11263" data-name="Group 11263"><path id="Path_11107" data-name="Path 11107" d="M1069.64,188.93h-43.56L1004.3,151l.12-.2L1026.08,113h43.56l21.79,38-.12.2Zm-43.11-.8h42.65L1090.51,151l-21.32-37.14h-42.65L1005.21,151Z" transform="translate(3.96 0.1)" fill="#a7a9ac" opacity="0.81" style="isolation:isolate"/></g><g id="Group_11264" data-name="Group 11264"><path id="Path_11108" data-name="Path 11108" d="M1220,188.93h-43.56L1154.69,151l.12-.2,21.68-37.74H1220l21.78,38-.11.2Zm-43.1-.8h42.65L1240.91,151l-21.32-37.14h-42.65L1155.61,151Z" transform="translate(3.96 0.1)" fill="#a7a9ac" opacity="0.59" style="isolation:isolate"/></g><g id="Group_11265" data-name="Group 11265"><path id="Path_11109" data-name="Path 11109" d="M1369,154.63l-19.22,33.5h-42.65L1285.84,151l21.33-37.14h42.65L1369,147.33v-1.6L1350.27,113h-43.56L1285,150.79l-.12.2,21.79,37.94h43.56L1369,156.24Z" transform="translate(3.96 0.1)" fill="#a7a9ac" opacity="0.52" style="isolation:isolate"/></g><g id="Group_11266" data-name="Group 11266"><path id="Path_11110" data-name="Path 11110" d="M20.16,75.49H3v.8H19.7L41,113.43,19.7,150.56H3v.8H20.16l21.78-37.93Z" transform="translate(3.96 0.1)" fill="#a7a9ac" opacity="0.62" style="isolation:isolate"/></g><g id="Group_11267" data-name="Group 11267"><path id="Path_11111" data-name="Path 11111" d="M150.39,151.36H106.83L85.05,113.43l21.78-37.94h43.56l21.78,37.94Zm-43.1-.8h42.65l21.32-37.13L149.94,76.29H107.29L86,113.43Z" transform="translate(3.96 0.1)" fill="#a7a9ac" opacity="0.98" style="isolation:isolate"/></g><g id="Group_11268" data-name="Group 11268"><path id="Path_11112" data-name="Path 11112" d="M297.26,151.36H253.69l-21.78-37.93,21.78-37.94h43.57L319,113.43Zm-43.11-.8H296.8l21.32-37.13L296.8,76.29H254.15l-21.31,37.14Z" transform="translate(3.96 0.1)" fill="#a7a9ac" opacity="0.64" style="isolation:isolate"/></g><g id="Group_11269" data-name="Group 11269"><path id="Path_11113" data-name="Path 11113" d="M437.68,151.36H394.12l-21.78-37.93,21.78-37.94h43.56l21.78,37.94Zm-43.1-.8h42.65l21.32-37.13L437.23,76.29H394.58l-21.33,37.14Z" transform="translate(3.96 0.1)" fill="#a7a9ac" opacity="0.4" style="isolation:isolate"/></g><g id="Group_11270" data-name="Group 11270"><path id="Path_11114" data-name="Path 11114" d="M1139.85,151.36H1096.3l-21.79-37.93.11-.2,21.68-37.74h43.55l21.79,37.94-.12.2Zm-43.1-.8h42.65l21.33-37.13L1139.4,76.29h-42.65l-21.32,37.14Z" transform="translate(3.96 0.1)" fill="#a7a9ac" opacity="0.31" style="isolation:isolate"/></g><g id="Group_11271" data-name="Group 11271"><path id="Path_11115" data-name="Path 11115" d="M1285.16,151.36H1241.6l-21.79-37.93.12-.2,21.67-37.74h43.56l21.78,37.94-.11.2Zm-43.11-.8h42.65L1306,113.43,1284.7,76.29h-42.65l-21.33,37.14Z" transform="translate(3.96 0.1)" fill="#a7a9ac" opacity="0.7" style="isolation:isolate"/></g><g id="Group_11272" data-name="Group 11272"><path id="Path_11116" data-name="Path 11116" d="M85.27,113.8H41.71L19.93,75.86,41.71,37.92H85.27l21.78,37.94Zm-43.1-.8H84.82l21.32-37.14L84.82,38.72H42.17L20.84,75.86Z" transform="translate(3.96 0.1)" fill="#a7a9ac" opacity="0.56" style="isolation:isolate"/></g><g id="Group_11273" data-name="Group 11273"><path id="Path_11117" data-name="Path 11117" d="M215.51,113.8H171.94L150.16,75.86l21.78-37.94H215.5l21.78,37.94Zm-43.1-.8h42.65l21.32-37.15L215.06,38.72H172.41L151.08,75.86Z" transform="translate(3.96 0.1)" fill="#a7a9ac" opacity="0.51" style="isolation:isolate"/></g><g id="Group_11274" data-name="Group 11274"><path id="Path_11118" data-name="Path 11118" d="M367.46,113.8H323.9L302.12,75.86,323.9,37.92h43.56l21.79,37.94Zm-43.1-.8H367l21.31-37.15L367,38.72H324.37L303,75.86Z" transform="translate(3.96 0.1)" fill="#a7a9ac" opacity="0.89" style="isolation:isolate"/></g><g id="Group_11275" data-name="Group 11275"><path id="Path_11119" data-name="Path 11119" d="M507.9,113.8H464.34L442.56,75.86l21.78-37.94H507.9l21.79,37.94Zm-43.1-.8h42.65l21.32-37.14L507.45,38.72H464.8L443.47,75.86Z" transform="translate(3.96 0.1)" fill="#a7a9ac" opacity="0.29" style="isolation:isolate"/></g><g id="Group_11276" data-name="Group 11276"><path id="Path_11120" data-name="Path 11120" d="M1069.64,113.8h-43.56L1004.3,75.86l.12-.2,21.66-37.74h43.56l21.79,37.94-.12.2Zm-43.11-.8h42.65l21.33-37.15-21.32-37.13h-42.65l-21.33,37.14Z" transform="translate(3.96 0.1)" fill="#a7a9ac" style="isolation:isolate"/></g><g id="Group_11277" data-name="Group 11277"><path id="Path_11121" data-name="Path 11121" d="M1220,113.8h-43.56l-21.79-37.94.12-.2,21.67-37.74H1220l21.78,37.94-.11.2Zm-43.1-.8h42.65l21.32-37.15-21.32-37.13h-42.65l-21.33,37.14Z" transform="translate(3.96 0.1)" fill="#a7a9ac" opacity="0.36" style="isolation:isolate"/></g><g id="Group_11278" data-name="Group 11278"><path id="Path_11122" data-name="Path 11122" d="M1369,79.51,1349.82,113h-42.65l-21.33-37.14,21.33-37.15h42.65L1369,72.21v-1.6l-18.77-32.69h-43.56L1285,75.66l-.12.2,21.79,37.94h43.56L1369,81.11Z" transform="translate(3.96 0.1)" fill="#a7a9ac" opacity="0.46" style="isolation:isolate"/></g><g id="Group_11279" data-name="Group 11279"><path id="Path_11123" data-name="Path 11123" d="M20.16.34H3v.81H19.7L41,38.29,19.7,75.43H3v.8H20.16L41.94,38.29Z" transform="translate(3.96 0.1)" fill="#a7a9ac" opacity="0.47" style="isolation:isolate"/></g><g id="Group_11280" data-name="Group 11280"><path id="Path_11124" data-name="Path 11124" d="M150.39,76.23H106.83L85,38.29,106.83.34h43.56l21.78,37.95Zm-43.1-.8h42.65L171.26,38.3,149.94,1.16H107.29L86,38.3Z" transform="translate(3.96 0.1)" fill="#a7a9ac" opacity="0.6" style="isolation:isolate"/></g><g id="Group_11281" data-name="Group 11281"><path id="Path_11125" data-name="Path 11125" d="M297.26,76.23H253.69L231.91,38.29,253.69.34h43.57L319,38.29Zm-43.11-.8H296.8L318.12,38.3,296.8,1.16H254.15L232.84,38.3Z" transform="translate(3.96 0.1)" fill="#a7a9ac" opacity="0.49" style="isolation:isolate"/></g><g id="Group_11282" data-name="Group 11282"><path id="Path_11126" data-name="Path 11126" d="M437.68,76.23H394.12L372.34,38.29,394.12.34h43.56l21.78,37.95Zm-43.1-.8h42.65L458.55,38.3,437.23,1.16H394.58L373.25,38.3Z" transform="translate(3.96 0.1)" fill="#a7a9ac" opacity="0.58" style="isolation:isolate"/></g><g id="Group_11283" data-name="Group 11283"><path id="Path_11127" data-name="Path 11127" d="M999.42,76.23H955.86L934.08,38.29l.12-.2L955.86.34h43.56l21.79,37.95-.11.2Zm-43.1-.8H999l21.32-37.13L999,1.16H956.32L935,38.3Z" transform="translate(3.96 0.1)" fill="#a7a9ac" opacity="0.56" style="isolation:isolate"/></g><g id="Group_11284" data-name="Group 11284"><path id="Path_11128" data-name="Path 11128" d="M1139.85,76.23H1096.3l-21.79-37.94.11-.2L1096.3.34h43.55l21.79,37.95-.12.2Zm-43.1-.8h42.65l21.33-37.13L1139.4,1.16h-42.65L1075.43,38.3Z" transform="translate(3.96 0.1)" fill="#a7a9ac" opacity="0.45" style="isolation:isolate"/></g><g id="Group_11285" data-name="Group 11285"><path id="Path_11129" data-name="Path 11129" d="M1285.16,76.23H1241.6l-21.79-37.94.12-.2L1241.59.34h43.56l21.78,37.95-.11.2Zm-43.11-.8h42.65L1306,38.3,1284.7,1.16h-42.65L1220.72,38.3Z" transform="translate(3.96 0.1)" fill="#a7a9ac" opacity="0.89" style="isolation:isolate"/></g><g id="Group_11286" data-name="Group 11286"><path id="Path_11130" data-name="Path 11130" d="M105.92.34l.22.38L84.82,37.87H42.17L20.85.72l.23-.38h-.93l-.22.38L41.71,38.66H85.27L107.06.72l-.22-.38Z" transform="translate(3.96 0.1)" fill="#a7a9ac" opacity="0.62" style="isolation:isolate"/></g><g id="Group_11287" data-name="Group 11287"><path id="Path_11131" data-name="Path 11131" d="M236.16.34l.21.38L215.05,37.87H172.41L151.08.72l.23-.38h-.93l-.22.38,21.78,37.94h43.57L237.29.72l-.21-.38Z" transform="translate(3.96 0.1)" fill="#a7a9ac" opacity="0.6" style="isolation:isolate"/></g><g id="Group_11288" data-name="Group 11288"><path id="Path_11132" data-name="Path 11132" d="M388.11.34l.22.38L367,37.87H324.37L303,.72l.22-.38h-.92l-.22.38L323.9,38.66h43.56L389.25.72,389,.34Z" transform="translate(3.96 0.1)" fill="#a7a9ac" opacity="0.54" style="isolation:isolate"/></g><g id="Group_11289" data-name="Group 11289"><path id="Path_11133" data-name="Path 11133" d="M528.54.34l.22.38L507.45,37.87H464.8L443.47.72l.23-.38h-.93l-.22.38,21.79,37.94H507.9L529.68.72l-.22-.38Z" transform="translate(3.96 0.1)" fill="#a7a9ac" opacity="0.57" style="isolation:isolate"/></g><g id="Group_11290" data-name="Group 11290"><path id="Path_11134" data-name="Path 11134" d="M949.86.34l.21.38L928.75,37.87H886.11L864.78.72,865,.34h-.92L864,.52l-.11.2,21.78,37.94H929.2L950.88.92l.11-.2-.22-.38Z" transform="translate(3.96 0.1)" fill="#a7a9ac" opacity="0.55" style="isolation:isolate"/></g><g id="Group_11291" data-name="Group 11291"><path id="Path_11135" data-name="Path 11135" d="M1090.29.34l.21.38-21.32,37.15h-42.65L1005.21.72l.22-.38h-.92l-.11.18-.1.2,21.77,37.94h43.57L1091.32.92l.1-.2-.21-.38Z" transform="translate(3.96 0.1)" fill="#a7a9ac" opacity="0.84" style="isolation:isolate"/></g><g id="Group_11292" data-name="Group 11292"><path id="Path_11136" data-name="Path 11136" d="M1240.68.34l.22.38-21.32,37.15h-42.64L1155.61.72l.21-.38h-.92l-.1.18-.12.2,21.8,37.94H1220L1241.71.92l.11-.2-.22-.38Z" transform="translate(3.96 0.1)" fill="#a7a9ac" opacity="0.55" style="isolation:isolate"/></g><g id="Group_11293" data-name="Group 11293"><path id="Path_11137" data-name="Path 11137" d="M1369,4.37l-19.22,33.5h-42.65L1285.84.72l.23-.38h-.92l-.12.18-.12.2,21.8,37.94h43.56L1369,6Z" transform="translate(3.96 0.1)" fill="#a7a9ac" opacity="0.4" style="isolation:isolate"/></g><path id="Path_11138" data-name="Path 11138" d="M1026.35,636.9a4.09,4.09,0,0,0-5.71-.89,4.17,4.17,0,0,0-.89.89Z" transform="translate(3.96 0.1)" fill="#a7a9ac" opacity="0.67" style="isolation:isolate"/><path id="Path_11139" data-name="Path 11139" d="M373.81,636.9a3.75,3.75,0,0,0-5.28-.55,3.58,3.58,0,0,0-.55.55Z" transform="translate(3.96 0.1)" fill="#a7a9ac" opacity="0.84" style="isolation:isolate"/><path id="Path_11140" data-name="Path 11140" d="M1308.74,636.9a3.3,3.3,0,0,0-4.53,0Z" transform="translate(3.96 0.1)" fill="#a7a9ac" opacity="0.78" style="isolation:isolate"/><circle id="Ellipse_3235" data-name="Ellipse 3235" cx="1288.89" cy="601.9" r="3.76" fill="#a7a9ac" opacity="0.69" style="isolation:isolate"/><path id="Path_11141" data-name="Path 11141" d="M1223.17,636.9a3.74,3.74,0,0,0-2.9-1.38,3.79,3.79,0,0,0-2.9,1.38Z" transform="translate(3.96 0.1)" fill="#a7a9ac" opacity="0.68" style="isolation:isolate"/><circle id="Ellipse_3236" data-name="Ellipse 3236" cx="1096.49" cy="601.88" r="5.08" fill="#a7a9ac" opacity="0.52" style="isolation:isolate"/><path id="Path_11142" data-name="Path 11142" d="M1026.84,636.9a4.45,4.45,0,0,0-6.15-1.39,4.39,4.39,0,0,0-1.39,1.39Z" transform="translate(3.96 0.1)" fill="#a7a9ac" opacity="0.9" style="isolation:isolate"/><circle id="Ellipse_3237" data-name="Ellipse 3237" cx="1310.89" cy="564.34" r="3.94" fill="#a7a9ac" opacity="0.47" style="isolation:isolate"/><circle id="Ellipse_3238" data-name="Ellipse 3238" cx="304.43" cy="601.86" r="3.95" fill="#a7a9ac" opacity="0.78" style="isolation:isolate"/><circle id="Ellipse_3239" data-name="Ellipse 3239" cx="397.95" cy="601.86" r="4.11" fill="#a7a9ac" opacity="0.22" style="isolation:isolate"/><circle id="Ellipse_3240" data-name="Ellipse 3240" cx="933.99" cy="564.32" r="3.52" fill="#a7a9ac" opacity="0.69" style="isolation:isolate"/><circle id="Ellipse_3241" data-name="Ellipse 3241" cx="1073.35" cy="489.21" r="5.14" fill="#a7a9ac" opacity="0.51" style="isolation:isolate"/><circle id="Ellipse_3242" data-name="Ellipse 3242" cx="1223.77" cy="564.28" r="3.66" fill="#a7a9ac" opacity="0.2" style="isolation:isolate"/><path id="Path_11143" data-name="Path 11143" d="M1369,524.66a3.23,3.23,0,0,0,0,4Z" transform="translate(3.96 0.1)" fill="#a7a9ac" opacity="0.61" style="isolation:isolate"/><circle id="Ellipse_3243" data-name="Ellipse 3243" cx="154.12" cy="451.65" r="4.68" fill="#a7a9ac" opacity="0.95" style="isolation:isolate"/><circle id="Ellipse_3244" data-name="Ellipse 3244" cx="304.39" cy="451.64" r="4.83" fill="#a7a9ac" opacity="0.32" style="isolation:isolate"/><circle id="Ellipse_3245" data-name="Ellipse 3245" cx="1096.92" cy="526.72" r="3.66" fill="#a7a9ac" opacity="0.67" style="isolation:isolate"/><circle id="Ellipse_3246" data-name="Ellipse 3246" cx="1310.44" cy="489.18" r="3.72" fill="#a7a9ac" opacity="0.62" style="isolation:isolate"/><circle id="Ellipse_3247" data-name="Ellipse 3247" cx="1245.78" cy="451.64" r="4" fill="#a7a9ac" opacity="0.69" style="isolation:isolate"/><circle id="Ellipse_3248" data-name="Ellipse 3248" cx="89.01" cy="489.16" r="4.06" fill="#a7a9ac" opacity="0.96" style="isolation:isolate"/><circle id="Ellipse_3249" data-name="Ellipse 3249" cx="219.24" cy="489.16" r="3.65" fill="#a7a9ac" opacity="0.44" style="isolation:isolate"/><circle id="Ellipse_3250" data-name="Ellipse 3250" cx="176.13" cy="489.16" r="3.65" fill="#a7a9ac" opacity="0.6" style="isolation:isolate"/><circle id="Ellipse_3251" data-name="Ellipse 3251" cx="467.86" cy="414.08" r="3.44" fill="#a7a9ac" opacity="0.58" style="isolation:isolate"/><circle id="Ellipse_3252" data-name="Ellipse 3252" cx="1289.35" cy="451.61" r="3.88" fill="#a7a9ac" opacity="0.56" style="isolation:isolate"/><circle id="Ellipse_3253" data-name="Ellipse 3253" cx="154.12" cy="376.51" r="3.44" fill="#a7a9ac" opacity="0.64" style="isolation:isolate"/><circle id="Ellipse_3254" data-name="Ellipse 3254" cx="304.4" cy="451.59" r="4.75" fill="#a7a9ac" opacity="0.99" style="isolation:isolate"/><circle id="Ellipse_3255" data-name="Ellipse 3255" cx="327.56" cy="414.05" r="4.3" fill="#a7a9ac" opacity="0.22" style="isolation:isolate"/><circle id="Ellipse_3256" data-name="Ellipse 3256" cx="304.43" cy="376.51" r="4.02" fill="#a7a9ac" opacity="0.49" style="isolation:isolate"/><circle id="Ellipse_3257" data-name="Ellipse 3257" cx="241.25" cy="451.59" r="4.05" fill="#a7a9ac" opacity="0.99" style="isolation:isolate"/><circle id="Ellipse_3258" data-name="Ellipse 3258" cx="1180.21" cy="414.05" r="4.47" fill="#a7a9ac" opacity="0.88" style="isolation:isolate"/><circle id="Ellipse_3259" data-name="Ellipse 3259" cx="240.8" cy="376.48" r="3.45" fill="#a7a9ac" opacity="0.45" style="isolation:isolate"/><circle id="Ellipse_3260" data-name="Ellipse 3260" cx="328.05" cy="338.94" r="4.13" fill="#a7a9ac" opacity="0.22" style="isolation:isolate"/><circle id="Ellipse_3261" data-name="Ellipse 3261" cx="956.65" cy="376.48" r="4.09" fill="#a7a9ac" opacity="0.38" style="isolation:isolate"/><circle id="Ellipse_3262" data-name="Ellipse 3262" cx="1003.9" cy="376.48" r="3.9" fill="#a7a9ac" opacity="0.33" style="isolation:isolate"/><circle id="Ellipse_3263" data-name="Ellipse 3263" cx="1223.77" cy="414.02" r="3.09" fill="#a7a9ac" opacity="0.66" style="isolation:isolate"/><circle id="Ellipse_3264" data-name="Ellipse 3264" cx="1180.66" cy="338.94" r="4.85" fill="#a7a9ac" opacity="0.62" style="isolation:isolate"/><circle id="Ellipse_3265" data-name="Ellipse 3265" cx="1159.12" cy="376.48" r="4.73" fill="#a7a9ac" opacity="0.75" style="isolation:isolate"/><circle id="Ellipse_3266" data-name="Ellipse 3266" cx="154.12" cy="301.39" r="4.49" fill="#a7a9ac" opacity="0.3" style="isolation:isolate"/><circle id="Ellipse_3267" data-name="Ellipse 3267" cx="304.43" cy="376.46" r="4.09" fill="#a7a9ac" opacity="0.65" style="isolation:isolate"/><circle id="Ellipse_3268" data-name="Ellipse 3268" cx="219.71" cy="338.92" r="4.13" fill="#a7a9ac" opacity="0.36" style="isolation:isolate"/><circle id="Ellipse_3269" data-name="Ellipse 3269" cx="1180.21" cy="338.92" r="4.04" fill="#a7a9ac" opacity="0.44" style="isolation:isolate"/><circle id="Ellipse_3270" data-name="Ellipse 3270" cx="1288.89" cy="301.38" r="3.66" fill="#a7a9ac" opacity="0.2" style="isolation:isolate"/><circle id="Ellipse_3271" data-name="Ellipse 3271" cx="219.24" cy="263.82" r="3.85" fill="#a7a9ac" opacity="0.68" style="isolation:isolate"/><circle id="Ellipse_3272" data-name="Ellipse 3272" cx="397.45" cy="301.35" r="4.31" fill="#a7a9ac" opacity="0.74" style="isolation:isolate"/><circle id="Ellipse_3273" data-name="Ellipse 3273" cx="467.83" cy="338.89" r="4.92" fill="#a7a9ac" opacity="0.4" style="isolation:isolate"/><circle id="Ellipse_3274" data-name="Ellipse 3274" cx="1310.89" cy="338.89" r="4.36" fill="#a7a9ac" opacity="0.85" style="isolation:isolate"/><circle id="Ellipse_3275" data-name="Ellipse 3275" cx="154.12" cy="301.33" r="4.12" fill="#a7a9ac" opacity="0.49" style="isolation:isolate"/><circle id="Ellipse_3276" data-name="Ellipse 3276" cx="397.96" cy="301.33" r="3.69" fill="#a7a9ac" opacity="0.94" style="isolation:isolate"/><circle id="Ellipse_3277" data-name="Ellipse 3277" cx="514.62" cy="263.78" r="4.19" fill="#a7a9ac" opacity="0.43" style="isolation:isolate"/><circle id="Ellipse_3278" data-name="Ellipse 3278" cx="1180.21" cy="263.79" r="3.95" fill="#a7a9ac" opacity="0.43" style="isolation:isolate"/><circle id="Ellipse_3279" data-name="Ellipse 3279" cx="1096.92" cy="301.33" r="3.72" fill="#a7a9ac" opacity="0.58" style="isolation:isolate"/><circle id="Ellipse_3280" data-name="Ellipse 3280" cx="1245.78" cy="226.25" r="4.43" fill="#a7a9ac" opacity="0.64" style="isolation:isolate"/><circle id="Ellipse_3281" data-name="Ellipse 3281" cx="45.9" cy="188.68" r="4.18" fill="#a7a9ac" opacity="0.51" style="isolation:isolate"/><circle id="Ellipse_3282" data-name="Ellipse 3282" cx="219.24" cy="188.68" r="4.63" fill="#a7a9ac" opacity="0.67" style="isolation:isolate"/><circle id="Ellipse_3283" data-name="Ellipse 3283" cx="374.36" cy="263.76" r="3.12" fill="#a7a9ac" opacity="0.57" style="isolation:isolate"/><circle id="Ellipse_3284" data-name="Ellipse 3284" cx="1027.03" cy="263.76" r="3.61" fill="#a7a9ac" opacity="0.83" style="isolation:isolate"/><circle id="Ellipse_3285" data-name="Ellipse 3285" cx="1223.77" cy="263.76" r="4.39" fill="#a7a9ac" opacity="0.53" style="isolation:isolate"/><circle id="Ellipse_3286" data-name="Ellipse 3286" cx="1354" cy="263.76" r="3.96" fill="#a7a9ac" opacity="0.33" style="isolation:isolate"/><circle id="Ellipse_3287" data-name="Ellipse 3287" cx="1289.34" cy="226.22" r="4.6" fill="#a7a9ac" opacity="0.41" style="isolation:isolate"/><circle id="Ellipse_3288" data-name="Ellipse 3288" cx="219.71" cy="188.65" r="3.39" fill="#a7a9ac" opacity="0.55" style="isolation:isolate"/><circle id="Ellipse_3289" data-name="Ellipse 3289" cx="241.26" cy="226.2" r="3.98" fill="#a7a9ac" opacity="0.4" style="isolation:isolate"/><circle id="Ellipse_3290" data-name="Ellipse 3290" cx="1026.56" cy="188.65" r="4.42" fill="#a7a9ac" opacity="0.44" style="isolation:isolate"/><circle id="Ellipse_3291" data-name="Ellipse 3291" cx="1003.39" cy="151.11" r="3.28" fill="#a7a9ac" opacity="0.31" style="isolation:isolate"/><circle id="Ellipse_3292" data-name="Ellipse 3292" cx="934.01" cy="188.65" r="4.05" fill="#a7a9ac" opacity="0.29" style="isolation:isolate"/><circle id="Ellipse_3293" data-name="Ellipse 3293" cx="1158.65" cy="151.11" r="3.14" fill="#a7a9ac" opacity="0.95" style="isolation:isolate"/><circle id="Ellipse_3294" data-name="Ellipse 3294" cx="1288.89" cy="226.2" r="3.96" fill="#a7a9ac" opacity="0.41" style="isolation:isolate"/><circle id="Ellipse_3295" data-name="Ellipse 3295" cx="1245.78" cy="151.11" r="4.45" fill="#a7a9ac" opacity="0.64" style="isolation:isolate"/><circle id="Ellipse_3296" data-name="Ellipse 3296" cx="1245.78" cy="226.2" r="3.68" fill="#a7a9ac" opacity="0.48" style="isolation:isolate"/><circle id="Ellipse_3297" data-name="Ellipse 3297" cx="89.01" cy="188.63" r="4.35" fill="#a7a9ac" opacity="0.48" style="isolation:isolate"/><circle id="Ellipse_3298" data-name="Ellipse 3298" cx="110.56" cy="151.09" r="3.27" fill="#a7a9ac" opacity="0.75" style="isolation:isolate"/><circle id="Ellipse_3299" data-name="Ellipse 3299" cx="45.9" cy="188.63" r="3.82" fill="#a7a9ac" opacity="0.38" style="isolation:isolate"/><circle id="Ellipse_3300" data-name="Ellipse 3300" cx="219.24" cy="113.55" r="4.35" fill="#a7a9ac" opacity="0.85" style="isolation:isolate"/><circle id="Ellipse_3301" data-name="Ellipse 3301" cx="374.33" cy="113.55" r="4.14" fill="#a7a9ac" opacity="0.78" style="isolation:isolate"/><circle id="Ellipse_3302" data-name="Ellipse 3302" cx="467.84" cy="188.63" r="4.32" fill="#a7a9ac" opacity="0.36" style="isolation:isolate"/><circle id="Ellipse_3303" data-name="Ellipse 3303" cx="933.51" cy="188.63" r="3.74" fill="#a7a9ac" opacity="0.32" style="isolation:isolate"/><circle id="Ellipse_3304" data-name="Ellipse 3304" cx="1180.66" cy="188.63" r="4.8" fill="#a7a9ac" opacity="0.44" style="isolation:isolate"/><circle id="Ellipse_3305" data-name="Ellipse 3305" cx="23.89" cy="151.06" r="3.67" fill="#a7a9ac" opacity="0.69" style="isolation:isolate"/><circle id="Ellipse_3306" data-name="Ellipse 3306" cx="45.45" cy="113.52" r="4.12" fill="#a7a9ac" opacity="0.55" style="isolation:isolate"/><circle id="Ellipse_3307" data-name="Ellipse 3307" cx="1096.92" cy="151.06" r="3.54" fill="#a7a9ac" opacity="0.42" style="isolation:isolate"/><circle id="Ellipse_3308" data-name="Ellipse 3308" cx="1288.89" cy="151.06" r="4.6" fill="#a7a9ac" opacity="0.78" style="isolation:isolate"/><circle id="Ellipse_3309" data-name="Ellipse 3309" cx="1310.44" cy="113.52" r="3.46" fill="#a7a9ac" opacity="0.55" style="isolation:isolate"/><circle id="Ellipse_3310" data-name="Ellipse 3310" cx="45.9" cy="38.41" r="3.28" fill="#a7a9ac" opacity="0.73" style="isolation:isolate"/><circle id="Ellipse_3311" data-name="Ellipse 3311" cx="154.59" cy="75.96" r="4.26" fill="#a7a9ac" opacity="0.3" style="isolation:isolate"/><circle id="Ellipse_3312" data-name="Ellipse 3312" cx="328.05" cy="38.41" r="4.21" fill="#a7a9ac" opacity="0.57" style="isolation:isolate"/><circle id="Ellipse_3313" data-name="Ellipse 3313" cx="514.12" cy="38.41" r="4.03" fill="#a7a9ac" opacity="0.58" style="isolation:isolate"/><circle id="Ellipse_3314" data-name="Ellipse 3314" cx="467.85" cy="113.49" r="4.2" fill="#a7a9ac" opacity="0.51" style="isolation:isolate"/><circle id="Ellipse_3315" data-name="Ellipse 3315" cx="1310.89" cy="38.41" r="4.99" fill="#a7a9ac" opacity="0.37" style="isolation:isolate"/><circle id="Ellipse_3316" data-name="Ellipse 3316" cx="45.44" cy="38.39" r="4.46" fill="#a7a9ac" opacity="0.71" style="isolation:isolate"/><circle id="Ellipse_3317" data-name="Ellipse 3317" cx="89.47" cy="38.39" r="3.95" fill="#a7a9ac" opacity="0.29" style="isolation:isolate"/><path id="Path_11144" data-name="Path 11144" d="M233.55.34c0,.14,0,.27,0,.41a3.79,3.79,0,1,0,7.57.13V.75a3,3,0,0,0,0-.41Z" transform="translate(3.96 0.1)" fill="#a7a9ac" opacity="0.56" style="isolation:isolate"/><path id="Path_11145" data-name="Path 11145" d="M529.88.34c0,.14,0,.27,0,.41a4,4,0,1,0,7.91,0c0-.14,0-.27,0-.41Z" transform="translate(3.96 0.1)" fill="#a7a9ac" opacity="0.33" style="isolation:isolate"/><path id="Path_11146" data-name="Path 11146" d="M1237.63.34a3,3,0,0,0,0,.41A4.22,4.22,0,0,0,1241.75,5,4.21,4.21,0,0,0,1246,.88a.28.28,0,0,0,0-.13,2,2,0,0,0,0-.41Z" transform="translate(3.96 0.1)" fill="#a7a9ac" opacity="0.55" style="isolation:isolate"/><path id="Path_11147" data-name="Path 11147" d="M146.31.34a1.64,1.64,0,0,0,0,.38,4.36,4.36,0,0,0,8.72,0c0-.12,0-.25,0-.38Z" transform="translate(3.96 0.1)" fill="#a7a9ac" opacity="0.48" style="isolation:isolate"/></g></g></svg>