<svg id="Layer_1" data-name="Layer 1" xmlns="http://www.w3.org/2000/svg" xmlns:xlink="http://www.w3.org/1999/xlink" viewBox="0 0 318.32 643.79"><defs><linearGradient id="linear-gradient" x1="0.9" y1="708.91" x2="0.92" y2="708.53" gradientTransform="matrix(318.32, 0, 0, -643.79, -122.1, 456379.94)" gradientUnits="userSpaceOnUse"><stop offset="0.08" stop-color="#fff"/><stop offset="1" stop-color="#dbe1e2"/></linearGradient><linearGradient id="linear-gradient-2" x1="1.65" y1="708.36" x2="3.69" y2="681.66" gradientTransform="matrix(160.78, 0.73, 0.14, -30.56, -220.63, 21596.86)" xlink:href="#linear-gradient"/></defs><title>Group11516</title><path id="Path_11382" data-name="Path 11382" d="M279.16,667.33H65a52.05,52.05,0,0,1-52-52.05h0V75.59A52.05,52.05,0,0,1,65,23.54H279.16a52.06,52.06,0,0,1,52.06,52.05V615.28A52.06,52.06,0,0,1,279.16,667.33Z" transform="translate(-12.9 -23.54)" fill="url(#linear-gradient)"/><path id="Path_11383" data-name="Path 11383" d="M271.68,654H72a41,41,0,0,1-41.05-41h0V82.59A41.05,41.05,0,0,1,72,41.54H271.68a41.05,41.05,0,0,1,41.05,41.05h0V612.91A41.05,41.05,0,0,1,271.68,654Z" transform="translate(-12.9 -23.54)" fill="#fff"/><g id="Group_11595" data-name="Group 11595" opacity="0.46"><g id="Group_11594" data-name="Group 11594"><g id="Group_11593" data-name="Group 11593"><circle id="Ellipse_3363" data-name="Ellipse 3363" cx="243.74" cy="44.61" r="0.72" fill="#251a51"/><path id="Path_11452" data-name="Path 11452" d="M258.36,66.4l0,0,0,0h0a2.35,2.35,0,0,0-3.25.07l-.11.11-.14.14a.46.46,0,0,0,0,.65.45.45,0,0,0,.63,0h0l.25-.25a1.45,1.45,0,0,1,2.05,0h0l.18.17a.45.45,0,0,0,.77-.32.48.48,0,0,0-.13-.32Z" transform="translate(-12.9 -23.54)" fill="#251a51"/><path id="Path_11453" data-name="Path 11453" d="M259.59,65.51l-.14-.15h0l-.12-.12a.18.18,0,0,0-.07,0,3.92,3.92,0,0,0-5.31.12l0,0-.27.27a.41.41,0,0,0,0,.59.4.4,0,0,0,.56,0l.27-.27h0a3.11,3.11,0,0,1,4.29,0l.21.21a.41.41,0,0,0,.58,0h0a.41.41,0,0,0,0-.59Z" transform="translate(-12.9 -23.54)" fill="#251a51"/></g></g></g><g id="_10:30_AM" data-name=" 10:30 AM" style="isolation:isolate"><g style="isolation:isolate"><path d="M53.67,68.14h-.4v-3l-.14.1-.2.12-.23.11-.24.08v-.4l.28-.1.29-.14.27-.16.22-.17h.15Z" transform="translate(-12.9 -23.54)" fill="#251a51"/><path d="M57.09,66.38a3.67,3.67,0,0,1-.08.78,2.12,2.12,0,0,1-.23.57,1.12,1.12,0,0,1-.37.35,1,1,0,0,1-.5.12,1,1,0,0,1-.47-.11,1,1,0,0,1-.35-.34,1.86,1.86,0,0,1-.21-.55,3.26,3.26,0,0,1-.07-.74,4,4,0,0,1,.07-.81,1.86,1.86,0,0,1,.23-.59,1,1,0,0,1,.37-.36,1,1,0,0,1,.5-.12Q57.09,64.58,57.09,66.38Zm-.41,0q0-1.5-.72-1.5c-.49,0-.74.51-.74,1.52s.24,1.42.73,1.42S56.68,67.38,56.68,66.42Z" transform="translate(-12.9 -23.54)" fill="#251a51"/><path d="M57.83,66.13a.29.29,0,0,1-.19-.08.27.27,0,0,1-.08-.19.26.26,0,0,1,.08-.19.25.25,0,0,1,.19-.08.24.24,0,0,1,.2.08.26.26,0,0,1,.08.19.27.27,0,0,1-.08.19A.28.28,0,0,1,57.83,66.13Zm0,2.07a.26.26,0,0,1-.19-.09.26.26,0,0,1-.08-.19.27.27,0,0,1,.08-.19.25.25,0,0,1,.19-.08.24.24,0,0,1,.2.08.27.27,0,0,1,.08.19.26.26,0,0,1-.08.19A.25.25,0,0,1,57.83,68.2Z" transform="translate(-12.9 -23.54)" fill="#251a51"/><path d="M60.7,67.15a1,1,0,0,1-.09.43.9.9,0,0,1-.25.33,1.07,1.07,0,0,1-.39.22,1.59,1.59,0,0,1-.5.07,1.46,1.46,0,0,1-.8-.19v-.43a1.27,1.27,0,0,0,.82.28.88.88,0,0,0,.33,0,.75.75,0,0,0,.25-.13.54.54,0,0,0,.16-.21.64.64,0,0,0,.06-.28c0-.46-.32-.69-1-.69H59v-.34h.28c.58,0,.86-.21.86-.64s-.22-.6-.66-.6a1.17,1.17,0,0,0-.69.25v-.39a1.54,1.54,0,0,1,.79-.2,1.25,1.25,0,0,1,.4.06,1,1,0,0,1,.31.17.83.83,0,0,1,.19.27.74.74,0,0,1,.07.34.86.86,0,0,1-.69.89h0a1.32,1.32,0,0,1,.33.08,1.2,1.2,0,0,1,.26.18.74.74,0,0,1,.17.25A.83.83,0,0,1,60.7,67.15Z" transform="translate(-12.9 -23.54)" fill="#251a51"/><path d="M63.56,66.38a3.67,3.67,0,0,1-.08.78,1.84,1.84,0,0,1-.23.57,1,1,0,0,1-.37.35,1.06,1.06,0,0,1-1,0,1,1,0,0,1-.35-.34,1.62,1.62,0,0,1-.22-.55,3.26,3.26,0,0,1-.07-.74,4,4,0,0,1,.08-.81,1.86,1.86,0,0,1,.22-.59,1,1,0,0,1,.88-.48C63.19,64.58,63.56,65.18,63.56,66.38Zm-.41,0c0-1-.24-1.5-.71-1.5s-.75.51-.75,1.52.25,1.42.73,1.42S63.15,67.38,63.15,66.42Z" transform="translate(-12.9 -23.54)" fill="#251a51"/><path d="M68.3,68.14h-.45l-.37-1H66l-.34,1h-.46l1.34-3.5H67Zm-1-1.35-.55-1.49-.05-.23h0a1,1,0,0,1,0,.23l-.55,1.49Z" transform="translate(-12.9 -23.54)" fill="#251a51"/><path d="M72.39,68.14H72V65.79c0-.18,0-.41,0-.68h0a1.6,1.6,0,0,1-.1.34l-1.2,2.69h-.2l-1.19-2.67a3.34,3.34,0,0,1-.11-.36h0a6.07,6.07,0,0,1,0,.69v2.34h-.39v-3.5h.54l1.08,2.44c.08.19.13.33.16.42h0c.07-.19.13-.33.17-.43l1.1-2.43h.51Z" transform="translate(-12.9 -23.54)" fill="#251a51"/></g></g><g id="Group_11596" data-name="Group 11596" opacity="0.48"><g style="isolation:isolate"><g style="isolation:isolate"><path d="M263.49,66.56a1,1,0,0,1,.05-.28.88.88,0,0,1,.12-.26,1.37,1.37,0,0,1,.2-.22,1.12,1.12,0,0,1,.28-.16,1,1,0,0,1-.36-.33.74.74,0,0,1-.14-.44.85.85,0,0,1,.08-.35,1,1,0,0,1,.2-.29.92.92,0,0,1,.32-.18,1.12,1.12,0,0,1,.78,0,.89.89,0,0,1,.31.19.83.83,0,0,1,.21.28.84.84,0,0,1,.07.35.74.74,0,0,1-.13.44,1,1,0,0,1-.36.33.92.92,0,0,1,.27.16,1,1,0,0,1,.2.22.91.91,0,0,1,.13.26,1,1,0,0,1,0,.28,1.08,1.08,0,0,1-.08.42,1,1,0,0,1-.23.33,1.07,1.07,0,0,1-.36.21,1.39,1.39,0,0,1-.46.08,1.34,1.34,0,0,1-.46-.08,1.07,1.07,0,0,1-.36-.21.86.86,0,0,1-.23-.33A.93.93,0,0,1,263.49,66.56Zm.44,0a.73.73,0,0,0,.05.3.64.64,0,0,0,.14.22.55.55,0,0,0,.22.14.68.68,0,0,0,.29,0,.64.64,0,0,0,.28,0,.68.68,0,0,0,.23-.14.59.59,0,0,0,.14-.23.68.68,0,0,0,.05-.29.61.61,0,0,0-.19-.5.48.48,0,0,0-.22-.15.68.68,0,0,0-.29-.06.87.87,0,0,0-.28.05.71.71,0,0,0-.22.15.66.66,0,0,0-.15.22A.68.68,0,0,0,263.93,66.53Zm.12-1.62a.59.59,0,0,0,.05.23.57.57,0,0,0,.12.18.46.46,0,0,0,.18.13.68.68,0,0,0,.46,0,.83.83,0,0,0,.18-.13.52.52,0,0,0,.12-.19.42.42,0,0,0,0-.22.61.61,0,0,0,0-.24.83.83,0,0,0-.13-.18.46.46,0,0,0-.18-.13.59.59,0,0,0-.23,0,.61.61,0,0,0-.24,0,.59.59,0,0,0-.18.13.52.52,0,0,0-.12.19A.56.56,0,0,0,264.05,64.91Z" transform="translate(-12.9 -23.54)" fill="#251a51"/><path d="M268.33,66.47a1.3,1.3,0,0,1-.08.46,1,1,0,0,1-.26.36.94.94,0,0,1-.39.23,1.6,1.6,0,0,1-.51.08,1.38,1.38,0,0,1-.72-.15V67a1.36,1.36,0,0,0,.73.23.93.93,0,0,0,.34-.06.74.74,0,0,0,.26-.15.81.81,0,0,0,.17-.24,1.06,1.06,0,0,0,.05-.31.65.65,0,0,0-.23-.54,1,1,0,0,0-.66-.2h-.6l.12-1.75h1.62v.36H266.9l-.07,1h.32a1.55,1.55,0,0,1,.5.07,1,1,0,0,1,.37.21.86.86,0,0,1,.23.33A1,1,0,0,1,268.33,66.47Z" transform="translate(-12.9 -23.54)" fill="#251a51"/><path d="M269.65,65.79a.78.78,0,0,1-.58-.23.93.93,0,0,1-.21-.64,1,1,0,0,1,.22-.68.8.8,0,0,1,.62-.25.72.72,0,0,1,.58.23,1.12,1.12,0,0,1,0,1.32A.76.76,0,0,1,269.65,65.79Zm0-1.54a.43.43,0,0,0-.36.18.73.73,0,0,0-.14.47.76.76,0,0,0,.13.46.44.44,0,0,0,.36.16.4.4,0,0,0,.36-.17.73.73,0,0,0,.13-.47.7.7,0,0,0-.13-.46A.41.41,0,0,0,269.68,64.25ZM272,64l-2.24,3.52h-.35L271.64,64Zm-.26,3.55a.72.72,0,0,1-.57-.24.86.86,0,0,1-.22-.63,1,1,0,0,1,.23-.69.79.79,0,0,1,.61-.25.75.75,0,0,1,.58.23,1.12,1.12,0,0,1,0,1.33A.79.79,0,0,1,271.73,67.59Zm0-1.53a.43.43,0,0,0-.37.17.73.73,0,0,0-.13.47.72.72,0,0,0,.13.46.44.44,0,0,0,.36.16.45.45,0,0,0,.36-.17.82.82,0,0,0,.13-.47.74.74,0,0,0-.13-.46A.42.42,0,0,0,271.77,66.06Z" transform="translate(-12.9 -23.54)" fill="#251a51"/></g></g><path id="Path_11454" data-name="Path 11454" d="M281.12,69.43a.55.55,0,0,1-.57-.52h0v-4.1a.55.55,0,0,1,.57-.52l9.48,0a.56.56,0,0,1,.57.53v.84h.73v2.42h-.73v.83a.55.55,0,0,1-.57.52Zm9.64-4.79-9.82,0v4.4l9.82,0Zm-9.44.43h7.15v3.58h-7.14Z" transform="translate(-12.9 -23.54)" fill="#251a51"/></g><path id="Path_11455" data-name="Path 11455" d="M106.8,32.82a9.07,9.07,0,0,0-8.89,9h0a17.86,17.86,0,0,0,17.76,18l125.09.57a17.87,17.87,0,0,0,17.93-17.8h0V39.19a9.06,9.06,0,0,0-9.24-9.1Z" transform="translate(-12.9 -23.54)" fill="url(#linear-gradient-2)"/></svg>