<svg id="Layer_1" data-name="Layer 1" xmlns="http://www.w3.org/2000/svg" viewBox="0 0 783.31 394.66"><defs><style>.cls-1{fill:#c33;}</style></defs><title>logo_webpage</title><path d="M598.58,694.43V373.89H555.51v-8h98.66L809.43,619.8V373.89H766.36v-8h94.16v8H817.45V706.45h-17l-193.83-318v306h43.08v8H555.51v-8Z" transform="translate(-555.51 -342.84)"/><path class="cls-1" d="M888.06,350.85v-8h78.63V737.5H890.57v-8h35.06V350.85Z" transform="translate(-555.51 -342.84)"/><path d="M998.75,737.5V342.84h78.13v8h-37.07V729.49h34.56v8Z" transform="translate(-555.51 -342.84)"/><path class="cls-1" d="M1317.78,358.36c2,0,3,1.68,3,5v89.15q0,5-3.5,5-4,0-4.51-5a118.65,118.65,0,0,0-8.27-31,90.66,90.66,0,0,0-16.77-26.54,78.57,78.57,0,0,0-26-18.54q-15.53-7-36.06-7a98.07,98.07,0,0,0-26.79,3.76,73.05,73.05,0,0,0-23.54,11.27,58.74,58.74,0,0,0-16.78,19.28Q1152,415.47,1152,431q0,16.51,8,29t23.54,18.54q14,5.51,25.55,9.26t22,6.76q10.51,3,20.54,5.51t21.53,6q34.07,10,49.84,33.31t15.77,56.84a119.21,119.21,0,0,1-8.76,45.83,115.58,115.58,0,0,1-23.79,36.81,107.77,107.77,0,0,1-35.56,24.29,112.46,112.46,0,0,1-44.58,8.77,98.21,98.21,0,0,1-25.29-3.26,139.93,139.93,0,0,1-23-8.26,138.54,138.54,0,0,1-34.3-22.54l-18,26q-3.51,5-6.52,5-4.5,0-4.5-6.51V612.79c0-4.67,1.16-7,3.5-7q4,0,5.51,6.51a143.42,143.42,0,0,0,15.78,38.06,109.76,109.76,0,0,0,24.29,28.55,107.86,107.86,0,0,0,30.55,17.78,96.62,96.62,0,0,0,34.56,6.26,88,88,0,0,0,30.55-5.51,84.06,84.06,0,0,0,26.54-15.52,75.44,75.44,0,0,0,25.55-57.6,73.79,73.79,0,0,0-6-28.8q-6-14.26-23-22.29-13.53-6.5-23.79-10.26t-20.29-7q-10-3.26-21.53-6.77t-28-9q-34.56-11.52-50.83-33.56T1121.45,458a98.76,98.76,0,0,1,7-37.06A91.52,91.52,0,0,1,1149,389.92a100,100,0,0,1,32.8-21.54q19.28-8,43.82-8a161.44,161.44,0,0,1,21.29,1.25,112.92,112.92,0,0,1,17.53,3.76,103.9,103.9,0,0,1,16.28,6.51q8,4,17,9l14.53-18.53C1314.27,359.7,1316.1,358.36,1317.78,358.36Z" transform="translate(-555.51 -342.84)"/></svg>