<svg id="Layer_1" data-name="Layer 1" xmlns="http://www.w3.org/2000/svg" viewBox="0 0 19.92 21.03"><title>noun_guarantee_2519048</title><g id="Group_210" data-name="Group 210"><g id="noun_guarantee_2519048" data-name="noun guarantee 2519048"><path id="Path_91" data-name="Path 91" d="M18.94,2.71,9.72,0A.75.75,0,0,0,9.3,0h0L.08,2.71a.75.75,0,0,0-.53.71v8.05c0,7,9.38,9.44,9.79,9.54a.67.67,0,0,0,.37,0c.57-.14,9.76-2.58,9.76-9.53v-8A.73.73,0,0,0,18.94,2.71ZM18,11.47c0,5.39-7.25,7.71-8.49,8.06C8.27,19.18,1,16.87,1,11.47V4L9.51,1.51,18,4Z" transform="translate(0.45 0)"/><path id="Path_92" data-name="Path 92" d="M8.78,5.9v.77a2.22,2.22,0,0,0,.36,4.4h1.11a.74.74,0,1,1,0,1.47H8A.74.74,0,1,0,8,14h.74v.74a.74.74,0,1,0,1.47,0h0V14a2.22,2.22,0,0,0,0-4.43H9.14a.74.74,0,0,1,0-1.47h2.22a.74.74,0,1,0,0-1.48H10.25V5.9a.74.74,0,0,0-1.47,0Z" transform="translate(0.45 0)"/></g></g></svg>