<svg id="Layer_1" data-name="Layer 1" xmlns="http://www.w3.org/2000/svg" viewBox="0 0 114.75 220.49"><title>phone02</title><g id="Selfie_Illustration" data-name="Selfie Illustration"><g id="Group_10993" data-name="Group 10993"><g id="Group_10992" data-name="Group 10992"><path id="Path_10408" data-name="Path 10408" d="M33.11,15.52c-1.42.17-2.44,1.43-3.21,2.65A33.52,33.52,0,0,0,27,23.76a23.56,23.56,0,0,1,8.22-1.47c1.19,0,2.64,0,3.2-1.1a2.11,2.11,0,0,0-.05-1.85,6.33,6.33,0,0,0-1.16-1.51C36.11,16.63,34.74,15.33,33.11,15.52Z" transform="translate(4.75 -3)" fill="#ffbf83"/><g id="Group_10981" data-name="Group 10981"><path id="Path_10409" data-name="Path 10409" d="M48,13.67a6.47,6.47,0,0,0,2.2-.63,3.39,3.39,0,0,0,.66-.54,1.43,1.43,0,0,0-.5-.48,3.15,3.15,0,0,0-1.48-.27,41.38,41.38,0,0,0-10.63,1.18,4.84,4.84,0,0,0-1.85.76,1.76,1.76,0,0,0-.72,1.77.9.9,0,0,0,.08.23l3.57-.59Z" transform="translate(4.75 -3)" fill="#ffbf83"/><path id="Path_10410" data-name="Path 10410" d="M50.17,13a6.27,6.27,0,0,1-2.2.64L39.3,15.09l-3.57.58a1.89,1.89,0,0,0,1.4,1,5.14,5.14,0,0,0,2-.18l10.42-2.3c.57-.13,1.24-.33,1.41-.89a1,1,0,0,0-.12-.79A2.48,2.48,0,0,1,50.17,13Z" transform="translate(4.75 -3)" fill="#f89e6a"/></g><g id="Group_10982" data-name="Group 10982"><path id="Path_10411" data-name="Path 10411" d="M62.75,51.4a1.7,1.7,0,0,0,1-.71,20,20,0,0,0,1.72-2.45A3.61,3.61,0,0,0,66,47a1.36,1.36,0,0,0-.34-1.23,1.37,1.37,0,0,0-1.28-.25,4.05,4.05,0,0,0-1.21.61c.25.54.45,1.2.69,1.74L62,48.41a3.58,3.58,0,0,0-.48,1.83A1.22,1.22,0,0,0,62.75,51.4Z" transform="translate(4.75 -3)" fill="none"/><path id="Path_10412" data-name="Path 10412" d="M72.55,68.6l-.24,2.68a21,21,0,0,1,.56-3Z" transform="translate(4.75 -3)" fill="#ffbf83"/><path id="Path_10413" data-name="Path 10413" d="M72.31,71.28" transform="translate(4.75 -3)" fill="#ffbf83"/><path id="Path_10416" data-name="Path 10416" d="M73.68,72.66C64,69.23,60.47,61.93,62,54.66a3.54,3.54,0,0,0,2.92,0A9.22,9.22,0,0,0,67.26,53a14.44,14.44,0,0,0,2.57-2.61,4.15,4.15,0,0,0,.8-3.28A3.12,3.12,0,0,0,68,44.82a6.53,6.53,0,0,0-4.51,1.8A21.16,21.16,0,0,1,70.83,35a12.64,12.64,0,0,1-6.07-2.13A62,62,0,0,0,54.49,54.15c0,.14-.08.28-.11.43a11.2,11.2,0,0,0,1.1,5.81,7.21,7.21,0,0,0,6,4,7.91,7.91,0,0,1-.17,1.6,21.9,21.9,0,0,1-3.88,8A18.76,18.76,0,0,0,73.9,79.37,25.57,25.57,0,0,1,73.68,72.66ZM63.36,49.78l1.83-.51c-.25-.54-.44-1.21-.69-1.75a4.3,4.3,0,0,1,1.21-.61,1.41,1.41,0,0,1,1.28.26,1.37,1.37,0,0,1,.34,1.22,3.27,3.27,0,0,1-.52,1.21,20.86,20.86,0,0,1-1.72,2.46,1.8,1.8,0,0,1-1,.71,1.24,1.24,0,0,1-1.25-1.17,3.52,3.52,0,0,1,.48-1.82Z" transform="translate(4.75 -3)" fill="#ffbf83"/></g><path id="Path_10417" data-name="Path 10417" d="M86.17,42.47a14.6,14.6,0,0,0-5.88-9.57,13.44,13.44,0,0,1-5.11-7.49c-.54.8-1.06,2-1.6,2.81a10,10,0,0,1-4.17-5c-.55,1-1,2.45-1.54,3.47a7.75,7.75,0,0,1-3.15-4.55c-.4,1-1,2.08-1.4,3.06-1.8-1.37-3.07-3.58-2.73-5.62A9.4,9.4,0,0,0,59,29.47,10.23,10.23,0,0,0,61.64,33a12.87,12.87,0,0,0,6.06,3C73.75,35.84,82.55,35.75,86.17,42.47Z" transform="translate(4.75 -3)" fill="#1b1f61"/><path id="Path_10418" data-name="Path 10418" d="M64.1,52.73a1.64,1.64,0,0,0,1-.71,18.43,18.43,0,0,0,1.73-2.46,3.44,3.44,0,0,0,.52-1.21,1.22,1.22,0,0,0-1.62-1.47,4.05,4.05,0,0,0-1.21.61c.25.54.45,1.2.69,1.74l-1.83.51a3.58,3.58,0,0,0-.48,1.83A1.21,1.21,0,0,0,64.1,52.73Z" transform="translate(4.75 -3)" fill="#eb633e"/><path id="Path_10419" data-name="Path 10419" d="M61.38,48.62a1.7,1.7,0,0,0,1-.71,19.39,19.39,0,0,0,1.73-2.46,3.68,3.68,0,0,0,.52-1.2A1.39,1.39,0,0,0,64.24,43,1.37,1.37,0,0,0,63,42.77a3.89,3.89,0,0,0-1.2.61c.24.54.44,1.2.69,1.74l-1.83.51a3.59,3.59,0,0,0-.49,1.83A1.22,1.22,0,0,0,61.38,48.62Z" transform="translate(4.75 -3)" fill="none"/><path id="Path_10421" data-name="Path 10421" d="M90.94,40.12c-3.62-6.73-12.42-6.63-18.46-6.47-4.52,3.24-8,7.87-9,12.86A6.49,6.49,0,0,1,68,44.71,3.09,3.09,0,0,1,70.67,47a4.13,4.13,0,0,1-.81,3.29,14.06,14.06,0,0,1-2.56,2.61,9.22,9.22,0,0,1-2.37,1.64,3.54,3.54,0,0,1-2.92,0h0a11.68,11.68,0,0,0,2.28,9.56,13.63,13.63,0,0,0,1.3,1.44A17,17,0,0,0,74,69.87h0l.33-.37c2.34-2.65,4.19-5.73,6.59-8.35,3.18-3.49,6.42-7,8.32-11.17A20.47,20.47,0,0,0,91,42.29,12.09,12.09,0,0,0,90.94,40.12Z" transform="translate(4.75 -3)" fill="#232a6d"/><g id="Group_10983" data-name="Group 10983"><path id="Path_10422" data-name="Path 10422" d="M27.44,68.76a15.26,15.26,0,0,1,6.05-6.21,25.89,25.89,0,0,1-6-9,24.6,24.6,0,0,1,0-15.9,43.17,43.17,0,0,1,8-14l-3.19-6.95A36.33,36.33,0,0,0,17.2,39.69,40.68,40.68,0,0,0,27.44,68.76Z" transform="translate(4.75 -3)" fill="#ffbf83"/></g><g id="Group_10984" data-name="Group 10984"><path id="Path_10424" data-name="Path 10424" d="M46,5.47l-8.65-1.7V3.2l-1,.58a1.19,1.19,0,0,0-.68.83L31.11,23.53a1.09,1.09,0,0,0,.8,1.33H32l9,1.78a1.12,1.12,0,0,0,.74-.11h0l.07,0,1.25-.7-.68-.17L46.82,6.83A1.11,1.11,0,0,0,46,5.48Z" transform="translate(4.75 -3)" fill="#282828"/><path id="Path_10425" data-name="Path 10425" d="M47.2,4.8,38.17,3a1.17,1.17,0,0,0-1.35.91L32.33,22.85a1.1,1.1,0,0,0,.8,1.33h0l9,1.78a1.18,1.18,0,0,0,1.36-.92L48,6.14a1.1,1.1,0,0,0-.79-1.33Z" transform="translate(4.75 -3)" fill="#696969"/><path id="Path_10426" data-name="Path 10426" d="M38.69,24a.77.77,0,0,1-.88.59.72.72,0,0,1-.56-.84v0a.76.76,0,0,1,.88-.59.72.72,0,0,1,.55.85Z" transform="translate(4.75 -3)" fill="#282828"/></g><path id="Path_10427" data-name="Path 10427" d="M28.3,29.91a14.44,14.44,0,0,0,4.21-4.21c1.12-1.69,1.72-3.95.51-5.57a14.44,14.44,0,0,0,3-5.63,4.13,4.13,0,0,0,.24-2A1.72,1.72,0,0,0,35,11.09c-1-.16-1.72.76-2.26,1.56-2.55,3.77-5.42,7.28-8,11C25,25.82,27,28.24,28.3,29.91Z" transform="translate(4.75 -3)" fill="#ffbf83"/><path id="Path_10428" data-name="Path 10428" d="M44.34,16.22a1.22,1.22,0,0,0,0,1.38,1.44,1.44,0,0,0,1.18.3,2.8,2.8,0,0,0,1.34-.41,1.36,1.36,0,0,0,.61-1.21,1.25,1.25,0,0,0-.61-.88,1.68,1.68,0,0,0-1.08-.17A2.16,2.16,0,0,0,44.34,16.22Z" transform="translate(4.75 -3)" fill="#ffbf83"/><path id="Path_10429" data-name="Path 10429" d="M43.52,17.51a1.19,1.19,0,0,0,0,1.37,1.41,1.41,0,0,0,1.18.31A2.65,2.65,0,0,0,46,18.77a1.35,1.35,0,0,0,.61-1.21,1.24,1.24,0,0,0-.61-.88A1.68,1.68,0,0,0,45,16.52,2.14,2.14,0,0,0,43.52,17.51Z" transform="translate(4.75 -3)" fill="#ffbf83"/><path id="Path_10430" data-name="Path 10430" d="M43,20.1a1.19,1.19,0,0,0,0,1.38,1.41,1.41,0,0,0,1.17.3,2.74,2.74,0,0,0,1.34-.41,1.34,1.34,0,0,0,.61-1.21,1.22,1.22,0,0,0-.61-.88,1.73,1.73,0,0,0-1.07-.17A2.14,2.14,0,0,0,43,20.1Z" transform="translate(4.75 -3)" fill="#ffbf83"/><path id="Path_10431" data-name="Path 10431" d="M47,5.79,38,4a.14.14,0,0,0-.16.11h0L36.52,9.51a14.77,14.77,0,0,0,.67,4.62A5.79,5.79,0,0,0,40.88,18a5.55,5.55,0,0,1,2.9,1.91L47.09,6A.15.15,0,0,0,47,5.79Z" transform="translate(4.75 -3)" fill="#c8eefc"/><g id="Group_10985" data-name="Group 10985"><path id="Path_10432" data-name="Path 10432" d="M47.44,63.36a14,14,0,0,0-9.15,8A31.73,31.73,0,0,1,23.81,64a13,13,0,0,0-.71,4.23,85.84,85.84,0,0,0,14.15,6.93l-1.19,4.07h1.19A33,33,0,0,1,47.44,63.36Z" transform="translate(4.75 -3)" fill="#fa7675"/><path id="Path_10433" data-name="Path 10433" d="M65.74,66.38a42.12,42.12,0,0,1,9.89,10.09,74.81,74.81,0,0,1-9.3,2.79H83.11A40.08,40.08,0,0,0,65.74,66.38Z" transform="translate(4.75 -3)" fill="#fa7675"/><path id="Path_10434" data-name="Path 10434" d="M65.74,66.38l-.31-.12c-5.35-1.9-11-2.62-16.57-3.84S37.2,59.69,32.91,56A12.4,12.4,0,0,0,23.82,64,31.82,31.82,0,0,0,38.3,71.38a13.92,13.92,0,0,1,9.15-8A32.91,32.91,0,0,0,37.26,79.26H66.34a72,72,0,0,0,9.3-2.79A42.16,42.16,0,0,0,65.74,66.38Z" transform="translate(4.75 -3)" fill="#fa8989"/></g><g id="Group_10986" data-name="Group 10986"><path id="Path_10435" data-name="Path 10435" d="M36.53,10.29c0-.26,0-.51,0-.77L34.3,18.79a6.68,6.68,0,0,0,1.34-1.26A15.13,15.13,0,0,1,36.53,10.29Z" transform="translate(4.75 -3)" fill="#eb633e"/><path id="Path_10436" data-name="Path 10436" d="M37.12,14a14,14,0,0,1-.59-3.69,15.13,15.13,0,0,0-.89,7.24,7.17,7.17,0,0,0,1-1.7A7,7,0,0,0,37.12,14Z" transform="translate(4.75 -3)" fill="#ffbf83"/></g><g id="Group_10987" data-name="Group 10987"><path id="Path_10437" data-name="Path 10437" d="M38.49,19.44a1.76,1.76,0,0,0,1.42.94,1.47,1.47,0,0,0,1.31-.74,3,3,0,0,0,.28-1.05l.06-.39a5.63,5.63,0,0,0-.69-.24,4.9,4.9,0,0,1-2.39-1.56,7.49,7.49,0,0,0-.29,1.31A2.87,2.87,0,0,0,38.49,19.44Z" transform="translate(4.75 -3)" fill="#fa7675"/><path id="Path_10438" data-name="Path 10438" d="M34.47,19.82a13.59,13.59,0,0,0,3.34,2.27,24.15,24.15,0,0,0,3.38,1.37l1.5.29a.13.13,0,0,0,.16-.11h0l.91-3.77a5.54,5.54,0,0,0-2.22-1.67c0,.13,0,.27-.06.39a3,3,0,0,1-.28,1.06,1.46,1.46,0,0,1-1.3.73,1.74,1.74,0,0,1-1.42-.93,3,3,0,0,1-.31-1.73,8,8,0,0,1,.29-1.31,7.13,7.13,0,0,1-1.3-2.27c0-.05,0-.1,0-.15a6.68,6.68,0,0,1-2.82,4.8l-.17.69C34.25,19.59,34.36,19.71,34.47,19.82Z" transform="translate(4.75 -3)" fill="#fa8989"/><path id="Path_10439" data-name="Path 10439" d="M37.81,22.09a13.32,13.32,0,0,1-3.34-2.27l-.33-.34-.56,2.33a.14.14,0,0,0,.1.16h0l7.51,1.48A21.61,21.61,0,0,1,37.81,22.09Z" transform="translate(4.75 -3)" fill="#fa7675"/></g><g id="Group_10991" data-name="Group 10991"><g id="Group_10988" data-name="Group 10988"><path id="Path_10440" data-name="Path 10440" d="M40.21,18.45A1.85,1.85,0,0,1,39,17.58a2.65,2.65,0,0,1-.37-1,.94.94,0,0,1,0,.16,2.61,2.61,0,0,0,0,1.54,1.5,1.5,0,0,0,1.43.93,1.43,1.43,0,0,0,1.24-.93A1.42,1.42,0,0,1,40.21,18.45Z" transform="translate(4.75 -3)" fill="#ffbf83"/><path id="Path_10441" data-name="Path 10441" d="M41.12,16.75a3.06,3.06,0,0,0-.86-1.15,1.82,1.82,0,0,0-1.33-.42,6.54,6.54,0,0,1-.28,1.37,2.5,2.5,0,0,0,.37,1,1.89,1.89,0,0,0,1.18.87,1.44,1.44,0,0,0,1.09-.2.84.84,0,0,0,.05-.17A2.18,2.18,0,0,0,41.12,16.75Z" transform="translate(4.75 -3)" fill="#eb633e"/></g><g id="Group_10990" data-name="Group 10990"><g id="Group_10989" data-name="Group 10989"><path id="Path_10442" data-name="Path 10442" d="M40.3,11.24a14.09,14.09,0,0,0,4.44.94,1.7,1.7,0,0,0,0-.22,20,20,0,0,1-4.4-1.35,11.68,11.68,0,0,0-.92,1.66A4.18,4.18,0,0,1,40.3,11.24Z" transform="translate(4.75 -3)" fill="#eb633e"/><path id="Path_10443" data-name="Path 10443" d="M40.3,11.24a3.76,3.76,0,0,0-.89,1c-.09.2-.18.4-.25.59a.58.58,0,0,0-.5-.39c-.27,0-.51.28-.61.68a1.39,1.39,0,0,0,0,.41,1.49,1.49,0,0,0,.19.77.58.58,0,0,0,.47.32.39.39,0,0,0,.21-.06L38.75,16l.06.29A2.25,2.25,0,0,0,40.54,18a2.09,2.09,0,0,0,1.55-.5,5.51,5.51,0,0,0,1.1-1.26,7.63,7.63,0,0,0,1.56-3.7v-.33A14.16,14.16,0,0,1,40.3,11.24Z" transform="translate(4.75 -3)" fill="#ffbf83"/></g><path id="Path_10444" data-name="Path 10444" d="M38.66,12.46a.61.61,0,0,1,.5.39,11.64,11.64,0,0,1,1.17-2.24A20,20,0,0,0,44.73,12h0c.37-.29.8-.58,1.17-.87l-.75.06c.18-.56.37-1.12.56-1.69l-1,.25c.11-.2.22-.4.34-.6A1,1,0,0,1,44.15,9c-.29-.16-.53-.39-.8-.57-2.25-1.48-4.53,1-5.13,3a5.26,5.26,0,0,0-.17,1.63C38.15,12.74,38.38,12.46,38.66,12.46Z" transform="translate(4.75 -3)" fill="#1b1f61"/><path id="Path_10445" data-name="Path 10445" d="M38.66,14.64a.59.59,0,0,1-.47-.32,7.5,7.5,0,0,0,.55,1.7h0l.14-1.44A.43.43,0,0,1,38.66,14.64Z" transform="translate(4.75 -3)" fill="#1b1f61"/><path id="Path_10446" data-name="Path 10446" d="M38.85,13.24a.2.2,0,0,0-.18-.22h0a.32.32,0,0,0-.24.25,1.09,1.09,0,0,0,0,.36.41.41,0,0,0,.15.33.23.23,0,0,0,.27,0,.21.21,0,0,0,0-.27l-.24-.1C38.67,13.47,38.82,13.35,38.85,13.24Z" transform="translate(4.75 -3)" fill="#eb633e"/></g></g></g><path id="Path_10448" data-name="Path 10448" d="M56,22.81a4.19,4.19,0,0,1-2.24-4.43l.1-.56-.26.51a4.15,4.15,0,0,1-4.4,2.25l-.56-.09.51.25a4.2,4.2,0,0,1,2.24,4.43l-.1.56.26-.51A4.15,4.15,0,0,1,56,23l.56.1Z" transform="translate(4.75 -3)" fill="#fff"/></g></g><g id="Connector"><line id="Line_72" data-name="Line 72" x1="60.33" y1="82.63" x2="60.33" y2="133.44" fill="none" stroke="#999"/><path id="Path_91" data-name="Path 91" d="M60.13,136.19H51l4.55,3.56Z" transform="translate(4.75 -3)" fill="#999"/></g><g id="trackyourskin"><g id="Group_10" data-name="Group 10"><path id="Path_652" data-name="Path 652" d="M16.63,158.87H6.06V148.3H16.63Zm-10.26-.31h10v-10h-10Z" transform="translate(4.75 -3)" fill="#b1b2b3"/></g><g id="Group_11" data-name="Group 11"><path id="Path_653" data-name="Path 653" d="M27.09,158.87H16.52V148.3H27.09Zm-10.26-.31h10v-10h-10Z" transform="translate(4.75 -3)" fill="#b1b2b3"/></g><g id="Group_12" data-name="Group 12"><path id="Path_654" data-name="Path 654" d="M37.45,158.87H26.88V148.3H37.45Zm-10.26-.31h10v-10h-10Z" transform="translate(4.75 -3)" fill="#b1b2b3"/></g><g id="Group_13" data-name="Group 13"><path id="Path_655" data-name="Path 655" d="M47.81,158.87H37.24V148.3H47.81Zm-10.27-.31h10v-10h-10Z" transform="translate(4.75 -3)" fill="#b1b2b3"/></g><g id="Group_14" data-name="Group 14"><path id="Path_656" data-name="Path 656" d="M58.17,158.87H47.6V148.3H58.17Zm-10.27-.31h10v-10h-10Z" transform="translate(4.75 -3)" fill="#b1b2b3"/></g><g id="Group_15" data-name="Group 15"><path id="Path_657" data-name="Path 657" d="M68.52,158.87H58V148.3H68.52Zm-10.26-.31h10v-10h-10Z" transform="translate(4.75 -3)" fill="#b1b2b3"/></g><g id="Group_16" data-name="Group 16"><path id="Path_658" data-name="Path 658" d="M78.88,158.87H68.31V148.3H78.88Zm-10.26-.31h9.95v-10H68.62Z" transform="translate(4.75 -3)" fill="#b1b2b3"/></g><g id="Group_17" data-name="Group 17"><path id="Path_659" data-name="Path 659" d="M89.24,158.87H78.67V148.3H89.24ZM79,158.56h10v-10H79Z" transform="translate(4.75 -3)" fill="#b1b2b3"/></g><g id="Group_18" data-name="Group 18"><path id="Path_660" data-name="Path 660" d="M99.74,158.87H89.16V148.3H99.74Zm-10.27-.31h10v-10h-10Z" transform="translate(4.75 -3)" fill="#b1b2b3"/></g><g id="Group_19" data-name="Group 19"><path id="Path_661" data-name="Path 661" d="M110,158.87H99.43V148.3H110Zm-10.26-.31h10v-10h-10Z" transform="translate(4.75 -3)" fill="#b1b2b3"/></g><g id="Group_20" data-name="Group 20"><path id="Path_662" data-name="Path 662" d="M16.63,169.13H6.06V158.56H16.63Zm-10.26-.3h10v-10h-10Z" transform="translate(4.75 -3)" fill="#b1b2b3"/></g><g id="Group_21" data-name="Group 21"><path id="Path_663" data-name="Path 663" d="M27.09,169.13H16.52V158.56H27.09Zm-10.26-.3h10v-10h-10Z" transform="translate(4.75 -3)" fill="#b1b2b3"/></g><g id="Group_22" data-name="Group 22"><path id="Path_664" data-name="Path 664" d="M37.45,169.13H26.88V158.56H37.45Zm-10.26-.3h10v-10h-10Z" transform="translate(4.75 -3)" fill="#b1b2b3"/></g><g id="Group_23" data-name="Group 23"><path id="Path_665" data-name="Path 665" d="M47.81,169.13H37.24V158.56H47.81Zm-10.27-.3h10v-10h-10Z" transform="translate(4.75 -3)" fill="#b1b2b3"/></g><g id="Group_24" data-name="Group 24"><path id="Path_666" data-name="Path 666" d="M58.17,169.13H47.6V158.56H58.17Zm-10.27-.3h10v-10h-10Z" transform="translate(4.75 -3)" fill="#b1b2b3"/></g><g id="Group_25" data-name="Group 25"><path id="Path_667" data-name="Path 667" d="M68.52,169.13H58V158.56H68.52Zm-10.26-.3h10v-10h-10Z" transform="translate(4.75 -3)" fill="#b1b2b3"/></g><g id="Group_26" data-name="Group 26"><path id="Path_668" data-name="Path 668" d="M78.88,169.13H68.31V158.56H78.88Zm-10.26-.3h9.95v-10H68.62Z" transform="translate(4.75 -3)" fill="#b1b2b3"/></g><g id="Group_27" data-name="Group 27"><path id="Path_669" data-name="Path 669" d="M89.24,169.13H78.67V158.56H89.24ZM79,168.83h10v-10H79Z" transform="translate(4.75 -3)" fill="#b1b2b3"/></g><g id="Group_28" data-name="Group 28"><path id="Path_670" data-name="Path 670" d="M99.74,169.13H89.16V158.56H99.74Zm-10.27-.3h10v-10h-10Z" transform="translate(4.75 -3)" fill="#b1b2b3"/></g><g id="Group_29" data-name="Group 29"><path id="Path_671" data-name="Path 671" d="M110,169.13H99.43V158.56H110Zm-10.26-.3h10v-10h-10Z" transform="translate(4.75 -3)" fill="#b1b2b3"/></g><g id="Group_30" data-name="Group 30"><path id="Path_672" data-name="Path 672" d="M16.63,179.4H6.06V168.83H16.63Zm-10.26-.31h10v-10h-10Z" transform="translate(4.75 -3)" fill="#b1b2b3"/></g><g id="Group_31" data-name="Group 31"><path id="Path_673" data-name="Path 673" d="M27.09,179.4H16.52V168.83H27.09Zm-10.26-.31h10v-10h-10Z" transform="translate(4.75 -3)" fill="#b1b2b3"/></g><g id="Group_32" data-name="Group 32"><path id="Path_674" data-name="Path 674" d="M37.45,179.4H26.88V168.83H37.45Zm-10.26-.31h10v-10h-10Z" transform="translate(4.75 -3)" fill="#b1b2b3"/></g><g id="Group_33" data-name="Group 33"><path id="Path_675" data-name="Path 675" d="M47.81,179.4H37.24V168.83H47.81Zm-10.27-.31h10v-10h-10Z" transform="translate(4.75 -3)" fill="#b1b2b3"/></g><g id="Group_34" data-name="Group 34"><path id="Path_676" data-name="Path 676" d="M58.17,179.4H47.6V168.83H58.17Zm-10.27-.31h10v-10h-10Z" transform="translate(4.75 -3)" fill="#b1b2b3"/></g><g id="Group_35" data-name="Group 35"><path id="Path_677" data-name="Path 677" d="M68.52,179.4H58V168.83H68.52Zm-10.26-.31h10v-10h-10Z" transform="translate(4.75 -3)" fill="#b1b2b3"/></g><g id="Group_36" data-name="Group 36"><path id="Path_678" data-name="Path 678" d="M78.88,179.4H68.31V168.83H78.88Zm-10.26-.31h9.95v-10H68.62Z" transform="translate(4.75 -3)" fill="#b1b2b3"/></g><g id="Group_37" data-name="Group 37"><path id="Path_679" data-name="Path 679" d="M89.24,179.4H78.67V168.83H89.24ZM79,179.09h10v-10H79Z" transform="translate(4.75 -3)" fill="#b1b2b3"/></g><g id="Group_38" data-name="Group 38"><path id="Path_680" data-name="Path 680" d="M99.74,179.4H89.16V168.83H99.74Zm-10.27-.31h10v-10h-10Z" transform="translate(4.75 -3)" fill="#b1b2b3"/></g><g id="Group_39" data-name="Group 39"><path id="Path_681" data-name="Path 681" d="M110,179.4H99.43V168.83H110Zm-10.26-.31h10v-10h-10Z" transform="translate(4.75 -3)" fill="#b1b2b3"/></g><g id="Group_40" data-name="Group 40"><path id="Path_682" data-name="Path 682" d="M16.63,189.66H6.06V179.09H16.63Zm-10.26-.31h10v-10h-10Z" transform="translate(4.75 -3)" fill="#b1b2b3"/></g><g id="Group_41" data-name="Group 41"><path id="Path_683" data-name="Path 683" d="M27.09,189.66H16.52V179.09H27.09Zm-10.26-.31h10v-10h-10Z" transform="translate(4.75 -3)" fill="#b1b2b3"/></g><g id="Group_42" data-name="Group 42"><path id="Path_684" data-name="Path 684" d="M37.45,189.66H26.88V179.09H37.45Zm-10.26-.31h10v-10h-10Z" transform="translate(4.75 -3)" fill="#b1b2b3"/></g><g id="Group_43" data-name="Group 43"><path id="Path_685" data-name="Path 685" d="M47.81,189.66H37.24V179.09H47.81Zm-10.27-.31h10v-10h-10Z" transform="translate(4.75 -3)" fill="#b1b2b3"/></g><g id="Group_44" data-name="Group 44"><path id="Path_686" data-name="Path 686" d="M58.17,189.66H47.6V179.09H58.17Zm-10.27-.31h10v-10h-10Z" transform="translate(4.75 -3)" fill="#b1b2b3"/></g><g id="Group_45" data-name="Group 45"><path id="Path_687" data-name="Path 687" d="M68.52,189.66H58V179.09H68.52Zm-10.26-.31h10v-10h-10Z" transform="translate(4.75 -3)" fill="#b1b2b3"/></g><g id="Group_46" data-name="Group 46"><path id="Path_688" data-name="Path 688" d="M78.88,189.66H68.31V179.09H78.88Zm-10.26-.31h9.95v-10H68.62Z" transform="translate(4.75 -3)" fill="#b1b2b3"/></g><g id="Group_47" data-name="Group 47"><path id="Path_689" data-name="Path 689" d="M89.24,189.66H78.67V179.09H89.24ZM79,189.35h10v-10H79Z" transform="translate(4.75 -3)" fill="#b1b2b3"/></g><g id="Group_48" data-name="Group 48"><path id="Path_690" data-name="Path 690" d="M99.74,189.66H89.16V179.09H99.74Zm-10.27-.31h10v-10h-10Z" transform="translate(4.75 -3)" fill="#b1b2b3"/></g><g id="Group_49" data-name="Group 49"><path id="Path_691" data-name="Path 691" d="M110,189.66H99.43V179.09H110Zm-10.26-.31h10v-10h-10Z" transform="translate(4.75 -3)" fill="#b1b2b3"/></g><g id="Group_50" data-name="Group 50"><path id="Path_692" data-name="Path 692" d="M16.63,199.92H6.06V189.35H16.63Zm-10.26-.3h10v-10h-10Z" transform="translate(4.75 -3)" fill="#b1b2b3"/></g><g id="Group_51" data-name="Group 51"><path id="Path_693" data-name="Path 693" d="M27.09,199.92H16.52V189.35H27.09Zm-10.26-.3h10v-10h-10Z" transform="translate(4.75 -3)" fill="#b1b2b3"/></g><g id="Group_52" data-name="Group 52"><path id="Path_694" data-name="Path 694" d="M37.45,199.92H26.88V189.35H37.45Zm-10.26-.3h10v-10h-10Z" transform="translate(4.75 -3)" fill="#b1b2b3"/></g><g id="Group_53" data-name="Group 53"><path id="Path_695" data-name="Path 695" d="M47.81,199.92H37.24V189.35H47.81Zm-10.27-.3h10v-10h-10Z" transform="translate(4.75 -3)" fill="#b1b2b3"/></g><g id="Group_54" data-name="Group 54"><path id="Path_696" data-name="Path 696" d="M58.17,199.92H47.6V189.35H58.17Zm-10.27-.3h10v-10h-10Z" transform="translate(4.75 -3)" fill="#b1b2b3"/></g><g id="Group_55" data-name="Group 55"><path id="Path_697" data-name="Path 697" d="M68.52,199.92H58V189.35H68.52Zm-10.26-.3h10v-10h-10Z" transform="translate(4.75 -3)" fill="#b1b2b3"/></g><g id="Group_56" data-name="Group 56"><path id="Path_698" data-name="Path 698" d="M78.88,199.92H68.31V189.35H78.88Zm-10.26-.3h9.95v-10H68.62Z" transform="translate(4.75 -3)" fill="#b1b2b3"/></g><g id="Group_57" data-name="Group 57"><path id="Path_699" data-name="Path 699" d="M89.24,199.92H78.67V189.35H89.24ZM79,199.62h10v-10H79Z" transform="translate(4.75 -3)" fill="#b1b2b3"/></g><g id="Group_58" data-name="Group 58"><path id="Path_700" data-name="Path 700" d="M99.74,199.92H89.16V189.35H99.74Zm-10.27-.3h10v-10h-10Z" transform="translate(4.75 -3)" fill="#b1b2b3"/></g><g id="Group_59" data-name="Group 59"><path id="Path_701" data-name="Path 701" d="M110,199.92H99.43V189.35H110Zm-10.26-.3h10v-10h-10Z" transform="translate(4.75 -3)" fill="#b1b2b3"/></g><g id="Group_60" data-name="Group 60"><path id="Path_702" data-name="Path 702" d="M16.63,210.19H6.06V199.62H16.63Zm-10.26-.31h10v-10h-10Z" transform="translate(4.75 -3)" fill="#b1b2b3"/></g><g id="Group_61" data-name="Group 61"><path id="Path_703" data-name="Path 703" d="M27.09,210.19H16.52V199.62H27.09Zm-10.26-.31h10v-10h-10Z" transform="translate(4.75 -3)" fill="#b1b2b3"/></g><g id="Group_62" data-name="Group 62"><path id="Path_704" data-name="Path 704" d="M37.45,210.19H26.88V199.62H37.45Zm-10.26-.31h10v-10h-10Z" transform="translate(4.75 -3)" fill="#b1b2b3"/></g><g id="Group_63" data-name="Group 63"><path id="Path_705" data-name="Path 705" d="M47.81,210.19H37.24V199.62H47.81Zm-10.27-.31h10v-10h-10Z" transform="translate(4.75 -3)" fill="#b1b2b3"/></g><g id="Group_64" data-name="Group 64"><path id="Path_706" data-name="Path 706" d="M58.17,210.19H47.6V199.62H58.17Zm-10.27-.31h10v-10h-10Z" transform="translate(4.75 -3)" fill="#b1b2b3"/></g><g id="Group_65" data-name="Group 65"><path id="Path_707" data-name="Path 707" d="M68.52,210.19H58V199.62H68.52Zm-10.26-.31h10v-10h-10Z" transform="translate(4.75 -3)" fill="#b1b2b3"/></g><g id="Group_66" data-name="Group 66"><path id="Path_708" data-name="Path 708" d="M78.88,210.19H68.31V199.62H78.88Zm-10.26-.31h9.95v-10H68.62Z" transform="translate(4.75 -3)" fill="#b1b2b3"/></g><g id="Group_67" data-name="Group 67"><path id="Path_709" data-name="Path 709" d="M89.24,210.19H78.67V199.62H89.24ZM79,209.88h10v-10H79Z" transform="translate(4.75 -3)" fill="#b1b2b3"/></g><g id="Group_68" data-name="Group 68"><path id="Path_710" data-name="Path 710" d="M99.74,210.19H89.16V199.62H99.74Zm-10.27-.31h10v-10h-10Z" transform="translate(4.75 -3)" fill="#b1b2b3"/></g><g id="Group_69" data-name="Group 69"><path id="Path_711" data-name="Path 711" d="M110,210.19H99.43V199.62H110Zm-10.26-.31h10v-10h-10Z" transform="translate(4.75 -3)" fill="#b1b2b3"/></g><path id="Path_712" data-name="Path 712" d="M6.52,207.59A2.45,2.45,0,1,1,4.08,210a2.45,2.45,0,0,1,2.44-2.44" transform="translate(4.75 -3)" fill="#1b1a19" fill-rule="evenodd"/><path id="Path_713" data-name="Path 713" d="M27,176.8a2.45,2.45,0,1,1-2.44,2.44A2.44,2.44,0,0,1,27,176.8" transform="translate(4.75 -3)" fill="#1b1a19" fill-rule="evenodd"/><path id="Path_714" data-name="Path 714" d="M47.71,187.06a2.45,2.45,0,1,1-2.45,2.45,2.45,2.45,0,0,1,2.45-2.45" transform="translate(4.75 -3)" fill="#1b1a19" fill-rule="evenodd"/><path id="Path_715" data-name="Path 715" d="M58.06,176.8a2.45,2.45,0,1,1-2.44,2.44,2.44,2.44,0,0,1,2.44-2.44" transform="translate(4.75 -3)" fill="#1b1a19" fill-rule="evenodd"/><path id="Path_716" data-name="Path 716" d="M78.76,166.53A2.45,2.45,0,1,1,76.32,169a2.45,2.45,0,0,1,2.44-2.45" transform="translate(4.75 -3)" fill="#1b1a19" fill-rule="evenodd"/><path id="Path_717" data-name="Path 717" d="M89.12,176.8a2.45,2.45,0,1,1-2.45,2.44,2.44,2.44,0,0,1,2.45-2.44" transform="translate(4.75 -3)" fill="#1b1a19" fill-rule="evenodd"/><path id="Path_718" data-name="Path 718" d="M99.58,156.27a2.45,2.45,0,1,1-2.44,2.44,2.45,2.45,0,0,1,2.44-2.44" transform="translate(4.75 -3)" fill="#1b1a19" fill-rule="evenodd"/><g id="Group_70" data-name="Group 70"><path id="Path_719" data-name="Path 719" d="M6.35,210.12,6.09,210,26.69,179l.13.06,20.43,10.22,10.18-10.19.22.22L47.3,189.69l-.09-.05L26.8,179.44Z" transform="translate(4.75 -3)" fill="#1b1a19"/></g><g id="Group_71" data-name="Group 71"><path id="Path_720" data-name="Path 720" d="M89.36,179.5,79,169.17,59.21,179.38l-.14-.27,20-10.32L89.28,179l10.16-20.33.28.14Z" transform="translate(4.75 -3)" fill="#1b1a19"/></g></g><path d="M48.9,215.88H46.34V215h6.23v.93H50v7.49H48.9Z" transform="translate(4.75 -3)"/><path d="M54.54,215.63a.68.68,0,0,1-1.36,0,.67.67,0,0,1,.69-.69A.65.65,0,0,1,54.54,215.63Zm-1.22,7.74v-6.05h1.1v6.05Z" transform="translate(4.75 -3)"/><path d="M56.24,219c0-.63,0-1.14-.05-1.64h1l.05,1h0a2.08,2.08,0,0,1,1.9-1.11,1.78,1.78,0,0,1,1.71,1.21h0a2.4,2.4,0,0,1,.67-.79,2.08,2.08,0,0,1,1.34-.42c.79,0,2,.52,2,2.62v3.56H63.79V220c0-1.17-.43-1.86-1.31-1.86a1.42,1.42,0,0,0-1.3,1,1.81,1.81,0,0,0-.09.55v3.74H60v-3.62c0-1-.43-1.66-1.26-1.66a1.48,1.48,0,0,0-1.36,1.09,1.39,1.39,0,0,0-.09.54v3.65H56.24Z" transform="translate(4.75 -3)"/><path d="M67.25,220.54a1.94,1.94,0,0,0,2.07,2.1,4.11,4.11,0,0,0,1.68-.31l.18.79a5,5,0,0,1-2,.37,2.8,2.8,0,0,1-3-3.05c0-1.82,1.08-3.25,2.84-3.25A2.55,2.55,0,0,1,71.53,220a5,5,0,0,1,0,.51Zm3.22-.78A1.57,1.57,0,0,0,69,218a1.83,1.83,0,0,0-1.69,1.79Z" transform="translate(4.75 -3)"/><path d="M2.79,207.3a3.86,3.86,0,0,0,.55-2c0-1.11-.59-1.76-1.44-1.76S.67,204,.23,205.18c-.49,1.37-1.2,2.22-2.38,2.22s-2.29-1.09-2.29-2.72A3.84,3.84,0,0,1-4,202.82l.89.3a3.35,3.35,0,0,0-.4,1.6c0,1.14.69,1.58,1.26,1.58.79,0,1.17-.51,1.62-1.67.55-1.42,1.24-2.15,2.47-2.15s2.43,1,2.43,3a4.29,4.29,0,0,1-.54,2.14Z" transform="translate(4.75 -3)"/><path d="M.84,200v0c-.21-.15-.47-.37-.69-.54l-2.08-1.77v-1.33l2.48,2.34L4.11,196v1.33l-2.9,2.09.63.56H4.11V201H-4.75V200Z" transform="translate(4.75 -3)"/><path d="M-3.63,193.75a.65.65,0,0,1,.68.7.65.65,0,0,1-.68.66.66.66,0,0,1-.68-.68A.65.65,0,0,1-3.63,193.75ZM4.11,195h-6v-1.09h6Z" transform="translate(4.75 -3)"/><path d="M-.3,192.06c-.62,0-1.13,0-1.63.05v-1l1-.06v0a2.19,2.19,0,0,1-1.14-2c0-.84.5-2.14,2.57-2.14H4.11V188H.63c-1,0-1.79.36-1.79,1.4A1.55,1.55,0,0,0,0,190.88a1.52,1.52,0,0,0,.51.08H4.11v1.1Z" transform="translate(4.75 -3)"/><path d="M-4.75,182.49v-1.1H-1v0a2,2,0,0,1-.78-.78,2.35,2.35,0,0,1-.31-1.13c0-.81.5-2.11,2.59-2.11H4.11v1.1H.64c-1,0-1.8.37-1.8,1.4a1.58,1.58,0,0,0,1.1,1.47,1.21,1.21,0,0,0,.53.08H4.11v1.1Z" transform="translate(4.75 -3)"/><path d="M1.29,175a1.94,1.94,0,0,0,2.1-2.07,3.84,3.84,0,0,0-.32-1.67l.79-.19a4.81,4.81,0,0,1,.38,2,2.81,2.81,0,0,1-3.05,3c-1.82,0-3.26-1.07-3.26-2.83a2.57,2.57,0,0,1,2.85-2.5,4.58,4.58,0,0,1,.51,0ZM.5,171.73a1.56,1.56,0,0,0-1.78,1.52A1.82,1.82,0,0,0,.5,174.94Z" transform="translate(4.75 -3)"/><path d="M4.11,166l-.76.09v0a2.27,2.27,0,0,1,.9,1.85,1.73,1.73,0,0,1-1.74,1.85c-1.46,0-2.26-1.3-2.24-3.63H.14a1.24,1.24,0,0,0-1.4,1.37,3,3,0,0,0,.45,1.57l-.72.25a3.69,3.69,0,0,1-.54-2c0-1.85,1.26-2.3,2.47-2.3H2.66a9,9,0,0,0,1.45-.1ZM1,166.13c0,1.2.18,2.56,1.36,2.56a1,1,0,0,0,1-1,1.52,1.52,0,0,0-1-1.46,1.51,1.51,0,0,0-.35-.06Z" transform="translate(4.75 -3)"/><path d="M-4.75,163.3v-1.1H4.11v1.1Z" transform="translate(4.75 -3)"/><path d="M-3.67,159h1.74v-1.57h.84V159H2.16c.75,0,1.18-.21,1.18-.82a2.32,2.32,0,0,0-.08-.64l.83,0a2.91,2.91,0,0,1,.15,1,1.51,1.51,0,0,1-.47,1.18,2.23,2.23,0,0,1-1.57.43H-1.09V161h-.84v-.93H-3.38Z" transform="translate(4.75 -3)"/><path d="M-4.75,156.23v-1.1H-1v0a2.08,2.08,0,0,1-.78-.78,2.35,2.35,0,0,1-.31-1.13c0-.81.5-2.11,2.59-2.11H4.11v1.1H.64c-1,0-1.8.36-1.8,1.4a1.58,1.58,0,0,0,1.1,1.47,1.21,1.21,0,0,0,.53.08H4.11v1.1Z" transform="translate(4.75 -3)"/></svg>