<svg id="Layer_1" data-name="Layer 1" xmlns="http://www.w3.org/2000/svg" viewBox="0 0 97.73 16.8"><title>podlogo</title><path d="M2.69,22.25V7h-2V6.64H5.33l7.38,12.07V7H10.66V6.64h4.47V7h-2v15.8h-.81L3.07,7.71V22.25H5.12v.38H.64v-.38Z" transform="translate(-0.64 -6.28)"/><path d="M20.32,22.25h1.79v.38H16.49v-.38h1.79V13.68H16.49V13.3h3.83ZM20.16,9.78a1.27,1.27,0,0,1-1.77,0,1.24,1.24,0,0,1,.89-2.12,1.21,1.21,0,0,1,.88.36,1.28,1.28,0,0,1,0,1.76Z" transform="translate(-0.64 -6.28)"/><path d="M29.56,13s.07.06.07.17v2.54c0,.1,0,.15-.1.15s-.13-.05-.14-.15a3.83,3.83,0,0,0-.25-.82,2.67,2.67,0,0,0-.48-.75,2.55,2.55,0,0,0-.73-.55,2.38,2.38,0,0,0-1-.21,2.28,2.28,0,0,0-1.5.5A1.46,1.46,0,0,0,24.82,15a1.12,1.12,0,0,0,.2.7,1.47,1.47,0,0,0,.68.42l.61.16.73.19.71.18.54.16A2.92,2.92,0,0,1,30,18a3.44,3.44,0,0,1,.45,1.71A3.72,3.72,0,0,1,30.25,21a3.13,3.13,0,0,1-.64,1,2.77,2.77,0,0,1-1,.68,3.44,3.44,0,0,1-1.38.25,4.18,4.18,0,0,1-1.6-.27A3.14,3.14,0,0,1,24.53,22l-.5.73a.19.19,0,0,1-.16.12c-.1,0-.14-.06-.14-.19V20.09c0-.13,0-.19.14-.19s.14.07.19.21A3.27,3.27,0,0,0,25.22,22a3.23,3.23,0,0,0,1.93.6,3.32,3.32,0,0,0,.81-.1,2.9,2.9,0,0,0,.81-.34,2.09,2.09,0,0,0,.63-.59,1.51,1.51,0,0,0,.25-.87,1.65,1.65,0,0,0-.18-.74,1.63,1.63,0,0,0-.65-.62,3.36,3.36,0,0,0-.66-.29c-.24-.09-.5-.17-.76-.24s-.52-.14-.77-.19l-.69-.16a2.58,2.58,0,0,1-1.54-.9A2.47,2.47,0,0,1,23.89,16a3.35,3.35,0,0,1,.2-1.12,3,3,0,0,1,.6-1,2.73,2.73,0,0,1,1-.68A3.35,3.35,0,0,1,27,13a2.57,2.57,0,0,1,1.81.67l.55-.55C29.47,13,29.52,13,29.56,13Z" transform="translate(-0.64 -6.28)"/><path d="M36.8,13.56A3.87,3.87,0,0,1,39.05,13a3.22,3.22,0,0,1,2,.56,2,2,0,0,1,.73,1.63v7.09h1.66v.38H38.1v-.38h1.64V15.42a4.63,4.63,0,0,0,0-.65,1.62,1.62,0,0,0-.17-.59,1.16,1.16,0,0,0-.43-.42,1.47,1.47,0,0,0-.79-.17,2.24,2.24,0,0,0-1.12.28,3.76,3.76,0,0,0-.88.71,3.05,3.05,0,0,0-.58.88,2.22,2.22,0,0,0-.2.84v5.95h1.66v.38H31.82v-.38h1.66V7H31.82V6.64h3.71V15A4,4,0,0,1,36.8,13.56Z" transform="translate(-0.64 -6.28)"/><path d="M52.19,17.16H46.45v2.43A3.6,3.6,0,0,0,47,21.87a1.87,1.87,0,0,0,1.54.71A3.91,3.91,0,0,0,50,22.35,4.28,4.28,0,0,0,51,21.73a3.82,3.82,0,0,0,.78-.88,6.56,6.56,0,0,0,.54-1q.09-.24.21-.24c.1,0,.15.06.15.17a.8.8,0,0,1-.08.33A4.73,4.73,0,0,1,52,21.2a4,4,0,0,1-.87.92,4.08,4.08,0,0,1-1.17.62,4.64,4.64,0,0,1-1.48.22,4,4,0,0,1-1.84-.42,4.58,4.58,0,0,1-1.44-1.12A5.2,5.2,0,0,1,44,18a5.28,5.28,0,0,1,.33-1.83,5.19,5.19,0,0,1,.93-1.62,4.69,4.69,0,0,1,1.41-1.17A3.65,3.65,0,0,1,48.43,13a3.79,3.79,0,0,1,1.92.46,4.11,4.11,0,0,1,1.26,1.09,4.4,4.4,0,0,1,.71,1.28,4.74,4.74,0,0,1,.25,1.05C52.57,17.06,52.44,17.16,52.19,17.16ZM50,16.78c.24,0,.36-.37.36-1.12a4.5,4.5,0,0,0-.07-.83,1.91,1.91,0,0,0-.29-.74,1.68,1.68,0,0,0-.58-.54,2,2,0,0,0-.94-.2,2.44,2.44,0,0,0-.71.1,1.53,1.53,0,0,0-.65.35,2,2,0,0,0-.46.75,3.78,3.78,0,0,0-.18,1.28v1Z" transform="translate(-0.64 -6.28)"/><path d="M64.54,6.28c.09,0,.14.08.14.24v4.24c0,.16-.06.24-.17.24s-.2-.08-.21-.24a6.34,6.34,0,0,0-.39-1.48A4.58,4.58,0,0,0,63.11,8a3.76,3.76,0,0,0-1.24-.88,4.14,4.14,0,0,0-1.71-.33A4.65,4.65,0,0,0,58.88,7a3.17,3.17,0,0,0-1.11.53,2.64,2.64,0,0,0-.8.92,2.57,2.57,0,0,0-.31,1.29A2.5,2.5,0,0,0,57,11.11a2.21,2.21,0,0,0,1.12.88c.44.18.85.33,1.21.45l1.05.32,1,.26,1,.28a4.15,4.15,0,0,1,2.37,1.59,4.67,4.67,0,0,1,.75,2.7A5.65,5.65,0,0,1,64,21.51a5.25,5.25,0,0,1-1.69,1.16,5.31,5.31,0,0,1-2.12.41,4.81,4.81,0,0,1-1.2-.15,6.51,6.51,0,0,1-1.1-.39A6.17,6.17,0,0,1,57,22a8.13,8.13,0,0,1-.71-.54L55.4,22.7c-.11.16-.22.24-.31.24s-.21-.1-.21-.31V18.37c0-.22,0-.33.16-.33s.22.1.26.31a7.33,7.33,0,0,0,.75,1.81,5.11,5.11,0,0,0,1.16,1.35,4.94,4.94,0,0,0,1.45.85,4.54,4.54,0,0,0,1.64.3,4,4,0,0,0,1.45-.27A3.93,3.93,0,0,0,63,21.66a3.59,3.59,0,0,0,.93-4.11,2.09,2.09,0,0,0-1.09-1.06c-.43-.2-.81-.37-1.13-.49l-1-.33-1-.32c-.37-.11-.81-.25-1.33-.43A4.72,4.72,0,0,1,56,13.33,3.84,3.84,0,0,1,55.21,11a4.71,4.71,0,0,1,.33-1.76,4.3,4.3,0,0,1,1-1.48,4.59,4.59,0,0,1,1.56-1,5.43,5.43,0,0,1,2.08-.38,7.52,7.52,0,0,1,1,.06,5.3,5.3,0,0,1,.83.18,5.06,5.06,0,0,1,.78.31c.25.12.52.27.8.42l.69-.88C64.37,6.35,64.46,6.28,64.54,6.28Z" transform="translate(-0.64 -6.28)" fill="#c33"/><path d="M71.79,17.18l3.53-3.5h-2V13.3h4.45v.38H75.86L73.1,16.47l4.26,5.78H79v.38H73.27v-.38h1.66l-3.28-4.69h-.52v4.69h1.66v.38H67.18v-.38h1.9V7h-1.9V6.64h3.95V17.18Z" transform="translate(-0.64 -6.28)" fill="#c33"/><path d="M84,22.25h1.78v.38H80.15v-.38h1.78V13.68H80.15V13.3H84ZM83.81,9.78A1.24,1.24,0,0,1,82.05,8a1.24,1.24,0,0,1,1.76,1.76Z" transform="translate(-0.64 -6.28)" fill="#c33"/><path d="M92.08,13.71a3.53,3.53,0,0,1,2.13-.6,3.13,3.13,0,0,1,1.8.48,1.94,1.94,0,0,1,.7,1.71v7h1.67v.38H93v-.38h1.66V15.47a2.25,2.25,0,0,0-.32-1.36,1.19,1.19,0,0,0-1-.43,1.75,1.75,0,0,0-.92.27,3,3,0,0,0-.78.66,3.68,3.68,0,0,0-.56.87,2.12,2.12,0,0,0-.21.87v5.9h1.66v.38H87.14v-.38h1.67V13.68H87.14V13.3h3.72v1.81A3.77,3.77,0,0,1,92.08,13.71Z" transform="translate(-0.64 -6.28)" fill="#c33"/></svg>