<svg id="Layer_1" data-name="Layer 1" xmlns="http://www.w3.org/2000/svg" viewBox="0 0 83 81.35"><title>quality</title><g id="quality"><g id="Group_11096" data-name="Group 11096"><g id="Group_11063" data-name="Group 11063"><path id="Path_10879" data-name="Path 10879" d="M11.86,53.89S7.39,48.45-3,46.69c-10.14-2.37-22.41-12.27-25.56-26.17C-32.24,6.75-26.1-7.65-18.26-14.38a34.83,34.83,0,0,1,15-8.26A38.28,38.28,0,0,0-18-14.07c-7.66,6.77-13.49,21-9.79,34.38,3.21,13.54,15.23,23,25.05,25.22a34.79,34.79,0,0,1,6.28,1.58c6.93,2.46,9.59,5.63,9.59,5.63Z" transform="translate(35.1 27.46)"/></g><g id="Group_11064" data-name="Group 11064"><path id="Path_10880" data-name="Path 10880" d="M.94,53.89s4.47-5.44,14.89-7.2C26,44.32,38.25,34.42,41.4,20.52,45,6.75,38.9-7.65,31.06-14.38a34.85,34.85,0,0,0-14.95-8.26,38.32,38.32,0,0,1,14.66,8.57c7.66,6.77,13.49,21,9.79,34.38-3.21,13.54-15.23,23-25,25.22a34.9,34.9,0,0,0-6.29,1.58C2.31,49.57-.36,52.74-.36,52.74Z" transform="translate(35.1 27.46)"/></g><g id="Group_11095" data-name="Group 11095"><g id="Group_11065" data-name="Group 11065"><path id="Path_10881" data-name="Path 10881" d="M-6,38.09s2.84,1,3.78,3.24a9.56,9.56,0,0,1,.67,5.2s-2.85-1.48-3.8-3C-6.72,41.36-6,38.09-6,38.09Z" transform="translate(35.1 27.46)"/><path id="Path_10882" data-name="Path 10882" d="M-11,50.53s2.87.88,5-.41a9.5,9.5,0,0,0,3.6-3.81s-3.17-.48-4.85.2C-9.65,47.47-11,50.53-11,50.53Z" transform="translate(35.1 27.46)"/></g><g id="Group_11066" data-name="Group 11066"><path id="Path_10883" data-name="Path 10883" d="M-10.45,35.64s2.57,1.43,3.1,3.78a9.42,9.42,0,0,1-.24,5.13s-2.5-1.91-3.16-3.55C-11.67,38.69-10.45,35.64-10.45,35.64Z" transform="translate(35.1 27.46)"/><path id="Path_10884" data-name="Path 10884" d="M-17.38,46.8s2.62,1.35,4.86.47A9.37,9.37,0,0,0-8.4,44.2s-3-1-4.71-.63C-15.54,44.09-17.38,46.8-17.38,46.8Z" transform="translate(35.1 27.46)"/></g><g id="Group_11067" data-name="Group 11067"><path id="Path_10885" data-name="Path 10885" d="M-14.43,32.47s2.25,1.82,2.35,4.17a9.18,9.18,0,0,1-1.1,4.92s-2.09-2.27-2.44-4C-16.12,35.21-14.43,32.47-14.43,32.47Z" transform="translate(35.1 27.46)"/><path id="Path_10886" data-name="Path 10886" d="M-23,42.07s2.3,1.74,4.61,1.27a9.18,9.18,0,0,0,4.5-2.26s-2.7-1.47-4.44-1.41C-20.77,39.76-23,42.07-23,42.07Z" transform="translate(35.1 27.46)"/></g><g id="Group_11068" data-name="Group 11068"><path id="Path_10887" data-name="Path 10887" d="M-17.79,28.63s1.85,2.14,1.55,4.43a8.9,8.9,0,0,1-1.9,4.55s-1.62-2.54-1.68-4.24C-19.89,31-17.79,28.63-17.79,28.63Z" transform="translate(35.1 27.46)"/><path id="Path_10888" data-name="Path 10888" d="M-27.71,36.43s1.92,2.07,4.23,2A9,9,0,0,0-18.75,37s-2.36-1.88-4-2.12C-25.16,34.59-27.71,36.43-27.71,36.43Z" transform="translate(35.1 27.46)"/></g><g id="Group_11069" data-name="Group 11069"><path id="Path_10889" data-name="Path 10889" d="M-20.47,24.28a6.35,6.35,0,0,1,.75,4.53,8.74,8.74,0,0,1-2.61,4.07s-1.13-2.73-.9-4.38C-22.9,26.18-20.47,24.28-20.47,24.28Z" transform="translate(35.1 27.46)"/><path id="Path_10890" data-name="Path 10890" d="M-31.37,30.11a6.42,6.42,0,0,0,3.75,2.67,8.86,8.86,0,0,0,4.8-.56s-2-2.22-3.54-2.73C-28.59,28.77-31.37,30.11-31.37,30.11Z" transform="translate(35.1 27.46)"/></g><g id="Group_11070" data-name="Group 11070"><path id="Path_10891" data-name="Path 10891" d="M-22.31,19.54a6.29,6.29,0,0,1-.05,4.5,8.66,8.66,0,0,1-3.22,3.49,11.14,11.14,0,0,1-.12-4.38C-25,21-22.31,19.54-22.31,19.54Z" transform="translate(35.1 27.46)"/><path id="Path_10892" data-name="Path 10892" d="M-33.82,23.32a6.19,6.19,0,0,0,3.16,3.21,8.66,8.66,0,0,0,4.73.28,11,11,0,0,0-2.95-3.24C-30.91,22.5-33.82,23.32-33.82,23.32Z" transform="translate(35.1 27.46)"/></g><g id="Group_11071" data-name="Group 11071"><path id="Path_10893" data-name="Path 10893" d="M-23.33,14.58a6.12,6.12,0,0,1-.81,4.34,8.51,8.51,0,0,1-3.7,2.82,10.59,10.59,0,0,1,.63-4.25C-26.15,15.5-23.33,14.58-23.33,14.58Z" transform="translate(35.1 27.46)"/><path id="Path_10894" data-name="Path 10894" d="M-35.08,16.27a6.09,6.09,0,0,0,2.5,3.63A8.4,8.4,0,0,0-28.06,21a10.68,10.68,0,0,0-2.3-3.62C-32.13,16-35.08,16.27-35.08,16.27Z" transform="translate(35.1 27.46)"/></g><g id="Group_11072" data-name="Group 11072"><path id="Path_10895" data-name="Path 10895" d="M-23.47,9.49a6,6,0,0,1-1.53,4,8.27,8.27,0,0,1-4,2.09,10.51,10.51,0,0,1,1.33-4C-26.35,9.9-23.47,9.49-23.47,9.49Z" transform="translate(35.1 27.46)"/><path id="Path_10896" data-name="Path 10896" d="M-35.1,9.11a6,6,0,0,0,1.8,3.94,8.27,8.27,0,0,0,4.18,1.8A10.62,10.62,0,0,0-30.72,11C-32.21,9.33-35.1,9.11-35.1,9.11Z" transform="translate(35.1 27.46)"/></g><g id="Group_11073" data-name="Group 11073"><path id="Path_10897" data-name="Path 10897" d="M-22.75,4.28a5.86,5.86,0,0,1-2.16,3.65,8.13,8.13,0,0,1-4.25,1.33,10.33,10.33,0,0,1,2-3.63C-25.59,4.19-22.75,4.28-22.75,4.28Z" transform="translate(35.1 27.46)"/><path id="Path_10898" data-name="Path 10898" d="M-33.9,1.94A5.86,5.86,0,0,0-32.84,6,8.18,8.18,0,0,0-29.11,8.5a10.19,10.19,0,0,0-.89-4C-31.14,2.64-33.9,1.94-33.9,1.94Z" transform="translate(35.1 27.46)"/></g><g id="Group_11074" data-name="Group 11074"><path id="Path_10899" data-name="Path 10899" d="M-21.11-.79a5.77,5.77,0,0,1-2.7,3.15,8,8,0,0,1-4.34.56A10.15,10.15,0,0,1-25.64-.24C-23.84-1.37-21.11-.79-21.11-.79Z" transform="translate(35.1 27.46)"/><path id="Path_10900" data-name="Path 10900" d="M-31.48-4.95a5.76,5.76,0,0,0,.33,4.14,7.92,7.92,0,0,0,3.18,3,10.19,10.19,0,0,0-.17-4C-28.94-3.81-31.48-4.95-31.48-4.95Z" transform="translate(35.1 27.46)"/></g><g id="Group_11075" data-name="Group 11075"><path id="Path_10901" data-name="Path 10901" d="M-18.6-5.5a5.66,5.66,0,0,1-3.14,2.59A7.79,7.79,0,0,1-26-3.12a9.9,9.9,0,0,1,3-2.62C-21.13-6.52-18.6-5.5-18.6-5.5Z" transform="translate(35.1 27.46)"/><path id="Path_10902" data-name="Path 10902" d="M-27.9-11.28a5.71,5.71,0,0,0-.38,4.06,7.79,7.79,0,0,0,2.56,3.44,10.08,10.08,0,0,0,.52-3.93C-25.64-9.74-27.9-11.28-27.9-11.28Z" transform="translate(35.1 27.46)"/></g><g id="Group_11076" data-name="Group 11076"><path id="Path_10903" data-name="Path 10903" d="M-15.27-9.69a5.5,5.5,0,0,1-3.48,1.95,7.54,7.54,0,0,1-4.1-.92,9.83,9.83,0,0,1,3.31-2A6.89,6.89,0,0,1-15.27-9.69Z" transform="translate(35.1 27.46)"/><path id="Path_10904" data-name="Path 10904" d="M-23.27-16.85A5.58,5.58,0,0,0-24.33-13a7.73,7.73,0,0,0,1.88,3.75,9.67,9.67,0,0,0,1.18-3.7A6.84,6.84,0,0,0-23.27-16.85Z" transform="translate(35.1 27.46)"/></g><g id="Group_11077" data-name="Group 11077"><path id="Path_10905" data-name="Path 10905" d="M-11.3-13.2A5.49,5.49,0,0,1-15-11.9a7.57,7.57,0,0,1-3.8-1.59,9.39,9.39,0,0,1,3.54-1.4A6.77,6.77,0,0,1-11.3-13.2Z" transform="translate(35.1 27.46)"/><path id="Path_10906" data-name="Path 10906" d="M-17.8-21.47a5.39,5.39,0,0,0-1.68,3.53A7.36,7.36,0,0,0-18.3-14a9.71,9.71,0,0,0,1.76-3.37A6.75,6.75,0,0,0-17.8-21.47Z" transform="translate(35.1 27.46)"/></g><g id="Group_11078" data-name="Group 11078"><path id="Path_10907" data-name="Path 10907" d="M-6.81-16a5.32,5.32,0,0,1-3.78.63A7.3,7.3,0,0,1-14-17.51a9.53,9.53,0,0,1,3.65-.75A6.64,6.64,0,0,1-6.81-16Z" transform="translate(35.1 27.46)"/><path id="Path_10908" data-name="Path 10908" d="M-11.68-25a5.34,5.34,0,0,0-2.22,3.12,7.33,7.33,0,0,0,.47,4,9.29,9.29,0,0,0,2.28-3A6.6,6.6,0,0,0-11.68-25Z" transform="translate(35.1 27.46)"/></g><g id="Group_11079" data-name="Group 11079"><path id="Path_10909" data-name="Path 10909" d="M-2-17.86a5.21,5.21,0,0,1-3.75,0,7.23,7.23,0,0,1-2.91-2.68A9,9,0,0,1-5-20.68,6.51,6.51,0,0,1-2-17.86Z" transform="translate(35.1 27.46)"/><path id="Path_10910" data-name="Path 10910" d="M-5.14-27.46a5.25,5.25,0,0,0-2.67,2.64A7.14,7.14,0,0,0-8-20.88a9.08,9.08,0,0,0,2.7-2.46A6.47,6.47,0,0,0-5.14-27.46Z" transform="translate(35.1 27.46)"/></g><path id="Path_10911" data-name="Path 10911" d="M-5-22.06a4.13,4.13,0,0,0,2.94.41A5.64,5.64,0,0,0,.49-23.41a7.15,7.15,0,0,0-2.85-.5A5.15,5.15,0,0,0-5-22.06Z" transform="translate(35.1 27.46)"/><g id="Group_11080" data-name="Group 11080"><path id="Path_10912" data-name="Path 10912" d="M18.83,38.09s-2.84,1-3.78,3.24a9.56,9.56,0,0,0-.67,5.2s2.85-1.48,3.8-3C19.52,41.36,18.83,38.09,18.83,38.09Z" transform="translate(35.1 27.46)"/><path id="Path_10913" data-name="Path 10913" d="M23.82,50.53s-2.87.88-5-.41a9.56,9.56,0,0,1-3.6-3.81s3.17-.48,4.84.2C22.45,47.47,23.82,50.53,23.82,50.53Z" transform="translate(35.1 27.46)"/></g><g id="Group_11081" data-name="Group 11081"><path id="Path_10914" data-name="Path 10914" d="M23.25,35.64s-2.57,1.43-3.1,3.78a9.33,9.33,0,0,0,.25,5.13s2.49-1.91,3.15-3.55C24.47,38.69,23.25,35.64,23.25,35.64Z" transform="translate(35.1 27.46)"/><path id="Path_10915" data-name="Path 10915" d="M30.18,46.8s-2.62,1.35-4.86.47A9.37,9.37,0,0,1,21.2,44.2s3-1,4.71-.63C28.34,44.09,30.18,46.8,30.18,46.8Z" transform="translate(35.1 27.46)"/></g><g id="Group_11082" data-name="Group 11082"><path id="Path_10916" data-name="Path 10916" d="M27.23,32.47S25,34.29,24.88,36.64A9.18,9.18,0,0,0,26,41.56s2.09-2.27,2.44-4C28.92,35.21,27.23,32.47,27.23,32.47Z" transform="translate(35.1 27.46)"/><path id="Path_10917" data-name="Path 10917" d="M35.81,42.07s-2.3,1.74-4.61,1.27a9.18,9.18,0,0,1-4.5-2.26s2.7-1.47,4.44-1.41C33.57,39.76,35.81,42.07,35.81,42.07Z" transform="translate(35.1 27.46)"/></g><g id="Group_11083" data-name="Group 11083"><path id="Path_10918" data-name="Path 10918" d="M30.6,28.63S28.74,30.77,29,33.06a8.9,8.9,0,0,0,1.9,4.55s1.62-2.54,1.68-4.24C32.7,31,30.6,28.63,30.6,28.63Z" transform="translate(35.1 27.46)"/><path id="Path_10919" data-name="Path 10919" d="M40.51,36.43s-1.92,2.07-4.23,2A9,9,0,0,1,31.55,37s2.36-1.88,4-2.12C38,34.59,40.51,36.43,40.51,36.43Z" transform="translate(35.1 27.46)"/></g><g id="Group_11084" data-name="Group 11084"><path id="Path_10920" data-name="Path 10920" d="M33.27,24.28a6.4,6.4,0,0,0-.75,4.53,8.74,8.74,0,0,0,2.61,4.07s1.13-2.73.9-4.38C35.7,26.18,33.27,24.28,33.27,24.28Z" transform="translate(35.1 27.46)"/><path id="Path_10921" data-name="Path 10921" d="M44.17,30.11a6.45,6.45,0,0,1-3.75,2.67,8.86,8.86,0,0,1-4.8-.56s2-2.22,3.54-2.73C41.39,28.77,44.17,30.11,44.17,30.11Z" transform="translate(35.1 27.46)"/></g><g id="Group_11085" data-name="Group 11085"><path id="Path_10922" data-name="Path 10922" d="M35.12,19.54a6.24,6.24,0,0,0,0,4.5,8.66,8.66,0,0,0,3.22,3.49,11.14,11.14,0,0,0,.12-4.38C37.78,21,35.12,19.54,35.12,19.54Z" transform="translate(35.1 27.46)"/><path id="Path_10923" data-name="Path 10923" d="M46.62,23.32a6.19,6.19,0,0,1-3.16,3.21,8.66,8.66,0,0,1-4.73.28,11,11,0,0,1,3-3.24C43.71,22.5,46.62,23.32,46.62,23.32Z" transform="translate(35.1 27.46)"/></g><g id="Group_11086" data-name="Group 11086"><path id="Path_10924" data-name="Path 10924" d="M36.13,14.58a6.12,6.12,0,0,0,.81,4.34,8.51,8.51,0,0,0,3.7,2.82A10.77,10.77,0,0,0,40,17.49C39,15.5,36.13,14.58,36.13,14.58Z" transform="translate(35.1 27.46)"/><path id="Path_10925" data-name="Path 10925" d="M47.89,16.27a6.15,6.15,0,0,1-2.51,3.63A8.4,8.4,0,0,1,40.86,21a10.53,10.53,0,0,1,2.3-3.62C44.93,16,47.89,16.27,47.89,16.27Z" transform="translate(35.1 27.46)"/></g><g id="Group_11087" data-name="Group 11087"><path id="Path_10926" data-name="Path 10926" d="M36.27,9.49a6,6,0,0,0,1.53,4,8.27,8.27,0,0,0,4,2.09,10.51,10.51,0,0,0-1.33-4C39.15,9.9,36.27,9.49,36.27,9.49Z" transform="translate(35.1 27.46)"/><path id="Path_10927" data-name="Path 10927" d="M47.9,9.11a6,6,0,0,1-1.8,3.94,8.31,8.31,0,0,1-4.18,1.8A10.62,10.62,0,0,1,43.52,11C45,9.33,47.9,9.11,47.9,9.11Z" transform="translate(35.1 27.46)"/></g><g id="Group_11088" data-name="Group 11088"><path id="Path_10928" data-name="Path 10928" d="M35.55,4.28a5.86,5.86,0,0,0,2.16,3.65A8.17,8.17,0,0,0,42,9.26a10.52,10.52,0,0,0-2-3.63C38.39,4.19,35.55,4.28,35.55,4.28Z" transform="translate(35.1 27.46)"/><path id="Path_10929" data-name="Path 10929" d="M46.7,1.94A5.86,5.86,0,0,1,45.64,6,8.18,8.18,0,0,1,41.91,8.5a10.19,10.19,0,0,1,.89-4C43.94,2.64,46.7,1.94,46.7,1.94Z" transform="translate(35.1 27.46)"/></g><g id="Group_11089" data-name="Group 11089"><path id="Path_10930" data-name="Path 10930" d="M33.91-.79a5.77,5.77,0,0,0,2.7,3.15A8,8,0,0,0,41,2.92,10.15,10.15,0,0,0,38.44-.24C36.64-1.37,33.91-.79,33.91-.79Z" transform="translate(35.1 27.46)"/><path id="Path_10931" data-name="Path 10931" d="M44.28-4.95A5.76,5.76,0,0,1,44-.81a7.92,7.92,0,0,1-3.18,3,10.19,10.19,0,0,1,.17-4C41.74-3.81,44.28-4.95,44.28-4.95Z" transform="translate(35.1 27.46)"/></g><g id="Group_11090" data-name="Group 11090"><path id="Path_10932" data-name="Path 10932" d="M31.39-5.5a5.72,5.72,0,0,0,3.15,2.59,7.79,7.79,0,0,0,4.28-.21,9.9,9.9,0,0,0-3-2.62C33.93-6.52,31.39-5.5,31.39-5.5Z" transform="translate(35.1 27.46)"/><path id="Path_10933" data-name="Path 10933" d="M40.7-11.28a5.71,5.71,0,0,1,.38,4.06,7.85,7.85,0,0,1-2.55,3.44A9.91,9.91,0,0,1,38-7.71C38.44-9.74,40.7-11.28,40.7-11.28Z" transform="translate(35.1 27.46)"/></g><g id="Group_11091" data-name="Group 11091"><path id="Path_10934" data-name="Path 10934" d="M28.07-9.69a5.52,5.52,0,0,0,3.48,1.95,7.54,7.54,0,0,0,4.1-.92,9.83,9.83,0,0,0-3.31-2A6.9,6.9,0,0,0,28.07-9.69Z" transform="translate(35.1 27.46)"/><path id="Path_10935" data-name="Path 10935" d="M36.07-16.85A5.58,5.58,0,0,1,37.13-13a7.73,7.73,0,0,1-1.88,3.75,9.67,9.67,0,0,1-1.18-3.7A6.84,6.84,0,0,1,36.07-16.85Z" transform="translate(35.1 27.46)"/></g><g id="Group_11092" data-name="Group 11092"><path id="Path_10936" data-name="Path 10936" d="M24.1-13.2a5.49,5.49,0,0,0,3.69,1.3,7.57,7.57,0,0,0,3.8-1.59,9.39,9.39,0,0,0-3.54-1.4A6.77,6.77,0,0,0,24.1-13.2Z" transform="translate(35.1 27.46)"/><path id="Path_10937" data-name="Path 10937" d="M30.6-21.47a5.39,5.39,0,0,1,1.68,3.53A7.36,7.36,0,0,1,31.1-14a9.38,9.38,0,0,1-1.76-3.37A6.75,6.75,0,0,1,30.6-21.47Z" transform="translate(35.1 27.46)"/></g><g id="Group_11093" data-name="Group 11093"><path id="Path_10938" data-name="Path 10938" d="M19.61-16a5.32,5.32,0,0,0,3.78.63,7.25,7.25,0,0,0,3.4-2.18,9.53,9.53,0,0,0-3.65-.75A6.67,6.67,0,0,0,19.61-16Z" transform="translate(35.1 27.46)"/><path id="Path_10939" data-name="Path 10939" d="M24.48-25a5.34,5.34,0,0,1,2.22,3.12,7.35,7.35,0,0,1-.47,4,9.43,9.43,0,0,1-2.28-3A6.6,6.6,0,0,1,24.48-25Z" transform="translate(35.1 27.46)"/></g><g id="Group_11094" data-name="Group 11094"><path id="Path_10940" data-name="Path 10940" d="M14.79-17.86a5.21,5.21,0,0,0,3.75,0,7.23,7.23,0,0,0,2.91-2.68,9,9,0,0,0-3.65-.1A6.48,6.48,0,0,0,14.79-17.86Z" transform="translate(35.1 27.46)"/><path id="Path_10941" data-name="Path 10941" d="M17.93-27.46a5.23,5.23,0,0,1,2.68,2.64,7,7,0,0,1,.23,3.94,9.32,9.32,0,0,1-2.7-2.46A6.61,6.61,0,0,1,17.93-27.46Z" transform="translate(35.1 27.46)"/></g><path id="Path_10942" data-name="Path 10942" d="M17.84-22.06a4.12,4.12,0,0,1-2.94.41,5.64,5.64,0,0,1-2.59-1.76,7.09,7.09,0,0,1,2.85-.5A5.15,5.15,0,0,1,17.84-22.06Z" transform="translate(35.1 27.46)"/></g></g></g></svg>