<svg id="Layer_1" data-name="Layer 1" xmlns="http://www.w3.org/2000/svg" viewBox="0 0 314.96 316.15"><title>quickacnescan</title><g id="quickacnescan"><rect id="Rectangle_2231" data-name="Rectangle 2231" width="314.6" height="314.6" fill="#f1f9ff"/><g id="Group_11072" data-name="Group 11072"><path id="Path_10602" data-name="Path 10602" d="M123.45,123.43a25,25,0,0,0,1.65,3.79c.26.5.52,1,.77,1.51.35.69.7,1.39,1,2.11v-7.37A20.55,20.55,0,0,1,123.45,123.43Zm72.42-89.72H134c-7.27,0-13.15,6.24-13.15,13.94V192.93c0,.22,0,.45,0,.67a.92.92,0,0,0,0,.16c0,.1,0,.2,0,.3a2.06,2.06,0,0,0,0,.26s0,0,0,.06c0,.22,0,.44.08.67s0,.32.08.48,0,.31.09.47a.24.24,0,0,0,0,.08c0,.14.06.29.1.44l.15.55c.06.18.1.35.16.52a1,1,0,0,1,.07.18c0,.16.11.31.17.47a14.75,14.75,0,0,0,1,2,10.68,10.68,0,0,0,.65,1,12.57,12.57,0,0,0,1.61,1.89l.44.42.46.39a9.27,9.27,0,0,0,.8.6l.36.25c.14.09.28.18.43.26s.3.18.46.26.33.18.51.26a.15.15,0,0,0,.07,0,5.4,5.4,0,0,0,.49.23l.41.17c.13,0,.25.1.39.14s.24.09.37.12l.67.19.55.13a10.47,10.47,0,0,0,1.25.19,10.87,10.87,0,0,0,1.28.06h61.91c6.94,0,12.61-5.65,13.13-12.83,0-.12,0-.23,0-.35h0c0-.24,0-.47,0-.71V47.65C209,40,203.15,33.71,195.87,33.71ZM203,184.57H126.87V56H203Zm-79.54-61.14a26,26,0,0,0,1.65,3.79c.26.5.52,1,.77,1.51.35.69.7,1.39,1,2.11v-7.37a20.55,20.55,0,0,1-3.42,0Z" transform="translate(0.6 0.26)" fill="#333" stroke="#c9393d"/><rect id="Rectangle_2232" data-name="Rectangle 2232" x="123.89" y="56.28" width="83.81" height="128.55" fill="#ccc" stroke="#c9393d"/><path id="Path_10603" data-name="Path 10603" d="M267,218.73,187.93,263c-.19-.31-.39-.63-.57-1-.14-.2-.26-.42-.41-.65-2.06-3.44-4.09-6.59-6.9-10.64-.85-1.24-1.76-2.51-2.77-3.93-9.8-6.54-13.07-8.74-22.65-17.14C148.15,224,141,214.46,136.78,207h59.1c7.27,0,13.16-6.23,13.16-13.92V135.61a34.25,34.25,0,0,1,5,4.53c-.44-2-.22-4.41-.34-6.51s-.57-4-.81-6.08c-.36-2.55.47-4.9-.83-7.2a38.89,38.89,0,0,1-2.89-5.95v.38c-3.58-7.14-3.36-31.59-.08-35.74a.5.5,0,0,1,.1-.14,5.66,5.66,0,0,1,4-2.56,7.15,7.15,0,0,1,4.59.65v0c3.26,1.7,4.84,6.12,6,10.85,1.3,5.4,2,11.25,3.89,14.19,4,5.83,8.64,10.26,10.28,17.26a85.28,85.28,0,0,0,5.34,16.58c1.42,4,1.89,7.69,4,11.19,1.88,3,2,6.88,2.45,10.39.71,6.06,1.3,13.78,1.3,17.38-.19,4.27.8,8.54,1.67,12.69.17.89.35,1.78.57,2.65v.07C255.55,200.54,261.23,210.11,267,218.73Z" transform="translate(0.6 0.26)" fill="#fad9b7" stroke="#c9393d"/><g id="Group_11059" data-name="Group 11059"><path id="Path_10604" data-name="Path 10604" d="M313.86,272.19v43.19H196.76l-23.33-54.27,9.82-5.68h0l78.33-45.28h0L272.21,204Z" transform="translate(0.6 0.26)" fill="#333" stroke="#c9393d"/></g><path id="Path_10605" data-name="Path 10605" d="M195,45a3.38,3.38,0,1,1-3.38-3.37A3.38,3.38,0,0,1,195,45Z" transform="translate(0.6 0.26)" fill="#999" stroke="#c9393d"/><g id="Group_11060" data-name="Group 11060"><rect id="Rectangle_2233" data-name="Rectangle 2233" x="142.01" y="159.28" width="43.93" height="24.08" fill="#9aff8a" stroke="#c9393d"/></g><g id="Group_11061" data-name="Group 11061"><path id="Path_10606" data-name="Path 10606" d="M150.38,136a4.6,4.6,0,0,1-3.29-.7c-2.93-1.74-5.48-6.33-6.35-12.05-5.1-34-55.1-4.56,5.39-15.42a3.06,3.06,0,0,1,1.13,0,2.16,2.16,0,0,1,.66.1,5.93,5.93,0,0,1,2.61,1.43c2.44,2.13,4.48,6.26,5.23,11.24C156.94,128.35,154.51,135.25,150.38,136Z" transform="translate(0.6 0.26)" fill="#fad9b7" stroke="#c9393d"/></g><g id="Group_11062" data-name="Group 11062"><path id="Path_10607" data-name="Path 10607" d="M203.35,115.88a66.53,66.53,0,0,1-1.45,13.92c-4.65,22.35-20.31,38.78-38.89,38.78s-34.47-16.71-39-39.32a69.13,69.13,0,0,1-1.32-13.38,67.65,67.65,0,0,1,1.49-14.12,11.78,11.78,0,0,1,.29-1.31c.11.46.24,1,.37,1.41a5.93,5.93,0,0,1,2.61,1.43c-1.25-5,2.44-13.8,5.33-18.11,4-6.07,10.62-7.23,17.26-8.69,8.75-1.46,16.71-2.62,25.47-2.62,6.1,0,8.49.88,13.52,4.36-2.14,7.76,4.19,19.64,10.28,25.41A6.73,6.73,0,0,1,201.9,102a27.86,27.86,0,0,1,.53,2.87A65,65,0,0,1,203.35,115.88Z" transform="translate(0.6 0.26)" fill="#9aff8a" stroke="#c9393d"/></g><g id="Group_11063" data-name="Group 11063"><path id="Path_10608" data-name="Path 10608" d="M204.21,101.83a.33.33,0,0,0-.15,0,4.18,4.18,0,0,0-2.16.16,7,7,0,0,0-2.61,1.69C193.2,97.87,186.86,86,189,78.23c-5-3.48-7.43-4.36-13.53-4.36-8.76,0-16.72,1.17-25.46,2.62-6.65,1.46-13.29,2.62-17.27,8.69-2.88,4.31-6.58,13.16-5.32,18.11a11.47,11.47,0,0,0-3.9-1.51c-.13-.45.34-2.38.16-3.24-.62-3-.25-2.45-.23-4.24,0-3.76-.13-3.74-.13-6.63a15.68,15.68,0,0,1,2.31-8c8.77-13.9,19.93-23.16,35.57-23.16,12.74,0,29.24,7.38,29.16,18.09,4.25-1.4,6.71.55,8.76,3,3.62,4.31,4.13,5.35,4.93,9.13C204.83,94.66,205.08,96.12,204.21,101.83Z" transform="translate(0.6 0.26)" fill="#7a4c23" stroke="#c9393d"/></g><g id="Group_11064" data-name="Group 11064"><path id="Path_10609" data-name="Path 10609" d="M135.78,110.46a11.11,11.11,0,0,1-13.45,8.12h0L105,114.29a11.11,11.11,0,0,1-8.11-13.45h0a11.1,11.1,0,0,1,13.44-8.12h0L127.66,97a11.11,11.11,0,0,1,8.12,13.45Z" transform="translate(0.6 0.26)" fill="#fad9b7" stroke="#c9393d"/><path id="Path_10610" data-name="Path 10610" d="M124.86,132.27c1.77,4-.28,8.73-4.58,10.65l-.61.28c-4.3,1.93-9.22.28-11-3.68l-4.78-10.66c-1.77-4,.27-8.74,4.58-10.66l.6-.28c4.31-1.92,9.23-.27,11,3.68Z" transform="translate(0.6 0.26)" fill="#fad9b7" stroke="#c9393d"/><path id="Path_10611" data-name="Path 10611" d="M121.19,171.4l-.13.06-.26-.5v.62h0a10.67,10.67,0,0,1-4.61,1.07,8.28,8.28,0,0,1-7.52-4.22l-.36-.68-5.5-10.54A7.47,7.47,0,0,1,102,153c0-.13,0-.27.05-.41s0-.25.07-.39a.5.5,0,0,1,0-.12h0c0-.19.09-.38.14-.56v0c0-.12.07-.24.11-.37s.09-.25.14-.38a8.93,8.93,0,0,1,.89-1.74,10.85,10.85,0,0,1,4.13-3.74,11,11,0,0,1,4.74-1.26h0a4.73,4.73,0,0,0,.65,0h.33a8.11,8.11,0,0,1,6.78,4.18l.69,1.34,5.16,9.88C128.11,163.53,126,168.9,121.19,171.4Z" transform="translate(0.6 0.26)" fill="#fad9b7" stroke="#c9393d"/><path id="Path_10612" data-name="Path 10612" d="M120.8,189.29h0l-.15.09a10.08,10.08,0,0,1-4.65,1.17,7,7,0,0,1-6.35-3.46l-4.94-9.49a6.38,6.38,0,0,1-.33-4.94c0-.1.06-.21.1-.31a4.83,4.83,0,0,1,.25-.58c0-.12.12-.25.18-.38l.23-.42a9.54,9.54,0,0,1,3.15-3.2h0l.36.68a8.24,8.24,0,0,0,7.52,4.22,10.76,10.76,0,0,0,4.63-1.07v0h0V171l.26.5,4,7.61C126.81,182.5,124.93,187,120.8,189.29Z" transform="translate(0.6 0.26)" fill="#fad9b7" stroke="#c9393d"/></g><path id="Path_10613" data-name="Path 10613" d="M181,45a1.61,1.61,0,0,1-1.61,1.61H151a1.61,1.61,0,0,1-1.6-1.61h0a1.61,1.61,0,0,1,1.6-1.61h28.32A1.61,1.61,0,0,1,181,45Z" transform="translate(0.6 0.26)" fill="#ccc" stroke="#c9393d"/><path id="Path_10614" data-name="Path 10614" d="M216.55,194.07c-2.13,10-3.81,10.92-7.51,15.07-11.2,12.58-57,5.08-69.23,2.82-1.11-1.7-2.14-3.37-3-5h59.1c6.65,0,12.15-5.22,13-12,0-.22,0-.44.07-.66s0-.46.05-.7a5.43,5.43,0,0,0,0-.57V135.61a19.85,19.85,0,0,1,2.81,2.36S218,187.38,216.55,194.07Z" transform="translate(0.6 0.26)" fill="#8a8a8a" stroke="#c9393d" opacity="0.25" style="isolation:isolate"/><g id="Group_11065" data-name="Group 11065" opacity="0.38"><path id="Path_10615" data-name="Path 10615" d="M207.1,85.78a91,91,0,0,0,0,20.73,28.76,28.76,0,0,0,1.94,8.11v3.93a15.07,15.07,0,0,1-1.94-2.34c-2.42-3.51-3.67-8.14-4.11-13V94.49c.55-6.49,2.21-12.38,4.11-15.4a5.08,5.08,0,0,1,1.94-2V79C208.18,80.12,207.53,82.59,207.1,85.78Z" transform="translate(0.6 0.26)" fill="#728184" stroke="#c9393d"/></g><g id="Group_11066" data-name="Group 11066" opacity="0.29"><path id="Path_10616" data-name="Path 10616" d="M137.25,118.42c-2.21,3.29-6.3,4.78-10.38,5a21.69,21.69,0,0,1-3.42,0c.87,2.71,2.38,4.93,3.42,7.42a13.79,13.79,0,0,1,1.14,4.69,6.65,6.65,0,0,1-1.14,4.15,10.61,10.61,0,0,1-3.58,3.18,16.26,16.26,0,0,1-2.5,1.17v-1.36a9,9,0,0,0,2.5-1.92,7.85,7.85,0,0,0,1.56-8.49l-1.56-3.49-2.5-5.57v-5l1.54.37c.32.08.64.14,1,.2a10.76,10.76,0,0,0,3.58,0,11.07,11.07,0,0,0,8.91-8.29,10.85,10.85,0,0,0,0-5.13C138.83,108.51,139.45,114.93,137.25,118.42Z" transform="translate(0.6 0.26)" fill="#728184" stroke="#c9393d"/></g><g id="Group_11067" data-name="Group 11067" opacity="0.29"><path id="Path_10617" data-name="Path 10617" d="M126.87,169.83a7.36,7.36,0,0,1-.46.88,8.79,8.79,0,0,1-3.12,3.06l-.77.47-1.46-2.78.13-.07a11.81,11.81,0,0,0,2.1-1.4,9.77,9.77,0,0,0,3.41-5.93c.06.13.12.25.17.37A6.64,6.64,0,0,1,126.87,169.83Z" transform="translate(0.6 0.26)" fill="#728184" stroke="#c9393d"/></g><g id="Group_11068" data-name="Group 11068" opacity="0.29"><path id="Path_10618" data-name="Path 10618" d="M120.84,194.07a10.75,10.75,0,0,1,0-1.14v-3.65a9.56,9.56,0,0,0,4.36-4.71h.34C126.76,188.17,124.22,191.86,120.84,194.07Z" transform="translate(0.6 0.26)" fill="#728184" stroke="#c9393d"/></g><g id="Group_11069" data-name="Group 11069" opacity="0.25"><path id="Path_10619" data-name="Path 10619" d="M261.59,210.16l-78.34,45.27-1.91-2.85c7.09-6.09,14.69-11.66,22.1-17.14,11.24-8.29,22.74-14.44,35.31-20.6,5.77-2.7,13.72-5.52,20.17-9.53C259.76,207,260.66,208.57,261.59,210.16Z" transform="translate(0.6 0.26)" fill="#8a8a8a" stroke="#c9393d"/></g><g id="Group_11071" data-name="Group 11071"><g id="Group_11070" data-name="Group 11070"><circle id="Ellipse_3266" data-name="Ellipse 3266" cx="151.51" cy="107.16" r="11.45" fill="#fff" stroke="#c9393d"/><circle id="Ellipse_3267" data-name="Ellipse 3267" cx="180.08" cy="107.16" r="11.45" fill="#fff" stroke="#c9393d"/><circle id="Ellipse_3268" data-name="Ellipse 3268" cx="151.51" cy="107.16" r="7.95" fill="#8c6239" stroke="#c9393d"/><circle id="Ellipse_3269" data-name="Ellipse 3269" cx="180.08" cy="107.16" r="7.95" fill="#8c6239" stroke="#c9393d"/><path id="Path_10620" data-name="Path 10620" d="M158.06,106.89a7.16,7.16,0,1,1-14.31,0c0-4,3.21,3.57,7.16,3.57S158.06,102.94,158.06,106.89Z" transform="translate(0.6 0.26)" fill="#dba756" stroke="#c9393d" opacity="0.4" style="isolation:isolate"/><path id="Path_10621" data-name="Path 10621" d="M186.64,106.89a7.16,7.16,0,1,1-14.31,0c0-4,3.21,3.57,7.16,3.57S186.64,102.94,186.64,106.89Z" transform="translate(0.6 0.26)" fill="#dba756" stroke="#c9393d" opacity="0.4" style="isolation:isolate"/><circle id="Ellipse_3270" data-name="Ellipse 3270" cx="151.51" cy="107.16" r="5.79" fill="#1a1a1a" stroke="#c9393d"/><circle id="Ellipse_3271" data-name="Ellipse 3271" cx="180.08" cy="107.16" r="5.79" fill="#1a1a1a" stroke="#c9393d"/><circle id="Ellipse_3272" data-name="Ellipse 3272" cx="154.18" cy="104.88" r="0.88" fill="#fff" stroke="#c9393d"/><circle id="Ellipse_3273" data-name="Ellipse 3273" cx="182.76" cy="104.88" r="0.88" fill="#fff" stroke="#c9393d"/><path id="Path_10622" data-name="Path 10622" d="M156.07,91.93a19.25,19.25,0,0,0-12.64,2.61,1.3,1.3,0,0,1-1.7-.16h0a1.24,1.24,0,0,1,.42-1.71h0a22.21,22.21,0,0,1,14.22-4.41c2.37.08,4.21,1.5,3.85,2.58h0C159.87,91.91,158,92.18,156.07,91.93Z" transform="translate(0.6 0.26)" fill="#1a1a1a" stroke="#c9393d"/><path id="Path_10623" data-name="Path 10623" d="M174.32,91.93A19.25,19.25,0,0,1,187,94.54a1.3,1.3,0,0,0,1.7-.16h0a1.25,1.25,0,0,0-.42-1.72h0A22.24,22.24,0,0,0,174,88.25c-2.36.08-4.21,1.5-3.84,2.58h0C170.52,91.91,172.43,92.18,174.32,91.93Z" transform="translate(0.6 0.26)" fill="#1a1a1a" stroke="#c9393d"/></g><path id="Path_10624" data-name="Path 10624" d="M160.73,87.07s2.81,4-.4,5.22C164.48,92.42,163,88.27,160.73,87.07Z" transform="translate(0.6 0.26)" fill="#dba756" stroke="#c9393d"/></g><path id="Path_10627" data-name="Path 10627" d="M175.73,138.2a41.27,41.27,0,0,1-11.33,1.41,37.25,37.25,0,0,1-12-1.66c-.53-.17-.82.9-.52,1.51,1,2,5.76,10.67,12.63,10.69s11-9.39,11.69-10.89C176.38,139,176.19,138.06,175.73,138.2Z" transform="translate(0.6 0.26)" fill="#f45540" stroke="#c9393d"/><path id="Path_10628" data-name="Path 10628" d="M175.73,138.18a37.5,37.5,0,0,1-11.32,1c-4.13-.1-7.91,0-12-1.21-.54-.17-.83.85-.53,1.42,1,1.86,5.77,10,12.64,10.07s11-8.85,11.68-10.26C176.38,138.89,176.19,138.06,175.73,138.18Z" transform="translate(0.6 0.26)" fill="#ff9769" stroke="#c9393d"/><path id="Path_10629" data-name="Path 10629" d="M175.25,138.61A43.17,43.17,0,0,1,164.4,140a35.8,35.8,0,0,1-11.75-1.81c-.35-.12-.44,1-.28,1.34.84,1.77,5.44,8.46,12,8.47s10.67-7.12,11.32-8.42C175.86,139.33,175.69,138.49,175.25,138.61Z" transform="translate(0.6 0.26)" fill="#f45540" stroke="#c9393d"/><path id="Path_10630" data-name="Path 10630" d="M175.3,139.08a.38.38,0,0,0-.45-.23c-6.64,1.72-13.38,2.38-21.61-.32a.41.41,0,0,0-.49.2h0a1.1,1.1,0,0,0,0,1c1.14,2.08,5.28,8,11.54,8.06,6.72,0,10.2-6.43,11-8a1,1,0,0,0,0-.71Z" transform="translate(0.6 0.26)" fill="#3f322d" stroke="#c9393d"/><path id="Path_10631" data-name="Path 10631" d="M172.6,142.1a4.72,4.72,0,0,0,1.61-1.3,2.11,2.11,0,0,0,.47-1.32.17.17,0,0,0-.07-.15.18.18,0,0,0-.16,0,38.15,38.15,0,0,1-20.87-.29.21.21,0,0,0-.19,0,.26.26,0,0,0-.09.16,1.89,1.89,0,0,0,.37,1.42,13.51,13.51,0,0,0,1.78,1.33,3.88,3.88,0,0,0,.59,1.77,12.46,12.46,0,0,0,8.27,3.58,11.63,11.63,0,0,0,8.25-3.85A2.44,2.44,0,0,0,172.6,142.1Z" transform="translate(0.6 0.26)" fill="#fffeee" stroke="#c9393d"/><path id="Path_10633" data-name="Path 10633" d="M164.47,146.9c-3.49,0-7.66-2.15-8.86-4.16a5.12,5.12,0,0,0,.38,1,12.72,12.72,0,0,0,8.35,3.64,11.72,11.72,0,0,0,8.27-3.91,1.68,1.68,0,0,0,.06-.74C172.27,144,168,146.9,164.47,146.9Z" transform="translate(0.6 0.26)" fill="#f2d5b1" stroke="#c9393d"/><path id="Path_10634" data-name="Path 10634" d="M153.5,139.69a38.09,38.09,0,0,0,20.88.29s.07.36.11.38a2.44,2.44,0,0,0,.19-.88.19.19,0,0,0-.06-.15.2.2,0,0,0-.16,0,38.18,38.18,0,0,1-20.88-.29.22.22,0,0,0-.19,0,.26.26,0,0,0-.09.16,3.53,3.53,0,0,0,.07.86S153.46,139.68,153.5,139.69Z" transform="translate(0.6 0.26)" fill="#f2d5b1" stroke="#c9393d"/><path id="Path_10636" data-name="Path 10636" d="M168.46,127.48c-2.87-4.94-2-12.64-4.41-12.64s-1.55,7.7-4.42,12.64S171.33,132.42,168.46,127.48Z" transform="translate(0.6 0.26)" fill="#c55640" stroke="#c9393d"/><path id="Path_10637" data-name="Path 10637" d="M170.94,129.4c-1.12,2.41-8.14,2.41-9.27,0" transform="translate(0.6 0.26)" fill="#923e2c" stroke="#c9393d"/></g><ellipse id="Ellipse_3274" data-name="Ellipse 3274" cx="185.44" cy="142.78" rx="1.8" ry="2.37" fill="#ff2e34" stroke="#c9393d" stroke-miterlimit="10"/><ellipse id="Ellipse_3275" data-name="Ellipse 3275" cx="186.74" cy="137.56" rx="1.3" ry="1.69" fill="#ff2e34" stroke="#c9393d" stroke-miterlimit="10"/><ellipse id="Ellipse_3276" data-name="Ellipse 3276" cx="199.28" cy="132.44" rx="0.52" ry="1.61" fill="#ff2e34" stroke="#c9393d" stroke-miterlimit="10"/><ellipse id="Ellipse_3277" data-name="Ellipse 3277" cx="196.22" cy="120.76" rx="0.96" ry="1.59" fill="#ff2e34" stroke="#c9393d" stroke-miterlimit="10"/><ellipse id="Ellipse_3278" data-name="Ellipse 3278" cx="140.08" cy="132.32" rx="0.91" ry="0.86" fill="#ff2e34" stroke="#c9393d" stroke-miterlimit="10"/><ellipse id="Ellipse_3279" data-name="Ellipse 3279" cx="162.6" cy="83.89" rx="1.67" ry="1.05" fill="#ff2e34" stroke="#c9393d" stroke-miterlimit="10"/><ellipse id="Ellipse_3280" data-name="Ellipse 3280" cx="167.83" cy="100.29" rx="0.81" ry="1.08" fill="#ff2e34" stroke="#c9393d" stroke-miterlimit="10"/><ellipse id="Ellipse_3281" data-name="Ellipse 3281" cx="178.56" cy="82.49" rx="2.19" ry="1.4" fill="#ff2e34" stroke="#c9393d" stroke-miterlimit="10"/><ellipse id="Ellipse_3282" data-name="Ellipse 3282" cx="144.08" cy="152.98" rx="1.63" ry="3.28" fill="#ff2e34" stroke="#c9393d" stroke-miterlimit="10"/><ellipse id="Ellipse_3283" data-name="Ellipse 3283" cx="164.45" cy="153.65" rx="1.34" ry="0.68" fill="#ff2e34" stroke="#c9393d" stroke-miterlimit="10"/><line id="Line_75" data-name="Line 75" x1="144.08" y1="152.98" x2="69.42" y2="179.91" fill="none" stroke="#c9393d" stroke-miterlimit="10" stroke-width="5"/><line id="Line_76" data-name="Line 76" x1="158.95" y1="159.77" x2="113.9" y2="239.77" fill="none" stroke="#00ff4c" stroke-miterlimit="10" stroke-width="5"/><g id="Group"><g id="REDNESS_-" data-name="REDNESS -" style="isolation:isolate"><g style="isolation:isolate"><path d="M24.53,186a8.33,8.33,0,0,1,1.51-.13,2.47,2.47,0,0,1,1.77.5,1.5,1.5,0,0,1,.48,1.16,1.6,1.6,0,0,1-1.15,1.55v0a1.53,1.53,0,0,1,.9,1.23,8.49,8.49,0,0,0,.47,1.67h-.82a8.3,8.3,0,0,1-.41-1.45c-.18-.84-.5-1.16-1.22-1.19h-.74V192h-.79Zm.79,2.77h.81c.84,0,1.37-.46,1.37-1.15s-.57-1.13-1.4-1.14a3.12,3.12,0,0,0-.78.07Z" transform="translate(0.6 0.26)"/><path d="M32.56,189.15H30.19v2.2h2.64V192H29.4v-6.09h3.29v.66h-2.5v1.92h2.37Z" transform="translate(0.6 0.26)"/><path d="M33.85,186a10.3,10.3,0,0,1,1.67-.13,3.5,3.5,0,0,1,2.48.76,2.81,2.81,0,0,1,.85,2.19,3.23,3.23,0,0,1-.87,2.37,3.76,3.76,0,0,1-2.7.88,14.21,14.21,0,0,1-1.43-.07Zm.79,5.39a4.6,4.6,0,0,0,.79,0,2.34,2.34,0,0,0,2.6-2.58,2.18,2.18,0,0,0-2.47-2.36,4,4,0,0,0-.92.09Z" transform="translate(0.6 0.26)"/><path d="M39.88,192v-6.09h.85l2,3.08a18.48,18.48,0,0,1,1.09,2h0c-.07-.81-.09-1.55-.09-2.5v-2.55h.74V192h-.79l-1.94-3.09a21.11,21.11,0,0,1-1.14-2h0c.05.77.07,1.5.07,2.52V192Z" transform="translate(0.6 0.26)"/><path d="M49,189.15H46.61v2.2h2.65V192H45.83v-6.09h3.29v.66H46.61v1.92H49Z" transform="translate(0.6 0.26)"/><path d="M50.17,191.05a2.76,2.76,0,0,0,1.41.4c.81,0,1.28-.42,1.28-1s-.33-.89-1.15-1.21c-1-.35-1.61-.87-1.61-1.73a1.75,1.75,0,0,1,2-1.65,2.85,2.85,0,0,1,1.35.29l-.22.65a2.43,2.43,0,0,0-1.16-.29c-.83,0-1.15.49-1.15.91,0,.57.37.85,1.22,1.18,1,.4,1.55.89,1.55,1.79s-.69,1.75-2.13,1.75a3.14,3.14,0,0,1-1.56-.39Z" transform="translate(0.6 0.26)"/><path d="M54.63,191.05a2.76,2.76,0,0,0,1.41.4c.81,0,1.28-.42,1.28-1s-.33-.89-1.15-1.21c-1-.35-1.61-.87-1.61-1.73a1.75,1.75,0,0,1,2-1.65,2.85,2.85,0,0,1,1.35.29l-.22.65a2.43,2.43,0,0,0-1.16-.29c-.83,0-1.15.49-1.15.91,0,.57.37.85,1.22,1.18,1,.4,1.55.89,1.55,1.79s-.7,1.75-2.13,1.75a3.14,3.14,0,0,1-1.56-.39Z" transform="translate(0.6 0.26)"/><path d="M62.93,189.27v.59H60.7v-.59Z" transform="translate(0.6 0.26)"/></g></g><g id="represents_acne_" data-name="represents acne " style="isolation:isolate"><g style="isolation:isolate"><path d="M14.47,201.67c0-.52,0-1,0-1.37h.69l0,.86h0a1.31,1.31,0,0,1,1.21-1,.85.85,0,0,1,.23,0V201a1.2,1.2,0,0,0-.28,0,1.11,1.11,0,0,0-1.06,1,2.1,2.1,0,0,0,0,.37v2.34h-.79Z" transform="translate(0.6 0.26)"/><path d="M17.78,202.63a1.41,1.41,0,0,0,1.51,1.52,3,3,0,0,0,1.21-.22l.13.57a3.65,3.65,0,0,1-1.45.27A2,2,0,0,1,17,202.56a2.13,2.13,0,0,1,2.06-2.36,1.86,1.86,0,0,1,1.81,2.06,2.73,2.73,0,0,1,0,.37Zm2.34-.57A1.14,1.14,0,0,0,19,200.77a1.33,1.33,0,0,0-1.22,1.29Z" transform="translate(0.6 0.26)"/><path d="M21.87,201.73c0-.56,0-1,0-1.43h.71l0,.75h0a1.75,1.75,0,0,1,1.56-.85A2,2,0,0,1,26,202.42a2.08,2.08,0,0,1-2,2.36,1.55,1.55,0,0,1-1.35-.69h0v2.38h-.79Zm.79,1.17a1.65,1.65,0,0,0,0,.32,1.22,1.22,0,0,0,1.19.93c.84,0,1.33-.69,1.33-1.69s-.46-1.63-1.3-1.63a1.28,1.28,0,0,0-1.21,1,1.77,1.77,0,0,0-.05.32Z" transform="translate(0.6 0.26)"/><path d="M27,201.67c0-.52,0-1,0-1.37h.7l0,.86h0a1.32,1.32,0,0,1,1.22-1,.73.73,0,0,1,.22,0V201a1.06,1.06,0,0,0-.27,0,1.12,1.12,0,0,0-1.07,1,2.13,2.13,0,0,0,0,.37v2.34H27Z" transform="translate(0.6 0.26)"/><path d="M30.33,202.63a1.4,1.4,0,0,0,1.5,1.52,3,3,0,0,0,1.21-.22l.14.57a3.67,3.67,0,0,1-1.46.27,2,2,0,0,1-2.15-2.21,2.13,2.13,0,0,1,2.05-2.36,1.86,1.86,0,0,1,1.81,2.06,3.12,3.12,0,0,1,0,.37Zm2.33-.57a1.13,1.13,0,0,0-1.1-1.29,1.32,1.32,0,0,0-1.22,1.29Z" transform="translate(0.6 0.26)"/><path d="M34.31,203.86a2,2,0,0,0,1,.32c.58,0,.85-.29.85-.65s-.23-.59-.81-.81c-.79-.28-1.16-.71-1.16-1.24a1.35,1.35,0,0,1,1.51-1.28,2.28,2.28,0,0,1,1.08.27l-.2.58a1.73,1.73,0,0,0-.9-.25c-.47,0-.73.27-.73.59s.26.53.83.74c.76.29,1.15.67,1.15,1.33s-.6,1.31-1.64,1.31a2.51,2.51,0,0,1-1.23-.3Z" transform="translate(0.6 0.26)"/><path d="M38.44,202.63A1.41,1.41,0,0,0,40,204.15a3,3,0,0,0,1.21-.22l.13.57a3.65,3.65,0,0,1-1.45.27,2,2,0,0,1-2.16-2.21,2.13,2.13,0,0,1,2.06-2.36,1.86,1.86,0,0,1,1.81,2.06,2.73,2.73,0,0,1,0,.37Zm2.34-.57a1.14,1.14,0,0,0-1.11-1.29,1.33,1.33,0,0,0-1.22,1.29Z" transform="translate(0.6 0.26)"/><path d="M42.53,201.48c0-.45,0-.82,0-1.18h.7l0,.72h0a1.6,1.6,0,0,1,1.44-.82c.61,0,1.55.36,1.55,1.86v2.62h-.8v-2.53c0-.7-.26-1.29-1-1.29a1.14,1.14,0,0,0-1.07.81,1.38,1.38,0,0,0-.05.37v2.64h-.8Z" transform="translate(0.6 0.26)"/><path d="M48.48,199v1.26h1.14v.6H48.48v2.37c0,.54.15.85.59.85a1.54,1.54,0,0,0,.46-.06l0,.6a2,2,0,0,1-.7.11,1.08,1.08,0,0,1-.86-.34,1.59,1.59,0,0,1-.31-1.14V200.9H47v-.6h.68v-1.05Z" transform="translate(0.6 0.26)"/><path d="M50.4,203.86a2,2,0,0,0,1.05.32c.58,0,.85-.29.85-.65s-.22-.59-.81-.81c-.79-.28-1.16-.71-1.16-1.24a1.35,1.35,0,0,1,1.51-1.28,2.28,2.28,0,0,1,1.08.27l-.2.58a1.7,1.7,0,0,0-.9-.25c-.47,0-.73.27-.73.59s.26.53.83.74c.76.29,1.15.67,1.15,1.33s-.6,1.31-1.64,1.31a2.51,2.51,0,0,1-1.23-.3Z" transform="translate(0.6 0.26)"/><path d="M58.44,204.68l-.07-.55h0a1.66,1.66,0,0,1-1.34.65,1.25,1.25,0,0,1-1.34-1.26c0-1.06.94-1.64,2.63-1.63v-.09a.9.9,0,0,0-1-1,2.14,2.14,0,0,0-1.14.32l-.19-.52a2.71,2.71,0,0,1,1.44-.39c1.34,0,1.67.91,1.67,1.79v1.64a6.68,6.68,0,0,0,.07,1.05Zm-.12-2.24c-.87,0-1.86.14-1.86,1a.71.71,0,0,0,.75.76,1.08,1.08,0,0,0,1.06-.73.8.8,0,0,0,0-.26Z" transform="translate(0.6 0.26)"/><path d="M63.49,204.51a2.85,2.85,0,0,1-1.25.26,2.09,2.09,0,0,1-2.19-2.24,2.23,2.23,0,0,1,2.36-2.32,2.82,2.82,0,0,1,1.1.22l-.18.62a1.83,1.83,0,0,0-.92-.21,1.51,1.51,0,0,0-1.55,1.66,1.5,1.5,0,0,0,1.52,1.63,2.31,2.31,0,0,0,1-.21Z" transform="translate(0.6 0.26)"/><path d="M64.42,201.48c0-.45,0-.82,0-1.18h.7l0,.72h0a1.6,1.6,0,0,1,1.44-.82c.61,0,1.55.36,1.55,1.86v2.62h-.79v-2.53c0-.7-.27-1.29-1-1.29a1.14,1.14,0,0,0-1.07.81,1.38,1.38,0,0,0,0,.37v2.64h-.8Z" transform="translate(0.6 0.26)"/><path d="M69.89,202.63a1.4,1.4,0,0,0,1.5,1.52,3,3,0,0,0,1.21-.22l.14.57a3.67,3.67,0,0,1-1.46.27,2,2,0,0,1-2.15-2.21,2.13,2.13,0,0,1,2.05-2.36A1.86,1.86,0,0,1,73,202.26a2.73,2.73,0,0,1,0,.37Zm2.33-.57a1.13,1.13,0,0,0-1.1-1.29,1.31,1.31,0,0,0-1.22,1.29Z" transform="translate(0.6 0.26)"/></g></g><g id="and_damaged_skin" data-name="and damaged skin" style="isolation:isolate"><g style="isolation:isolate"><path d="M12.7,221.36l-.06-.55h0a1.66,1.66,0,0,1-1.34.65,1.24,1.24,0,0,1-1.34-1.26c0-1,.94-1.63,2.63-1.62v-.09a.9.9,0,0,0-1-1,2.17,2.17,0,0,0-1.14.33l-.18-.53a2.74,2.74,0,0,1,1.44-.39c1.33,0,1.66.92,1.66,1.79v1.64a6.68,6.68,0,0,0,.07,1.05Zm-.12-2.23c-.87,0-1.85.13-1.85,1a.7.7,0,0,0,.75.76,1,1,0,0,0,1.1-1Z" transform="translate(0.6 0.26)"/><path d="M14.63,218.17c0-.45,0-.83,0-1.19h.7l0,.73h0a1.6,1.6,0,0,1,1.45-.83c.6,0,1.54.37,1.54,1.87v2.61h-.79v-2.52c0-.71-.27-1.3-1-1.3a1.13,1.13,0,0,0-1.06.82,1,1,0,0,0-.06.37v2.63h-.8Z" transform="translate(0.6 0.26)"/><path d="M23.44,214.94v5.29c0,.39,0,.83,0,1.13h-.71l0-.76h0a1.6,1.6,0,0,1-1.49.86,2,2,0,0,1-1.87-2.22,2.1,2.1,0,0,1,2-2.36,1.47,1.47,0,0,1,1.32.67h0v-2.61Zm-.8,3.83a1.32,1.32,0,0,0,0-.34,1.15,1.15,0,0,0-1.14-.92c-.83,0-1.32.72-1.32,1.69s.44,1.62,1.3,1.62a1.19,1.19,0,0,0,1.16-.95,1.27,1.27,0,0,0,0-.34Z" transform="translate(0.6 0.26)"/><path d="M30.46,214.94v5.29c0,.39,0,.83,0,1.13h-.71l0-.76h0a1.6,1.6,0,0,1-1.49.86,2,2,0,0,1-1.87-2.22,2.1,2.1,0,0,1,2-2.36,1.47,1.47,0,0,1,1.32.67h0v-2.61Zm-.8,3.83a1.32,1.32,0,0,0,0-.34,1.16,1.16,0,0,0-1.15-.92c-.82,0-1.31.72-1.31,1.69s.44,1.62,1.3,1.62a1.19,1.19,0,0,0,1.16-.95,1.27,1.27,0,0,0,0-.34Z" transform="translate(0.6 0.26)"/><path d="M34.2,221.36l-.06-.55h0a1.63,1.63,0,0,1-1.34.65,1.24,1.24,0,0,1-1.34-1.26c0-1,.94-1.63,2.64-1.62v-.09a.91.91,0,0,0-1-1,2.17,2.17,0,0,0-1.14.33l-.18-.53a2.77,2.77,0,0,1,1.44-.39c1.34,0,1.66.92,1.66,1.79v1.64a5.6,5.6,0,0,0,.08,1.05Zm-.12-2.23c-.87,0-1.85.13-1.85,1a.7.7,0,0,0,.75.76,1.09,1.09,0,0,0,1.06-.73.73.73,0,0,0,0-.25Z" transform="translate(0.6 0.26)"/><path d="M36.14,218.17c0-.45,0-.83,0-1.19h.7l0,.71h0a1.5,1.5,0,0,1,1.38-.81,1.31,1.31,0,0,1,1.24.88h0a2,2,0,0,1,.49-.57,1.48,1.48,0,0,1,1-.31c.58,0,1.44.38,1.44,1.9v2.58h-.78v-2.48c0-.84-.31-1.34-1-1.34a1,1,0,0,0-.94.72,1.2,1.2,0,0,0-.06.4v2.7h-.78v-2.62c0-.7-.31-1.2-.92-1.2a1.07,1.07,0,0,0-1,.79,1,1,0,0,0-.07.39v2.64h-.77Z" transform="translate(0.6 0.26)"/><path d="M46.11,221.36l-.07-.55h0a1.66,1.66,0,0,1-1.34.65,1.24,1.24,0,0,1-1.34-1.26c0-1,.94-1.63,2.63-1.62v-.09a.9.9,0,0,0-1-1,2.21,2.21,0,0,0-1.15.33l-.18-.53a2.8,2.8,0,0,1,1.44-.39c1.34,0,1.67.92,1.67,1.79v1.64a6.68,6.68,0,0,0,.07,1.05ZM46,219.13c-.87,0-1.86.13-1.86,1a.71.71,0,0,0,.75.76,1.08,1.08,0,0,0,1.06-.73.74.74,0,0,0,.05-.25Z" transform="translate(0.6 0.26)"/><path d="M51.81,217c0,.32,0,.67,0,1.21v2.54a2.51,2.51,0,0,1-.63,2,2.3,2.3,0,0,1-1.59.52,2.82,2.82,0,0,1-1.46-.36l.2-.6a2.51,2.51,0,0,0,1.29.34c.81,0,1.41-.43,1.41-1.53v-.49h0a1.54,1.54,0,0,1-1.39.73,2,2,0,0,1-1.87-2.13,2.1,2.1,0,0,1,2-2.33,1.45,1.45,0,0,1,1.36.76h0l0-.66ZM51,218.71a1.37,1.37,0,0,0,0-.36,1.16,1.16,0,0,0-1.12-.84c-.76,0-1.3.64-1.3,1.65s.43,1.58,1.29,1.58a1.17,1.17,0,0,0,1.11-.82,1.52,1.52,0,0,0,.06-.42Z" transform="translate(0.6 0.26)"/><path d="M53.54,219.32a1.41,1.41,0,0,0,1.5,1.52,2.86,2.86,0,0,0,1.22-.23l.13.57a3.5,3.5,0,0,1-1.46.27,2,2,0,0,1-2.15-2.2,2.13,2.13,0,0,1,2-2.37A1.86,1.86,0,0,1,56.64,219a3.12,3.12,0,0,1,0,.37Zm2.34-.57a1.14,1.14,0,0,0-1.11-1.3,1.33,1.33,0,0,0-1.22,1.3Z" transform="translate(0.6 0.26)"/><path d="M61.41,214.94v5.29c0,.39,0,.83,0,1.13h-.72l0-.76h0a1.62,1.62,0,0,1-1.49.86,2,2,0,0,1-1.88-2.22,2.1,2.1,0,0,1,2-2.36,1.47,1.47,0,0,1,1.32.67h0v-2.61Zm-.79,3.83a1.32,1.32,0,0,0,0-.34,1.17,1.17,0,0,0-1.15-.92c-.82,0-1.31.72-1.31,1.69s.43,1.62,1.29,1.62a1.2,1.2,0,0,0,1.17-.95,1.27,1.27,0,0,0,0-.34Z" transform="translate(0.6 0.26)"/><path d="M64.54,220.55a2.14,2.14,0,0,0,1,.31c.58,0,.85-.28.85-.65s-.23-.58-.81-.8c-.79-.28-1.16-.72-1.16-1.24A1.35,1.35,0,0,1,66,216.88a2.28,2.28,0,0,1,1.08.27l-.2.58a1.79,1.79,0,0,0-.9-.25c-.47,0-.73.27-.73.6s.26.52.83.74c.76.29,1.15.67,1.15,1.32s-.6,1.31-1.64,1.31a2.51,2.51,0,0,1-1.23-.3Z" transform="translate(0.6 0.26)"/><path d="M69,219h0l.39-.5L70.71,217h1L70,218.78l1.92,2.58h-1l-1.51-2.1-.41.46v1.64h-.79v-6.42H69Z" transform="translate(0.6 0.26)"/><path d="M73.51,215.75a.47.47,0,0,1-.5.49.48.48,0,0,1-.48-.49.49.49,0,0,1,.5-.5A.47.47,0,0,1,73.51,215.75Zm-.88,5.61V217h.79v4.38Z" transform="translate(0.6 0.26)"/><path d="M74.74,218.17c0-.45,0-.83,0-1.19h.7l0,.73h0a1.59,1.59,0,0,1,1.44-.83c.61,0,1.55.37,1.55,1.87v2.61h-.79v-2.52c0-.71-.27-1.3-1-1.3a1.15,1.15,0,0,0-1.07.82,1.32,1.32,0,0,0,0,.37v2.63h-.8Z" transform="translate(0.6 0.26)"/></g></g></g><g id="Group_11076" data-name="Group 11076"><g id="Group_11075" data-name="Group 11075"><path id="Path_10639" data-name="Path 10639" d="M146.54,153.54c-.2.58-.38,1.16-.58,1.75-.35,1,.46,2.58,0,3.49a8.66,8.66,0,0,0,.81-2.68c.16-1.07-.34-2.48,0-3.49l-.35,1c-.33,1,.45,2.58,0,3.5a10.07,10.07,0,0,0,.58-1.4c.35-1.06-.35-2.46,0-3.49a8.66,8.66,0,0,1-.58,1.28V157c.05-1.13,0-2.26,0-3.38a9.84,9.84,0,0,0-.15-1.33s-1.27,1.33-1.4,1.51v3.5c.35-.84.41.56.48.91v-3.43c0,.16,0,.32,0,.48,0,.56,0,1.12,0,1.69,0,.31.21,1.48,0,1.74a7.13,7.13,0,0,0,1.44-4.38c0-.37.07-3.91-.39-3.66v3.5a13.37,13.37,0,0,0,.06-3.16c0-.44.12-1-.31-.21s-.66,2.55-.67.46c0,.73,0,1.47,0,2.21s.4-.38.47-.52a9.76,9.76,0,0,0,.65-1.76,14.62,14.62,0,0,0,.05-3.56c0-1.25-1.11-.94-2-.72-2,.49-4.1.18-6.13.15,0,0,0,3.5,0,3.5a50.09,50.09,0,0,0,5.48,0c.76-.08,2.57-1,2.67.33v-3.49a6.61,6.61,0,0,1-.54,1.72c-.07.16-.56,1.48-.62.85.07.72,0,1.49,0,2.22s0,1.68,0,2.52c0,.4.05.8.1,1.2.12-.36.24-.73.37-1.09,0-.05.35-1.4.49-.83v-3.5l0,.18c-.13.5.32,3.32,0,3.49.45-.24.35.58.37,1v-3.44a6.76,6.76,0,0,1-1.43,3.52v3.43c0-1,0-2,0-3.05a5.06,5.06,0,0,0,0-.87c-.07-.34-.13-1.74-.48-.91a6,6,0,0,0,0,1.75c0,.3.21,1.5,0,1.75.25-.33.49-.65.76-1,.62-.74.63-.52.78.27v-3.43c0,.15,0,.31,0,.46,0,.56,0,1.12,0,1.69a5.35,5.35,0,0,1,0,1.74,8.66,8.66,0,0,0,.58-1.28v-3.48a10.07,10.07,0,0,1-.58,1.4v3.5l.35-1v-3.5a8.42,8.42,0,0,1-.82,2.68v3.5c.21-.58.38-1.17.59-1.75.36-1-.36-2.47,0-3.5Z" transform="translate(0.6 0.26)" fill="#ff4343" stroke="#c9393d"/></g></g><g id="Group_11078" data-name="Group 11078"><g id="Group_11077" data-name="Group 11077"><path id="Path_10640" data-name="Path 10640" d="M144.79,151.68a25.83,25.83,0,0,0,1.13,2.52,9.64,9.64,0,0,1,.48,1.22,4.69,4.69,0,0,1,.14.65c-.45-2.38.16-2.64-.13-1.43-.19.79-1.54,2.27-1.75.7v.33c0,1,0,2,0,3a4.25,4.25,0,0,1,.72-1.84c.2-.34,0-1.38,0-1.75s-.2-1.45,0-1.75c-1,1.57-.76,3.23-.73,5,0,1.13.74,1.69,1.47.53.88-1.4.51-3.81.48-5.36,0-2-1.16-3.51-1.8-5.32a6.84,6.84,0,0,1,0,1.75,6,6,0,0,0,0,1.75Z" transform="translate(0.6 0.26)" fill="#ff4343" stroke="#c9393d"/></g></g><g id="Group-2"><g id="GREENNESS_-_" data-name="GREENNESS - " style="isolation:isolate"><g style="isolation:isolate"><path d="M74.53,256.9a5.94,5.94,0,0,1-1.88.33,3.14,3.14,0,0,1-2.28-.8,3.18,3.18,0,0,1-.85-2.27A3.06,3.06,0,0,1,72.83,251a3.77,3.77,0,0,1,1.52.28l-.19.64a3.13,3.13,0,0,0-1.35-.26,2.27,2.27,0,0,0-2.45,2.45,2.23,2.23,0,0,0,2.35,2.46,2.61,2.61,0,0,0,1.05-.16V254.6H72.52V254h2Z" transform="translate(0.6 0.26)"/><path d="M75.73,251.15a8.33,8.33,0,0,1,1.51-.13,2.5,2.5,0,0,1,1.76.5,1.51,1.51,0,0,1,.48,1.16,1.6,1.6,0,0,1-1.15,1.56v0a1.51,1.51,0,0,1,.9,1.23,9.78,9.78,0,0,0,.47,1.68h-.81a7.64,7.64,0,0,1-.41-1.46c-.18-.84-.51-1.16-1.22-1.18h-.74v2.64h-.79Zm.79,2.78h.8c.84,0,1.38-.46,1.38-1.16s-.57-1.13-1.41-1.14a3.51,3.51,0,0,0-.77.07Z" transform="translate(0.6 0.26)"/><path d="M83.75,254.31H81.38v2.2H84v.66H80.6v-6.1h3.29v.66H81.38v1.93h2.37Z" transform="translate(0.6 0.26)"/><path d="M88.2,254.31H85.83v2.2h2.65v.66H85.05v-6.1h3.29v.66H85.83v1.93H88.2Z" transform="translate(0.6 0.26)"/><path d="M89.5,257.17v-6.1h.86l2,3.09a16.91,16.91,0,0,1,1.1,2h0c-.07-.82-.09-1.56-.09-2.51v-2.55h.75v6.1h-.8l-1.94-3.1a21,21,0,0,1-1.14-2h0c0,.77.06,1.5.06,2.51v2.61Z" transform="translate(0.6 0.26)"/><path d="M95.45,257.17v-6.1h.86l2,3.09a15.56,15.56,0,0,1,1.1,2h0a24.83,24.83,0,0,1-.09-2.51v-2.55H100v6.1h-.8l-1.94-3.1a21,21,0,0,1-1.14-2h0c0,.77.06,1.5.06,2.51v2.61Z" transform="translate(0.6 0.26)"/><path d="M104.56,254.31h-2.37v2.2h2.64v.66H101.4v-6.1h3.29v.66h-2.5v1.93h2.37Z" transform="translate(0.6 0.26)"/><path d="M105.74,256.21a2.79,2.79,0,0,0,1.41.4c.81,0,1.28-.43,1.28-1s-.33-.9-1.15-1.22c-1-.35-1.61-.86-1.61-1.72a1.76,1.76,0,0,1,2-1.66,2.69,2.69,0,0,1,1.35.3l-.22.64a2.35,2.35,0,0,0-1.15-.29c-.84,0-1.15.5-1.15.92,0,.57.37.85,1.21,1.17,1,.4,1.56.9,1.56,1.79s-.7,1.76-2.14,1.76a3.14,3.14,0,0,1-1.56-.39Z" transform="translate(0.6 0.26)"/><path d="M110.2,256.21a2.79,2.79,0,0,0,1.41.4c.81,0,1.28-.43,1.28-1s-.33-.9-1.15-1.22c-1-.35-1.61-.86-1.61-1.72a1.76,1.76,0,0,1,2-1.66,2.69,2.69,0,0,1,1.35.3l-.22.64a2.38,2.38,0,0,0-1.15-.29c-.84,0-1.15.5-1.15.92,0,.57.37.85,1.21,1.17,1,.4,1.56.9,1.56,1.79s-.7,1.76-2.14,1.76a3.14,3.14,0,0,1-1.56-.39Z" transform="translate(0.6 0.26)"/><path d="M118.51,254.43V255h-2.24v-.58Z" transform="translate(0.6 0.26)"/></g></g><g id="represents_healthy_skin" data-name="represents healthy skin" style="isolation:isolate"><g style="isolation:isolate"><path d="M51.92,268.83c0-.52,0-1,0-1.37h.69l0,.86h0a1.31,1.31,0,0,1,1.21-1,.85.85,0,0,1,.23,0v.75a1.2,1.2,0,0,0-.28,0,1.11,1.11,0,0,0-1.06,1,2.1,2.1,0,0,0,0,.37v2.34h-.79Z" transform="translate(0.6 0.26)"/><path d="M55.23,269.79a1.41,1.41,0,0,0,1.51,1.53,2.81,2.81,0,0,0,1.21-.23l.13.57a3.48,3.48,0,0,1-1.45.27,2,2,0,0,1-2.16-2.21,2.13,2.13,0,0,1,2.06-2.36,1.86,1.86,0,0,1,1.81,2.06,2.58,2.58,0,0,1,0,.37Zm2.34-.57a1.14,1.14,0,0,0-1.11-1.29,1.33,1.33,0,0,0-1.22,1.29Z" transform="translate(0.6 0.26)"/><path d="M59.32,268.89c0-.56,0-1,0-1.43H60l0,.75h0a1.72,1.72,0,0,1,1.55-.85,2,2,0,0,1,1.86,2.23,2.07,2.07,0,0,1-2,2.35,1.52,1.52,0,0,1-1.35-.69h0v2.38h-.79Zm.79,1.17a1.65,1.65,0,0,0,0,.32,1.23,1.23,0,0,0,1.19.94c.84,0,1.33-.69,1.33-1.7s-.46-1.63-1.3-1.63a1.28,1.28,0,0,0-1.21,1,1.75,1.75,0,0,0,0,.33Z" transform="translate(0.6 0.26)"/><path d="M64.47,268.83c0-.52,0-1,0-1.37h.7l0,.86h0a1.32,1.32,0,0,1,1.22-1,.73.73,0,0,1,.22,0v.75a1.06,1.06,0,0,0-.27,0,1.12,1.12,0,0,0-1.07,1,2.13,2.13,0,0,0,0,.37v2.34h-.79Z" transform="translate(0.6 0.26)"/><path d="M67.78,269.79a1.41,1.41,0,0,0,1.5,1.53,2.78,2.78,0,0,0,1.21-.23l.14.57a3.5,3.5,0,0,1-1.46.27A2,2,0,0,1,67,269.72a2.13,2.13,0,0,1,2-2.36,1.86,1.86,0,0,1,1.81,2.06,3,3,0,0,1,0,.37Zm2.33-.57a1.13,1.13,0,0,0-1.1-1.29,1.32,1.32,0,0,0-1.22,1.29Z" transform="translate(0.6 0.26)"/><path d="M71.76,271a2.14,2.14,0,0,0,1,.31c.58,0,.85-.29.85-.65s-.23-.59-.81-.8c-.79-.29-1.16-.72-1.16-1.24a1.35,1.35,0,0,1,1.51-1.29,2.28,2.28,0,0,1,1.08.27l-.2.58a1.73,1.73,0,0,0-.9-.25c-.47,0-.73.27-.73.6s.26.52.83.74c.76.29,1.15.67,1.15,1.32s-.6,1.31-1.64,1.31a2.51,2.51,0,0,1-1.23-.3Z" transform="translate(0.6 0.26)"/><path d="M75.89,269.79a1.41,1.41,0,0,0,1.51,1.53,2.81,2.81,0,0,0,1.21-.23l.13.57a3.48,3.48,0,0,1-1.45.27,2,2,0,0,1-2.16-2.21,2.13,2.13,0,0,1,2.06-2.36A1.86,1.86,0,0,1,79,269.42a2.58,2.58,0,0,1,0,.37Zm2.34-.57a1.13,1.13,0,0,0-1.1-1.29,1.33,1.33,0,0,0-1.23,1.29Z" transform="translate(0.6 0.26)"/><path d="M80,268.65c0-.46,0-.83,0-1.19h.7l0,.72h0a1.6,1.6,0,0,1,1.44-.82c.61,0,1.55.36,1.55,1.86v2.62h-.8v-2.52c0-.71-.26-1.3-1-1.3a1.14,1.14,0,0,0-1.07.82,1.32,1.32,0,0,0,0,.37v2.63H80Z" transform="translate(0.6 0.26)"/><path d="M85.93,266.2v1.26h1.14v.61H85.93v2.36c0,.54.15.85.59.85a1.54,1.54,0,0,0,.46-.06l0,.6a2,2,0,0,1-.7.11,1.11,1.11,0,0,1-.86-.33,1.62,1.62,0,0,1-.31-1.14v-2.39h-.68v-.61h.68v-1Z" transform="translate(0.6 0.26)"/><path d="M87.85,271a2.14,2.14,0,0,0,1.05.31c.58,0,.85-.29.85-.65s-.22-.59-.81-.8c-.79-.29-1.16-.72-1.16-1.24a1.35,1.35,0,0,1,1.51-1.29,2.28,2.28,0,0,1,1.08.27l-.2.58a1.7,1.7,0,0,0-.9-.25c-.47,0-.73.27-.73.6s.26.52.83.74c.76.29,1.15.67,1.15,1.32s-.6,1.31-1.64,1.31a2.51,2.51,0,0,1-1.23-.3Z" transform="translate(0.6 0.26)"/><path d="M93.46,265.42h.8v2.73h0a1.34,1.34,0,0,1,.57-.56,1.56,1.56,0,0,1,.81-.23c.59,0,1.53.36,1.53,1.87v2.61h-.8v-2.52c0-.7-.26-1.3-1-1.3a1.14,1.14,0,0,0-1.07.8,1.06,1.06,0,0,0,0,.38v2.64h-.8Z" transform="translate(0.6 0.26)"/><path d="M98.93,269.79a1.4,1.4,0,0,0,1.5,1.53,2.81,2.81,0,0,0,1.21-.23l.14.57a3.5,3.5,0,0,1-1.46.27,2,2,0,0,1-2.15-2.21,2.12,2.12,0,0,1,2-2.36,1.86,1.86,0,0,1,1.81,2.06,2.58,2.58,0,0,1,0,.37Zm2.33-.57a1.13,1.13,0,0,0-1.1-1.29,1.33,1.33,0,0,0-1.23,1.29Z" transform="translate(0.6 0.26)"/><path d="M105.44,271.84l-.06-.55h0a1.66,1.66,0,0,1-1.34.65,1.24,1.24,0,0,1-1.34-1.26c0-1.06.94-1.64,2.63-1.63V269a.9.9,0,0,0-1-1,2.26,2.26,0,0,0-1.14.32l-.18-.52a2.66,2.66,0,0,1,1.44-.39c1.33,0,1.66.91,1.66,1.79v1.64a6.68,6.68,0,0,0,.07,1Zm-.12-2.24c-.87,0-1.85.14-1.85,1a.7.7,0,0,0,.75.76,1,1,0,0,0,1.1-1Z" transform="translate(0.6 0.26)"/><path d="M107.37,265.42h.8v6.42h-.8Z" transform="translate(0.6 0.26)"/><path d="M110.47,266.2v1.26h1.14v.61h-1.14v2.36c0,.54.15.85.59.85a1.67,1.67,0,0,0,.47-.06l0,.6a2,2,0,0,1-.7.11,1.13,1.13,0,0,1-.86-.33,1.62,1.62,0,0,1-.31-1.14v-2.39H109v-.61h.68v-1Z" transform="translate(0.6 0.26)"/><path d="M112.5,265.42h.8v2.73h0a1.34,1.34,0,0,1,.57-.56,1.56,1.56,0,0,1,.81-.23c.59,0,1.53.36,1.53,1.87v2.61h-.8v-2.52c0-.7-.26-1.3-1-1.3a1.15,1.15,0,0,0-1.07.8,1.06,1.06,0,0,0,0,.38v2.64h-.8Z" transform="translate(0.6 0.26)"/><path d="M117.7,267.46l1,2.59c.1.29.21.63.29.89h0l.28-.91.87-2.57h.84l-1.19,3.12a6.7,6.7,0,0,1-1.5,2.74,2.16,2.16,0,0,1-1,.52l-.2-.67a2.08,2.08,0,0,0,.7-.39,2.46,2.46,0,0,0,.67-.89.67.67,0,0,0,.06-.19.92.92,0,0,0,0-.2l-1.62-4Z" transform="translate(0.6 0.26)"/><path d="M123.48,271a2.1,2.1,0,0,0,1,.31c.58,0,.86-.29.86-.65s-.23-.59-.82-.8c-.79-.29-1.16-.72-1.16-1.24a1.35,1.35,0,0,1,1.51-1.29,2.22,2.22,0,0,1,1.08.27l-.2.58a1.69,1.69,0,0,0-.89-.25c-.47,0-.74.27-.74.6s.27.52.84.74c.76.29,1.14.67,1.14,1.32s-.59,1.31-1.63,1.31a2.48,2.48,0,0,1-1.23-.3Z" transform="translate(0.6 0.26)"/><path d="M128,269.47h0l.39-.5,1.29-1.51h.95l-1.69,1.8,1.93,2.58h-1l-1.51-2.1-.41.45v1.65h-.78v-6.42H128Z" transform="translate(0.6 0.26)"/><path d="M132.45,266.23a.5.5,0,0,1-1,0,.49.49,0,0,1,.5-.5A.48.48,0,0,1,132.45,266.23Zm-.89,5.61v-4.38h.8v4.38Z" transform="translate(0.6 0.26)"/><path d="M133.68,268.65c0-.46,0-.83,0-1.19h.71l0,.72h0a1.63,1.63,0,0,1,1.45-.82c.61,0,1.55.36,1.55,1.86v2.62h-.8v-2.52c0-.71-.26-1.3-1-1.3a1.13,1.13,0,0,0-1.07.82,1,1,0,0,0-.05.37v2.63h-.8Z" transform="translate(0.6 0.26)"/></g></g></g></g></svg>