<svg id="Layer_1" data-name="Layer 1" xmlns="http://www.w3.org/2000/svg" viewBox="0 0 954.47 865.66"><title>recommendedproducts</title><g id="recommendedproducts"><g id="Background_Complete" data-name="Background Complete"><g id="Group_10548" data-name="Group 10548"><g id="Group_10489" data-name="Group 10489"><g id="Group_10488" data-name="Group 10488"><g id="Group_10487" data-name="Group 10487"><g id="Group_10486" data-name="Group 10486"><g id="Group_10485" data-name="Group 10485"><g id="Group_10484" data-name="Group 10484"><rect id="Rectangle_1497" data-name="Rectangle 1497" x="541.31" y="0.04" width="128.62" height="134.08" fill="#e0e0e0"/></g></g></g></g></g></g><g id="Group_10500" data-name="Group 10500"><g id="Group_10494" data-name="Group 10494"><g id="Group_10493" data-name="Group 10493"><g id="Group_10492" data-name="Group 10492"><g id="Group_10491" data-name="Group 10491"><g id="Group_10490" data-name="Group 10490"><rect id="Rectangle_1498" data-name="Rectangle 1498" x="532.6" y="0.04" width="128.62" height="134.08" fill="#fafafa"/></g></g></g></g></g><g id="Group_10499" data-name="Group 10499"><g id="Group_10498" data-name="Group 10498"><g id="Group_10497" data-name="Group 10497"><g id="Group_10496" data-name="Group 10496"><g id="Group_10495" data-name="Group 10495"><path id="Path_10300" data-name="Path 10300" d="M661.79-63.5H533.09V-197.66h128.7Zm-128.62-.08H661.73v-134H533.17Z" transform="translate(-0.53 197.66)" fill="#e0e0e0"/></g></g></g></g></g></g><g id="Group_10506" data-name="Group 10506"><g id="Group_10505" data-name="Group 10505"><g id="Group_10504" data-name="Group 10504"><g id="Group_10503" data-name="Group 10503"><g id="Group_10502" data-name="Group 10502"><g id="Group_10501" data-name="Group 10501"><rect id="Rectangle_1499" data-name="Rectangle 1499" x="549.89" y="18.06" width="94.04" height="98.03" fill="#fafafa"/></g></g></g></g></g></g><g id="Group_10513" data-name="Group 10513"><g id="Group_10512" data-name="Group 10512"><g id="Group_10511" data-name="Group 10511"><g id="Group_10510" data-name="Group 10510"><g id="Group_10509" data-name="Group 10509"><g id="Group_10508" data-name="Group 10508"><g id="Group_10507" data-name="Group 10507"><path id="Path_10301" data-name="Path 10301" d="M550.42-80.91a15.75,15.75,0,0,1-2.33,2.7c-1.51,1.58-3.61,3.73-6,6s-4.54,4.41-6.14,5.89A14.72,14.72,0,0,1,533.23-64a15.57,15.57,0,0,1,2.31-2.69c1.5-1.58,3.61-3.73,6-6.07s4.55-4.42,6.16-5.89A14.41,14.41,0,0,1,550.42-80.91Z" transform="translate(-0.53 197.66)" fill="#e0e0e0"/></g></g></g></g></g></g></g><g id="Group_10520" data-name="Group 10520"><g id="Group_10519" data-name="Group 10519"><g id="Group_10518" data-name="Group 10518"><g id="Group_10517" data-name="Group 10517"><g id="Group_10516" data-name="Group 10516"><g id="Group_10515" data-name="Group 10515"><g id="Group_10514" data-name="Group 10514"><path id="Path_10302" data-name="Path 10302" d="M644.46-81.16a15.87,15.87,0,0,1,2.7,2.34c1.58,1.5,3.73,3.61,6.06,6s4.4,4.54,5.88,6.14A15.06,15.06,0,0,1,661.36-64a15.57,15.57,0,0,1-2.69-2.31c-1.58-1.5-3.73-3.61-6.07-6s-4.42-4.56-5.89-6.16A14.41,14.41,0,0,1,644.46-81.16Z" transform="translate(-0.53 197.66)" fill="#e0e0e0"/></g></g></g></g></g></g></g><g id="Group_10527" data-name="Group 10527"><g id="Group_10526" data-name="Group 10526"><g id="Group_10525" data-name="Group 10525"><g id="Group_10524" data-name="Group 10524"><g id="Group_10523" data-name="Group 10523"><g id="Group_10522" data-name="Group 10522"><g id="Group_10521" data-name="Group 10521"><path id="Path_10303" data-name="Path 10303" d="M644.2-179.33a15,15,0,0,1,2.33-2.7c1.5-1.59,3.61-3.73,6-6.06s4.54-4.41,6.14-5.88a15.06,15.06,0,0,1,2.72-2.26,15.14,15.14,0,0,1-2.31,2.68c-1.5,1.59-3.61,3.73-6,6.07s-4.56,4.42-6.16,5.89A14.66,14.66,0,0,1,644.2-179.33Z" transform="translate(-0.53 197.66)" fill="#e0e0e0"/></g></g></g></g></g></g></g><g id="Group_10534" data-name="Group 10534"><g id="Group_10533" data-name="Group 10533"><g id="Group_10532" data-name="Group 10532"><g id="Group_10531" data-name="Group 10531"><g id="Group_10530" data-name="Group 10530"><g id="Group_10529" data-name="Group 10529"><g id="Group_10528" data-name="Group 10528"><path id="Path_10304" data-name="Path 10304" d="M550.16-179.1a15,15,0,0,1-2.7-2.33c-1.58-1.5-3.73-3.61-6.06-6s-4.4-4.54-5.88-6.14a15.06,15.06,0,0,1-2.26-2.72A14.8,14.8,0,0,1,536-194c1.58,1.5,3.73,3.61,6.07,6s4.42,4.56,5.89,6.16A14.67,14.67,0,0,1,550.16-179.1Z" transform="translate(-0.53 197.66)" fill="#e0e0e0"/></g></g></g></g></g></g></g><g id="Group_10541" data-name="Group 10541"><g id="Group_10540" data-name="Group 10540"><g id="Group_10539" data-name="Group 10539"><g id="Group_10538" data-name="Group 10538"><g id="Group_10537" data-name="Group 10537"><g id="Group_10536" data-name="Group 10536"><g id="Group_10535" data-name="Group 10535"><path id="Path_10305" data-name="Path 10305" d="M644.2-81.57c0-.15,0-.31,0-.47,0-.33,0-.78,0-1.37,0-1.23,0-3,0-5.29,0-4.65,0-11.4-.1-20,0-17.17-.11-41.64-.18-70.92l.36.36-93.77.06h0l.41-.42c0,36,0,69.64-.06,98l-.36-.35,67.9.17,19.08.09,5,0,1.31,0,.45,0a1.88,1.88,0,0,1-.41,0l-1.27,0-5,.05-19,.09-68.13.18h-.36v-.36c0-28.38,0-62-.06-98v-.4h.43l93.77.05h.36v.36c-.07,29.38-.14,53.92-.18,71.15,0,8.54-.08,15.27-.1,19.9,0,2.26,0,4,0,5.22,0,.57,0,1,0,1.33A3,3,0,0,1,644.2-81.57Z" transform="translate(-0.53 197.66)" fill="#e0e0e0"/></g></g></g></g></g></g></g><g id="Group_10547" data-name="Group 10547"><g id="Group_10546" data-name="Group 10546"><g id="Group_10545" data-name="Group 10545"><g id="Group_10544" data-name="Group 10544"><g id="Group_10543" data-name="Group 10543"><g id="Group_10542" data-name="Group 10542"><rect id="Rectangle_1500" data-name="Rectangle 1500" x="581.22" y="51.39" width="31.38" height="31.38" fill="#ebebeb"/></g></g></g></g></g></g></g><g id="Group_10613" data-name="Group 10613"><g id="Group_10554" data-name="Group 10554"><g id="Group_10553" data-name="Group 10553"><g id="Group_10552" data-name="Group 10552"><g id="Group_10551" data-name="Group 10551"><g id="Group_10550" data-name="Group 10550"><g id="Group_10549" data-name="Group 10549"><rect id="Rectangle_1501" data-name="Rectangle 1501" x="46.73" y="55.42" width="180.83" height="188.5" fill="#e0e0e0"/></g></g></g></g></g></g><g id="Group_10565" data-name="Group 10565"><g id="Group_10559" data-name="Group 10559"><g id="Group_10558" data-name="Group 10558"><g id="Group_10557" data-name="Group 10557"><g id="Group_10556" data-name="Group 10556"><g id="Group_10555" data-name="Group 10555"><rect id="Rectangle_1502" data-name="Rectangle 1502" x="34.49" y="55.42" width="180.83" height="188.5" fill="#fafafa"/></g></g></g></g></g><g id="Group_10564" data-name="Group 10564"><g id="Group_10563" data-name="Group 10563"><g id="Group_10562" data-name="Group 10562"><g id="Group_10561" data-name="Group 10561"><g id="Group_10560" data-name="Group 10560"><path id="Path_10306" data-name="Path 10306" d="M215.91,46.32H35V-142.29h181Zm-180.84-.1H215.79v-188.4H35.07Z" transform="translate(-0.53 197.66)" fill="#e0e0e0"/></g></g></g></g></g></g><g id="Group_10571" data-name="Group 10571"><g id="Group_10570" data-name="Group 10570"><g id="Group_10569" data-name="Group 10569"><g id="Group_10568" data-name="Group 10568"><g id="Group_10567" data-name="Group 10567"><g id="Group_10566" data-name="Group 10566"><rect id="Rectangle_1503" data-name="Rectangle 1503" x="58.8" y="80.77" width="132.21" height="137.82" fill="#fafafa"/></g></g></g></g></g></g><g id="Group_10578" data-name="Group 10578"><g id="Group_10577" data-name="Group 10577"><g id="Group_10576" data-name="Group 10576"><g id="Group_10575" data-name="Group 10575"><g id="Group_10574" data-name="Group 10574"><g id="Group_10573" data-name="Group 10573"><g id="Group_10572" data-name="Group 10572"><path id="Path_10307" data-name="Path 10307" d="M59.32,21.84a21.47,21.47,0,0,1-3.26,3.8C54,27.87,51,30.88,47.66,34.16S41.28,40.35,39,42.43a21.23,21.23,0,0,1-3.82,3.18,20.94,20.94,0,0,1,3.25-3.78c2.11-2.23,5.08-5.25,8.42-8.54s6.4-6.2,8.66-8.28A20.91,20.91,0,0,1,59.32,21.84Z" transform="translate(-0.53 197.66)" fill="#e0e0e0"/></g></g></g></g></g></g></g><g id="Group_10585" data-name="Group 10585"><g id="Group_10584" data-name="Group 10584"><g id="Group_10583" data-name="Group 10583"><g id="Group_10582" data-name="Group 10582"><g id="Group_10581" data-name="Group 10581"><g id="Group_10580" data-name="Group 10580"><g id="Group_10579" data-name="Group 10579"><path id="Path_10308" data-name="Path 10308" d="M191.54,21.5a21.06,21.06,0,0,1,3.79,3.26c2.23,2.11,5.25,5.08,8.52,8.4s6.2,6.38,8.27,8.64a20.43,20.43,0,0,1,3.18,3.82,21.29,21.29,0,0,1-3.78-3.25c-2.22-2.11-5.25-5.08-8.53-8.42s-6.21-6.4-8.29-8.66A20.86,20.86,0,0,1,191.54,21.5Z" transform="translate(-0.53 197.66)" fill="#e0e0e0"/></g></g></g></g></g></g></g><g id="Group_10592" data-name="Group 10592"><g id="Group_10591" data-name="Group 10591"><g id="Group_10590" data-name="Group 10590"><g id="Group_10589" data-name="Group 10589"><g id="Group_10588" data-name="Group 10588"><g id="Group_10587" data-name="Group 10587"><g id="Group_10586" data-name="Group 10586"><path id="Path_10309" data-name="Path 10309" d="M191.18-116.53a21.83,21.83,0,0,1,3.26-3.79c2.12-2.23,5.08-5.25,8.41-8.52s6.38-6.19,8.63-8.27a21.51,21.51,0,0,1,3.82-3.18,20.83,20.83,0,0,1-3.24,3.78c-2.11,2.23-5.09,5.25-8.42,8.53s-6.4,6.21-8.66,8.29A20.92,20.92,0,0,1,191.18-116.53Z" transform="translate(-0.53 197.66)" fill="#e0e0e0"/></g></g></g></g></g></g></g><g id="Group_10599" data-name="Group 10599"><g id="Group_10598" data-name="Group 10598"><g id="Group_10597" data-name="Group 10597"><g id="Group_10596" data-name="Group 10596"><g id="Group_10595" data-name="Group 10595"><g id="Group_10594" data-name="Group 10594"><g id="Group_10593" data-name="Group 10593"><path id="Path_10310" data-name="Path 10310" d="M59-116.19a21.53,21.53,0,0,1-3.8-3.26c-2.23-2.12-5.24-5.08-8.52-8.41s-6.19-6.38-8.26-8.63a21.57,21.57,0,0,1-3.19-3.82A20.18,20.18,0,0,1,39-137.07c2.23,2.11,5.25,5.09,8.54,8.42s6.21,6.4,8.28,8.66A21.39,21.39,0,0,1,59-116.19Z" transform="translate(-0.53 197.66)" fill="#e0e0e0"/></g></g></g></g></g></g></g><g id="Group_10606" data-name="Group 10606"><g id="Group_10605" data-name="Group 10605"><g id="Group_10604" data-name="Group 10604"><g id="Group_10603" data-name="Group 10603"><g id="Group_10602" data-name="Group 10602"><g id="Group_10601" data-name="Group 10601"><g id="Group_10600" data-name="Group 10600"><path id="Path_10311" data-name="Path 10311" d="M191.18,20.93s0-.24,0-.67,0-1.1,0-1.92c0-1.73,0-4.22-.06-7.44,0-6.53-.07-16-.13-28.09-.06-24.14-.15-58.53-.26-99.7l.51.51-131.84.07h0l.59-.58c0,50.58-.06,97.92-.09,137.82l-.5-.5,95.47.25,26.82.13,7.1.06,1.83,0c.21,0,.43,0,.64,0a5.83,5.83,0,0,1-.59,0l-1.77,0-7,.06-26.7.13-95.79.26h-.5v-.51c0-39.91-.05-87.23-.08-137.82v-.59h.59l131.84.08h.52v.51c-.11,41.3-.2,75.81-.26,100-.06,12-.11,21.47-.14,28,0,3.19,0,5.64-.06,7.33,0,.8,0,1.41,0,1.87A4.32,4.32,0,0,1,191.18,20.93Z" transform="translate(-0.53 197.66)" fill="#e0e0e0"/></g></g></g></g></g></g></g><g id="Group_10612" data-name="Group 10612"><g id="Group_10611" data-name="Group 10611"><g id="Group_10610" data-name="Group 10610"><g id="Group_10609" data-name="Group 10609"><g id="Group_10608" data-name="Group 10608"><g id="Group_10607" data-name="Group 10607"><rect id="Rectangle_1504" data-name="Rectangle 1504" x="102.85" y="127.62" width="44.12" height="44.12" fill="#ebebeb"/></g></g></g></g></g></g></g><g id="Group_10678" data-name="Group 10678"><g id="Group_10619" data-name="Group 10619"><g id="Group_10618" data-name="Group 10618"><g id="Group_10617" data-name="Group 10617"><g id="Group_10616" data-name="Group 10616"><g id="Group_10615" data-name="Group 10615"><g id="Group_10614" data-name="Group 10614"><rect id="Rectangle_1505" data-name="Rectangle 1505" x="715.3" y="109.46" width="189.07" height="197.09" fill="#e0e0e0"/></g></g></g></g></g></g><g id="Group_10630" data-name="Group 10630"><g id="Group_10624" data-name="Group 10624"><g id="Group_10623" data-name="Group 10623"><g id="Group_10622" data-name="Group 10622"><g id="Group_10621" data-name="Group 10621"><g id="Group_10620" data-name="Group 10620"><rect id="Rectangle_1506" data-name="Rectangle 1506" x="702.5" y="109.46" width="189.07" height="197.09" fill="#fafafa"/></g></g></g></g></g><g id="Group_10629" data-name="Group 10629"><g id="Group_10628" data-name="Group 10628"><g id="Group_10627" data-name="Group 10627"><g id="Group_10626" data-name="Group 10626"><g id="Group_10625" data-name="Group 10625"><path id="Path_10312" data-name="Path 10312" d="M892.16,109H703V-88.26H892.16Zm-189.07-.12h189v-197h-189Z" transform="translate(-0.53 197.66)" fill="#e0e0e0"/></g></g></g></g></g></g><g id="Group_10636" data-name="Group 10636"><g id="Group_10635" data-name="Group 10635"><g id="Group_10634" data-name="Group 10634"><g id="Group_10633" data-name="Group 10633"><g id="Group_10632" data-name="Group 10632"><g id="Group_10631" data-name="Group 10631"><rect id="Rectangle_1507" data-name="Rectangle 1507" x="727.92" y="135.96" width="138.24" height="144.1" fill="#fafafa"/></g></g></g></g></g></g><g id="Group_10643" data-name="Group 10643"><g id="Group_10642" data-name="Group 10642"><g id="Group_10641" data-name="Group 10641"><g id="Group_10640" data-name="Group 10640"><g id="Group_10639" data-name="Group 10639"><g id="Group_10638" data-name="Group 10638"><g id="Group_10637" data-name="Group 10637"><path id="Path_10313" data-name="Path 10313" d="M728.45,83.36a22.64,22.64,0,0,1-3.41,4c-2.21,2.33-5.31,5.48-8.79,8.91s-6.66,6.47-9,8.66a22.39,22.39,0,0,1-4,3.33,21.71,21.71,0,0,1,3.39-4c2.21-2.34,5.33-5.5,8.81-8.93s6.69-6.49,9.05-8.66A21.52,21.52,0,0,1,728.45,83.36Z" transform="translate(-0.53 197.66)" fill="#e0e0e0"/></g></g></g></g></g></g></g><g id="Group_10650" data-name="Group 10650"><g id="Group_10649" data-name="Group 10649"><g id="Group_10648" data-name="Group 10648"><g id="Group_10647" data-name="Group 10647"><g id="Group_10646" data-name="Group 10646"><g id="Group_10645" data-name="Group 10645"><g id="Group_10644" data-name="Group 10644"><path id="Path_10314" data-name="Path 10314" d="M866.68,83a22.64,22.64,0,0,1,4,3.41c2.33,2.21,5.48,5.31,8.91,8.78s6.47,6.66,8.65,9a21.63,21.63,0,0,1,3.34,4,21.71,21.71,0,0,1-3.95-3.39c-2.34-2.21-5.5-5.33-8.93-8.81s-6.49-6.69-8.66-9A22.2,22.2,0,0,1,866.68,83Z" transform="translate(-0.53 197.66)" fill="#e0e0e0"/></g></g></g></g></g></g></g><g id="Group_10657" data-name="Group 10657"><g id="Group_10656" data-name="Group 10656"><g id="Group_10655" data-name="Group 10655"><g id="Group_10654" data-name="Group 10654"><g id="Group_10653" data-name="Group 10653"><g id="Group_10652" data-name="Group 10652"><g id="Group_10651" data-name="Group 10651"><path id="Path_10315" data-name="Path 10315" d="M866.31-61.32a22.64,22.64,0,0,1,3.41-4c2.21-2.33,5.31-5.48,8.79-8.91s6.66-6.48,9-8.66a22,22,0,0,1,4-3.33,21.7,21.7,0,0,1-3.4,4c-2.2,2.33-5.32,5.49-8.8,8.92s-6.7,6.5-9.06,8.66A21.07,21.07,0,0,1,866.31-61.32Z" transform="translate(-0.53 197.66)" fill="#e0e0e0"/></g></g></g></g></g></g></g><g id="Group_10664" data-name="Group 10664"><g id="Group_10663" data-name="Group 10663"><g id="Group_10662" data-name="Group 10662"><g id="Group_10661" data-name="Group 10661"><g id="Group_10660" data-name="Group 10660"><g id="Group_10659" data-name="Group 10659"><g id="Group_10658" data-name="Group 10658"><path id="Path_10316" data-name="Path 10316" d="M728.07-60.95a22.64,22.64,0,0,1-4-3.41c-2.33-2.21-5.48-5.31-8.91-8.79s-6.47-6.66-8.66-9a22.33,22.33,0,0,1-3.33-4,22,22,0,0,1,3.95,3.39c2.33,2.21,5.5,5.33,8.93,8.81s6.49,6.69,8.66,9A21.85,21.85,0,0,1,728.07-60.95Z" transform="translate(-0.53 197.66)" fill="#e0e0e0"/></g></g></g></g></g></g></g><g id="Group_10671" data-name="Group 10671"><g id="Group_10670" data-name="Group 10670"><g id="Group_10669" data-name="Group 10669"><g id="Group_10668" data-name="Group 10668"><g id="Group_10667" data-name="Group 10667"><g id="Group_10666" data-name="Group 10666"><g id="Group_10665" data-name="Group 10665"><path id="Path_10317" data-name="Path 10317" d="M866.31,82.4c0-.23,0-.47,0-.7,0-.49,0-1.15,0-2,0-1.8,0-4.4-.06-7.78,0-6.83-.08-16.75-.14-29.37-.07-25.24-.16-61.19-.28-104.24l.54.53-137.85.08h0l.61-.61C729-8.8,729,40.68,729,82.41l-.53-.53,99.82.27,28,.14,7.42.06,1.92,0q.33,0,.66,0a3.08,3.08,0,0,1-.61,0l-1.86,0-7.32.06-27.92.14-100.16.27h-.54v-.53c0-41.73-.06-91.21-.09-144.1v-.61h.63l137.85.08h.53v.53c-.11,43.19-.2,79.27-.27,104.58-.06,12.56-.1,22.45-.14,29.25q0,5-.06,7.66c0,.83,0,1.47,0,2A4.71,4.71,0,0,1,866.31,82.4Z" transform="translate(-0.53 197.66)" fill="#e0e0e0"/></g></g></g></g></g></g></g><g id="Group_10677" data-name="Group 10677"><g id="Group_10676" data-name="Group 10676"><g id="Group_10675" data-name="Group 10675"><g id="Group_10674" data-name="Group 10674"><g id="Group_10673" data-name="Group 10673"><g id="Group_10672" data-name="Group 10672"><rect id="Rectangle_1508" data-name="Rectangle 1508" x="773.97" y="184.94" width="46.13" height="46.13" fill="#ebebeb"/></g></g></g></g></g></g></g><g id="Group_10705" data-name="Group 10705"><g id="Group_10704" data-name="Group 10704"><g id="Group_10683" data-name="Group 10683"><g id="Group_10682" data-name="Group 10682"><g id="Group_10681" data-name="Group 10681"><g id="Group_10680" data-name="Group 10680"><g id="Group_10679" data-name="Group 10679"><path id="Path_10318" data-name="Path 10318" d="M44.57,571.23v96.52h296.8V571.23Z" transform="translate(-0.53 197.66)" fill="#f5f5f5"/></g></g></g></g></g><g id="Group_10688" data-name="Group 10688"><g id="Group_10687" data-name="Group 10687"><g id="Group_10686" data-name="Group 10686"><g id="Group_10685" data-name="Group 10685"><g id="Group_10684" data-name="Group 10684"><path id="Path_10319" data-name="Path 10319" d="M32.11,544.24v27H351.76v-27Z" transform="translate(-0.53 197.66)" fill="#e0e0e0"/></g></g></g></g></g><g id="Group_10693" data-name="Group 10693"><g id="Group_10692" data-name="Group 10692"><g id="Group_10691" data-name="Group 10691"><g id="Group_10690" data-name="Group 10690"><g id="Group_10689" data-name="Group 10689"><path id="Path_10320" data-name="Path 10320" d="M191.94,667.74H341.39V571.23h10.37v-27h-166v24.49Z" transform="translate(-0.53 197.66)" fill="#e0e0e0"/></g></g></g></g></g><g id="Group_10698" data-name="Group 10698"><g id="Group_10697" data-name="Group 10697"><g id="Group_10696" data-name="Group 10696"><g id="Group_10695" data-name="Group 10695"><g id="Group_10694" data-name="Group 10694"><rect id="Rectangle_1509" data-name="Rectangle 1509" x="85.55" y="784.45" width="60.19" height="14.53" fill="#e0e0e0"/></g></g></g></g></g><g id="Group_10703" data-name="Group 10703"><g id="Group_10702" data-name="Group 10702"><g id="Group_10701" data-name="Group 10701"><g id="Group_10700" data-name="Group 10700"><g id="Group_10699" data-name="Group 10699"><rect id="Rectangle_1510" data-name="Rectangle 1510" x="77.81" y="817.15" width="77.29" height="30.68" fill="#fff"/></g></g></g></g></g></g></g></g><g id="Character"><g id="Group_10788" data-name="Group 10788"><g id="Group_10712" data-name="Group 10712"><path id="Path_10321" data-name="Path 10321" d="M461.61,387s-4.87-21.18-24.52-20.12-24.42,1.07-32.91,0-21.65-11.28-25.37-8.09-1.64,10.09,5.26,16.23a67.77,67.77,0,0,0,18.76,10.32l-25.11,4.33s-22.63-12.08-27.94-9.95a8.25,8.25,0,0,0-4.89,8s-9.39-4.22-12-.5-3.31,6.2-.65,8.33c0,0-1.74-1.73-6.62-.29-4.17,1.23-3.81,8.92,0,11l1.29.74s35.58,20.5,36.67,20.65c6.28.84,44.63-.8,64.38-1.71a20.17,20.17,0,0,1,18,9.41l31.8,50.4,35.92-41.35Z" transform="translate(-0.53 197.66)" fill="#b78876"/><g id="Group_10706" data-name="Group 10706"><path id="Path_10322" data-name="Path 10322" d="M397.09,398.52a38.66,38.66,0,0,1-5.81,1.29c-3.67.69-8.86,1.61-14.89,2.64l-.16,0-.15-.07-8-3.68-19.19-8.89-5.78-2.76a9.52,9.52,0,0,1-2.07-1.15,10.2,10.2,0,0,1,2.24.76l5.93,2.45,8.73,3.76,10.6,4.84,8,3.74-.31-.05c6-.95,11.25-1.74,14.95-2.26A40.59,40.59,0,0,1,397.09,398.52Z" transform="translate(-0.53 197.66)" fill="#aa6550"/></g><g id="Group_10707" data-name="Group 10707"><path id="Path_10323" data-name="Path 10323" d="M388.29,408A30.26,30.26,0,0,0,374,419.34,18,18,0,0,1,388.29,408Z" transform="translate(-0.53 197.66)" fill="#aa6550"/></g><g id="Group_10708" data-name="Group 10708"><path id="Path_10324" data-name="Path 10324" d="M429,378.29c.13,0,.23,1.29.92,3.38a17.47,17.47,0,0,0,4.84,7.46l.72.66-1,.18a50.34,50.34,0,0,0-23.43,11.3c-3.15,2.68-4.81,4.66-5,4.55a5.57,5.57,0,0,1,1-1.51,37.42,37.42,0,0,1,3.4-3.61A45.92,45.92,0,0,1,434.37,389l-.25.83a16.85,16.85,0,0,1-4.74-8A8.31,8.31,0,0,1,429,378.29Z" transform="translate(-0.53 197.66)" fill="#aa6550"/></g><g id="Group_10709" data-name="Group 10709"><path id="Path_10325" data-name="Path 10325" d="M405.49,384.3A59.48,59.48,0,0,1,391.81,388c-3.86.72-7.37,1.21-9.93,1.46a15.26,15.26,0,0,1-4.16.17c0-.34,6.22-1.25,13.89-2.7L401.4,385A18.87,18.87,0,0,1,405.49,384.3Z" transform="translate(-0.53 197.66)" fill="#aa6550"/></g><g id="Group_10710" data-name="Group 10710"><path id="Path_10326" data-name="Path 10326" d="M372.07,412.08a50.68,50.68,0,0,1-5.94-2.37c-3.65-1.52-8.75-3.45-14.43-5.48s-10.82-4-14.47-5.51a31.22,31.22,0,0,1-5.78-2.82,47.69,47.69,0,0,1,6.06,2.1l14.55,5.21c5.69,2,10.79,4.09,14.38,5.79A30.16,30.16,0,0,1,372.07,412.08Z" transform="translate(-0.53 197.66)" fill="#aa6550"/></g><g id="Group_10711" data-name="Group 10711"><path id="Path_10327" data-name="Path 10327" d="M381.12,411.23a23.76,23.76,0,0,1-15.34,1.52c0-.31,3.49-.13,7.69-.56S381,410.93,381.12,411.23Z" transform="translate(-0.53 197.66)" fill="#aa6550"/></g></g><g id="Group_10731" data-name="Group 10731"><path id="Path_10328" data-name="Path 10328" d="M579.13,289.51s-31.76,18.27-38.42,74.12c-3.46,29.11-16.14,83.26-16.14,83.26l-26.08-29.31-39.43,45.16s42.61,91,66.78,115.75,71.81,32.43,71.81,32.43l9.59-152Z" transform="translate(-0.53 197.66)" fill="#e8505b"/><path id="Path_10329" data-name="Path 10329" d="M820.09,264.38l-73.41-12.85-93.59,4.66s-77.94,32.17-74,33.33L563.93,440l37.64,72.69-9.29,154.8H850.51L837,559.82,820.16,430.09l32.06,100.42,4.87,137H929c7.6-59.64,10-142.5,10-142.5l-58.7-191.67a111.86,111.86,0,0,0-49.68-63.74A62.29,62.29,0,0,0,820.09,264.38Z" transform="translate(-0.53 197.66)" fill="#e8505b"/><g id="Group_10713" data-name="Group 10713"><path id="Path_10330" data-name="Path 10330" d="M578.3,365.4a4.94,4.94,0,0,1,.18.76c.11.57.24,1.32.42,2.27.35,2.05.86,5,1.51,8.71,1.28,7.57,3.1,18.53,5.2,32.1s4.46,29.74,6.7,47.76,4.36,37.88,5.57,58.81c.11,2,.21,3.89.33,5.69v0c-1.1,40.61-2.33,77.1-3.48,103.43-.58,13.17-1.11,23.8-1.56,31.13l-.57,8.43c-.07.92-.13,1.64-.18,2.19a.37.37,0,1,1-.11.74A.37.37,0,0,1,592,667a.36.36,0,0,1,.31-.32c0-.55.05-1.27.08-2.2.08-2,.21-4.82.37-8.44.29-7.4.7-18,1.21-31.13.95-26.34,2.07-62.83,3.16-103.43v0c-.1-1.79-.21-3.73-.34-5.66-1.2-20.89-3.3-40.74-5.47-58.75s-4.47-34.19-6.47-47.77-3.7-24.5-4.86-32.15c-.56-3.75-1-6.68-1.3-8.74-.13-1-.24-1.71-.32-2.28A4.43,4.43,0,0,1,578.3,365.4Z" transform="translate(-0.53 197.66)" fill="#263238"/></g><g id="Group_10714" data-name="Group 10714"><path id="Path_10331" data-name="Path 10331" d="M803.55,373.55a3.16,3.16,0,0,1-.24-.95c-.12-.76-.28-1.67-.46-2.79-.09-.62-.19-1.29-.3-2s-.12-1.55-.18-2.42a50.67,50.67,0,0,1-.19-5.91c0-1.11.05-2.26.07-3.45s.22-2.44.34-3.72a77,77,0,0,1,1.24-8.15,82.52,82.52,0,0,1,15.87-34,79.87,79.87,0,0,1,5.45-6.19c.91-.91,1.74-1.85,2.64-2.66s1.76-1.55,2.59-2.27a53.31,53.31,0,0,1,4.66-3.67c.71-.5,1.33-1,2-1.42l1.75-1.06,2.42-1.43a3.21,3.21,0,0,1,.89-.44s-.25.25-.77.63L839,293.22l-1.67,1.14c-.6.43-1.22.95-1.9,1.48a57.85,57.85,0,0,0-4.52,3.74l-2.52,2.3c-.87.81-1.66,1.75-2.56,2.67a78.07,78.07,0,0,0-5.31,6.19,84.68,84.68,0,0,0-15.68,33.59,81.47,81.47,0,0,0-1.33,8c-.13,1.27-.34,2.49-.4,3.66s-.1,2.33-.14,3.41a57.48,57.48,0,0,0,0,5.87c0,.86,0,1.66.09,2.41s.15,1.39.21,2c.11,1.12.19,2,.26,2.81A3.56,3.56,0,0,1,803.55,373.55Z" transform="translate(-0.53 197.66)" fill="#263238"/></g><g id="Group_10715" data-name="Group 10715"><path id="Path_10332" data-name="Path 10332" d="M852.23,530.51a6.29,6.29,0,0,1-.47-1.25c-.3-.94-.7-2.13-1.18-3.62l-4.19-13.34c-3.52-11.28-8.38-26.85-13.95-44s-10.75-32.64-14.91-43.65c-2.17-5.48-4.27-9.77-5.57-12.82-.66-1.52-1.14-2.71-1.45-3.52a6.9,6.9,0,0,1-.42-1.26,6.35,6.35,0,0,1,.63,1.18l1.63,3.43c1.41,3,3.62,7.23,5.89,12.7,4.37,11,9.66,26.46,15.23,43.61s10.33,32.77,13.66,44.1c1.66,5.66,3,10.27,3.86,13.45.4,1.51.73,2.73,1,3.66A5.9,5.9,0,0,1,852.23,530.51Z" transform="translate(-0.53 197.66)" fill="#263238"/></g><g id="Group_10716" data-name="Group 10716"><path id="Path_10333" data-name="Path 10333" d="M906.38,525.73c0,.18-2.79-.62-7.31-1.34A67.72,67.72,0,0,0,864,528.22c-4.26,1.67-6.76,3-6.85,2.86a6.94,6.94,0,0,1,1.67-1.11,40.65,40.65,0,0,1,4.89-2.46,60.59,60.59,0,0,1,35.47-3.87,41.92,41.92,0,0,1,5.3,1.33A7.13,7.13,0,0,1,906.38,525.73Z" transform="translate(-0.53 197.66)" fill="#263238"/></g><g id="Group_10717" data-name="Group 10717"><path id="Path_10334" data-name="Path 10334" d="M581.35,515.11a25.7,25.7,0,0,1-1.94-2.9c-1.28-1.84-3.16-4.48-5.66-7.6-5-6.29-12.29-14.64-20.41-23.82s-15.49-17.5-20.68-23.65c-2.59-3.07-4.67-5.57-6.07-7.32a21.94,21.94,0,0,1-2.08-2.81,22.27,22.27,0,0,1,2.41,2.54l6.33,7.11,20.91,23.42c8.13,9.18,15.36,17.62,20.2,24.06a89.82,89.82,0,0,1,5.43,7.85c.58,1,1,1.77,1.23,2.29A3.13,3.13,0,0,1,581.35,515.11Z" transform="translate(-0.53 197.66)" fill="#263238"/></g><g id="Group_10718" data-name="Group 10718" opacity="0.3"><path id="Path_10335" data-name="Path 10335" d="M595.7,610.9c1.19-42.08,3.37-80.88-.44-122.44-1.71,36.88-15.14,80.05-28.65,114.4Z" transform="translate(-0.53 197.66)"/></g><g id="Group_10719" data-name="Group 10719" opacity="0.3"><path id="Path_10336" data-name="Path 10336" d="M820.16,430.09s-12-26.8-11.17-26.8a407.84,407.84,0,0,0,27.77,154.23Z" transform="translate(-0.53 197.66)"/></g><g id="Group_10720" data-name="Group 10720"><path id="Path_10337" data-name="Path 10337" d="M787.21,572.21a10.62,10.62,0,0,1-1.44.91l-4.21,2.45c-3.64,2.15-8.91,5.26-15.36,9.22s-14.13,8.68-22.85,13.61a202.45,202.45,0,0,1-29.48,13.93A99.16,99.16,0,0,1,682,618.82a48.08,48.08,0,0,1-14.16-2,33.76,33.76,0,0,1-11-5.79,28,28,0,0,1-9.9-14.8,20.89,20.89,0,0,1-.64-4.85,9.64,9.64,0,0,1,.09-1.7,32,32,0,0,0,1,6.45,28.07,28.07,0,0,0,10,14.3A33.33,33.33,0,0,0,668.05,616a47.93,47.93,0,0,0,13.89,1.86,100.38,100.38,0,0,0,31.56-6.52,209.32,209.32,0,0,0,29.36-13.78c8.72-4.87,16.42-9.55,22.94-13.4s11.84-6.89,15.55-8.93l4.33-2.27A8.89,8.89,0,0,1,787.21,572.21Z" transform="translate(-0.53 197.66)" fill="#263238"/></g><g id="Group_10721" data-name="Group 10721"><path id="Path_10338" data-name="Path 10338" d="M786.89,511.18a26.41,26.41,0,0,1-.8,3.63c-.28,1.16-.67,2.58-1.22,4.19s-1.09,3.48-1.92,5.45-1.64,4.18-2.75,6.45-2.33,4.66-3.66,7.16a106.79,106.79,0,0,1-23.3,28.39c-2.19,1.8-4.24,3.56-6.31,5s-4,2.81-5.78,4-3.5,2.09-5,2.94c-1.26.73-2.55,1.4-3.87,2a24.49,24.49,0,0,1-3.4,1.49,25,25,0,0,1,3.2-1.87c1.06-.55,2.33-1.25,3.77-2.16s3.12-1.82,4.85-3.06,3.7-2.49,5.66-4,4-3.23,6.2-5a111.69,111.69,0,0,0,23.08-28.14c1.36-2.46,2.7-4.77,3.73-7s2-4.38,2.86-6.33,1.46-3.78,2-5.36,1.05-3,1.39-4.11A23,23,0,0,1,786.89,511.18Z" transform="translate(-0.53 197.66)" fill="#263238"/></g><g id="Group_10722" data-name="Group 10722"><ellipse id="Ellipse_3177" data-name="Ellipse 3177" cx="557.89" cy="409.78" rx="0.54" ry="24.7" transform="matrix(0.22, -0.98, 0.98, 0.22, 37.13, 1064.07)" fill="#fafafa"/></g><g id="Group_10723" data-name="Group 10723"><path id="Path_10339" data-name="Path 10339" d="M582,402.86a39.61,39.61,0,0,1-6.87-.78c-4.21-.64-10-1.66-16.39-2.89L542.42,396a48.87,48.87,0,0,1-6.73-1.53,40.59,40.59,0,0,1,6.87.77c4.21.65,10,1.67,16.39,2.89l16.32,3.21A48.87,48.87,0,0,1,582,402.86Z" transform="translate(-0.53 197.66)" fill="#fafafa"/></g><g id="Group_10724" data-name="Group 10724"><path id="Path_10340" data-name="Path 10340" d="M803.94,404.44c0,.3-46.91.19-104.76-.25s-104.76-1-104.76-1.33,46.9-.19,104.77.25S803.94,404.14,803.94,404.44Z" transform="translate(-0.53 197.66)" fill="#fafafa"/></g><g id="Group_10725" data-name="Group 10725"><path id="Path_10341" data-name="Path 10341" d="M807.41,415.07c0,.3-48.27.54-107.8.54s-107.81-.24-107.81-.54,48.26-.55,107.81-.55S807.41,414.77,807.41,415.07Z" transform="translate(-0.53 197.66)" fill="#fafafa"/></g><g id="Group_10726" data-name="Group 10726"><path id="Path_10342" data-name="Path 10342" d="M895.25,390.31s.09,0,.25-.05c-.09.24-.19.08-.33.13H895v-.2h.92l-.64.24c-3.85,1.41-20,6.87-39,14.12l-28,10.78-8.51,3.26a19.34,19.34,0,0,1-3.17,1.06,20.72,20.72,0,0,1,3-1.45c2-.87,4.83-2.1,8.38-3.58,7.1-3,17-6.93,27.94-11.08,19.06-7.26,35.32-12.38,39.3-13.33l0,.23-.23,0h0v-.2h.19c.12.07.23-.08.3.16C895.34,390.35,895.25,390.33,895.25,390.31Z" transform="translate(-0.53 197.66)" fill="#fafafa"/></g><g id="Group_10727" data-name="Group 10727"><path id="Path_10343" data-name="Path 10343" d="M893.55,376.86c.09.28-18.2,6.69-40.86,14.3s-41.11,13.56-41.21,13.28,18.2-6.69,40.86-14.31S893.45,376.58,893.55,376.86Z" transform="translate(-0.53 197.66)" fill="#fafafa"/></g><g id="Group_10728" data-name="Group 10728"><path id="Path_10344" data-name="Path 10344" d="M754.16,253.09a9.39,9.39,0,0,1,.19,1.67,39.23,39.23,0,0,1,.12,4.85,52.21,52.21,0,0,1-3.69,17.44,53.78,53.78,0,0,1-15.45,21.34,53,53,0,0,1-61.13,3.74,53.8,53.8,0,0,1-17.94-19.32A52.31,52.31,0,0,1,650.47,266a39.09,39.09,0,0,1-.47-4.83,9.54,9.54,0,0,1,0-1.69,9.34,9.34,0,0,1,.23,1.66c.08,1.11.31,2.72.67,4.78a54.32,54.32,0,0,0,6,16.55,53.73,53.73,0,0,0,17.8,18.84,52.41,52.41,0,0,0,60-3.67,53.5,53.5,0,0,0,15.38-20.86,54.23,54.23,0,0,0,4-17.16c.1-2.09.13-3.72.08-4.82A9.2,9.2,0,0,1,754.16,253.09Z" transform="translate(-0.53 197.66)" fill="#fafafa"/></g><g id="Group_10729" data-name="Group 10729"><path id="Path_10345" data-name="Path 10345" d="M500.28,421.9a9.53,9.53,0,0,1-1.09,2c-.76,1.26-1.92,3-3.41,5.22a205.14,205.14,0,0,1-26.58,31.36c-1.9,1.82-3.47,3.26-4.59,4.22a9.89,9.89,0,0,1-1.81,1.41,9.19,9.19,0,0,1,1.52-1.72l4.33-4.45c3.66-3.77,8.61-9.07,13.79-15.17s9.58-11.87,12.7-16.09l3.68-5A9,9,0,0,1,500.28,421.9Z" transform="translate(-0.53 197.66)" fill="#fafafa"/></g><g id="Group_10730" data-name="Group 10730" opacity="0.3"><path id="Path_10346" data-name="Path 10346" d="M735.7,578.1c-10.52,6-24.71,6.93-37.38,7.27a16.11,16.11,0,0,1-7.05-.93,6,6,0,0,1-3.78-5.56c.25-2.86,3.11-4.7,5.76-5.8,10.23-4.24,21.72-4,32.46-6.69,18.32-4.61,37-17.68,51.24-30.06A111.29,111.29,0,0,1,735.7,578.1" transform="translate(-0.53 197.66)"/></g></g><g id="Group_10787" data-name="Group 10787"><g id="Group_10782" data-name="Group 10782"><g id="Group_10780" data-name="Group 10780"><g id="Group_10740" data-name="Group 10740"><g id="Group_10739" data-name="Group 10739"><g id="Group_10738" data-name="Group 10738"><g id="Group_10734" data-name="Group 10734"><g id="Group_10733" data-name="Group 10733"><g id="Group_10732" data-name="Group 10732"><path id="Path_10347" data-name="Path 10347" d="M696.3,302.36h0A47,47,0,0,1,653,255.06c.1-11.71.22-21.07.22-21.07s-37.72-5.87-38.19-43.59,6.07-124.34,6.07-124.34h0A131.13,131.13,0,0,1,752.86,82.62l5.57,4.31-11.49,171.7a47,47,0,0,1-50.05,43.77Z" transform="translate(-0.53 197.66)" fill="#b78876"/></g></g></g><g id="Group_10737" data-name="Group 10737"><g id="Group_10736" data-name="Group 10736"><g id="Group_10735" data-name="Group 10735"><path id="Path_10348" data-name="Path 10348" d="M653.19,233.44a87.59,87.59,0,0,0,49.17-14s-11.62,27.15-49.26,23.76Z" transform="translate(-0.53 197.66)" fill="#aa6550"/></g></g></g></g></g></g><g id="Group_10748" data-name="Group 10748"><g id="Group_10743" data-name="Group 10743"><g id="Group_10742" data-name="Group 10742"><g id="Group_10741" data-name="Group 10741"><path id="Path_10349" data-name="Path 10349" d="M753.81,126c.64-.28,25.91-7.66,25.09,18.12s-26.55,19.65-26.57,18.9S753.81,126,753.81,126Z" transform="translate(-0.53 197.66)" fill="#b78876"/></g></g></g><g id="Group_10747" data-name="Group 10747"><g id="Group_10746" data-name="Group 10746"><g id="Group_10745" data-name="Group 10745"><g id="Group_10744" data-name="Group 10744"><path id="Path_10350" data-name="Path 10350" d="M760.52,153.51c.12-.08.44.34,1.19.7a4.47,4.47,0,0,0,3.35.18c2.76-.91,5.19-5.17,5.46-9.81a14.75,14.75,0,0,0-1-6.47,5.21,5.21,0,0,0-3.27-3.56,2.29,2.29,0,0,0-2.69,1.15c-.37.71-.22,1.23-.36,1.27s-.54-.45-.3-1.51a2.94,2.94,0,0,1,1.07-1.58,3.43,3.43,0,0,1,2.5-.58,6.34,6.34,0,0,1,4.57,4.15,15.27,15.27,0,0,1,1.33,7.24c-.33,5.19-3.15,10-6.91,10.93a4.81,4.81,0,0,1-4.08-.82C760.55,154.13,760.43,153.56,760.52,153.51Z" transform="translate(-0.53 197.66)" fill="#aa6550"/></g></g></g></g></g><g id="Group_10779" data-name="Group 10779"><g id="Group_10778" data-name="Group 10778"><g id="Group_10771" data-name="Group 10771"><g id="Group_10770" data-name="Group 10770"><g id="Group_10769" data-name="Group 10769"><g id="Group_10756" data-name="Group 10756"><g id="Group_10751" data-name="Group 10751"><g id="Group_10750" data-name="Group 10750"><g id="Group_10749" data-name="Group 10749"><path id="Path_10351" data-name="Path 10351" d="M634.82,126.55A5.38,5.38,0,0,0,640,132a5.15,5.15,0,0,0,5.54-4.72.66.66,0,0,1,0-.14,5.39,5.39,0,0,0-5.19-5.44,5.16,5.16,0,0,0-5.55,4.74A.49.49,0,0,0,634.82,126.55Z" transform="translate(-0.53 197.66)" fill="#263238"/></g></g></g><g id="Group_10755" data-name="Group 10755"><g id="Group_10754" data-name="Group 10754"><g id="Group_10753" data-name="Group 10753"><g id="Group_10752" data-name="Group 10752"><path id="Path_10352" data-name="Path 10352" d="M628.27,119.14c.66.7,4.75-2.33,10.55-2.3s10,2.91,10.65,2.2c.31-.31-.37-1.58-2.22-2.93a14.82,14.82,0,0,0-8.55-2.64,14.21,14.21,0,0,0-8.39,2.71C628.54,117.55,627.94,118.82,628.27,119.14Z" transform="translate(-0.53 197.66)" fill="#263238"/></g></g></g></g></g><g id="Group_10764" data-name="Group 10764"><g id="Group_10759" data-name="Group 10759"><g id="Group_10758" data-name="Group 10758"><g id="Group_10757" data-name="Group 10757"><path id="Path_10353" data-name="Path 10353" d="M690.48,127.82a5.37,5.37,0,0,0,5.19,5.43,5.14,5.14,0,0,0,5.54-4.73.49.49,0,0,0,0-.12A5.39,5.39,0,0,0,696,123a5.14,5.14,0,0,0-5.54,4.73A.57.57,0,0,0,690.48,127.82Z" transform="translate(-0.53 197.66)" fill="#263238"/></g></g></g><g id="Group_10763" data-name="Group 10763"><g id="Group_10762" data-name="Group 10762"><g id="Group_10761" data-name="Group 10761"><g id="Group_10760" data-name="Group 10760"><path id="Path_10354" data-name="Path 10354" d="M685.24,120.22c.67.7,4.76-2.34,10.55-2.31s10.05,2.92,10.66,2.21c.31-.31-.37-1.58-2.22-2.93a14.84,14.84,0,0,0-8.55-2.64,14.16,14.16,0,0,0-8.39,2.72C685.53,118.63,684.92,119.9,685.24,120.22Z" transform="translate(-0.53 197.66)" fill="#263238"/></g></g></g></g></g><g id="Group_10768" data-name="Group 10768"><g id="Group_10767" data-name="Group 10767"><g id="Group_10766" data-name="Group 10766"><g id="Group_10765" data-name="Group 10765"><path id="Path_10355" data-name="Path 10355" d="M664.21,163.21a38.22,38.22,0,0,0-9.42-1.7c-1.48-.15-2.88-.44-3.13-1.45a7.58,7.58,0,0,1,1-4.39L657,144.4c6.08-16.05,10.48-29.24,9.83-29.48s-6.1,12.57-12.18,28.62l-4.19,11.32a8.6,8.6,0,0,0-.77,5.81,3.68,3.68,0,0,0,2.44,2.16,9.68,9.68,0,0,0,2.51.35A38,38,0,0,0,664.21,163.21Z" transform="translate(-0.53 197.66)" fill="#263238"/></g></g></g></g></g></g></g><g id="Group_10774" data-name="Group 10774"><g id="Group_10773" data-name="Group 10773"><g id="Group_10772" data-name="Group 10772"><path id="Path_10356" data-name="Path 10356" d="M683.75,97.5c.57,1.58,6.36.83,13.16,1.67,6.82.68,12.3,2.66,13.2,1.26.41-.67-.55-2.16-2.77-3.69a23,23,0,0,0-20.08-2.22C684.76,95.53,683.51,96.75,683.75,97.5Z" transform="translate(-0.53 197.66)" fill="#263238"/></g></g></g><g id="Group_10777" data-name="Group 10777"><g id="Group_10776" data-name="Group 10776"><g id="Group_10775" data-name="Group 10775"><path id="Path_10357" data-name="Path 10357" d="M630.4,102.36c1,1.33,5,0,9.81-.12,4.8-.23,8.87.89,9.81-.49.41-.66-.23-2-2-3.23a14.21,14.21,0,0,0-15.81.49C630.51,100.36,630,101.71,630.4,102.36Z" transform="translate(-0.53 197.66)" fill="#263238"/></g></g></g></g></g></g><g id="Group_10781" data-name="Group 10781"><path id="Path_10358" data-name="Path 10358" d="M602.75,42.26a14,14,0,0,1,5.14-12.45,9.89,9.89,0,0,1,12.8,1A11.53,11.53,0,0,1,629.4,17q.6-.14,1.2-.21C636.75,16.39,642,21,648,22.67a28,28,0,0,0,17.61-2c5.58-2.24,10.8-5.34,16.45-7.41A48.23,48.23,0,0,1,743.7,41.53a21.4,21.4,0,0,1,22.71,8.6,35.1,35.1,0,0,1,5.38,24.75,78.41,78.41,0,0,1-4.31,16.92c0,.49,0,1,0,1.45-.39,20.74-2.73,45.1-11.59,45.23-15.42.24-11.74-28.82-11.74-28.82-18.93-7.33-11.88-35.67-16.61-40s-14.63-14.29-54.27,6c-15.38,7.86-35.85,7.62-47,5.09-.34-.07-.67-.12-1-.2l-.23-.05c-.13,0-.21-.1-.34-.13a35.76,35.76,0,0,1-10.16-4.31,20.09,20.09,0,0,1-8.38-9.33,11,11,0,0,1,2.16-11.81A24.14,24.14,0,0,1,602.75,42.26Z" transform="translate(-0.53 197.66)" fill="#263238"/></g></g><path id="Path_10359" data-name="Path 10359" d="M659.29,181a26.11,26.11,0,0,0,3.36,6.59,8.75,8.75,0,0,0,6.22,3.61,7.84,7.84,0,0,0,6.64-3.63,12.52,12.52,0,0,0,1.85-7.55c-.1-2.38-1.19-5.23-3.56-5.51a6,6,0,0,0-2.87.64l-12.45,5.05" transform="translate(-0.53 197.66)" fill="#aa6550"/><g id="Group_10783" data-name="Group 10783"><path id="Path_10360" data-name="Path 10360" d="M664.26,191.27a18,18,0,0,0,6.64-.81,9.51,9.51,0,0,0,5-4.56,10,10,0,0,0,.17-8.14,9,9,0,0,0-1.09-1.87c-.49-.51-.4-.49-.94-.41s-1.33.52-2,.78l-2,.83c-2.66,1.08-5.07,2-7.1,2.78a22.71,22.71,0,0,1-6.78,2,22.8,22.8,0,0,1,6.15-3.48c2-1,4.31-2,6.93-3.22l2-.9a23.58,23.58,0,0,1,2.27-.94,2.93,2.93,0,0,1,1.85.06,3.37,3.37,0,0,1,1.37,1.08,10.42,10.42,0,0,1,1.4,2.36,11.64,11.64,0,0,1-.38,9.95,10.64,10.64,0,0,1-6.33,5.11,10.07,10.07,0,0,1-5.39.21C664.79,191.82,664.21,191.4,664.26,191.27Z" transform="translate(-0.53 197.66)" fill="#263238"/></g><g id="Group_10784" data-name="Group 10784"><path id="Path_10361" data-name="Path 10361" d="M728.82,66.2a22.52,22.52,0,0,0,0-4.57A17.78,17.78,0,0,0,723,51a24,24,0,0,0-17-5.61,74,74,0,0,0-22.06,4.94c-3.86,1.27-7.66,2.48-11.42,3.31a58.63,58.63,0,0,1-11,1.33,59.91,59.91,0,0,1-18.58-2.44,58.12,58.12,0,0,1-11.63-4.93,33.39,33.39,0,0,1-2.92-1.81,4.82,4.82,0,0,1-1-.72c.06-.1,1.44.81,4.09,2.14a64,64,0,0,0,11.65,4.56A60.92,60.92,0,0,0,661.41,54a59,59,0,0,0,10.83-1.38c3.7-.83,7.46-2,11.32-3.31a73.27,73.27,0,0,1,22.4-4.9,24.58,24.58,0,0,1,17.53,6.06,17.82,17.82,0,0,1,5.79,11.12A10.39,10.39,0,0,1,728.82,66.2Z" transform="translate(-0.53 197.66)" fill="#455a64"/></g><g id="Group_10785" data-name="Group 10785"><path id="Path_10362" data-name="Path 10362" d="M758.15,129.94a3.5,3.5,0,0,1-.49-.79c-.29-.53-.7-1.33-1.17-2.4a48.34,48.34,0,0,1-3-9.38,51.72,51.72,0,0,1-1-14.58,130.18,130.18,0,0,1,3.36-17.52,34.34,34.34,0,0,0,0-17.32,17.56,17.56,0,0,0-3.61-6.57,13.26,13.26,0,0,0-5.43-3.56,12.38,12.38,0,0,0-9.32.24,18.19,18.19,0,0,0-2.9,2,7.2,7.2,0,0,1,2.7-2.41,12.5,12.5,0,0,1,9.76-.6A13.91,13.91,0,0,1,753,60.74a18.35,18.35,0,0,1,3.91,6.88A34.81,34.81,0,0,1,757,85.49a139.08,139.08,0,0,0-3.44,17.38,53.11,53.11,0,0,0,.73,14.35,55.38,55.38,0,0,0,2.63,9.36A34.05,34.05,0,0,1,758.15,129.94Z" transform="translate(-0.53 197.66)" fill="#455a64"/></g><g id="Group_10786" data-name="Group 10786"><path id="Path_10363" data-name="Path 10363" d="M732.45,63.15a7.72,7.72,0,0,1,0-1.52c0-1.1.09-2.53.16-4.33a50.11,50.11,0,0,0-1.75-15.65,27.72,27.72,0,0,0-5-9.52,19.5,19.5,0,0,0-10.11-6.68,25.48,25.48,0,0,0-13.5.56,62,62,0,0,0-13.5,6.12A111.85,111.85,0,0,1,675.33,39a40.83,40.83,0,0,1-13.8,2.77,43.22,43.22,0,0,1-12.64-1.55A48.66,48.66,0,0,1,638.65,36a41.67,41.67,0,0,1-12.14-10.36,26.52,26.52,0,0,1-2.46-3.59,7.47,7.47,0,0,1-.73-1.33,8.39,8.39,0,0,1,.92,1.21,32,32,0,0,0,2.61,3.43A43.28,43.28,0,0,0,639,35.31a49,49,0,0,0,10.11,4,42.93,42.93,0,0,0,12.36,1.42A40.43,40.43,0,0,0,674.93,38a113.49,113.49,0,0,0,13.24-6.84A62.91,62.91,0,0,1,701.91,25,26.47,26.47,0,0,1,716,24.46a20.39,20.39,0,0,1,10.56,7.09,28.27,28.27,0,0,1,5.08,9.87A47.86,47.86,0,0,1,733,57.32c-.11,1.89-.26,3.33-.37,4.33A8.35,8.35,0,0,1,732.45,63.15Z" transform="translate(-0.53 197.66)" fill="#455a64"/></g></g></g></g><g id="Desk"><g id="Group_10789" data-name="Group 10789"><path id="Path_10364" data-name="Path 10364" d="M955,667.46c0,.3-211.77.54-472.95.54s-473-.24-473-.54,211.72-.55,473-.55S955,667.16,955,667.46Z" transform="translate(-0.53 197.66)" fill="#263238"/></g></g><g id="Plant"><g id="Group_10814" data-name="Group 10814"><g id="Group_10792" data-name="Group 10792"><g id="Group_10791" data-name="Group 10791"><g id="Group_10790" data-name="Group 10790"><path id="Path_10365" data-name="Path 10365" d="M370.84,581.91c4,5.66,11.77,3.75,15.34.25a29,29,0,0,0,6.43-13.37c3.1-11,6.22-22.55,3.8-33.73a18.7,18.7,0,0,0-4.35-9.14,9.78,9.78,0,0,0-9.29-3,14.33,14.33,0,0,0-8.06,8.55A80.26,80.26,0,0,0,367,566a27.89,27.89,0,0,0,3.86,15.95" transform="translate(-0.53 197.66)" fill="#e8505b"/></g></g></g><g id="Group_10795" data-name="Group 10795" opacity="0.2"><g id="Group_10794" data-name="Group 10794"><g id="Group_10793" data-name="Group 10793"><path id="Path_10366" data-name="Path 10366" d="M370.84,581.91c4,5.66,11.77,3.75,15.34.25a29,29,0,0,0,6.43-13.37c3.1-11,6.22-22.55,3.8-33.73a18.7,18.7,0,0,0-4.35-9.14,9.78,9.78,0,0,0-9.29-3,14.33,14.33,0,0,0-8.06,8.55A80.26,80.26,0,0,0,367,566a27.89,27.89,0,0,0,3.86,15.95" transform="translate(-0.53 197.66)"/></g></g></g><g id="Group_10798" data-name="Group 10798"><g id="Group_10797" data-name="Group 10797"><g id="Group_10796" data-name="Group 10796"><path id="Path_10367" data-name="Path 10367" d="M386,610.69A34.66,34.66,0,0,1,407.4,608,17.82,17.82,0,0,1,418,612.63a7.63,7.63,0,0,1,.17,10.58,10.09,10.09,0,0,1-6.66,1.73c-5.66,0-12-1-16.48,2.45-2.58,2-4.28,5.21-7.37,6.18a7.31,7.31,0,0,1-8.06-3.53,12.45,12.45,0,0,1-1-9.21A14.06,14.06,0,0,1,386,610.69Z" transform="translate(-0.53 197.66)" fill="#e8505b"/></g></g></g><g id="Group_10801" data-name="Group 10801"><g id="Group_10800" data-name="Group 10800"><g id="Group_10799" data-name="Group 10799"><path id="Path_10368" data-name="Path 10368" d="M359.92,590.15A20.74,20.74,0,0,0,363,571a36.82,36.82,0,0,0-11.4-16.32,61,61,0,0,0-20.32-11.83,21.48,21.48,0,0,0-9.11-1.49,9.54,9.54,0,0,0-7.61,4.66c-2.11,4.08,0,9,2.19,13a154.36,154.36,0,0,0,13.42,20.18,36,36,0,0,0,14.69,12.44c6.09,2.29,12.4,2,15.59-2.25" transform="translate(-0.53 197.66)" fill="#e8505b"/></g></g></g><g id="Group_10805" data-name="Group 10805"><g id="Group_10804" data-name="Group 10804"><g id="Group_10803" data-name="Group 10803"><g id="Group_10802" data-name="Group 10802"><path id="Path_10369" data-name="Path 10369" d="M371.06,667.91a12.6,12.6,0,0,0,.34-2.59l.64-7.08q.51-5.22,1.53-10.37a82.13,82.13,0,0,1,3.7-12.27,45.69,45.69,0,0,1,6.19-11.11,23.36,23.36,0,0,1,7.87-6.61,21.82,21.82,0,0,1,6.64-2.11,12.38,12.38,0,0,0,2.57-.39,12.08,12.08,0,0,0-2.62,0A20.13,20.13,0,0,0,391,617.2a23.25,23.25,0,0,0-8.29,6.66,44.17,44.17,0,0,0-6.42,11.32,75.1,75.1,0,0,0-3.66,12.46,86.75,86.75,0,0,0-1.33,10.51c-.21,3-.28,5.44-.31,7.12A12.26,12.26,0,0,0,371.06,667.91Z" transform="translate(-0.53 197.66)" fill="#263238"/></g></g></g></g><g id="Group_10809" data-name="Group 10809"><g id="Group_10808" data-name="Group 10808"><g id="Group_10807" data-name="Group 10807"><g id="Group_10806" data-name="Group 10806"><path id="Path_10370" data-name="Path 10370" d="M371.51,662.46a5.34,5.34,0,0,0,.07-1.2c0-.9,0-2,0-3.43,0-3-.05-7.3.08-12.64.2-10.66,1-25.38,2.71-41.57s4-30.76,6.08-41.21c.49-2.62,1-5,1.46-7s.84-3.85,1.21-5.3.58-2.46.78-3.33a5.22,5.22,0,0,0,.21-1.18,4.49,4.49,0,0,0-.41,1.13c-.26.86-.59,2-1,3.29s-.88,3.21-1.39,5.27-1.08,4.41-1.62,7a388.27,388.27,0,0,0-6.4,41.26c-1.69,16.22-2.4,31-2.41,41.67,0,5.33.11,9.66.26,12.65.09,1.4.17,2.54.23,3.44A5.07,5.07,0,0,0,371.51,662.46Z" transform="translate(-0.53 197.66)" fill="#263238"/></g></g></g></g><g id="Group_10813" data-name="Group 10813"><g id="Group_10812" data-name="Group 10812"><g id="Group_10811" data-name="Group 10811"><g id="Group_10810" data-name="Group 10810"><path id="Path_10371" data-name="Path 10371" d="M371.42,634a23.91,23.91,0,0,0,0-3.59c-.15-2.31-.49-5.64-1.16-9.72A129.53,129.53,0,0,0,367,606.53a125.93,125.93,0,0,0-6-16.73,89.34,89.34,0,0,0-17.56-27,43.21,43.21,0,0,0-4.11-3.78c-.64-.53-1.19-1.06-1.76-1.48l-1.6-1.08a22.77,22.77,0,0,0-3-1.92,107.8,107.8,0,0,1,10,8.78A94.35,94.35,0,0,1,360,590.23,134.19,134.19,0,0,1,366,606.81a143.3,143.3,0,0,1,3.44,14c.77,4,1.22,7.32,1.49,9.62A22.4,22.4,0,0,0,371.42,634Z" transform="translate(-0.53 197.66)" fill="#263238"/></g></g></g></g></g></g><g id="Features"><g id="Group_10979" data-name="Group 10979"><g id="Group_10815" data-name="Group 10815"><path id="Path_10372" data-name="Path 10372" d="M411.2,343l-88.41-3.76V250.79H411.2Z" transform="translate(-0.53 197.66)" fill="#e8505b"/><rect id="Rectangle_1511" data-name="Rectangle 1511" x="357.31" y="423.17" width="88.41" height="88.41" fill="#e8505b"/><path id="Path_10373" data-name="Path 10373" d="M411.2,339.21l35.06-25.29V225.5L411.2,250.79Z" transform="translate(-0.53 197.66)" fill="#e8505b"/><path id="Path_10374" data-name="Path 10374" d="M322.79,250.79l35-25.28h88.42L411.2,250.79Z" transform="translate(-0.53 197.66)" fill="#e8505b"/><path id="Path_10375" data-name="Path 10375" d="M411.2,343l35.06-29.06V225.5L411.2,250.79Z" transform="translate(-0.53 197.66)" fill="#e8505b"/><path id="Path_10376" data-name="Path 10376" d="M322.79,250.79l35-25.28h88.42L411.2,250.79Z" transform="translate(-0.53 197.66)" fill="#fff" opacity="0.3" style="isolation:isolate"/><path id="Path_10377" data-name="Path 10377" d="M411.2,343l35.06-29.06V225.5L411.2,250.79Z" transform="translate(-0.53 197.66)" opacity="0.4" style="isolation:isolate"/></g><g id="Group_10842" data-name="Group 10842"><g id="Group_10816" data-name="Group 10816"><path id="Path_10378" data-name="Path 10378" d="M458.61,317.3a12.93,12.93,0,0,1,.54,5.21l-.21.43h0l0,0-.05,0-.11.08-.21.16-.42.3-.8.57c-.51.35-1,.66-1.39.9-.81.5-1.35.74-1.45.62s.3-.58,1-1.22c.34-.34.77-.7,1.25-1.1l.76-.61.41-.34.21-.16.11-.08,0,0,0,0h0c-.1.19.21-.43-.22.43A13,13,0,0,1,458.61,317.3Z" transform="translate(-0.53 197.66)" fill="#e8505b"/></g><g id="Group_10817" data-name="Group 10817"><ellipse id="Ellipse_3178" data-name="Ellipse 3178" cx="458.08" cy="498.2" rx="0.54" ry="5.59" fill="#e8505b"/></g><g id="Group_10818" data-name="Group 10818"><ellipse id="Ellipse_3179" data-name="Ellipse 3179" cx="458.08" cy="475.86" rx="0.54" ry="5.59" fill="#e8505b"/></g><g id="Group_10819" data-name="Group 10819"><ellipse id="Ellipse_3180" data-name="Ellipse 3180" cx="458.08" cy="453.52" rx="0.54" ry="5.59" fill="#e8505b"/></g><g id="Group_10820" data-name="Group 10820"><ellipse id="Ellipse_3181" data-name="Ellipse 3181" cx="458.08" cy="431.18" rx="0.54" ry="5.59" fill="#e8505b"/></g><g id="Group_10821" data-name="Group 10821"><path id="Path_10379" data-name="Path 10379" d="M453.4,211.56a13,13,0,0,1,5.21-.55c1.09,1.09.3.3.54.55h0v1c0,.31,0,.63,0,1,0,.62-.06,1.18-.11,1.66-.1.95-.24,1.53-.39,1.53s-.28-.58-.38-1.53c-.05-.46-.09-1-.12-1.66,0-.33,0-.67,0-1v-1h0l.55.54A13.08,13.08,0,0,1,453.4,211.56Z" transform="translate(-0.53 197.66)" fill="#e8505b"/></g><g id="Group_10822" data-name="Group 10822"><ellipse id="Ellipse_3182" data-name="Ellipse 3182" cx="437.88" cy="409.22" rx="5" ry="0.54" fill="#e8505b"/></g><g id="Group_10823" data-name="Group 10823"><ellipse id="Ellipse_3183" data-name="Ellipse 3183" cx="417.9" cy="409.22" rx="5" ry="0.54" fill="#e8505b"/></g><g id="Group_10824" data-name="Group 10824"><ellipse id="Ellipse_3184" data-name="Ellipse 3184" cx="397.91" cy="409.22" rx="5" ry="0.54" fill="#e8505b"/></g><g id="Group_10825" data-name="Group 10825"><ellipse id="Ellipse_3185" data-name="Ellipse 3185" cx="377.93" cy="409.22" rx="5" ry="0.54" fill="#e8505b"/></g><g id="Group_10826" data-name="Group 10826"><path id="Path_10380" data-name="Path 10380" d="M353.9,212.72c-.11-.13.33-.69,1.13-1.48l.08-.08.19,0c.84-.08,2-.12,3.17-.12a11.93,11.93,0,0,1,5,.54,11.93,11.93,0,0,1-5,.54c-1.21,0-2.33,0-3.17-.12l.26-.1C354.64,212.52,354,212.86,353.9,212.72Z" transform="translate(-0.53 197.66)" fill="#e8505b"/></g><g id="Group_10827" data-name="Group 10827"><ellipse id="Ellipse_3186" data-name="Ellipse 3186" cx="342.33" cy="222.31" rx="5" ry="0.54" transform="translate(-63.6 467.55) rotate(-39.69)" fill="#e8505b"/></g><g id="Group_10828" data-name="Group 10828"><ellipse id="Ellipse_3187" data-name="Ellipse 3187" cx="326.99" cy="235.08" rx="5" ry="0.54" transform="translate(-75.3 460.61) rotate(-39.68)" fill="#e8505b"/></g><g id="Group_10829" data-name="Group 10829"><path id="Path_10381" data-name="Path 10381" d="M311.39,253.16a12.75,12.75,0,0,1-.49-5.21c.39-.83.1-.23.19-.42h0l0,0,.06,0,.1-.09.21-.16.4-.34.77-.6c.5-.37,1-.7,1.34-1,.79-.53,1.33-.8,1.41-.67s-.26.59-.92,1.27c-.34.33-.74.73-1.2,1.15l-.74.66-.39.33-.2.17-.11.09,0,0,0,0h0c.08-.18-.2.42.19-.41A13,13,0,0,1,311.39,253.16Z" transform="translate(-0.53 197.66)" fill="#e8505b"/></g><g id="Group_10830" data-name="Group 10830"><ellipse id="Ellipse_3188" data-name="Ellipse 3188" cx="311.23" cy="268.71" rx="5.17" ry="0.54" transform="translate(38.98 774.97) rotate(-89.44)" fill="#e8505b"/></g><g id="Group_10831" data-name="Group 10831"><ellipse id="Ellipse_3189" data-name="Ellipse 3189" cx="311.02" cy="289.38" rx="5.17" ry="0.54" transform="translate(18.11 795.24) rotate(-89.44)" fill="#e8505b"/></g><g id="Group_10832" data-name="Group 10832"><ellipse id="Ellipse_3190" data-name="Ellipse 3190" cx="310.82" cy="310.05" rx="5.17" ry="0.54" transform="translate(-2.78 815.48) rotate(-89.44)" fill="#e8505b"/></g><g id="Group_10833" data-name="Group 10833"><ellipse id="Ellipse_3191" data-name="Ellipse 3191" cx="310.61" cy="330.72" rx="5.17" ry="0.54" transform="translate(-23.66 835.74) rotate(-89.44)" fill="#e8505b"/></g><g id="Group_10834" data-name="Group 10834"><path id="Path_10382" data-name="Path 10382" d="M315.64,351.48a13.16,13.16,0,0,1-5.22.46c-1.07-1.1-.3-.31-.53-.55h0v-1.05c0-.31,0-.63,0-1,0-.62.08-1.18.13-1.66.11-.94.24-1.52.4-1.52s.28.58.37,1.53c0,.47.07,1,.09,1.66,0,.35,0,.67,0,1v1h0l-.53-.54A12.86,12.86,0,0,1,315.64,351.48Z" transform="translate(-0.53 197.66)" fill="#e8505b"/></g><g id="Group_10835" data-name="Group 10835"><ellipse id="Ellipse_3192" data-name="Ellipse 3192" cx="330.45" cy="351.74" rx="0.54" ry="4.94" transform="translate(-27.23 874) rotate(-89.06)" fill="#e8505b"/></g><g id="Group_10836" data-name="Group 10836"><ellipse id="Ellipse_3193" data-name="Ellipse 3193" cx="350.19" cy="352.06" rx="0.54" ry="4.94" transform="translate(-8.13 894.06) rotate(-89.06)" fill="#e8505b"/></g><g id="Group_10837" data-name="Group 10837"><ellipse id="Ellipse_3194" data-name="Ellipse 3194" cx="369.93" cy="352.39" rx="0.54" ry="4.94" transform="translate(11.03 914.18) rotate(-89.07)" fill="#e8505b"/></g><g id="Group_10838" data-name="Group 10838"><ellipse id="Ellipse_3195" data-name="Ellipse 3195" cx="389.67" cy="352.71" rx="0.54" ry="4.94" transform="translate(30.05 934.17) rotate(-89.06)" fill="#e8505b"/></g><g id="Group_10839" data-name="Group 10839"><ellipse id="Ellipse_3196" data-name="Ellipse 3196" cx="409.41" cy="353.04" rx="0.54" ry="4.94" transform="translate(49.14 954.23) rotate(-89.06)" fill="#e8505b"/></g><g id="Group_10840" data-name="Group 10840"><ellipse id="Ellipse_3197" data-name="Ellipse 3197" cx="426.93" cy="346.5" rx="4.94" ry="0.54" transform="translate(-123.14 525.87) rotate(-37.16)" fill="#e8505b"/></g><g id="Group_10841" data-name="Group 10841"><ellipse id="Ellipse_3198" data-name="Ellipse 3198" cx="442.65" cy="334.6" rx="4.94" ry="0.54" transform="translate(-112.76 532.67) rotate(-37.13)" fill="#e8505b"/></g></g><g id="Group_10852" data-name="Group 10852"><g id="Group_10843" data-name="Group 10843"><ellipse id="Ellipse_3199" data-name="Ellipse 3199" cx="354.11" cy="209.24" rx="0.54" ry="2.6" transform="translate(-56.81 379.4) rotate(-26.74)" fill="#e8505b"/></g><g id="Group_10844" data-name="Group 10844"><ellipse id="Ellipse_3200" data-name="Ellipse 3200" cx="346.07" cy="193.31" rx="0.54" ry="5.08" transform="translate(-50.5 374.08) rotate(-26.74)" fill="#e8505b"/></g><g id="Group_10845" data-name="Group 10845"><ellipse id="Ellipse_3201" data-name="Ellipse 3201" cx="336.97" cy="175.16" rx="0.54" ry="5.08" transform="translate(-43.3 367.9) rotate(-26.72)" fill="#e8505b"/></g><g id="Group_10846" data-name="Group 10846"><ellipse id="Ellipse_3202" data-name="Ellipse 3202" cx="327.84" cy="157.01" rx="0.54" ry="5.08" transform="translate(-36.12 361.86) rotate(-26.72)" fill="#e8505b"/></g><g id="Group_10847" data-name="Group 10847"><ellipse id="Ellipse_3203" data-name="Ellipse 3203" cx="318.68" cy="138.86" rx="0.54" ry="5.08" transform="translate(-28.93 355.8) rotate(-26.72)" fill="#e8505b"/></g><g id="Group_10848" data-name="Group 10848"><ellipse id="Ellipse_3204" data-name="Ellipse 3204" cx="309.57" cy="120.73" rx="0.54" ry="5.08" transform="translate(-21.75 349.77) rotate(-26.72)" fill="#e8505b"/></g><g id="Group_10849" data-name="Group 10849"><ellipse id="Ellipse_3205" data-name="Ellipse 3205" cx="300.44" cy="102.59" rx="0.54" ry="5.08" transform="translate(-14.57 343.72) rotate(-26.72)" fill="#e8505b"/></g><g id="Group_10850" data-name="Group 10850"><ellipse id="Ellipse_3206" data-name="Ellipse 3206" cx="291.28" cy="84.44" rx="0.54" ry="5.08" transform="translate(-7.39 337.67) rotate(-26.72)" fill="#e8505b"/></g><g id="Group_10851" data-name="Group 10851"><ellipse id="Ellipse_3207" data-name="Ellipse 3207" cx="283.28" cy="68.54" rx="0.54" ry="2.6" transform="translate(-1.1 332.35) rotate(-26.72)" fill="#e8505b"/></g></g><g id="Group_10860" data-name="Group 10860"><g id="Group_10853" data-name="Group 10853"><ellipse id="Ellipse_3208" data-name="Ellipse 3208" cx="187.19" cy="238.23" rx="0.54" ry="2.6" transform="translate(-65.39 604) rotate(-85.54)" fill="#e8505b"/></g><g id="Group_10854" data-name="Group 10854"><ellipse id="Ellipse_3209" data-name="Ellipse 3209" cx="205.65" cy="239.7" rx="0.54" ry="5.31" transform="translate(-49.89 623.69) rotate(-85.53)" fill="#e8505b"/></g><g id="Group_10855" data-name="Group 10855"><ellipse id="Ellipse_3210" data-name="Ellipse 3210" cx="226.83" cy="241.36" rx="0.54" ry="5.31" transform="translate(-32.02 646.33) rotate(-85.53)" fill="#e8505b"/></g><g id="Group_10856" data-name="Group 10856"><ellipse id="Ellipse_3211" data-name="Ellipse 3211" cx="248.01" cy="243.02" rx="0.54" ry="5.31" transform="translate(-14.14 668.98) rotate(-85.53)" fill="#e8505b"/></g><g id="Group_10857" data-name="Group 10857"><ellipse id="Ellipse_3212" data-name="Ellipse 3212" cx="269.19" cy="244.68" rx="0.54" ry="5.31" transform="translate(3.73 691.62) rotate(-85.53)" fill="#e8505b"/></g><g id="Group_10858" data-name="Group 10858"><ellipse id="Ellipse_3213" data-name="Ellipse 3213" cx="290.37" cy="246.34" rx="0.54" ry="5.31" transform="translate(21.61 714.27) rotate(-85.53)" fill="#e8505b"/></g><g id="Group_10859" data-name="Group 10859"><ellipse id="Ellipse_3214" data-name="Ellipse 3214" cx="308.84" cy="247.72" rx="0.54" ry="2.6" transform="translate(37.26 733.96) rotate(-85.53)" fill="#e8505b"/></g></g><g id="Group_10863" data-name="Group 10863"><g id="Group_10862" data-name="Group 10862"><circle id="Ellipse_3215" data-name="Ellipse 3215" cx="238.44" cy="186.25" r="91.75" fill="#fff"/><g id="Group_10861" data-name="Group 10861"><path id="Path_10383" data-name="Path 10383" d="M330.72-11.41s-.06-.5-.13-1.48-.15-2.47-.27-4.36l-.19-3.21c-.12-1.17-.37-2.45-.58-3.83l-.71-4.47a50.26,50.26,0,0,0-1.19-5A87.39,87.39,0,0,0,317.49-58.1,91.25,91.25,0,0,0,294.27-84L290.32-87c-1.39-.91-2.86-1.74-4.3-2.63s-2.87-1.86-4.46-2.58l-4.74-2.27-2.41-1.15-2.54-.92-5.14-1.87c-1.74-.58-3.57-.95-5.37-1.44a45.57,45.57,0,0,0-5.53-1.25,84.43,84.43,0,0,0-11.54-1.33c-2-.07-3.95-.26-5.95-.23l-6,.31c-1,.07-2,.06-3.05.2l-3,.46c-2,.34-4.1.58-6.14,1a99.17,99.17,0,0,0-12.17,3.57A95.29,95.29,0,0,0,196-91.88c-1.93,1-3.78,2.26-5.69,3.4-.93.6-1.92,1.1-2.82,1.78l-2.68,2a103.33,103.33,0,0,0-10.35,8.79l-4.64,5.11-1.16,1.28-1,1.39-2.09,2.8-2.09,2.81-1.84,3-1.83,3L158.85-55l-.78,1.6L155-47l-2.48,6.75a90.42,90.42,0,0,0,0,57.56L155,24.11l3.1,6.44.78,1.59.92,1.52,1.83,3,1.84,3,2.1,2.8,2.09,2.8,1,1.39L169.84,48l4.64,5.11a102.13,102.13,0,0,0,10.35,8.8l2.68,2c.89.66,1.89,1.18,2.82,1.78C192.24,66.77,194.09,68,196,69a94.78,94.78,0,0,0,11.9,5.23,95.31,95.31,0,0,0,12.17,3.57c2,.42,4.11.67,6.14,1l3,.47c1,.13,2,.13,3,.2l6,.31c2,0,4-.16,5.95-.23a84.45,84.45,0,0,0,11.54-1.34A45.57,45.57,0,0,0,261.38,77c1.8-.49,3.63-.86,5.38-1.44l5.14-1.87,2.53-.92,2.41-1.15,4.74-2.27c1.58-.72,3-1.74,4.46-2.58s2.9-1.72,4.29-2.63l3.95-2.94a91.28,91.28,0,0,0,23.24-25.93,87.91,87.91,0,0,0,10.15-24.35,50.26,50.26,0,0,0,1.19-5l.71-4.47c.21-1.39.46-2.66.58-3.83s.13-2.25.19-3.21c.12-1.89.21-3.33.27-4.35s.13-1.49.13-1.49,0,.5,0,1.48-.1,2.48-.17,4.37c0,1-.09,2-.14,3.22s-.33,2.46-.53,3.85-.42,2.89-.66,4.49a48.39,48.39,0,0,1-1.16,5,87.06,87.06,0,0,1-10,24.55A91.6,91.6,0,0,1,294.73,61.8l-4,3c-1.39.93-2.86,1.77-4.32,2.67s-2.9,1.88-4.49,2.61l-4.78,2.32-2.43,1.15-2.55.94L267,76.39c-1.76.59-3.6,1-5.42,1.47A46,46,0,0,1,256,79.14a87.74,87.74,0,0,1-11.65,1.38c-2,.07-4,.27-6,.24l-6.1-.3c-1-.07-2.06-.06-3.08-.19l-3.08-.47c-2.06-.33-4.15-.57-6.21-1a95.94,95.94,0,0,1-12.32-3.59,96.2,96.2,0,0,1-12.05-5.27c-1.95-1-3.82-2.28-5.75-3.42-.94-.61-1.95-1.12-2.85-1.8l-2.72-2A102,102,0,0,1,173.7,53.8L169,48.63l-1.18-1.29-1.06-1.41-2.12-2.82-2.12-2.84-1.87-3-1.85-3-.94-1.53L157.07,31l-3.13-6.51-2.51-6.84a91.41,91.41,0,0,1,0-58.24l2.51-6.84,3.13-6.5.79-1.62L158.8-57l1.85-3.06,1.86-3L164.64-66l2.11-2.83,1.06-1.39L169-71.5l4.7-5.17a102,102,0,0,1,10.48-8.88l2.71-2c.9-.67,1.91-1.2,2.86-1.8,1.93-1.14,3.8-2.37,5.75-3.42a95.43,95.43,0,0,1,12-5.27,95.94,95.94,0,0,1,12.32-3.59c2.06-.42,4.15-.67,6.21-1l3.08-.47c1-.13,2.05-.12,3.08-.19l6.1-.3c2,0,4,.17,6,.24A84.54,84.54,0,0,1,256-102a46,46,0,0,1,5.58,1.28c1.82.5,3.66.88,5.42,1.47l5.19,1.9,2.55.94,2.43,1.16,4.78,2.31c1.59.73,3,1.76,4.49,2.62s2.92,1.74,4.33,2.66l4,3A91.46,91.46,0,0,1,318-58.44a87.12,87.12,0,0,1,10,24.56,48.35,48.35,0,0,1,1.15,5c.24,1.6.46,3.09.67,4.48s.42,2.67.53,3.86.1,2.26.14,3.22c.07,1.89.13,3.35.16,4.37S330.72-11.41,330.72-11.41Z" transform="translate(-0.53 197.66)" fill="#e8505b"/></g></g></g><g id="Group_10952" data-name="Group 10952"><g id="Group_10949" data-name="Group 10949"><g id="Group_10870" data-name="Group 10870"><g id="Group_10869" data-name="Group 10869"><g id="Group_10868" data-name="Group 10868"><g id="Group_10867" data-name="Group 10867"><g id="Group_10866" data-name="Group 10866"><g id="Group_10865" data-name="Group 10865"><circle id="Ellipse_3216" data-name="Ellipse 3216" cx="235.73" cy="190.27" r="46.17" fill="#f5f5f5"/><g id="Group_10864" data-name="Group 10864"><path id="Path_10384" data-name="Path 10384" d="M190.18-10.41a3.78,3.78,0,0,1,0,.75c0,.55,0,1.28,0,2.2v1.61c0,.6.11,1.24.17,1.94A33.94,33.94,0,0,0,191.09.9a44.13,44.13,0,0,0,4.33,12.51,45.75,45.75,0,0,0,53.55,23A41.87,41.87,0,0,0,260.9,31a50.37,50.37,0,0,0,5.45-4.06,50.37,50.37,0,0,0,4.81-5,44,44,0,0,0,7.33-12.12,45.25,45.25,0,0,0,1.89-28.74,44,44,0,0,0-5.69-13,41.64,41.64,0,0,0-9-10.32,42,42,0,0,0-11.12-7,45.87,45.87,0,0,0-56.1,15.84,43.64,43.64,0,0,0-5.92,11.84,32.83,32.83,0,0,0-1.29,4.66c-.16.68-.34,1.31-.43,1.9s-.15,1.12-.22,1.6l-.31,2.17a3.48,3.48,0,0,1-.13.73,3.14,3.14,0,0,1,0-.75c0-.55.11-1.27.2-2.19,0-.48.1-1,.16-1.62s.24-1.22.38-1.92a32.26,32.26,0,0,1,1.2-4.74,43.76,43.76,0,0,1,5.83-12,46.51,46.51,0,0,1,32.68-20A46.6,46.6,0,0,1,255-50.15a42.67,42.67,0,0,1,11.39,7.09,42.7,42.7,0,0,1,9.21,10.53,45.19,45.19,0,0,1,5.84,13.28,46.21,46.21,0,0,1-1.94,29.41A45.07,45.07,0,0,1,272,22.56a42.72,42.72,0,0,1-10.51,9.23,43.18,43.18,0,0,1-12.21,5.54,46.7,46.7,0,0,1-24.58.35,46.48,46.48,0,0,1-29.79-24.07A43.88,43.88,0,0,1,190.66.9,33.22,33.22,0,0,1,190.08-4c0-.71-.11-1.36-.12-1.95s0-1.14,0-1.63c0-.92.06-1.66.08-2.2A3.85,3.85,0,0,1,190.18-10.41Z" transform="translate(-0.53 197.66)" fill="#263238"/></g></g></g></g></g></g></g><g id="Group_10876" data-name="Group 10876"><g id="Group_10875" data-name="Group 10875"><g id="Group_10874" data-name="Group 10874"><g id="Group_10873" data-name="Group 10873"><g id="Group_10872" data-name="Group 10872"><g id="Group_10871" data-name="Group 10871"><path id="Path_10385" data-name="Path 10385" d="M257.22-6a8.93,8.93,0,0,1-1.63.1l-4.49.09c-3.81.06-9.11.09-15.1.1h-.3V-9c0-6.69,0-12.75.09-17.13,0-2.11.07-3.86.1-5.19a11,11,0,0,1,.11-1.9,12,12,0,0,1,.12,1.9c0,1.33.06,3.08.1,5.19.05,4.38.08,10.43.08,17.13v3L236-6.26c6,0,11.29,0,15.1.09l4.48.09A8.88,8.88,0,0,1,257.22-6Z" transform="translate(-0.53 197.66)" fill="#263238"/></g></g></g></g></g></g><g id="Group_10882" data-name="Group 10882"><g id="Group_10881" data-name="Group 10881"><g id="Group_10880" data-name="Group 10880"><g id="Group_10879" data-name="Group 10879"><g id="Group_10878" data-name="Group 10878"><g id="Group_10877" data-name="Group 10877"><ellipse id="Ellipse_3217" data-name="Ellipse 3217" cx="235.61" cy="155.56" rx="0.3" ry="3.88" fill="#263238"/></g></g></g></g></g></g><g id="Group_10888" data-name="Group 10888"><g id="Group_10887" data-name="Group 10887"><g id="Group_10886" data-name="Group 10886"><g id="Group_10885" data-name="Group 10885"><g id="Group_10884" data-name="Group 10884"><g id="Group_10883" data-name="Group 10883"><ellipse id="Ellipse_3218" data-name="Ellipse 3218" cx="254.47" cy="-37.06" rx="3.82" ry="0.3" transform="translate(100.21 366.74) rotate(-45)" fill="#263238"/></g></g></g></g></g></g><g id="Group_10894" data-name="Group 10894"><g id="Group_10893" data-name="Group 10893"><g id="Group_10892" data-name="Group 10892"><g id="Group_10891" data-name="Group 10891"><g id="Group_10890" data-name="Group 10890"><g id="Group_10889" data-name="Group 10889"><path id="Path_10386" data-name="Path 10386" d="M269.48-26.31a44.43,44.43,0,0,1-6.53,4A17,17,0,0,1,269.48-26.31Z" transform="translate(-0.53 197.66)" fill="#263238"/></g></g></g></g></g></g><g id="Group_10900" data-name="Group 10900"><g id="Group_10899" data-name="Group 10899"><g id="Group_10898" data-name="Group 10898"><g id="Group_10897" data-name="Group 10897"><g id="Group_10896" data-name="Group 10896"><g id="Group_10895" data-name="Group 10895"><ellipse id="Ellipse_3219" data-name="Ellipse 3219" cx="270.87" cy="191.29" rx="5.29" ry="0.3" fill="#263238"/></g></g></g></g></g></g><g id="Group_10906" data-name="Group 10906"><g id="Group_10905" data-name="Group 10905"><g id="Group_10904" data-name="Group 10904"><g id="Group_10903" data-name="Group 10903"><g id="Group_10902" data-name="Group 10902"><g id="Group_10901" data-name="Group 10901"><ellipse id="Ellipse_3220" data-name="Ellipse 3220" cx="197.82" cy="190.59" rx="5" ry="0.3" fill="#263238"/></g></g></g></g></g></g><g id="Group_10912" data-name="Group 10912"><g id="Group_10911" data-name="Group 10911"><g id="Group_10910" data-name="Group 10910"><g id="Group_10909" data-name="Group 10909"><g id="Group_10908" data-name="Group 10908"><g id="Group_10907" data-name="Group 10907"><ellipse id="Ellipse_3221" data-name="Ellipse 3221" cx="204.58" cy="10.97" rx="5.09" ry="0.3" transform="translate(37.81 328.36) rotate(-38.83)" fill="#263238"/></g></g></g></g></g></g><g id="Group_10918" data-name="Group 10918"><g id="Group_10917" data-name="Group 10917"><g id="Group_10916" data-name="Group 10916"><g id="Group_10915" data-name="Group 10915"><g id="Group_10914" data-name="Group 10914"><g id="Group_10913" data-name="Group 10913"><path id="Path_10387" data-name="Path 10387" d="M221.33,19.26q-2.49,4.5-5.29,8.81A26.4,26.4,0,0,1,221.33,19.26Z" transform="translate(-0.53 197.66)" fill="#263238"/></g></g></g></g></g></g><g id="Group_10924" data-name="Group 10924"><g id="Group_10923" data-name="Group 10923"><g id="Group_10922" data-name="Group 10922"><g id="Group_10921" data-name="Group 10921"><g id="Group_10920" data-name="Group 10920"><g id="Group_10919" data-name="Group 10919"><ellipse id="Ellipse_3222" data-name="Ellipse 3222" cx="235.61" cy="226.43" rx="0.3" ry="5.29" fill="#263238"/></g></g></g></g></g></g><g id="Group_10930" data-name="Group 10930"><g id="Group_10929" data-name="Group 10929"><g id="Group_10928" data-name="Group 10928"><g id="Group_10927" data-name="Group 10927"><g id="Group_10926" data-name="Group 10926"><g id="Group_10925" data-name="Group 10925"><path id="Path_10388" data-name="Path 10388" d="M258.94,27a22.87,22.87,0,0,1-7.92-6.9A46.34,46.34,0,0,1,255,23.58,48,48,0,0,1,258.94,27Z" transform="translate(-0.53 197.66)" fill="#263238"/></g></g></g></g></g></g><g id="Group_10936" data-name="Group 10936"><g id="Group_10935" data-name="Group 10935"><g id="Group_10934" data-name="Group 10934"><g id="Group_10933" data-name="Group 10933"><g id="Group_10932" data-name="Group 10932"><g id="Group_10931" data-name="Group 10931"><ellipse id="Ellipse_3223" data-name="Ellipse 3223" cx="266.35" cy="12.2" rx="0.3" ry="4.65" transform="translate(68.86 389.57) rotate(-45)" fill="#263238"/></g></g></g></g></g></g><g id="Group_10942" data-name="Group 10942"><g id="Group_10941" data-name="Group 10941"><g id="Group_10940" data-name="Group 10940"><g id="Group_10939" data-name="Group 10939"><g id="Group_10938" data-name="Group 10938"><g id="Group_10937" data-name="Group 10937"><ellipse id="Ellipse_3224" data-name="Ellipse 3224" cx="205.16" cy="-24.18" rx="0.3" ry="4.07" transform="translate(76.66 335.65) rotate(-45)" fill="#263238"/></g></g></g></g></g></g><g id="Group_10948" data-name="Group 10948"><g id="Group_10947" data-name="Group 10947"><g id="Group_10946" data-name="Group 10946"><g id="Group_10945" data-name="Group 10945"><g id="Group_10944" data-name="Group 10944"><g id="Group_10943" data-name="Group 10943"><ellipse id="Ellipse_3225" data-name="Ellipse 3225" cx="218.43" cy="-38.02" rx="0.3" ry="3.99" transform="translate(90.72 341.25) rotate(-45.12)" fill="#263238"/></g></g></g></g></g></g></g><g id="Group_10951" data-name="Group 10951"><circle id="Ellipse_3226" data-name="Ellipse 3226" cx="281.48" cy="136.7" r="24.22" fill="#e8505b"/><g id="Group_10950" data-name="Group 10950"><path id="Path_10389" data-name="Path 10389" d="M293.63-68.51a21.47,21.47,0,0,1-3,3.88c-1.93,2.3-4.66,5.44-7.72,8.85L280.47-53l-.35.39-.4-.35c-2.75-2.48-5.13-4.66-6.8-6.27a14.71,14.71,0,0,1-2.53-2.7,15,15,0,0,1,3,2.19c1.78,1.46,4.25,3.56,7,6l-.74,0,2.45-2.75c3.06-3.41,5.88-6.47,8-8.64A22.08,22.08,0,0,1,293.63-68.51Z" transform="translate(-0.53 197.66)" fill="#fafafa"/></g></g></g><g id="Group_10958" data-name="Group 10958"><g id="Group_10953" data-name="Group 10953"><ellipse id="Ellipse_3227" data-name="Ellipse 3227" cx="306.57" cy="354.88" rx="5.21" ry="0.54" transform="translate(-159.24 493.95) rotate(-42)" fill="#e8505b"/></g><g id="Group_10954" data-name="Group 10954"><ellipse id="Ellipse_3228" data-name="Ellipse 3228" cx="291.03" cy="368.8" rx="5.21" ry="0.54" transform="translate(-172.55 487.12) rotate(-42)" fill="#e8505b"/></g><g id="Group_10955" data-name="Group 10955"><ellipse id="Ellipse_3229" data-name="Ellipse 3229" cx="275.53" cy="382.74" rx="5.21" ry="0.54" transform="translate(-185.79 480.04) rotate(-41.96)" fill="#e8505b"/></g><g id="Group_10956" data-name="Group 10956"><ellipse id="Ellipse_3230" data-name="Ellipse 3230" cx="260.04" cy="396.67" rx="5.21" ry="0.54" transform="translate(-199.16 473.55) rotate(-42)" fill="#e8505b"/></g><g id="Group_10957" data-name="Group 10957"><ellipse id="Ellipse_3231" data-name="Ellipse 3231" cx="244.6" cy="410.62" rx="5.21" ry="0.54" transform="translate(-212.46 466.8) rotate(-42)" fill="#e8505b"/></g></g><g id="Group_10968" data-name="Group 10968"><g id="Group_10960" data-name="Group 10960"><circle id="Ellipse_3232" data-name="Ellipse 3232" cx="184.04" cy="686.13" r="91.75" fill="#fff"/><g id="Group_10959" data-name="Group 10959"><path id="Path_10390" data-name="Path 10390" d="M276.32,488.47s-.06-.5-.13-1.48-.15-2.47-.27-4.36c-.06-1-.12-2-.19-3.21s-.37-2.45-.58-3.83l-.7-4.47a47.66,47.66,0,0,0-1.2-5,87.36,87.36,0,0,0-10.15-24.35,91.15,91.15,0,0,0-23.24-25.93l-4-2.94c-1.39-.91-2.85-1.75-4.3-2.64s-2.87-1.86-4.45-2.57l-4.74-2.27L220,404.28l-2.54-.92-5.14-1.87c-1.74-.58-3.57-.95-5.38-1.44a47.41,47.41,0,0,0-5.52-1.26,86,86,0,0,0-11.55-1.33c-2-.07-3.95-.26-5.94-.23l-6.05.31c-1,.07-2,.06-3,.2l-3,.47c-2,.33-4.1.57-6.14,1a97.06,97.06,0,0,0-12.18,3.56,95.42,95.42,0,0,0-11.9,5.23c-1.92,1.05-3.77,2.26-5.68,3.4-.93.6-1.93,1.1-2.82,1.78l-2.69,2a102.13,102.13,0,0,0-10.35,8.8l-4.63,5.12-1.17,1.28-1,1.39-2.08,2.79-2.1,2.81-1.84,3-1.84,3-.92,1.52-.78,1.6-3.1,6.43-2.47,6.75a90.45,90.45,0,0,0,0,57.57l2.47,6.75,3.1,6.44.78,1.59.92,1.52,1.84,3,1.83,3,2.1,2.81,2.09,2.79,1,1.39,1.16,1.28,4.64,5.11a102.13,102.13,0,0,0,10.35,8.8l2.69,2c.89.67,1.88,1.18,2.82,1.78,1.91,1.14,3.75,2.36,5.68,3.4a95.42,95.42,0,0,0,11.9,5.23,97,97,0,0,0,12.17,3.57c2,.42,4.11.66,6.14,1l3,.47c1,.13,2,.12,3,.19l6,.31c2,0,4-.16,5.95-.23a84.39,84.39,0,0,0,11.55-1.33,45.41,45.41,0,0,0,5.52-1.25c1.81-.49,3.64-.86,5.38-1.44l5.14-1.87,2.54-.93,2.41-1.14,4.74-2.27c1.58-.72,3-1.74,4.45-2.58s2.91-1.72,4.3-2.64l4-2.94a91.24,91.24,0,0,0,23.24-25.92,87.61,87.61,0,0,0,10.15-24.35,49.79,49.79,0,0,0,1.19-5l.71-4.46c.2-1.39.45-2.67.58-3.84s.13-2.24.18-3.2c.12-1.89.21-3.35.28-4.36s.13-1.49.13-1.49,0,.5,0,1.49-.09,2.47-.17,4.36c0,1-.08,2-.13,3.22s-.34,2.46-.53,3.86-.43,2.89-.67,4.49a48.75,48.75,0,0,1-1.15,5,86.94,86.94,0,0,1-10,24.55,91.36,91.36,0,0,1-23.3,26.23l-4,3c-1.4.92-2.87,1.77-4.33,2.66a41.48,41.48,0,0,1-4.49,2.62l-4.77,2.31-2.43,1.16-2.56.94-5.18,1.9c-1.76.59-3.6,1-5.42,1.47a46.46,46.46,0,0,1-5.58,1.28,84.5,84.5,0,0,1-11.66,1.38c-2,.07-4,.27-6,.24l-6.11-.3c-1-.07-2-.06-3.08-.19l-3.07-.47c-2.06-.33-4.15-.57-6.21-1a100.59,100.59,0,0,1-24.37-8.86c-2-1.05-3.82-2.28-5.75-3.42-1-.61-2-1.12-2.86-1.8l-2.71-2a103.39,103.39,0,0,1-10.48-8.89l-4.7-5.17-1.18-1.29-1.06-1.41L110.24,543l-2.13-2.85-1.86-3-1.86-3.06-.93-1.53-.79-1.61-3.14-6.51L97,517.56a91.41,91.41,0,0,1,0-58.24l2.51-6.84c1-2.18,2.1-4.34,3.14-6.51l.79-1.61.93-1.53,1.86-3.06,1.86-3,2.12-2.84,2.12-2.82,1.06-1.4,1.18-1.3,4.7-5.16a104.39,104.39,0,0,1,10.47-8.89l2.72-2c.9-.67,1.91-1.2,2.85-1.8,1.93-1.14,3.8-2.37,5.75-3.42a100.72,100.72,0,0,1,24.36-8.86c2.07-.42,4.16-.67,6.21-1l3.08-.46c1-.14,2.06-.13,3.08-.2l6.11-.3c2,0,4,.17,6,.24a84.68,84.68,0,0,1,11.66,1.38,46.31,46.31,0,0,1,5.57,1.28c1.83.5,3.67.88,5.43,1.47l5.18,1.9,2.55.94,2.43,1.16,4.78,2.31c1.6.73,3,1.76,4.49,2.61s2.92,1.75,4.33,2.67l4,3a91.46,91.46,0,0,1,23.3,26.22,87.12,87.12,0,0,1,10,24.56,47.59,47.59,0,0,1,1.15,5l.67,4.49c.19,1.4.42,2.66.53,3.85s.1,2.26.14,3.22c.07,1.9.13,3.35.16,4.37S276.32,488.47,276.32,488.47Z" transform="translate(-0.53 197.66)" fill="#e8505b"/></g></g><g id="Group_10967" data-name="Group 10967"><g id="Group_10962" data-name="Group 10962"><g id="Group_10961" data-name="Group 10961"><path id="Path_10391" data-name="Path 10391" d="M230.6,529.53a10.53,10.53,0,0,1-1.77.12l-5.08.11-18.65.18-61.57.17h-5v-.58c.07-23,.14-43.63.18-58.65.08-7.36.14-13.34.18-17.61,0-2,.08-3.58.11-4.78a9.38,9.38,0,0,1,.11-1.67,9.39,9.39,0,0,1,.12,1.67c0,1.2.06,2.79.1,4.78,0,4.27.11,10.25.18,17.61,0,15,.11,35.64.18,58.65l-.58-.58h4.39l61.58.17,18.65.19,5.08.11A9.68,9.68,0,0,1,230.6,529.53Z" transform="translate(-0.53 197.66)" fill="#263238"/></g></g><g id="Group_10964" data-name="Group 10964"><g id="Group_10963" data-name="Group 10963"><path id="Path_10392" data-name="Path 10392" d="M220.44,466.89a23.34,23.34,0,0,1-2.74,2.61L210,476.27c-6.55,5.69-15.65,13.49-25.76,22l-1.53,1.29-.39.33-.38-.33-11.46-10.66.72,0-16.83,13.88-4.88,3.9a11.15,11.15,0,0,1-1.82,1.3,10.33,10.33,0,0,1,1.6-1.57l4.68-4.14,16.56-14.2.36-.31.35.33,11.51,10.59-.77,0,1.53-1.29c10.1-8.56,19.29-16.25,26-21.78l8-6.49A23,23,0,0,1,220.44,466.89Z" transform="translate(-0.53 197.66)" fill="#263238"/></g></g><g id="Group_10966" data-name="Group 10966"><g id="Group_10965" data-name="Group 10965"><path id="Path_10393" data-name="Path 10393" d="M220.42,486.06a28.78,28.78,0,0,1-.4-5.71c-.1-3.54-.17-8.45-.18-13.91l.58.58h-1c-5.69,0-10.84-.06-14.57-.17a31.36,31.36,0,0,1-6-.41,31.36,31.36,0,0,1,6-.41c3.73-.1,8.88-.17,14.57-.17H221v.58c0,5.46-.08,10.37-.18,13.91A28.77,28.77,0,0,1,220.42,486.06Z" transform="translate(-0.53 197.66)" fill="#263238"/></g></g></g></g><g id="Group_10978" data-name="Group 10978"><g id="Group_10970" data-name="Group 10970"><circle id="Ellipse_3233" data-name="Ellipse 3233" cx="92.29" cy="429.16" r="91.75" fill="#fff"/><g id="Group_10969" data-name="Group 10969"><path id="Path_10394" data-name="Path 10394" d="M184.57,231.5s-.06-.5-.13-1.49-.15-2.46-.27-4.35l-.19-3.21c-.12-1.18-.37-2.45-.58-3.84l-.7-4.46a49.83,49.83,0,0,0-1.2-5,87.61,87.61,0,0,0-10.15-24.35,91.28,91.28,0,0,0-23.24-25.93l-4-2.94c-1.39-.91-2.85-1.74-4.3-2.63s-2.87-1.86-4.46-2.58l-4.74-2.27-2.41-1.15-2.53-.92-5.13-1.86c-1.75-.57-3.57-1-5.38-1.44a47.53,47.53,0,0,0-5.53-1.25,84.43,84.43,0,0,0-11.54-1.33c-2-.07-4-.26-6-.23l-6,.31c-1,.07-2,.06-3.05.2l-3,.47c-2,.33-4.1.57-6.14,1a97.49,97.49,0,0,0-12.17,3.58,92.56,92.56,0,0,0-11.9,5.23c-1.92,1-3.77,2.26-5.68,3.39-.93.6-1.93,1.11-2.82,1.78l-2.69,2A104.36,104.36,0,0,0,28.31,167l-4.64,5.09L22.5,173.4l-1.05,1.38-2.09,2.8-2.09,2.81-1.84,3-1.83,3-.92,1.51-.79,1.6L8.8,196c-.83,2.24-1.65,4.49-2.48,6.76a90.42,90.42,0,0,0,0,57.56L8.8,267l3.09,6.43.78,1.6.92,1.51,1.84,3,1.83,3,2.1,2.81,2.09,2.79,1.05,1.39,1.16,1.29L28.3,296a104.46,104.46,0,0,0,10.35,8.79l2.69,2c.89.67,1.88,1.19,2.82,1.78,1.91,1.14,3.75,2.35,5.68,3.4a100.35,100.35,0,0,0,24.08,8.8c2,.42,4.11.66,6.14,1l3,.47c1,.13,2,.13,3.05.19l6,.32c2,0,4-.17,6-.23a84.45,84.45,0,0,0,11.54-1.34,45.57,45.57,0,0,0,5.53-1.25c1.8-.49,3.63-.86,5.38-1.44l5.14-1.87,2.53-.92,2.41-1.15,4.74-2.27c1.58-.72,3-1.74,4.46-2.58s2.91-1.72,4.29-2.63l4-2.94a91.28,91.28,0,0,0,23.24-25.93,87.19,87.19,0,0,0,10.15-24.35,47.66,47.66,0,0,0,1.2-5l.7-4.47c.21-1.38.46-2.66.58-3.83l.19-3.21c.11-1.89.2-3.34.27-4.36s.13-1.49.13-1.49,0,.51,0,1.49-.09,2.47-.16,4.37c0,1-.09,2-.14,3.22s-.33,2.46-.53,3.85-.42,2.89-.66,4.49a48.39,48.39,0,0,1-1.16,5,86.94,86.94,0,0,1-10,24.55,91.22,91.22,0,0,1-23.3,26.23l-4,3c-1.39.92-2.86,1.77-4.33,2.67s-2.89,1.88-4.48,2.61L131,315.31l-2.43,1.16-2.56.94-5.18,1.91c-1.76.58-3.6,1-5.42,1.46a46.91,46.91,0,0,1-5.58,1.28,84.5,84.5,0,0,1-11.66,1.38c-2,.07-4,.27-6,.24l-6.08-.3c-1-.07-2.06-.06-3.08-.2l-3.08-.46c-2-.34-4.15-.58-6.21-1a97.57,97.57,0,0,1-12.32-3.59,96.2,96.2,0,0,1-12-5.27c-2-1.06-3.82-2.28-5.75-3.43-.94-.6-2-1.12-2.85-1.8l-2.72-2a101.7,101.7,0,0,1-10.46-8.87l-4.7-5.16-1.18-1.3-1.06-1.4L18.51,286l-2.13-2.83-1.86-3-1.86-3.06-.93-1.53L10.94,274,7.8,267.45l-2.5-6.83a91.3,91.3,0,0,1,0-58.25l2.5-6.83L10.94,189l.79-1.61.93-1.53,1.86-3.06,1.86-3L18.5,177l2.12-2.83,1.06-1.39,1.18-1.3,4.7-5.17A104.29,104.29,0,0,1,38,157.39l2.72-2c.9-.67,1.91-1.2,2.85-1.8,1.93-1.14,3.8-2.37,5.76-3.43a101.25,101.25,0,0,1,24.36-8.85c2.06-.42,4.15-.67,6.21-1l3.08-.47c1-.13,2-.12,3.08-.19l6.1-.3c2,0,4,.17,6,.24a84.54,84.54,0,0,1,11.65,1.38,48,48,0,0,1,5.58,1.27c1.82.5,3.66.89,5.42,1.47l5.19,1.91,2.55.94,2.43,1.16,4.78,2.31c1.59.73,3,1.76,4.48,2.62s2.93,1.75,4.33,2.66l4,3a91.43,91.43,0,0,1,23.3,26.21,87,87,0,0,1,10,24.56,47.63,47.63,0,0,1,1.16,5c.24,1.6.46,3.1.67,4.49s.42,2.67.53,3.85.09,2.26.13,3.22c.08,1.9.13,3.35.17,4.37S184.57,231.5,184.57,231.5Z" transform="translate(-0.53 197.66)" fill="#e8505b"/></g></g><g id="Group_10975" data-name="Group 10975"><g id="Group_10972" data-name="Group 10972"><path id="Path_10395" data-name="Path 10395" d="M95.2,191.6l9.94,20.14a2.61,2.61,0,0,0,2,1.42l22.23,3.23a2.58,2.58,0,0,1,1.43,4.4l-16.08,15.68a2.61,2.61,0,0,0-.75,2.29l3.8,22.14a2.59,2.59,0,0,1-3.75,2.73L94.09,253.17a2.63,2.63,0,0,0-2.41,0L71.8,263.64a2.59,2.59,0,0,1-3.75-2.73l3.8-22.13a2.62,2.62,0,0,0-.74-2.29L55,220.81a2.59,2.59,0,0,1,1.43-4.41l22.23-3.23a2.6,2.6,0,0,0,1.95-1.41l9.94-20.15a2.58,2.58,0,0,1,4.63,0Z" transform="translate(-0.53 197.66)" fill="#fafafa"/><g id="Group_10971" data-name="Group 10971"><path id="Path_10396" data-name="Path 10396" d="M95.2,191.6s-.12-.21-.43-.53a2.5,2.5,0,0,0-3.54-.11,2.38,2.38,0,0,0-.62.92l-1.94,4-5.33,11-1.62,3.33L80.85,212a2.88,2.88,0,0,1-1.72,1.38c-2.77.48-5.54.85-8.53,1.31l-9.33,1.39-4.93.75a2.15,2.15,0,0,0-1.57,2.6,2.09,2.09,0,0,0,.4.82L71.32,236a3.2,3.2,0,0,1,1,3.17l-.51,3q-.51,3-1,6.09-1,6.15-2.14,12.56a2,2,0,0,0,.9,2.28,1.94,1.94,0,0,0,1.24.31,3.36,3.36,0,0,0,1.33-.5l5.89-3.1,12-6.33,1.54-.81a3.13,3.13,0,0,1,2-.24,8,8,0,0,1,1.69.76l1.5.79,6,3.15,11.66,6.12a2,2,0,0,0,2.33-.52,1.93,1.93,0,0,0,.51-1.14,6.37,6.37,0,0,0-.17-1.44c-.36-2.09-.71-4.17-1.06-6.22q-1.05-6.15-2-12c-.17-1-.34-2-.5-2.92a3.22,3.22,0,0,1,1.11-3.05l4.12-4,7.86-7.63,3.75-3.63a2.18,2.18,0,0,0,.29-3.07,2.21,2.21,0,0,0-.57-.49,7.66,7.66,0,0,0-2.22-.48l-2.36-.35-4.57-.67-8.49-1.27-3.9-.59c-.64-.08-1.28-.19-1.9-.33a2.91,2.91,0,0,1-1.57-1.25l-5.36-11-3.33-7-.84-1.83a3,3,0,0,1-.26-.65,3.16,3.16,0,0,1,.35.59l.94,1.78,3.52,6.9,5.5,10.92a2.34,2.34,0,0,0,1.24,1c.5.14,1.2.19,1.81.29l3.9.55,8.5,1.19,4.57.65,2.37.33a8.09,8.09,0,0,1,2.51.56,3,3,0,0,1,1.52,2.33,3,3,0,0,1-1,2.61L127.19,225l-7.83,7.66-4.1,4a2.18,2.18,0,0,0-.82,2.18c.17,1,.33,1.94.5,2.92q1,5.88,2.09,12,.52,3.07,1.07,6.22a7.08,7.08,0,0,1,.18,1.72,3,3,0,0,1-.77,1.74,3.11,3.11,0,0,1-3.55.79l-11.75-6.16-6-3.14-1.5-.8a6.79,6.79,0,0,0-1.42-.66,2,2,0,0,0-1.33.15l-1.5.79-12,6.33-5.89,3.09a4.33,4.33,0,0,1-1.74.62,3,3,0,0,1-1.89-.47,3.15,3.15,0,0,1-1.38-3.37l2.2-12.54c.36-2.05.71-4.07,1.06-6.08.17-1,.34-2,.51-3a2.17,2.17,0,0,0-.68-2.28L54.47,220.84a3,3,0,0,1-.49-2.91A3,3,0,0,1,56.14,216l5-.73L70.49,214l8.44-1.21a2.26,2.26,0,0,0,1.33-1.05l.87-1.72,1.67-3.33,5.5-10.95,2-4A2.72,2.72,0,0,1,93.07,190a2.59,2.59,0,0,1,1.8.93A1.78,1.78,0,0,1,95.2,191.6Z" transform="translate(-0.53 197.66)" fill="#263238"/></g></g><g id="Group_10974" data-name="Group 10974"><circle id="Ellipse_3234" data-name="Ellipse 3234" cx="92.29" cy="429.16" r="91.75" fill="#fff"/><g id="Group_10973" data-name="Group 10973"><path id="Path_10397" data-name="Path 10397" d="M184.57,231.5s-.06-.5-.13-1.49-.15-2.46-.27-4.35l-.19-3.21c-.12-1.18-.37-2.45-.58-3.84l-.7-4.46a49.83,49.83,0,0,0-1.2-5,87.61,87.61,0,0,0-10.15-24.35,91.28,91.28,0,0,0-23.24-25.93l-4-2.94c-1.39-.91-2.85-1.74-4.3-2.63s-2.87-1.86-4.46-2.58l-4.74-2.27-2.41-1.15-2.53-.92-5.13-1.86c-1.75-.57-3.57-1-5.38-1.44a47.53,47.53,0,0,0-5.53-1.25,84.43,84.43,0,0,0-11.54-1.33c-2-.07-4-.26-6-.23l-6,.31c-1,.07-2,.06-3.05.2l-3,.47c-2,.33-4.1.57-6.14,1a97.49,97.49,0,0,0-12.17,3.58,92.56,92.56,0,0,0-11.9,5.23c-1.92,1-3.77,2.26-5.68,3.39-.93.6-1.93,1.11-2.82,1.78l-2.69,2A104.36,104.36,0,0,0,28.31,167l-4.64,5.09L22.5,173.4l-1.05,1.38-2.09,2.8-2.09,2.81-1.84,3-1.83,3-.92,1.51-.79,1.6L8.8,196c-.83,2.24-1.65,4.49-2.48,6.76a90.42,90.42,0,0,0,0,57.56L8.8,267l3.09,6.43.78,1.6.92,1.51,1.84,3,1.83,3,2.1,2.81,2.09,2.79,1.05,1.39,1.16,1.29L28.3,296a104.46,104.46,0,0,0,10.35,8.79l2.69,2c.89.67,1.88,1.19,2.82,1.78,1.91,1.14,3.75,2.35,5.68,3.4a100.35,100.35,0,0,0,24.08,8.8c2,.42,4.11.66,6.14,1l3,.47c1,.13,2,.13,3.05.19l6,.32c2,0,4-.17,6-.23a84.45,84.45,0,0,0,11.54-1.34,45.57,45.57,0,0,0,5.53-1.25c1.8-.49,3.63-.86,5.38-1.44l5.14-1.87,2.53-.92,2.41-1.15,4.74-2.27c1.58-.72,3-1.74,4.46-2.58s2.91-1.72,4.29-2.63l4-2.94a91.28,91.28,0,0,0,23.24-25.93,87.19,87.19,0,0,0,10.15-24.35,47.66,47.66,0,0,0,1.2-5l.7-4.47c.21-1.38.46-2.66.58-3.83l.19-3.21c.11-1.89.2-3.34.27-4.36s.13-1.49.13-1.49,0,.51,0,1.49-.09,2.47-.16,4.37c0,1-.09,2-.14,3.22s-.33,2.46-.53,3.85-.42,2.89-.66,4.49a48.39,48.39,0,0,1-1.16,5,86.94,86.94,0,0,1-10,24.55,91.22,91.22,0,0,1-23.3,26.23l-4,3c-1.39.92-2.86,1.77-4.33,2.67s-2.89,1.88-4.48,2.61L131,315.31l-2.43,1.16-2.56.94-5.18,1.91c-1.76.58-3.6,1-5.42,1.46a46.91,46.91,0,0,1-5.58,1.28,84.5,84.5,0,0,1-11.66,1.38c-2,.07-4,.27-6,.24l-6.08-.3c-1-.07-2.06-.06-3.08-.2l-3.08-.46c-2-.34-4.15-.58-6.21-1a97.57,97.57,0,0,1-12.32-3.59,96.2,96.2,0,0,1-12-5.27c-2-1.06-3.82-2.28-5.75-3.43-.94-.6-2-1.12-2.85-1.8l-2.72-2a101.7,101.7,0,0,1-10.46-8.87l-4.7-5.16-1.18-1.3-1.06-1.4L18.51,286l-2.13-2.83-1.86-3-1.86-3.06-.93-1.53L10.94,274,7.8,267.45l-2.5-6.83a91.3,91.3,0,0,1,0-58.25l2.5-6.83L10.94,189l.79-1.61.93-1.53,1.86-3.06,1.86-3L18.5,177l2.12-2.83,1.06-1.39,1.18-1.3,4.7-5.17A104.29,104.29,0,0,1,38,157.39l2.72-2c.9-.67,1.91-1.2,2.85-1.8,1.93-1.14,3.8-2.37,5.76-3.43a101.25,101.25,0,0,1,24.36-8.85c2.06-.42,4.15-.67,6.21-1l3.08-.47c1-.13,2-.12,3.08-.19l6.1-.3c2,0,4,.17,6,.24a84.54,84.54,0,0,1,11.65,1.38,48,48,0,0,1,5.58,1.27c1.82.5,3.66.89,5.42,1.47l5.19,1.91,2.55.94,2.43,1.16,4.78,2.31c1.59.73,3,1.76,4.48,2.62s2.93,1.75,4.33,2.66l4,3a91.43,91.43,0,0,1,23.3,26.21,87,87,0,0,1,10,24.56,47.63,47.63,0,0,1,1.16,5c.24,1.6.46,3.1.67,4.49s.42,2.67.53,3.85.09,2.26.13,3.22c.08,1.9.13,3.35.17,4.37S184.57,231.5,184.57,231.5Z" transform="translate(-0.53 197.66)" fill="#e8505b"/></g></g></g><g id="Group_10977" data-name="Group 10977"><path id="Path_10398" data-name="Path 10398" d="M95.2,191.6l9.94,20.14a2.61,2.61,0,0,0,2,1.42l22.23,3.23a2.58,2.58,0,0,1,1.43,4.4l-16.08,15.68a2.61,2.61,0,0,0-.75,2.29l3.8,22.14a2.59,2.59,0,0,1-3.75,2.73L94.09,253.17a2.63,2.63,0,0,0-2.41,0L71.8,263.64a2.59,2.59,0,0,1-3.75-2.73l3.8-22.13a2.62,2.62,0,0,0-.74-2.29L55,220.81a2.59,2.59,0,0,1,1.43-4.41l22.23-3.23a2.6,2.6,0,0,0,1.95-1.41l9.94-20.15a2.58,2.58,0,0,1,4.63,0Z" transform="translate(-0.53 197.66)" fill="#fafafa"/><g id="Group_10976" data-name="Group 10976"><path id="Path_10399" data-name="Path 10399" d="M95.2,191.6s-.12-.21-.43-.53a2.5,2.5,0,0,0-3.54-.11,2.38,2.38,0,0,0-.62.92l-1.94,4-5.33,11-1.62,3.33L80.85,212a2.88,2.88,0,0,1-1.72,1.38c-2.77.48-5.54.85-8.53,1.31l-9.33,1.39-4.93.75a2.15,2.15,0,0,0-1.57,2.6,2.09,2.09,0,0,0,.4.82L71.32,236a3.2,3.2,0,0,1,1,3.17l-.51,3q-.51,3-1,6.09-1,6.15-2.14,12.56a2,2,0,0,0,.9,2.28,1.94,1.94,0,0,0,1.24.31,3.36,3.36,0,0,0,1.33-.5l5.89-3.1,12-6.33,1.54-.81a3.13,3.13,0,0,1,2-.24,8,8,0,0,1,1.69.76l1.5.79,6,3.15,11.66,6.12a2,2,0,0,0,2.33-.52,1.93,1.93,0,0,0,.51-1.14,6.37,6.37,0,0,0-.17-1.44c-.36-2.09-.71-4.17-1.06-6.22q-1.05-6.15-2-12c-.17-1-.34-2-.5-2.92a3.22,3.22,0,0,1,1.11-3.05l4.12-4,7.86-7.63,3.75-3.63a2.18,2.18,0,0,0,.29-3.07,2.21,2.21,0,0,0-.57-.49,7.66,7.66,0,0,0-2.22-.48l-2.36-.35-4.57-.67-8.49-1.27-3.9-.59c-.64-.08-1.28-.19-1.9-.33a2.91,2.91,0,0,1-1.57-1.25l-5.36-11-3.33-7-.84-1.83a3,3,0,0,1-.26-.65,3.16,3.16,0,0,1,.35.59l.94,1.78,3.52,6.9,5.5,10.92a2.34,2.34,0,0,0,1.24,1c.5.14,1.2.19,1.81.29l3.9.55,8.5,1.19,4.57.65,2.37.33a8.09,8.09,0,0,1,2.51.56,3,3,0,0,1,1.52,2.33,3,3,0,0,1-1,2.61L127.19,225l-7.83,7.66-4.1,4a2.18,2.18,0,0,0-.82,2.18c.17,1,.33,1.94.5,2.92q1,5.88,2.09,12,.52,3.07,1.07,6.22a7.08,7.08,0,0,1,.18,1.72,3,3,0,0,1-.77,1.74,3.11,3.11,0,0,1-3.55.79l-11.75-6.16-6-3.14-1.5-.8a6.79,6.79,0,0,0-1.42-.66,2,2,0,0,0-1.33.15l-1.5.79-12,6.33-5.89,3.09a4.33,4.33,0,0,1-1.74.62,3,3,0,0,1-1.89-.47,3.15,3.15,0,0,1-1.38-3.37l2.2-12.54c.36-2.05.71-4.07,1.06-6.08.17-1,.34-2,.51-3a2.17,2.17,0,0,0-.68-2.28L54.47,220.84a3,3,0,0,1-.49-2.91A3,3,0,0,1,56.14,216l5-.73L70.49,214l8.44-1.21a2.26,2.26,0,0,0,1.33-1.05l.87-1.72,1.67-3.33,5.5-10.95,2-4A2.72,2.72,0,0,1,93.07,190a2.59,2.59,0,0,1,1.8.93A1.78,1.78,0,0,1,95.2,191.6Z" transform="translate(-0.53 197.66)" fill="#263238"/></g></g></g></g></g></g></svg>